<svg xmlns="http://www.w3.org/2000/svg" width="25" height="24" fill="none"><path stroke="#BDBDBD" stroke-linecap="round" stroke-width="2" d="M22.72 3.241c.573-.382.026.03-.247.186-.793.457-1 1.048-1.477 1.792-.603.943-1.105 1.718-2.056 2.337-.66.43-.975 1.17-1.583 1.679-.784.654-.969 1.604-1.644 2.283-1.099 1.105-2.87 1.886-4.138 2.842-1.853 1.398-3.945 2.588-5.986 3.7-1.246.677-3.104 1.827-3.9 2.985"/><path stroke="#BDBDBD" stroke-linecap="round" stroke-width="2" d="M10.935 4.906c2.613.365 5.085-.98 7.699-.689 1.06.119 2.178-.04 3.249.001.41.016 1.32-.233 1.693-.094.225.084-.592 1.64-.644 1.798-1.025 3.105-1.157 6.687-1.61 9.928"/></svg>