<svg xmlns="http://www.w3.org/2000/svg" width="450" height="286" fill="none"><g fill="#00A86A" clip-path="url(#a)"><path d="M444.46 116.42c-2.74-20.78-5.81-41.66-12.12-61.71-3.54-11.24-8.13-22.16-14.16-32.31-4.81-8.09-10.61-15.76-19.5-19.56-17.19-7.34-37.11.83-51.97 9.81-1.16.7-.57 2.08.46 2.47-.56.27-1.1.56-1.63.89-5.15 3.2-7.57 8.63-7.6 14.58-.07 12.77 6.3 27.35 13.9 37.37 6.22 8.2 18.22 18.22 29.46 15.91.18.12.4.2.68.22 7.64.55 14.9-2.01 20.45-6.68 6.53 15.71 11.45 32.02 14.49 48.77 2.87 15.8 5.21 33.2-2.98 47.85-.94 1.68 1.85 2.8 2.78 1.13 8.13-14.53 6.23-31.79 3.51-47.54-3.12-18.01-8.36-35.58-15.44-52.42a28.8 28.8 0 0 0 7-12.52c.49-1.86-2.49-2.22-2.98-.38-.99 3.75-2.84 7.12-5.29 9.94l-.09-.21c-.77-1.77-3.53-.58-2.75 1.2.19.44.37.88.55 1.32-3.89 3.47-8.79 5.78-14.04 6.43 3.32-3.08 4.88-7.97 6.03-12.33 1.88-7.12 2.17-14.7.85-21.95-2.8-15.36-12.79-28.24-26.43-35.58-1.01-.55-1.82.23-1.94 1.13-.35-.41-.77-.59-1.56-.61-.82-.02-1.54.42-1.67 1.28-2.45.35-6.86-.15-8.46.1-1.13.18-2.25.43-3.35.75 11.73-6.8 25.75-12.38 39.41-10.28 17.35 2.67 26.18 19.67 32.7 34.22 13.65 30.5 17.22 64.83 21.1 97.69 2 16.92 3.4 34.06 1.59 51.06-1.64 15.42-5.65 31.96-16.29 43.79-9.06 10.07-22.48 13.26-34.04 7.73 7.75-2.81 14.29-10.29 17.07-18.2 3.94-11.24 7.12-31.33-2.65-40.95 11.55 2.53 20.07 13.64 19.07 25.63-.16 1.92 2.82 2.31 2.98.38 1.2-14.35-9.56-27.66-23.89-29.36-.73-.09-1.23.29-1.48.8-13.69-8.22-27.18 9.3-30.3 21.23-3.5 13.37-.24 27.97 9.56 37.34-.48.16-.95.31-1.43.45a14.85 14.85 0 0 1-3.88-1.86c-1.59-1.08-3.4 1.31-1.8 2.4.41.28.82.52 1.23.77-17.9 4.84-36.78 5.54-54.97 1.58-2.9-.63-6.38-1.59-9.98-2.88 5.22-7.84 7.5-17.34 4.59-27.17-2.43-8.22-9.79-16.84-19.23-13.51-7.91 2.79-12.9 12.36-11.77 20.46 1.45 10.39 11.17 17.4 20.1 21.24.49.21.99.41 1.49.61-9.94 12.59-26.93 16.63-42.92 14.64-5.96-.74-12.32-2.07-18.18-4.33 1.19-2.19 2.08-4.56 2.57-7.16 1.36-7.23-.48-18-8.23-21.24-7.51-3.13-13.72 6.23-13.66 12.7.08 8.48 7.64 13.76 15.04 17.03-3.95 5.42-10.15 9.17-16.18 11.92-9.19 4.19-19.02 7.11-28.54 10.46-10.07 3.54-20.12 7.26-30.53 9.7-18.76 4.4-39.51 3.62-53.72-10.98-2.8-2.87-5.19-6.28-6.83-10 2.26-.07 4.47-.28 6.59-.67 9.03-1.67 16.64-8.16 16.74-17.83.09-8.37-7.28-14.81-15.56-11.98-8.51 2.91-13.55 12.56-13.06 21.17.12 2.09.47 4.12 1.01 6.09-3.88-.37-7.72-1.19-11.27-2.15-14.61-3.94-31.7-14.09-33.86-30.48 7.28-.42 19.5-2.82 17.2-11.25-2.07-7.59-11.67-8.96-16.57-3.42-2.88 3.26-3.95 7.44-3.86 11.73-3.51-.09-7-.65-10.38-1.62-18.09-5.24-30.38-20.46-35.79-38-2.79-9.06-3.98-18.53-4.19-27.99-.14-6.22-.21-13.01 1.23-19.29 5.81 6.53 15.61 10.34 23.57 5.28 6.71-4.27 10.54-14.14 4.99-20.84-5.53-6.68-16.28-5.59-22.6-.72-3.19 2.46-5.38 5.71-6.88 9.32-1.55-3.13-2.51-6.57-2.82-9.87-.92-9.7 1.71-19.89 5.06-28.94 6.71-18.12 21.63-35.15 42.28-35.73 1.63-.05 3.35.07 5.08.34-.1.47-.2.93-.28 1.41-1.18 7.86 3.06 17.43 10.76 20.44 2.38.93 6.53 1.73 8.55-.22 2.98-2.86 1.37-9.53-.2-12.56-3.5-6.74-8.84-10.4-14.93-11.84 5.34-11.61 24.57-16.39 35.78-17.3 15.01-1.22 31.12 1.58 43.65 10.32.8.56 1.58 1.14 2.34 1.75-1.09 2.86-1.17 6.05.17 9.34 2.31 5.69 7.95 9.69 13.91 6.8.78-.38.85-1.36.54-2.05-2.67-5.92-6.49-10.86-11.09-14.9 2.51-4.09 7.72-6.54 12.01-7.89 9.6-3.02 20.32-3.75 30.32-3.29 10.01.46 20.34 2.51 29.01 7.76 4.33 2.62 8.15 6.06 11 10.25l.12.18c-2.62 1.58-5.01 3.48-6.9 5.82-3.08 3.82-6.08 10.06-3.08 14.78 3.18 4.99 10.03 4.35 13.9.63 5.49-5.27 3.61-13.69.49-19.67-.06-.12-.14-.23-.2-.35 1.45-.7 2.94-1.33 4.42-1.89 10.52-4 22.21-4.7 33.18-2.28 10.73 2.36 21.9 7.95 28.92 16.68-5.55.36-11.12 2.95-13.88 7.92-6.12 11.05 6.76 24.85 17.14 15.29 6.58-6.07 6.03-13.22 2.43-19.73.02 0 .04 0 .06.01 6.98 1.7 12.7 7.06 17.19 12.42 9.1 10.85 15.43 26.58 8.64 40.15-.86 1.72 1.73 3.24 2.59 1.51 7.68-15.36.52-32.91-10.11-44.94-5.33-6.03-12.28-11.69-20.57-12.57-4.16-5.69-10.26-10.59-15.2-13.38-13.9-7.86-31.06-9.84-46.42-5.54-3.31.93-6.76 2.11-9.98 3.71-7.16-10.84-19.78-16.54-32.36-18.66-8.54-1.44-17.28-1.51-25.88-.6-8.1.85-17.05 2.06-23.93 6.74-2.09 1.42-3.84 3.17-5.1 5.13-9.98-7.78-23.02-11.75-35.81-12.56-15.62-.98-43.41 2.64-50.19 19.89-13.67-1.66-30.12 6.53-38.5 15.95C9.74 74.88 4.7 86.83 1.91 98.97c-2.42 10.53-3.34 22.66 2.74 32.04-1.35 4.88-1.78 10.12-1.93 14.88-.76 24.25 4.53 51.78 24.84 67.41 8.19 6.31 18.32 10.44 28.74 10.62.51 3.67 1.75 7.28 3.34 10.3 7.91 15.02 28.08 24.85 45.84 25.48 2.44 6.22 6.81 11.67 12.07 15.86 21.74 17.33 50.19 9.75 73.98 1.49 12.98-4.51 26.54-8.41 39-14.26 6.48-3.04 12.7-7.27 16.72-13.05.94.36 1.86.69 2.74.99 11.77 3.99 24.71 5.77 36.98 3.26 9.85-2.02 19.36-7.91 25.73-15.93 10.54 3.79 22.11 5.41 33.18 5.7 12.92.34 25.78-1.49 38.12-5.26 2.3.65 4.6.81 6.85.54.35.22.69.43 1.05.64 14.3 8.22 30.43 3.5 40.66-8.7 12.08-14.42 15.73-34.63 16.56-52.89.95-20.64-1.93-41.23-4.62-61.65l-.04-.02ZM359.79 15.64c2.23.05 4.15.67 5.97-.83.29-.24.5-.63.56-1.02.06.04.12.09.18.12 13.71 7.37 23.31 20.92 25.08 36.47.93 8.18-.09 17.48-3.88 24.91-4.98 9.75-16.79 5.2-23.71.39-11.58-8.06-18.16-21.84-21.55-35.18-2.05-8.07-2.94-17.96 5.66-22.5 3.52-1.86 7.75-2.45 11.68-2.36h.01ZM299.05 85.8c-6.28 5.64-13.82.03-13.56-7.46.26-7.5 7.88-10.8 14.57-10.61 3.44 5.71 4.53 13.09-1.01 18.07Zm-70.07-15.69c-3.59 3.4-9.79 2.48-9.99-3.06-.08-2.41 1.23-4.92 2.51-6.86 1.85-2.8 4.41-4.89 7.25-6.57 2.83 5.2 4.81 12.14.22 16.49h.01Zm-76.54-11.28c-5.73 1.38-10.07-6.64-9-11.67.02-.11.06-.21.09-.31 3.66 3.42 6.65 7.46 8.91 11.98Zm-79.51 7.82c.55 2.77 0 5.5-3.02 5.87-1.73.21-3.88-1.01-5.25-1.99-3.3-2.37-5.43-6.3-6.25-10.21-.53-2.51-.51-4.81-.09-6.93 6.81 1.76 13.18 6.06 14.6 13.26h.01ZM9.69 126.22c3.96-7.4 15.55-13.78 22.83-6.56 7.18 7.12-1.37 18.83-9.89 18.95-6.35.09-11.36-3.4-14.73-8.26.49-1.42 1.07-2.81 1.79-4.14v.01Zm53.12 84.19c4.76-4.32 14.14 1.24 9.25 6.58-2.67 2.92-9.09 3.65-13.04 3.85-.02-3.74.98-7.88 3.79-10.44v.01Zm43.52 37.21c.5-7.83 9.69-20.74 18.67-14.79 8.69 5.76 2.24 18.28-5.06 21.59-3.86 1.75-8.14 2.33-12.46 2.22-.91-2.91-1.35-5.95-1.15-9.03v.01Zm134.05-4.51c-3.94-2.55-7.89-6.56-7.99-11.55-.09-4.58 3.61-11.12 8.9-9.83 8.28 2.02 8.3 14.94 6.15 21.16-.39 1.14-.89 2.22-1.45 3.25-1.96-.89-3.85-1.88-5.61-3.02v-.01Zm52.7-38.2c1.81-3.44 4.89-6.75 8.78-7.72 6.02-1.48 10.8 3.34 13.18 8.36 3.74 7.88 2.65 17.19-1.1 24.84-.66 1.35-1.4 2.62-2.18 3.83-13.08-5.28-26.25-14.9-18.68-29.32v.01Zm98.23 30.9c-.91-.62-1.8-1.29-2.67-2.02-13.09-11.11-14.51-32.21-5.24-46.22 4.92-7.43 15.37-14.18 23.43-7.08 5.96 5.26 6.26 15.04 5.64 22.35-.73 8.64-2.44 18.16-8 25.11-3.24 4.05-8.1 7.05-13.17 7.86h.01Z"/><path d="M373.641 40.34c-.81.04-1.5.66-1.5 1.5v.67c0 .78.69 1.54 1.5 1.5.81-.04 1.5-.66 1.5-1.5v-.67c0-.78-.69-1.54-1.5-1.5Zm-8.671-2c-1.93 0-1.93 3 0 3s1.93-3 0-3Zm-1.33 6.67h-.67c-.78 0-1.54.69-1.5 1.5.04.81.66 1.5 1.5 1.5h.67c.78 0 1.54-.69 1.5-1.5-.04-.81-.66-1.5-1.5-1.5Zm3.33 4.67c-1.93 0-1.93 3 0 3s1.93-3 0-3Zm6 2.66c-1.93 0-1.93 3 0 3s1.93-3 0-3Zm4.001-5.33c-.81.04-1.5.66-1.5 1.5v.67c0 .78.69 1.54 1.5 1.5.81-.04 1.5-.66 1.5-1.5v-.67c0-.78-.69-1.54-1.5-1.5Zm23.499 151.81c.25-.45.25-1 0-1.45-.06-.12-.13-.23-.21-.33v-.01l-.67-.67c-.57-.57-1.55-.57-2.12 0-.57.57-.57 1.55 0 2.12l.67.67s.01 0 .02.01c.24.26.59.43 1.05.43.46 0 .8-.17 1.04-.43 0 0 .01 0 .02-.01v-.01c.09-.1.15-.2.21-.32h-.01Zm.05 3.1c-.81.04-1.5.66-1.5 1.5v.67c0 .78.69 1.54 1.5 1.5.81-.04 1.5-.66 1.5-1.5v-.67c0-.78-.69-1.54-1.5-1.5Zm-2 6c-1.93 0-1.93 3 0 3s1.93-3 0-3Zm-2.94.44-.67-.67c-.57-.57-1.55-.57-2.12 0-.57.57-.57 1.55 0 2.12l.67.67c.57.57 1.55.57 2.12 0 .57-.57.57-1.55 0-2.12Zm-3.06-5.77c-1.93 0-1.93 3 0 3s1.93-3 0-3Zm1.33-5.33c-.81.04-1.5.66-1.5 1.5v.67c0 .78.69 1.54 1.5 1.5.81-.04 1.5-.66 1.5-1.5v-.67c0-.78-.69-1.54-1.5-1.5Z"/></g><defs><clipPath id="a"><path fill="#fff" d="M0 0h449.27v286H0z"/></clipPath></defs></svg>