<svg xmlns="http://www.w3.org/2000/svg" width="319" height="106" fill="none"><path stroke="#15CE79" stroke-linecap="round" stroke-width="3" d="M12 78c7.705-16.036 16.332-28.219 31.666-37.444C51.736 35.7 62.671 30.11 72.444 30.11c4.019 0 5.251 3.393 7.778 5.667.666.6.927-.99 1-1.222.85-2.708 2.327-4.994 4.333-7 10.448-10.449 31.163-11.234 44.056-5.445 2.497 1.122 18.199 13.261 19.944 10.722 3.884-5.65 6.765-12.454 12.667-16.389 8.762-5.84 21.86-7.51 32-8.833 8.556-1.116 16.364-1.9 21.555 5.945.351.53 4.149 7.407 4.778 6.777 4.08-4.08 5.93-8.416 11.334-11.555C242.173 2.803 252.356 2 264 2c13.485 0 26.213 2.409 37.777 9.778 9.015 5.744 12.444 15.65 14.112 25.778 1.602 9.73 2.49 21.622-1.612 30.888-5.092 11.507-17.56 21.264-28.277 27.334-21.593 12.229-49.953 7.257-73.223 4.222-20.323-2.65-41.528-1-62-1-22.955 0-45.825-1-68.777-1-16.432 0-32.757-2-49.222-2-5.355 0-11.019-.098-16.223-1.556-3.34-.935-7.18-.615-10.333-1.666C-.29 90.607 2.094 82.98 5.777 80c2.737-2.215 11.08-2.713 12.223-5"/></svg>