<svg xmlns="http://www.w3.org/2000/svg" width="359" height="111" fill="none"><path stroke="#00CF74" stroke-linecap="round" stroke-width="1.906" d="M10.113 35.727c0-12.3 3.794-18.292 13.612-25.1C32.812 4.324 40.413 2.97 50.613 2.97c37.89 0 75.721 1.13 113.627 1.13 47.855 0 107.615-6.975 155.029 0 10.561 1.554 22.018 5.182 28.575 14.935 5.371 7.99 9.274 25.993 10.156 35.832 0 25.477-66.291 31.752-90.092 31.752-28.616 0-59.687.896-88.199 0-6.524 24.125-35.572 22.441-35.572 22.441 28.206-33.258-51.361-28.716-72.205-28.716-14.94 0-27.83-.57-40.2-5.805C18.262 68.839 1 50.624 1 32.339"/></svg>