<svg xmlns="http://www.w3.org/2000/svg" width="359" height="482" fill="none"><path stroke="#4D4D4D" stroke-linecap="round" stroke-width="3" d="M227.891 74.017c-7.178 17.495 8.963 32.452 24.444 37.778 12.238 4.21 40.477 4.933 35.556-15.333-1.935-7.968-8.842-16.538-13-23.667-.656-1.123 8.478 4.406 10.111 5.222 7.447 3.724 15.28 6.101 23.667 6 10.076-.121 28.134-12.02 23.777-24-4.663-12.824-26.005-17.61-37.555-18.777-.923-.094-13.852-.046-13.722.277 1.443 3.61 12.584-5.807 13.5-6.722 9.786-9.786 10.774-26.42-4.445-31.555-15.675-5.29-41.4 7.028-44.111 24.11-.566 3.568.506 14.36-.278 10.834-1.363-6.136-3.758-10.583-9.166-14.167-9.684-6.416-39.297-16.032-42.556 3.223-2.259 13.347 19.029 20.306 28.778 23.555 1.266.422-.103-1.626-.222-1.778-1.723-2.186-4.452-2.942-7.056-3.5-8.755-1.876-15.462-1.997-22.722 3.5-9.915 7.507-11.585 22.71 1.222 28 12.559 5.188 23.771-4 35.778-4"/><path stroke="#4D4D4D" stroke-linecap="round" stroke-width="3" d="M265.891 46.017c-7.984.182-14.902 3.23-18.945 10.556-5.175 9.38 1.407 11.894 10 11.389 11.319-.666 22.904-18.945 6.945-18.945m-189.001 17c1.95-4.873 6.576-16.444-.555-19.5-7.308-3.132-15.067.522-17.444 8.278-.852 2.78-1 5.564-1 8.445 0 1.532-1.242-2.236-2.723-3.223-7.929-5.286-24.384-6.566-30.222 2.556-5.136 8.025.722 11.643 7.945 14.222 1.772.633 14.611.613 14.944 1.778.545 1.909-2.964 4.599-3.833 6-2.184 3.518-3.111 8.126-3.111 12.222 0 7.448 7.088 12.417 13.222 6.556 5.428-5.187 4.068-8.6 5.833-14.778.46-1.611 2.351 2.2 2.5 2.444 2.056 3.364 6.36 4.684 10 5.556 8.216 1.967 17.201-1.027 22.222-8 4.319-5.997-3.352-10.556-8.722-10.556-3.814 0 8.433.062 10.167-.222 4.926-.808 10.023-5.407 8.666-10.833-3.03-12.119-21.075.117-26.888 2.055"/><path stroke="#4D4D4D" stroke-linecap="round" stroke-width="3" d="M58.89 72.017c-3.542 9.92 8 10.871 8 2 0-7.116-7.23-2.615-6-2m165.001 19c-3.157 6.314-7.014 12.507-10.667 18.556-9.92 16.425-17.975 35.231-25.667 52.778-18.653 42.552-27.924 87.159-36.222 132.555-5.912 32.341-6.637 66.083-14.222 98.111-1.168 4.932-2.433 9.83-3.445 14.778-.749 3.664-.493 7.415-1.555 11-1.885 6.36-.966 13.368-2 20.222-1.153 7.636-.222 16.046-.222 23.778 0 3.782.011 13.276-2 4.222m-69.001-373c20.802 36.209 20.48 81.828 24 122.056 4.92 56.222 7 112.744 7 169.167 0 13.806.256 28.344-1.555 42.055-1.064 8.054-1.151 16.832-2.944 24.722-1.646 7.241-3.5 29.426-3.5 22m63 6c4.281-44.236 16.113-86.921 31.889-128.333 7.529-19.765 15.989-38.361 27.222-56.333 4.264-6.823 11.914-14.434 13.889-22.334"/><path stroke="#4D4D4D" stroke-linecap="round" stroke-width="3" d="M242.891 243.017c-9.897-2.199-22.455-6.971-31.445.111-4.08 3.216-8.586 8.61-10.111 13.667-3.23 10.711 16.122 10.363 22.556 8.778 1.432-.353 5.677-1.75 6.333-3.5.057-.151-6.302 4.964-7.333 6.167-5.278 6.157-14.89 24.666 1.056 24.666 10.443 0 18.055-12.471 24.444-19.333 1.68-1.805 6.33-4.829 6.5-7.556.155-2.484-1.994 4.608-2.445 7.056-.994 5.4-1.64 26.436 9.5 22.722 9.433-3.144 12.114-19.405 7.945-27.111-1.839-3.4-7.885-8.376-.778-7.444 10.318 1.353 17.344-5.175 18.556-15.778 1.523-13.332-19.481-6.582-24.556-2.445-1.211.988-6.111 4.493-6.111 6.389 0 3.545 3.663-6.118 4.889-9.444 2.875-7.803 3.371-21.657-8.5-20.778-3.732.276-6.82 4.83-8.056 8.056-.737 1.925.266 8.081-.5 6.166-1.556-3.89-5.579.081-5.889 2.556-.521 4.169 3.945 5.214 3.945 9.055"/><path stroke="#4D4D4D" stroke-linecap="round" stroke-width="3" d="M244.891 255.017c-3.591-1.134-5.615 2.01-6.778 5-.747 1.921 7.74.507 8.778-.444 5.6-5.134-.21-10.137-2-6.556m71.699-80.902c-9.077-2.625-18.399-5.401-26 2-6.669 6.494-3.486 11.392 4.944 13.389 3.433.813 7 .611 10.5.611 1.595 0 5.137-.922 2.556.444-9.045 4.789-13.422 16.285-11.389 26 2.067 9.876 12.846 12.127 19.944 5.889 3.73-3.277 7.112-7.092 8.889-11.777.181-.477 1.908-6.286 2.778-6.112 1.07.214 2.89 4.644 3.778 5.556 2.642 2.716 5.817 4.711 9.666 4.944 9.795.594 15.652-5.699 14.112-15.5-1.306-8.306-9.476-9.853-16.334-8.666-2.274.393-3.657 1.584-1-.222 3.887-2.643 8.251-6.28 10.389-10.556 3.67-7.339 1.334-14.765-5.611-18.778-7.387-4.268-12.813 2.505-15.611 8.722-.794 1.765-.803 8.252-1.667 3.5-.636-3.498-5.52-12.097-10.166-9-3.855 2.57-3.47 10.487-2.667 14.5 1.19 5.95 3.889 3.925 3.889-.944m-180.847-35.623c-1.259-4.644-2.126-14.135-7.96-15.766-5.233-1.463-9.407 3.607-10.918 8.057-1.886 5.56-.605 8.929 4.348 11.717 3.737 2.105 1.379.248-2.654 1.408-10.966 3.155-18.477 22.149-2.837 23.724 5.895.594 9.581-1.535 13.575-5.612.887-.906 3.016-5.952 3.436-3.618.889 4.944 10.248 10.178 15.173 9.01 4.759-1.129 6.532-4.979 6.978-9.404.411-4.083-1.775-6.839-5.118-9.058-5.047-3.35-.013-2.23 3.707-4.652 6.563-4.272 13.667-18.613.777-19.911-4.88-.492-19.134 14.237-15.722 16.395M30.033 210.908c-4.425-1.889-12.412-7.09-17.307-3.522-4.39 3.201-2.999 9.619-.442 13.562 3.194 4.926 6.633 6.008 11.89 3.849 3.968-1.63 1.05-.929-.54 2.955-4.319 10.561 5.934 28.227 16.863 16.928 4.119-4.259 4.732-8.471 4.007-14.133-.16-1.257-2.802-6.055-.71-4.938 4.43 2.366 14.339-1.736 16.474-6.325 2.063-4.435.14-8.212-3.057-11.304-2.95-2.853-6.468-2.845-10.28-1.597-5.758 1.886-1.76-1.371-1.354-5.792.714-7.798-6.14-22.261-15.146-12.948-3.41 3.525-.684 23.84 3.125 22.499m260.491 90.166c.601-8.189 4.162-22.186-6.111-26.389-8.303-3.396-13.77 4.32-16.889 10.834-3.581 7.477-1.609 17.04 6 21.389.278.158 6.556 1.936 6.556 1.166 0-.328-5.511-2.802-6.056-2.944-8.616-2.248-14.568 5.518-17.278 12.944-4.061 11.13 1.868 20.889 14.278 20.889 8.794 0 15.94-7.613 18.5-15.444 1.82-5.567-.849-8.484-1-1.667-.178 8.026 5.372 15.627 14 16.167 10.873.679 16-10.263 16-19.723 0-8.48-5.32-14.222-14-14.222-.239 0-4.966-.181-4.556.778.659 1.536 9.193-2.749 10-3.389 5.545-4.397 13.121-16.81 10.112-24.167-3.189-7.793-14.542-.852-17.556 3.334-3.784 5.256-5.974 12.663-10 17.444-1.607 1.908-1.328 5.493 1 2M237.563 144.17c-1.799 6.513-5.45 16.386 4.305 14.622 5.058-.915 6.5-5.961 6.102-10.467-.297-3.35-3.559-4.761-6.644-4.488-4.754.421-5.807 3.322-6.135 7.57"/><path stroke="#4D4D4D" stroke-linecap="round" stroke-width="3" d="M130.272 144.865c-2.592 5.638-5.872 11.811 2.185 13.23 6.068 1.069 10.279-2.286 11.328-8.239.566-3.217.504-7.424-3.084-8.742-2.232-.82-4.877-1.474-5.153 1.267m187.042 37.734c-3.612 2.494-9.604 8.39-6.334 13.444 4.003 6.187 13.028-.806 13.723-5.944 1.211-8.964-10.389-14.085-10.389-3.5m-29.7 122.902c-10.606 13.907 7.889 11.863 7.889 3.5 0-5.173-5.242-4.5-8.889-4.5M124.154 168.585c-11.518 20.714-23.021 40.901-31.283 63.174-1.629 4.391-7.646 15.649-4.978 20.523m147.809-93.893c-9.259 11.159-17.047 21.472-23.281 34.408-.929 1.928-2.545 8.278-3.986 9.164M44.89 236.017c7.709 10.866 17.3 21.683 24 33.223 1.757 3.025 2.335 7.557 4.778 10 3.325 3.324 4.164 8.178 7.223 11.777 2.081 2.449 2.333 6.979 3.222 10 .664 2.257 2.642 4.697 2.778 7 .252 4.298 0 8.696 0 13M39 211c-9.708-4.568-18.734 12.1-10 15.778C37.764 230.468 43.568 211 35 211"/></svg>