<svg xmlns="http://www.w3.org/2000/svg" width="178" height="361" fill="none"><path stroke="#4D4D4D" stroke-linecap="round" stroke-width="3" d="M3 173.112c3.662 54.469 2.468 109.099 2.468 163.698 0 1.513-.064 7.394 0 6.439.213-3.192 4.787-2.466 6.856-2.466 16.958 0 31.603 12.329 48.676 12.329"/><path stroke="#4D4D4D" stroke-linecap="round" stroke-width="3" d="M60 353.112c0-19.755-.454-39.593-1.74-59.296-1.513-23.162-5.282-47.103-3.997-70.331.613-11.094 1.882-21.846 2.256-32.972.079-2.343 1.16-9.268 1.16-6.924v6.649M59 187.112c21.057-8.382 42.735-17.268 61.25-30.136 5.036-3.499 11.224-5.522 16.25-9.054 3.515-2.47 7.944-5.81 12.5-5.81"/><path stroke="#4D4D4D" stroke-linecap="round" stroke-width="3" d="M14 180.112c13.551.205 26.724 4.411 40.152 6.226 1.851.25 11.228 1.565 8.279.07"/><path stroke="#4D4D4D" stroke-linecap="round" stroke-width="3" d="M60 186.112c-5.128 5.039-9.745 13.067-15.278 17.2-4.302 3.213-7.012 10.26-11.597 12.763-1.039.568-5.05-5.696-6.25-6.689-3.285-2.719-6.612-5.248-9.93-7.917-3.026-2.433-5.258-8.356-6.945-11.672m-8-19.685c12.327-1.093 22.766-9.725 34.015-13.884 9.36-3.462 19.88-5.377 28.76-9.706 4.763-2.321 10.465-3.675 15.003-6.133.847-.459 7.575-3.389 4.356-1.82M108 137.112c-.385 6.256-11.303 10-17 10m16-20c13.708 0 28.641.269 41.548 4.857 4.086 1.452 6.609 3.643 11.112 3.643 1.551 0-2.636 1.599-3.934 2.428-3.49 2.231-6.85 3.331-10.214 6.072m9.488-5c0 18.409 5 36.25 5 54.607v49.12c0 13.639-2.5 27.031-2.5 40.75v18.523"/><path stroke="#4D4D4D" stroke-linecap="round" stroke-width="3" d="M63 359.112c14.168-3.942 26.833-14.555 38.899-22.611 11.233-7.5 22.531-13.189 32.925-21.706 5.51-4.515 11.634-8.497 16.948-13.288 2.509-2.261 8.823-5.867 2.501-3.757M87.5 148.111c.39-33.168 2.5-66.333 2.5-99.5 0-2.891-2.214-21 3.278-21 4.086 0 7.938-3.298 11.972-4 4.316-.75 8.313-2.084 12.25-4 4.728-2.3 9.826-3.292 14.722-5.11 5.001-1.858 9.895-3.724 15.167-4.778 6.439-1.288 12.839-3.935 18.861-6.612 1.422-.632-.575 2.04-.75 3-.478 2.627-1 5.294-1 7.973 0 4.503 4.36 4.966 6.972 2.027 2.536-2.852 4.426-7.67 4-11.5-.295-2.652-6.127-3.517-7.472-1.5"/><path stroke="#4D4D4D" stroke-linecap="round" stroke-width="3" d="M162.5 21.112c-8.7 0-17.384 2.71-25.834 4.61-6.583 1.482-12.86 3.95-19.194 6.167-1.307.458-13.3 5.894-12.972 6.223m-7.5-3.5c1.723 4.785 3.019 4.5 7.5 4.5"/><path stroke="#4D4D4D" stroke-linecap="round" stroke-width="3" d="M104 37.612c0 5.13 1 10.133 1 15.194 0 5.349-.218 10.72.389 16.028.728 6.367-.237 12.911.139 19.305.418 7.117.972 14.226.972 21.361v29.612m8.5 121.19c-10.513.078-19.081.84-29 4.612-4.525 1.72-10 7.141-10 12.388 0 3.198 2.712 7.348 5.972 8 5.538 1.108 10.881 1 16.528 1 5.859 0 13.095-.07 18.222-3 .619-.353 1.132-.769 1.778-1.111 1.21-.64.157-.611-.528-1.639-1.212-1.817-6.34-4.014-6.472-6.25-.157-2.664 6.248.299 7.5.612 2.581.645 5.113 1.388 7.75 1.388 2.529 0 3.506.827 6.028-.777 2.002-1.275 5.722-2.567 5.722-5.223 0-5.994-7-8-11.75-9-6.25-.983-8.339-.983-13.25-.983m5 22.483c0 2.774-.701 5.416-.472 8.278.086 1.08.535 6.596.972 5.722"/><path stroke="#4D4D4D" stroke-linecap="round" stroke-width="3" d="M131.905 276.802c0 3.501.603 6.461.932 9.859.053.545.453 5.728-.239 5.931-2.383.702-6.988-.535-9.324-1.071-1.836-.42-3.384-.878-5.274-.878m1 8.159c-3.643 5.061-14.52 3.894-20 4.75-7.374 1.153-13.656.745-20.278-2.75-4.271-2.254-2.222-6.153-2.222-10.25v-11.75"/><path stroke="#4D4D4D" stroke-linecap="round" stroke-width="3" d="M132 294.302c3.378 0 4.377-3.007 7-4.611 1.187-.725.5-5.222.5-6.389 0-2.379-.5-4.598-.5-7 0-1.84.236-4.894-2-4m-16.75-26.375c1.686.843 3.322 1.742 5.049 2.5.954.419 1.889 1.002 2.889 1.306 1.266.385 2.449.703 3.562 1.444m0-.25c.315-1.38-.295-2.814-.472-4.194-.142-1.102-.427-2.188-.625-3.278a18.422 18.422 0 0 1-.278-3.153m0-1.125c2.342-1.321 4.973-2.146 7.472-3.125.354-.138 2.564-.642 2.403-1.125"/><path stroke="#4D4D4D" stroke-linecap="round" stroke-width="3" d="M140.125 235.052c0 2.785.25 5.535.25 8.32 0 .849-.125 1.691-.125 2.528 0 .496.243 1.277-.375 1.277"/><path stroke="#4D4D4D" stroke-linecap="round" stroke-width="3" d="M140 246.927c-1.815 1.435-3.94 2.144-5.875 3.375-.408.26-.837.618-1.25.848-.301.167-.303.545-.625.652m-15.25-16.5c2.783 1.312 5.636 2.618 8.625 3.375.742.189 1.523.339 2.25.57.471.15.871.43 1.375.43m-10.875-6.625c2.987-.249 5.857.45 8.813.82 2.122.265 4.181.305 6.312.305 2.313 0 4.558.625 6.875.625"/><path stroke="#4D4D4D" stroke-linecap="round" stroke-width="3" d="M117.125 233.302c0 1.479.248 3.023.625 4.459.334 1.272.488 2.604.875 3.861.395 1.282.945 2.971.5 4.305M71 199.5c0 2.582 1.366 13.567-.5 14.5"/><path stroke="#4D4D4D" stroke-linecap="round" stroke-width="3" d="M70.5 201c.113-1.923 3.16-5.266 4.5-2.25.917 2.063.6 4.727-.778 6.5-.395.508-2.049 1.75-1.722 1.75 1.338 0 2.144-.078 3 1.111.726 1.008 4.279 2.5 3.5 2.889m3.5-15v8.028c0 .763.44 5.593 1 4.472M94 190c-1.795 1.901-4.5 5.095-4.5 7.75 0 1.496 3.185.243 3.472 2.25.258 1.803.425 5.041-.472 6.611-.345.604-2.5 4.458-2.5 1.889m9-20c.756 1.702 1.675 13.663 0 14.5m7-17.5c0 2.922-.949 5.398-2.25 8-.289.578-2.701 3.5-1.5 3.5 1.361 0 3.979-.449 4.639 1.111.463 1.095 1.111 4.578 1.111 3.389m7.5-12c2.692-1.189 4.829-3.323 7.75-3.972 1.665-.37 3.923-.528 5.639-.528 3.388 0 6.046 6.075 6.111 8.889.191 8.194 0 16.414 0 24.611 0 2.737-1.33-.83-2.5-2-.451-.451-.851-1.02-1.278-1.5-.23-.259-.109-1.444-.472-1.444-.448 0 .975 2.617 1.139 2.944.383.767 3.122 4.579 3.722 3.5.924-1.662 1.948-3.767 3.139-5.222.321-.392 1.632-1.778 1.25-1.778"/></svg>