<svg xmlns="http://www.w3.org/2000/svg" width="39" height="32" fill="none"><path stroke="#15CE79" stroke-linecap="round" stroke-width="2" d="M2.284 10.655c6.014-.476 12.28-1.1 18.24-.063 2.014.35 4.285.063 6.315.063 1.825 0 3.674.096 5.497 0 .733-.039 3.686-.7 3.686-.992 0-1.23.066-2.334-.346-3.481-.865-2.4-3.876-2.898-6.175-2.898-2.788 0-5.718-.284-8.568-.284-1.541 0-2.962.284-4.505.284-2.29 0-4.8-.231-6.994.567C5.89 5.14 3.197 6.78 2 10.37m1.418 6.764c.733-.163 1.067-.85 1.985-.85.696 0 1.105.015 1.7.346.905.502 2.804 2.093 3.97 1.575 1.053-.468 1.96-1.438 3.087-1.575 2.499-.303 4.01.664 6.269 1.292.732.203 1.23.474 1.985.204.598-.213 1.674-.675 2.268-.708 2.23-.124 3.825 1.417 5.954 1.417 1.481 0 2.326-.402 3.402-1.417.817-.773 1.907-.954 2.835-1.418M3.312 24.728c1.516-1.2 6.002-.555 7.72-.555h23.909c1.772 0 .919 1.108.311 2.19-1.163 2.07-3.666 3.233-6.215 3.36-2.556.126-5.066.277-7.651.277-2.462 0-4.813-.555-7.324-.555C9.81 29.445 3 30.05 3 24.728"/></svg>