<svg xmlns="http://www.w3.org/2000/svg" width="402" height="383" fill="none"><path stroke="#15CE79" stroke-linecap="round" stroke-width="3" d="M178 40.75c-.079 3.1-.741 5.973-1.361 8.986-.136.659-.084 1.542-.389 2.153-.102.204-.045-.537-.25-.639m-1 5.25c0 2.694-.672 5.647-1.306 8.25-.113.466-.48 2.928-.694 2.5m8.25-26.5c2.422 1.47 5.948.215 8.25 1.75m.25 3c-.056 1.506-.838 2.995-1.306 4.417-.519 1.578-.694 2.943-.694 4.583m-7.75.75c1.297.05 2.872.686 4 1.25m-4.5 3c.806 2.507 1.515 4.981 2.5 7.444.177.444.668 2.39 1 2.556M201.5 46c-1.388 3.084-2.025 7.178-2.5 10.5m-1.5 5c-.652 2.852-1.053 5.87-2.139 8.583-.204.51-.361 2.658-.361 1.917m26-21.273c-1.697-.522-3.438-.813-5.125-1.375-.673-.224-3.706-1.964-4.125-1.125m-2.5 3c-.049 1.38-.57 2.382-1.111 3.611-.121.276-.639 1.574-.639 1.39m1.5 3.749c.756 0 1.524-.04 2.278.014 1.081.077 1.929.74 2.972.93.647.118 2.692-.06 3 .556m-.75 4c-.552 2.468-1.238 4.777-2.222 7.097-.319.752-.528 1.1-.528 1.903m-12.75.25c2.422.752 4.676 1.836 6.986 2.875.549.247.921.375 1.514.375m20-27.25c0 2.342-.518 4.243-1 6.5-.311 1.455-1 3.011-1 4.5m-1.5 4.25c-.738 1.2-.893 2.788-1.25 4.139a179.94 179.94 0 0 1-1.556 5.611c-.247.828-.53 1.692-.819 2.5-.215.603-.125.824-.125 0m9-13.5c2.956-1.626 5.709-3.894 8.458-5.847 1.038-.737 2.137-1.273 3.236-1.903.304-.174 1.073-1.034.806-.5m-11.25 11.5c.107 3.864 3.127 7.184 5.097 10.25.472.734.903 1.864.903 2.75"/><path stroke="#4D4D4D" stroke-linecap="round" stroke-width="3" d="M144 89c-14.276 24.807-27.582 49.427-44.778 72.444-19.199 25.699-38.45 52.172-60.833 75.223-11.315 11.652-21.325 24.689-31.722 37.166C4.692 276.202 1.432 280 6 280m214 78c11.333-12.952 20.229-30.29 29-45 11.986-20.103 25.725-39.098 36.778-59.778 8.274-15.48 15.496-31.391 22.778-47.278 10.859-23.693 27.83-46.018 44.388-65.888 3.483-4.18 5.868-8.707 8.5-13.445 1.19-2.141 5.135-8.025 2.556-2.222-1.371 3.085-1-1.863-1-2.833 0-5.629 2.219-11.312 4-16.556 3.537-10.415 7-22.38 7-33.444 0-3.393 3.696-9.012 2-11.556M146 88c-3.283-8.617-.98-21.086 1-29.778 1.824-8.004 2-15.492 2-23.666 0-2.71 1.311-5.394 2.056-8 .352-1.232.944-4.922.944-4.556m4-8c10.213.425 19.935 4.215 29.944 6.056 25.627 4.712 51.712 6.366 77.389 11 17.616 3.178 34.692 8.72 52.334 11.944 11.263 2.059 22.747 2.007 34 4 8.492 1.504 16.272 3.964 24.389 6.5 5.793 1.81 14.701 3.5 1.944 3.5"/><path stroke="#4D4D4D" stroke-linecap="round" stroke-width="3" d="M168 2c14.249 2.102 27.489 5.528 42.056 5.944A313.844 313.844 0 0 1 257.778 13c11.662 2.142 23.421 1.696 35.111 3.556 9.828 1.563 19.494 4.152 29.333 5.666 8.549 1.316 16.583 4.298 24.945 6.278 8.013 1.898 16.255 2.523 24.277 4.5 5.944 1.464 13.927 6 20.056 6 7.958 0 8.5 3.18 8.5 9.944 0 11.862-.355 24.692-4 36.056-4.551 14.19-11 30.657-11 45.5 0 6.69-6.831 10.397-10 16.056-4.195 7.491-8.752 14.759-13 22.222-4.652 8.171-8.259 17.419-13.5 25.166-5.301 7.836-9.708 16.159-13.722 24.723-4.93 10.517-11.7 19.641-18.167 29.222C301.312 270.555 284.672 292.711 272 317c-6.368 12.205-16.603 23.066-26 33-5.669 5.993-12.6 12.849-16 20.5-1.01 2.273-3.056 4.167-4.222 6.5-.581 1.162-1.095 5.825-1.834 2.5-1.347-6.063-3.944-13.327-3.944-19.5"/><path stroke="#4D4D4D" stroke-linecap="round" stroke-width="3" d="M2 303c31.375 16.455 65.379 26.581 98 40.222 22.942 9.594 47.017 17.533 71 24.278 12.806 3.602 25.512 6.093 38.444 8.444 2.576.469 16.098 1.243 13.556 5.056"/><path stroke="#4D4D4D" stroke-linecap="round" stroke-width="3" d="M4 278c0 6.548-.668 13.485.056 20C4.393 301.041 6 303.071 6 306"/><path stroke="#4D4D4D" stroke-linecap="round" stroke-width="3" d="M3 281c6.552 8.517 22.046 12.574 31.333 16.944 15.688 7.383 30.427 13.72 47.167 18.556 13.657 3.945 25.112 12.613 38.611 17 9.779 3.178 18.7 7.77 28.389 11 12.163 4.054 24.195 8.206 36.5 11.722 5.755 1.644 22.985 5.778 17 5.778M155.25 13.5c5.182-2.52 9.634-5.952 14.583-8.833.63-.367 1.929-1.39 2.736-1.39.247 0-.459.252-.569.473m209.5 52c3.594-3.458 7.079-7.268 11.111-10.236.941-.693 1.933-1.296 3.028-1.708.49-.185 1.644-.122 1.861-.556m-231.25-15c-.763 10.303-1.743 20.566-2.861 30.833-.359 3.295-.889 6.6-.889 9.917 0 .874-.15 1.624-.236 2.486-.074.743.25 2-.264 2.514m1 .75c5.153 1.437 10.373 2.563 15.542 3.93 7.455 1.973 14.596 4.884 22.027 6.931 11.288 3.109 22.881 5.293 34.334 7.695 11.312 2.372 22.678 4.548 34.028 6.736 18.346 3.536 36.542 7.96 55.097 10.347 4.588.59 9.312.68 13.805 1.861 1.254.33 2.422.939 3.667 1.25m8.75-2.75c.372-6.727 1.202-13.319 2.111-19.986.793-5.816.814-11.637 1.278-17.472.222-2.79.361-5.52.361-8.32 0-.526.263-1.965-.25-2.222"/><path stroke="#4D4D4D" stroke-linecap="round" stroke-width="3" d="M180.5 29c7.451 1.819 14.809 4.03 22.306 5.653 9.409 2.036 18.923 3.539 28.361 5.43 7.021 1.407 13.98 3.166 20.916 4.945 6.521 1.672 13.006 2.725 19.653 3.722 9.469 1.42 18.323 5.004 27.82 6.361 3.741.535 7.508.937 11.222 1.639 3.432.65 6.756 1.718 10.194 2.306 6.159 1.052 12.347 1.804 18.528 2.694 2.31.333 4.649.46 6.944.861.964.169 1.939.389 2.917.389 2.048 0 8.187-.25 6.139-.25M165.5 104c7.572.457 15.184 1.199 22.681 2.361 7.754 1.202 15.381 3.417 22.986 5.306 17.713 4.399 35.57 7.778 53.527 11.027 13.658 2.472 27.145 5.388 40.473 9.306 4.778 1.405 9.51 3.294 14.333 4.5m-166-6c9.155.089 18.05.682 27.028 2.542 6.518 1.35 12.99 2.998 19.444 4.625 14.874 3.747 29.658 7.822 44.528 11.583 12.872 3.255 25.643 7.03 38.444 10.556 4.629 1.274 10.373 2.245 14.306 5.194M140.5 153.25c14.372 3.823 28.869 7.14 43.167 11.25 12.414 3.569 24.891 6.863 37.347 10.278a434.593 434.593 0 0 1 34.18 10.903c9.189 3.354 18.257 7.037 27.556 10.069m-160.5-16.5c17.991 5.462 36.472 9.209 54.694 13.806 14.693 3.705 29.179 8.173 43.514 13.069 19.624 6.702 39.153 13.777 58.542 21.125M103.75 206.5c21.466 6.112 43.034 11.855 64.5 17.958 9.55 2.716 18.798 5.996 27.972 9.792 15.731 6.509 31.06 13.808 47.028 19.75m-164-22c20.547 7.429 41.137 14.763 61.792 21.889 12.207 4.212 24.635 7.706 36.958 11.555 16.692 5.215 34.115 9.829 49.75 17.806"/><path stroke="#4D4D4D" stroke-linecap="round" stroke-width="3" d="M321 136.25c-4.332 8.249-8.756 16.267-13.944 24-3.398 5.064-6.637 10.226-10.098 15.25-5.254 7.627-10.297 15.368-15.291 23.167-5.881 9.183-12.853 17.605-18.653 26.833-5.117 8.141-9.571 16.693-14.82 24.75-2.242 3.443-4.574 6.792-6.666 10.333-2.508 4.247-4.68 8.71-7.292 12.889-4.156 6.65-9.047 12.796-13.18 19.472-3.8 6.138-7.013 12.583-10.834 18.709-2.1 3.367-4.695 6.159-6.972 9.347m-138.5-59.5c21.035 4.802 42.399 9.142 62.528 17.111 9.192 3.639 18.207 7.72 27.305 11.583 5.028 2.135 10.032 3.95 15.236 5.598 3.432 1.086 6.683 2.564 9.667 4.583 2.587 1.75 5.448 2.671 7.708 4.931 1.954 1.953 3.477 4.191 5.862 5.694 2.95 1.859 6.05 3.209 8.694 5.5m-137.5-62.25c7.173-12.502 15.475-24.132 23.5-36.083 7.636-11.372 15.012-22.912 22.861-34.139 6.071-8.685 12.367-17.261 18.028-26.222 3.816-6.041 7.249-12.306 11.153-18.292 4.833-7.412 11.218-13.527 16.902-20.264 2.814-3.334 5.833-6.529 8.806-9.722 1.331-1.429 2.725-2.808 4.25-4.028"/><path stroke="#4D4D4D" stroke-linecap="round" stroke-width="3" d="M176.75 300.75c1.155.031 1.664-.719 2.306-1.611 1.317-1.832 2.516-3.749 3.833-5.583 2.004-2.793 4.11-5.512 6.111-8.306 2.931-4.093 5.384-8.456 8-12.75M149 285c4.019-7.835 10.964-13.328 15.5-20.75m32 11c4.472-9.618 10.683-18.007 16.389-26.889 6.49-10.103 12.31-20.548 19.097-30.472 5.023-7.346 9.533-15.071 14.764-22.264 3.966-5.453 8.259-10.639 12-16.25 6.323-9.485 13.46-18.137 20.833-26.819 3.374-3.973 6.319-8.187 9.389-12.389 2.235-3.059 5.583-6.138 6.528-9.917m-31.25-1.75c-8.986 11.779-17.522 23.952-26.806 35.5-6.494 8.078-13.358 15.83-19.083 24.5-8.589 13.007-17.581 25.817-25.722 39.111-4.375 7.145-8.184 15.18-13.695 21.556-4.097 4.741-7.461 9.856-11.194 14.833m42.75-145.25c-8.475 11.141-17.032 22.187-25.889 33.028-6.408 7.844-12.949 15.582-19.055 23.666-11.356 15.034-20.615 31.097-28.778 48.056-3.252 6.755-6.001 13.76-9.278 20.5-.712 1.464-1.395 2.941-2.139 4.389-.264.514-.111-.96-.111-1.139"/></svg>