<svg xmlns="http://www.w3.org/2000/svg" width="350" height="275" fill="none"><path stroke="#4D4D4D" stroke-linecap="round" stroke-width="3" d="M90.589 27.713c1.082 10.267 2.064 20.481 1.789 30.816-.245 9.2-.6 18.39-.405 27.596.338 15.953 1.324 31.833 1.305 47.797-.007 5.938-.692 12.133.502 17.997.253 1.248.72 3.913 1.401 1.437m-3.311 4.275c-8.892 6.926-19.59 11.986-29.667 16.937-10.983 5.397-21.25 12.008-32.36 17.219-8.203 3.847-17.097 6.999-24.491 12.32m-1.709 2.886c7.376.525 14.64 1.348 21.911 2.785 16.67 3.293 32.913 6.631 49.88 7.838 15.405 1.097 30.405 3.514 45.704 5.453 15.071 1.91 30.305 2.462 45.408 4.15 22.236 2.486 44.567 3.061 66.858 4.647 9.646.687 19.332 1.157 28.958 2.089 3.358.325 6.666.948 10.034 1.187 3.335.238 1.804.023-.559-.541m-169.674-80.748c8.887-.488 17.813-1.501 26.718-1.329 15.844.305 31.69 1.475 47.491 2.6 27.393 1.949 54.829 2.398 82.232 4.348 15.344 1.092 31.22 1.147 46.42 3.554 8.265 1.309 16.546 1.93 24.884 2.523m10.4-5.274c.044-5.049-.975-10.29-1.67-15.268-1.579-11.305-2.105-22.838-3.219-34.204-1.143-11.664-2.434-23.425-4.389-34.983-1.412-8.349-3.348-16.614-3.699-25.104-.18-4.348-1.071-8.79-.849-13.12.176-3.435 1.196-7.458.466-10.856-.115-.54-.804-4.391-1.388-4.36-.747.04-1.196 2.713-1.246 3.42M92.19 19.305c20.809-.843 41.64-1.725 62.471-1.29 19.396.404 38.766 1.836 58.101 3.382 19.454 1.556 38.751 4.234 58.22 5.62 9.683.689 20.4 2.76 30.116 1.39 1.677-.236 14.032-.345 14.097-1.252m22.765 144.982c-8.084 6.417-15.769 13.382-23.288 20.454-10.246 9.637-21.197 18.043-32.331 26.605-1.868 1.436-3.411 2.784-4.603 4.797-.671 1.133-1.179 2.195-2.318 2.843m63.538-54.628c-1.345 7.568-3.036 14.489-3.584 22.191-.156 2.19-.908 5.287-.422 7.489.264 1.195.238 2.138.149 3.38-.038.535-.215 3.021-.088 1.247"/><path stroke="#4D4D4D" stroke-linecap="round" stroke-width="3" d="M335.012 206.515c-2.164 2.653-4.956 4.35-7.512 6.566-4.862 4.216-9.302 8.913-13.955 13.349-7.212 6.874-15.705 12.516-23.652 18.506-4.15 3.129-7.843 7.505-12.455 9.891-1.743.902-3.678 2.461-5.169 3.754-.67.581-1.228 1.603-1.116.032"/><path stroke="#4D4D4D" stroke-linecap="round" stroke-width="3" d="M272.685 258.221c-4.515-.148-9.09.316-13.648.031-16.268-1.019-32.6-1.93-48.9-1.586-22.091.466-44.143 2.723-66.235 3.306-15.681.414-31.744-.689-47.346-2.283-8.763-.896-18.042-2.999-26.59-5.151-4.558-1.147-9.115-2.696-13.81-3.183-4.808-.498-9.624-.627-14.415-1.304-9.655-1.364-19.496-3.142-29.218-3.834m-5.888-37.011c-.675 9.491-2.67 19.736-1.827 29.194.258 2.891-.984 6.681.092 9.28"/><path stroke="#4D4D4D" stroke-linecap="round" stroke-width="3" d="M274.103 231.253c-1.815 1.272-1.396 4.958-1.748 6.95-.744 4.212-1.66 8.522-2.134 12.769-.171 1.536.395 8.832-1.205 9.494m-127.663-93.799c-12.092 7.872-23.745 16.364-36.015 23.976-5.569 3.454-12.235 6.133-17.099 10.563-4.432 4.036-9.146 7.115-12.85 11.895m122.784-41.889c-6.606 6.755-15.261 11.611-23.008 16.909-8.344 5.706-16.963 10.835-24.992 16.991-3.908 2.997-7.97 5.979-12.066 8.721-2.298 1.539-5.312 3.059-7 5.239m137.923-43.319c-8.205 6.754-16.932 13.128-25.347 19.64-8.837 6.837-17.715 13.658-26.626 20.383-2.934 2.214-6.134 3.95-8.967 6.268-1.211.991-2.666 2.315-4.203 2.709"/><path stroke="#4D4D4D" stroke-linecap="round" stroke-width="3" d="M71.464 183.749c40.14.616 80.771 2.792 120.528 8.577 18.594 2.706 37.649 3.682 56.397 5.016 9.496.676 37.944 3.202 28.449 2.526m-70.111-15.015c6.289.162 13.564-2.505 19.572-4.232 2.544-.732 5.057-1.597 7.389-2.872 1.736-.949 4.134-.655 5.527-2.14 3.177-3.388 3.321-4.749-1.67-5.104-3.625-.258-7.067.681-10.578 1.503a57.616 57.616 0 0 0-3.746.986c-.028.009-1.934.564-1.92.365.04-.557 1.327-1.278.843-2.446-.513-1.238-2.712-1.656-3.884-1.781-2.929-.31-5.987.048-6.629 3.539-.585 3.184-1.955 5.979-3.439 8.806-.494.941-3.138 4.761-1.572 4.873"/><path stroke="#4D4D4D" stroke-linecap="round" stroke-width="3" d="M240.602 173.73c-.334 4.691-1.167 9.349-1.493 13.929m60.843-9.705c-7.954-1.763-18.009-1.573-25.017 3.26-1.954 1.348-3.309 3.735-3.223 6.148.098 2.745 7.916 2.173 9.604 2.02 5.777-.523 12.491-1.997 17.565-4.988 1.015-.598 3.056-2.035 3.324-3.272.526-2.433-1.907-2.452-3.785-2.776"/><path stroke="#4D4D4D" stroke-linecap="round" stroke-width="3" d="M271.776 188.229c.034 2.259.055 4.508-.105 6.76m30.49-14.622c-.222 3.121-.114 6.308-.552 9.415-.107.761-.448 1.483-.53 2.259-.028.267-.029.523-.295.634m-160.033-10.512c.08-1.124-.036-2.254.143-3.373.332-2.075 2.048-3.473 3.784-4.451 1.438-.81 3.273-1.172 4.407.286.814 1.047 1.786 2.604 2.066 3.934.155.737-.011-1.513.119-2.254.416-2.364 1.682-4.747 3.205-6.588 1.554-1.878 4.047-4.021 6.69-3.61 1.865.29 2.409 3.01 2.333 4.587-.04.821-.178 1.106.466.297 1.634-2.053 3.857-3.761 6.346-4.644 1.358-.482 5.427-2.048 6.035.304.592 2.289-.144 4.341-1.53 6.143-.52.676-1.106 1.287-1.715 1.883-.078.076-.678.512-.22.353 1.372-.475 2.614-.814 4.079-.872 1.441-.057 2.134.483 2.253 1.908.039.473.174 1.727-.202 2.053m22.146 23.381c-3.5-.557-6.924-1.178-10.474-.933-2.262.155-4.54.301-6.775.694-2.415.424-4.783 1.046-7.036 2.02-1.721.743-3.363 1.765-4.125 3.563-1.216 2.871 1.349 4.145 3.863 4.424 5.053.562 10.324.015 15.396-.143 3.059-.096 6.003-.508 8.918-1.468 1.741-.574 4.358-1.356 4.954-3.372.332-1.127-.342-2.491-1.131-3.283-.404-.405-.688-.829-1.225-1.083-1.085-.513-2.305-.54-3.478-.624m5.95 6.188c.208 2.759.452 5.475-.055 8.212-.09.484-.054 2.057-.797 2.004m-32.945-8.987c-.26 3.929-.309 7.859-.588 11.787-.055.763-.089 1.503-.278 2.243-.045.173-.034.381-.012.069m-57.237-26.881c4.842-.233 9.569-.161 14.382.425 1.969.239 3.906.5 5.886.641 2.395.171 4.804.09 7.199.387.227.029.012.215-.076.273-.635.426-1.261.838-1.862 1.316-1.81 1.439-3.656 2.906-5.613 4.14-1.403.884-3.137 1.778-4.318 2.951-.785.78-1.557 1.405-2.576 1.863-.094.042-.318-.106-.415-.141-.826-.296-1.713-.417-2.567-.614a196.982 196.982 0 0 0-8.54-1.791c-2.286-.423-4.572-1.192-6.881-1.43-1.375-.142-2.808-.076-4.169-.311-.285-.049-.741-.121-.599-.488.16-.414.643-.733.963-1.01.781-.678 1.557-1.358 2.37-1.997 1.711-1.344 3.409-2.536 5.373-3.495.656-.321 1.432-.845 2.2-.791m-10.453 7.778c-.421 2.7-1.018 5.607-.341 8.316.149.595.286 1.126.252 1.744-.014.255-.068.417.083.591m22.477-5.919c-.442 1.943-.95 3.883-1.294 5.847-.083.476-.192.902-.468 1.296m16.57-17.994c.128 1.994.948 5.27-.978 6.697M78.199 193c-3.392-.896-6.764-1.721-10.275-1.971-3.866-.275-7.954.173-11.749.932-2.539.509-5.372 1.402-6.915 3.651-1.9 2.767 2.212 3.926 4.201 4.358 3.753.814 7.752.884 11.574.74 3.135-.118 6.305-.477 9.311-1.412 2.96-.921 6.087-2.59 5.09-6.085m42.236-22.934c-1.75-1.652-3.794-2.534-6.097-3.163-1.958-.535-3.95-.782-5.968-.947-2.342-.192-4.687-.352-7.016.065-3.66.655-6.86 2.14-9.254 5.008-.679.814-1.464 1.664-1.873 2.652m177.708 36.833c-4.784-1.155-9.788-2.279-14.732-1.453-3.901.652-8.147 2.378-11.286 4.802-1.347 1.04-3.121 2.644-3.319 4.477-.2 1.846 2.105 2.376 3.388 2.858"/></svg>