<?xml version="1.0" encoding="UTF-8" standalone="no"?>
<!DOCTYPE svg PUBLIC "-//W3C//DTD SVG 1.1//EN" "http://www.w3.org/Graphics/SVG/1.1/DTD/svg11.dtd">
<svg width="100%" height="100%" viewBox="0 0 1680 1318" version="1.1" xmlns="http://www.w3.org/2000/svg" xmlns:xlink="http://www.w3.org/1999/xlink" xml:space="preserve" xmlns:serif="http://www.serif.com/" style="fill-rule:evenodd;clip-rule:evenodd;stroke-linecap:round;">
    <path d="M693.996,268.015C703.828,282.38 721.947,283.822 730.987,299.508C732.999,303 733.5,305 736.5,309.5C737.127,315.526 743.839,319.154 747.86,321.327L747.983,321.393C763.281,329.663 784.3,328.38 796.971,313.92C802.348,307.783 807.63,301.782 812.744,295.638C816.664,290.93 820.013,284.057 824.964,280.559C840.847,269.335 868.381,257.84 868.953,231.051C869.31,214.307 867.744,201.008 860.733,186.347C857.488,179.562 855.352,170.977 850.402,165.596C845.922,160.727 838.225,155.85 832.739,152.985C817.703,145.132 803.89,139.854 787.528,137.639C771.485,135.468 753.872,136.571 737.985,139.507C723.971,142.097 706.429,147.971 695.218,158.99C681.472,172.501 678,189.927 678,210.367C678,221.027 679.504,232.009 681.499,242.394C683.579,253.218 688.22,259.576 693.996,268.015Z" style="fill:none;fill-rule:nonzero;stroke:rgb(77,77,77);stroke-width:3px;"/>
    <path d="M767,326.5C766.718,331.304 761.039,338.103 758,341.5C752.094,348.101 767.293,344.003 770,345.056C775.778,347.303 778.567,348.837 775.5,341C773.474,335.822 770.91,331.865 768,327.5" style="fill:none;fill-rule:nonzero;stroke:rgb(77,77,77);stroke-width:3px;"/>
    <path d="M768,345.5C766.029,351.905 767.442,357.731 764.444,364C761.473,370.213 755.33,375.725 750.555,380.5C743.852,387.204 736.601,392.244 731.555,400.5C730.436,402.332 717.5,423.5 718.5,459.5" style="fill:none;fill-rule:nonzero;stroke:rgb(77,77,77);stroke-width:3px;"/>
    <path d="M770,348.5C772.986,355.218 771.917,367.509 763.944,370C756.472,372.335 745.669,368.496 741,375.5" style="fill:none;fill-rule:nonzero;stroke:rgb(77,77,77);stroke-width:3px;"/>
    <path d="M1133.94,706.5C1122.62,728.123 1111.93,749.994 1099.5,771C1095.33,778.05 1091.27,785.183 1087.17,792.278C1084.31,797.222 1089.98,795.396 1093.17,794.5C1101.3,792.212 1109.14,788.985 1117.39,787.056C1122.49,785.863 1129.66,782.611 1134.83,782.611C1138.41,782.611 1132.65,789.894 1132.17,790.5C1125.48,798.817 1118.96,807.776 1113.17,816.722C1099.38,838.029 1084.52,858.682 1070.56,879.889C1068.3,883.314 1066.7,886.768 1065.17,890.5C1064.26,892.706 1074.48,889.666 1075.17,889.5C1077.95,888.83 1110.89,877.562 1111.89,881.056C1113.02,885.008 1109.13,889.038 1106.94,891.722C1098.11,902.554 1091.42,915.61 1084.17,927.5C1076.72,939.71 1069.81,952.259 1062.06,964.278C1057.84,970.808 1052.77,976.859 1049.44,983.889C1047.62,987.744 1050.95,986.851 1054.83,986.056C1064.7,984.038 1073.49,978.738 1082.94,975.5C1085.74,974.542 1117.08,963.123 1112.33,972.611C1109.14,978.996 1103.19,984.177 1099.39,990.278C1092.15,1001.9 1085.4,1013.94 1077.72,1025.28C1064.95,1044.13 1052.75,1063.64 1041.5,1083.44C1038.15,1089.34 1035.1,1095.52 1031.17,1101.06C1028.68,1104.55 1030.58,1103.93 1032.94,1101.5C1045.71,1088.37 1056.91,1073.17 1069.33,1059.61C1081.37,1046.48 1095.72,1035.75 1105.94,1020.94C1115.12,1007.67 1125.95,996.714 1133.94,982.5C1140.64,970.592 1147.36,958.916 1156.94,949.056C1160.01,945.897 1160.83,944.5 1155.94,944.5C1150.57,944.5 1145.32,943.5 1139.89,943.5C1132.84,943.5 1125.93,944.886 1118.94,945.722C1116.24,946.046 1101.42,951.343 1099.39,949.056C1097.54,946.972 1106.98,935.538 1107.94,933.889C1114.46,922.694 1120.32,911.083 1127,900C1136.7,883.915 1147.83,868.825 1157.94,853.056C1158.56,852.097 1162.06,845.873 1159.83,845.556C1153.82,844.696 1146.97,846.321 1141,847C1138.72,847.259 1120.5,852.701 1125.17,846.056C1134.37,832.96 1145.54,821.148 1154.94,808.056C1163.14,796.638 1170.42,784.407 1178.94,773.278C1184.14,766.498 1189.56,756.579 1192.44,748.5C1193.81,744.688 1187.38,747.042 1185.5,747.5C1178.63,749.168 1171.88,751.069 1165.17,753.278C1160.4,754.845 1155.5,756.64 1150.56,757.5C1145.44,758.389 1147.48,757.31 1150.44,753.444C1156.8,745.156 1163.04,736.848 1169.5,728.722C1172.87,724.484 1175.24,718.787 1177.94,714.056C1179.24,711.788 1181.94,709.174 1181.94,706.5" style="fill:none;fill-rule:nonzero;stroke:rgb(77,77,77);stroke-width:3px;"/>
    <path d="M493.237,513.804L493.237,532.315C493.237,537.267 491.315,540.82 490.642,545.537C489.531,553.312 483.473,559.679 480.7,566.888C475.902,579.366 474.726,589.787 474.726,603.274C474.726,609.203 475.288,614.707 475.607,620.463C475.76,623.207 476.475,624.87 479.133,624.87C483.232,624.87 486.957,625.752 491.033,625.752C494.741,625.752 498.251,624.87 502.003,624.87C504.51,624.87 508.591,625.686 510.867,624.674C514.239,623.175 518.273,623.405 521.836,621.785C524.866,620.408 528.016,618.86 531.141,617.819" style="fill:none;fill-rule:nonzero;stroke:rgb(77,77,77);stroke-width:3px;"/>
    <path d="M532.904,622.226L532.904,592.256C532.904,585.703 533.065,577.385 529.818,571.541C528.655,569.447 527.721,566.14 526.929,563.852C526.291,562.009 523.534,556.204 521.836,555.233C518.187,553.148 512.514,545.329 510.426,541.57C509.337,539.611 507.86,535.752 507.39,533.637C507.075,532.222 507.043,527.315 506.263,526.34C504.935,524.68 503.108,514.219 504.892,512.237C510.059,506.495 504.942,506.752 499.407,506.752C497.929,506.752 493.303,506.008 492.355,507.193C491.363,508.433 489.445,510.585 492.355,512.041" style="fill:none;fill-rule:nonzero;stroke:rgb(77,77,77);stroke-width:3px;"/>
    <path d="M488.83,584.322C490.937,590.41 493.349,600.347 499.407,603.911C501.692,605.254 509.625,614.94 512.434,609.885C515.126,605.038 517.263,599.901 519.486,594.9C521.163,591.127 520.838,578.439 520.563,582.559C520.222,587.673 511.407,588.176 508.908,585.4C507.469,583.8 504.696,571.818 504.696,577.27C504.696,582.141 502.596,587.848 496.763,587.848C495.284,587.848 490.659,588.592 489.711,587.407C488.918,586.417 486.661,584.966 486.185,585.204" style="fill:none;fill-rule:nonzero;stroke:rgb(77,77,77);stroke-width:3px;"/>
    <path d="M502.933,498.819C509.42,484.404 521.64,473.098 535.548,465.371C539.548,463.149 544.914,460.033 549.603,460.033C550.955,460.033 555.666,460.033 551.415,460.033" style="fill:none;fill-rule:nonzero;stroke:rgb(77,77,77);stroke-width:3px;"/>
    <path d="M497.645,484.715C503.941,464.746 512.084,448.799 525.95,433.001C528.15,430.495 532.572,424.486 535.891,423.158C536.942,422.738 534.002,424.5 532.904,424.774" style="fill:none;fill-rule:nonzero;stroke:rgb(77,77,77);stroke-width:3px;"/>
    <path d="M489.711,478.544C484.65,463.511 477.009,450.035 471.2,435.352C470.289,433.05 467.674,421.723 467.674,429.181" style="fill:none;fill-rule:nonzero;stroke:rgb(77,77,77);stroke-width:3px;"/>
    <path d="M488.83,494.411C472.695,474.589 450.274,461.178 424.531,460.033C415.966,459.653 407.493,459.152 398.919,459.152C394.707,459.152 398.651,458.231 399.8,456.507" style="fill:none;fill-rule:nonzero;stroke:rgb(77,77,77);stroke-width:3px;"/>
    <path d="M376.881,463.559C379.58,459.216 382.944,455.245 382.121,449.896C381.603,446.53 381.956,453.572 384.374,454.647C386.81,455.729 388.341,452.749 388.341,450.778C388.341,449.191 384.143,455.096 383.982,456.948C383.71,460.082 384.529,461.473 385.892,464.049C387.148,466.42 388.241,463.852 386.578,462.874C381.736,460.026 376,460.779 376,467.085" style="fill:none;fill-rule:nonzero;stroke:rgb(77,77,77);stroke-width:3px;"/>
    <path d="M564.637,466.204C565.044,460.507 568.502,454.122 571.199,449.113C573.033,445.708 574.898,453.893 575.656,455.577C576.652,457.791 582.28,463.691 576.488,459.984C571.661,456.895 565.852,452.1 559.887,452.1C554.181,452.1 565.032,452.981 566.596,452.981L577.37,452.981C579.165,452.981 582.756,451.186 582.756,452.981C582.756,453.502 571.812,460.819 570.807,461.796C569.597,462.974 561.141,471.676 565.519,466.204" style="fill:none;fill-rule:nonzero;stroke:rgb(77,77,77);stroke-width:3px;"/>
    <path d="M609.593,415.078C608.999,413.552 609.344,413.044 609.593,411.552" style="fill:none;fill-rule:nonzero;stroke:rgb(77,77,77);stroke-width:3px;"/>
    <path d="M614,429.181C613.188,429.08 613.416,428.895 613.118,428.3" style="fill:none;fill-rule:nonzero;stroke:rgb(77,77,77);stroke-width:3px;"/>
    <path d="M601.659,442.404L602.541,440.641" style="fill:none;fill-rule:nonzero;stroke:rgb(77,77,77);stroke-width:3px;"/>
    <path d="M608.711,424.774C609.622,424.345 610.405,424.13 611.356,423.893" style="fill:none;fill-rule:nonzero;stroke:rgb(77,77,77);stroke-width:3px;"/>
    <path d="M468.556,418.604C474.513,416.822 479.991,415.078 486.185,415.078" style="fill:none;fill-rule:nonzero;stroke:rgb(77,77,77);stroke-width:3px;"/>
    <path d="M462.385,415.959C462.528,412.1 463.267,408.396 463.267,404.5" style="fill:none;fill-rule:nonzero;stroke:rgb(77,77,77);stroke-width:3px;"/>
    <path d="M456.215,418.604C451.006,417.115 446.704,414.804 441.23,414.196" style="fill:none;fill-rule:nonzero;stroke:rgb(77,77,77);stroke-width:3px;"/>
    <path d="M455.333,426.537C449.238,428.23 443.335,430.773 437.704,433.589" style="fill:none;fill-rule:nonzero;stroke:rgb(77,77,77);stroke-width:3px;"/>
    <path d="M459.741,429.181C459.009,432.987 457.941,436.307 456.215,439.759" style="fill:none;fill-rule:nonzero;stroke:rgb(77,77,77);stroke-width:3px;"/>
    <path d="M599.896,426.537C578.811,426.537 556.738,432.265 538.633,443.285C532.606,446.954 525.549,450.884 521.249,456.507C516.89,462.207 512.934,467.759 508.222,473.256" style="fill:none;fill-rule:nonzero;stroke:rgb(77,77,77);stroke-width:3px;"/>
    <path d="M655,863.5C663.49,844.742 670.198,824.949 679.222,806.5C682.042,800.735 685.08,795.12 686.944,788.944C688.813,782.755 689.361,776.058 691.611,770C695.737,758.893 702.428,749.098 706.5,737.944C712.75,720.825 721.328,704.585 727,687.278C732.082,671.771 739.24,657.376 748.5,644C750.709,640.81 752.791,636.051 756.778,634.722C759.43,633.838 762.34,635.383 764.611,636.556C771.93,640.333 779.782,643.563 786.389,648.556C797.523,656.968 803.357,670.416 814.611,679C829.78,690.569 845.552,701.521 860.222,713.722C873.935,725.127 885.864,736.73 901.222,745.944C912.981,753 927.401,762.124 936,773.111C939.387,777.439 941.324,782.691 945,786.833C949.82,792.265 956.378,795.802 963,798.5C969.857,801.294 976.3,804.463 981.333,810.056C985.034,814.167 987.876,818.736 991.778,822.722C995.498,826.523 1001.8,832.05 1004,837C1004.88,838.974 1010.23,843.784 1006,838.5" style="fill:none;fill-rule:nonzero;stroke:rgb(77,77,77);stroke-width:3px;"/>
    <path d="M493,803.5C485.529,799.425 482.731,789.849 478.056,783.111C469.67,771.026 461.547,758.699 454.611,745.722C447.147,731.758 435.73,716.776 422.222,707.944C418.145,705.278 411.303,711.863 408.556,713.944C398.502,721.561 387.408,727.256 377.611,735.389C368.405,743.031 359.76,751.283 350.667,759.056C346.795,762.365 343.576,766.212 339,768.5" style="fill:none;fill-rule:nonzero;stroke:rgb(77,77,77);stroke-width:3px;"/>
    <path d="M395,847.5C386.368,834.205 378.337,820.419 368.444,808C362.473,800.503 355.607,793.742 349.444,786.389C341.904,777.392 337.072,765.871 329,757.5C323.607,751.907 317.761,746.399 313,740.278C306.451,731.857 301.944,720.81 293.944,713.611C290.575,710.578 284.498,709.934 280.5,707.5C276.624,705.141 270.485,697.749 266,697.5C249.256,696.57 233.485,715.146 221.5,724.5C212.483,731.538 203.649,738.631 194.944,746.056C185.8,753.855 175.55,760.118 166.5,768C159.194,774.363 151.909,780.591 145.056,787.444C138.544,793.956 132.603,801.742 125.222,807.278C119.959,811.225 115.837,816.108 111.222,820.722C106.944,825 102.336,829.256 98.5,833.944C96.086,836.895 92.14,838.36 89.5,841C87.591,842.909 86.478,845.283 85,847.5" style="fill:none;fill-rule:nonzero;stroke:rgb(77,77,77);stroke-width:3px;"/>
    <path d="M1243,820.465C1281.34,817.115 1319.23,813.288 1357.78,814.687C1387.54,815.767 1417.1,817.465 1446.89,817.465C1467.5,817.465 1487.95,818.317 1508.17,813.465C1517.09,811.324 1525.58,807.719 1534.34,805.021C1541.41,802.842 1554.95,800.985 1556.56,791.799C1559.14,777.043 1542.2,766.04 1529.78,764.465C1516.06,762.725 1501.43,764.62 1488.11,768.076C1478.59,770.55 1466.44,774.139 1459.22,781.354C1456.74,783.84 1460.28,781.797 1461,779.021C1462.95,771.538 1460.54,766.026 1454.78,760.91C1445.42,752.591 1431.98,750.105 1419.95,749.132C1404.92,747.916 1389.61,747.705 1376.22,755.576C1368.37,760.195 1362.94,768.116 1357.22,775.021C1356.24,776.214 1354.38,779.966 1352.39,779.354C1347.38,777.813 1342.95,774.175 1337.89,772.465C1327.24,768.866 1314.22,767.926 1303.45,771.687C1295.98,774.294 1290.29,779.72 1285.61,785.91C1284.07,787.956 1281.45,794.255 1278.78,795.243C1276.01,796.27 1272.56,794.54 1269.89,794.021C1263.65,792.808 1256.54,793.205 1250.22,793.521C1245.73,793.745 1241.83,795.688 1237.78,797.465C1232.32,799.861 1225.34,801.548 1221.11,805.965C1219.15,808.023 1216.91,810.438 1217,813.465C1217.09,816.532 1221.67,815.465 1223.78,815.465C1227.47,815.465 1241.83,818.804 1243,816.465" style="fill:none;fill-rule:nonzero;stroke:rgb(77,77,77);stroke-width:3px;"/>
    <path d="M762,855.5C762,847.911 756.306,846.608 750,843.5C741.873,839.494 731.577,837.898 722.778,840.722C713.389,843.736 705.778,849.726 701.222,858.5C700.739,859.43 698.891,865.5 698,865.5C696.156,865.5 694.45,864.105 692.778,863.5C688.684,862.019 683.94,862.447 679.667,862.5C673.006,862.583 669.059,865.985 663.222,868.278C656.225,871.027 654.802,861.443 648,859.5C638.043,856.655 627.623,854.863 617.5,857.944C612.425,859.489 608.732,861.583 604.556,865C601.881,867.188 601.83,868.731 598.944,864.944C588.73,851.539 567.563,851.829 554.556,860.5C548.683,864.415 541.267,868.453 536.667,873.889C535.814,874.897 534,878.433 534,875.5" style="fill:none;fill-rule:nonzero;stroke:rgb(77,77,77);stroke-width:3px;"/>
    <path d="M547,807.5C547,800.327 545.406,799.087 538.222,796.722C530.102,794.05 521.032,793.37 512.889,796.278C504.217,799.375 491.026,806.893 487.778,816.278C487.163,818.054 486.61,821.64 485.778,823.056C485.043,824.305 470.038,822.477 468.222,822.5C458.993,822.615 451.831,827.335 443.667,831.056C438.773,833.286 431.964,835.618 428.555,840C423.703,846.239 416.781,841.132 410,841.556C400.866,842.126 394.744,848.886 388,853.944C387.403,854.392 385.858,852.325 385.389,852C382.926,850.295 379.705,849.898 376.833,849.444C367.368,847.95 358.057,845.161 348.389,845.556C339.21,845.93 330.073,848.294 322.444,853.556C320.892,854.626 309.913,862.529 313,861.5" style="fill:none;fill-rule:nonzero;stroke:rgb(77,77,77);stroke-width:3px;"/>
    <path d="M817,778.5C815.561,786.15 813.84,792.839 817.5,800C819.372,803.663 821.212,807.374 821.778,811.5C822.704,818.26 821,824.793 821,831.5C821,836.312 823.466,837.341 824.778,841.278C825.975,844.871 825.331,845.414 823,842.5" style="fill:none;fill-rule:nonzero;stroke:rgb(77,77,77);stroke-width:3px;"/>
    <path d="M475,593.5C463.9,589.536 457.116,578.505 449.056,570.444C447.236,568.625 438.211,556.364 435.389,557.667C430.148,560.085 425.681,567.293 422,571.5C417.05,577.158 413.867,583.439 410.444,590.056C404.01,602.496 393.821,614.157 386,625.889C378.734,636.789 368.033,647.467 358.778,656.722C349.384,666.116 339.947,675.553 330.556,684.944C323.057,692.443 316.18,700.453 309,708.056C306.278,710.937 302.863,713.808 301.222,717.5C300.358,719.446 300.043,721.479 298,722.5" style="fill:none;fill-rule:nonzero;stroke:rgb(77,77,77);stroke-width:3px;"/>
    <path d="M263,701.5C263,709.166 259.38,714.723 257.222,721.944C256.11,725.665 256.199,733.444 252.778,735.944C245.895,740.974 239.047,746.453 233,752.5C229.34,756.16 223.144,761.175 221,766C217.78,773.244 221.045,779.455 214.5,786C209.291,791.209 202.71,794.79 197.5,800C194.284,803.216 190.789,810.606 187,812.5" style="fill:none;fill-rule:nonzero;stroke:rgb(77,77,77);stroke-width:3px;"/>
    <path d="M755,639.5C755.169,642.549 756.912,644.112 758.5,646.556C762.07,652.048 761.873,658.276 764.056,664.278C767.155,672.801 775.939,677.976 777.944,687C778.315,688.668 775.721,690.134 775,691.5C773.338,694.649 773.072,698.103 772.222,701.5C771.075,706.087 767.256,708.658 765.222,712.5C762.992,716.712 755.45,720.462 751.944,723.556C746.526,728.336 741.373,733.1 736.5,738.444C734.202,740.965 727.827,744.528 727.056,748C726.156,752.047 727,757.186 727,761.278C727,766.92 728.146,768.5 722,768.5" style="fill:none;fill-rule:nonzero;stroke:rgb(77,77,77);stroke-width:3px;"/>
    <path d="M418,711.5C418,717.138 420.971,730.349 414.833,733.111C409.295,735.603 403.867,739.384 399.056,743.056C395.513,745.759 388.428,750.215 387,754.5" style="fill:none;fill-rule:nonzero;stroke:rgb(77,77,77);stroke-width:3px;"/>
    <path d="M404,766.5C398.417,770.272 394.525,773.842 390,778.5C388.732,779.805 387.498,781.751 386,782.5" style="fill:none;fill-rule:nonzero;stroke:rgb(77,77,77);stroke-width:3px;"/>
    <path d="M434,560.5C430.612,567.276 430.215,574.358 429,581.722C428.152,586.866 427.747,592.092 427.222,597.278C427.008,599.395 427.62,602.499 426.778,604.5C425.274,608.072 419.961,609.984 417.222,612.722C413.602,616.343 408.916,620.89 406.611,625.5C404.47,629.782 407.663,635.299 406.445,640C405.132,645.063 403.538,650.66 401.445,655.444C399.938,658.889 382.054,671.554 383,672.5" style="fill:none;fill-rule:nonzero;stroke:rgb(77,77,77);stroke-width:3px;"/>
    <path d="M459,619.5C462.871,621.334 466.748,622.5 471,622.5C472.277,622.5 478.484,623.016 477,624.5" style="fill:none;fill-rule:nonzero;stroke:rgb(77,77,77);stroke-width:3px;"/>
    <path d="M534,621.5C536.546,621.5 547.206,618.53 548.778,621.5C549.796,623.424 549.204,628.155 551,629.278C555.14,631.865 557,638.964 557,643.5" style="fill:none;fill-rule:nonzero;stroke:rgb(77,77,77);stroke-width:3px;"/>
    <path d="M584,741.5C586.299,746.099 588.969,750.676 590.778,755.5C592.545,760.213 592.397,765.034 593.556,769.833C594.984,775.752 600.791,779.083 603.5,784.5C604.686,786.873 617.087,801.413 617,801.5" style="fill:none;fill-rule:nonzero;stroke:rgb(77,77,77);stroke-width:3px;"/>
    <path d="M1454,720.5C1486.66,716.561 1519.03,717.076 1551.78,719.278C1555.7,719.541 1585.72,722.296 1586.89,716.444C1589.7,702.366 1555.47,705.833 1548.56,704.389C1541.22,702.856 1534.21,698.989 1528.22,694.5C1521.9,689.756 1515.62,690.5 1508,690.5C1491.95,690.5 1479.3,690.213 1468.22,703.056C1466.17,705.431 1464.43,707.214 1462.94,709.944C1461.36,712.858 1453.24,712.538 1450.5,713.056C1445.1,714.077 1434.63,719.411 1446,720.444C1450.52,720.855 1457.85,721.574 1462,719.5" style="fill:none;fill-rule:nonzero;stroke:rgb(77,77,77);stroke-width:3px;"/>
    <path d="M936,772.5C945.291,772.745 953.866,773.825 963.222,772.5C976.516,770.617 989.914,769.804 1003.28,768.5C1013.43,767.509 1023.25,766.5 1033.5,766.5C1040.24,766.5 1047.14,766.994 1053.78,765.722C1065.07,763.56 1065.6,754.401 1054.94,749.556C1043.66,744.426 1033.63,743.365 1021.22,743.5C1012.36,743.596 1003.77,746.5 995,746.5C990.09,746.5 989.037,742.629 986.389,739C980.87,731.437 970.029,726.42 960.889,725.722C951.357,724.995 940.971,724.771 931.778,727.722C926.234,729.502 919.807,732.799 914,733.444C904.875,734.458 898.677,725.741 890,725.5C886.53,725.404 884.586,726.128 881.5,727.5C878.499,728.834 881.635,729.865 884,727.5" style="fill:none;fill-rule:nonzero;stroke:rgb(77,77,77);stroke-width:3px;"/>
    <path d="M557,645.5C573.237,667.982 581.854,695.263 597.389,718.278C603.228,726.928 608.211,736.314 615,744.278C617.931,747.717 621.307,750.807 624.5,754C628.1,757.6 629.507,762.223 632.056,766.556C634.455,770.635 637.983,772.906 640.778,776.5C642.607,778.852 643.662,781.943 645.056,784.556C648.967,791.889 655.559,796.061 660,802.722C661.801,805.424 663.321,808.659 664.944,811.5C665.732,812.878 668.581,815.782 668.944,817.056C669.551,819.18 672.437,822.646 669,821.5" style="fill:none;fill-rule:nonzero;stroke:rgb(77,77,77);stroke-width:3px;"/>
    <path d="M529,659.5C529.205,668.303 531.541,674.549 533.778,682.722C535.538,689.154 535.303,695.888 537,702.278C537.874,705.567 541.736,710.816 539,711.5" style="fill:none;fill-rule:nonzero;stroke:rgb(77,77,77);stroke-width:3px;"/>
    <path d="M507,667.5C507.1,682.735 508.691,696.62 505.556,711.444C503.827,719.617 502,727.906 502,736.278C502,739.876 502.408,751.5 497,751.5" style="fill:none;fill-rule:nonzero;stroke:rgb(77,77,77);stroke-width:3px;"/>
    <path d="M848,748.5C858.163,763.956 868.848,778.453 880.778,792.5C886.442,799.169 885.735,809.473 891.444,815.5C895.144,819.405 898.576,821.27 900.778,826.5C902.02,829.451 903.033,829.652 899,828.5" style="fill:none;fill-rule:nonzero;stroke:rgb(77,77,77);stroke-width:3px;"/>
    <path d="M46,663.5C71.34,660.736 96.499,658.5 122,658.5C145.092,658.5 168.143,659.382 191.222,659.5C202.586,659.558 213.654,658.5 224.944,658.5C229.001,658.5 232.644,656.5 237,656.5C241.803,656.5 250.368,656.17 254.5,653.944C261.677,650.08 268.218,643.541 259.333,637.278C249.815,630.568 232.97,629.129 222.611,634.5C220.905,635.384 216.852,638.179 215.778,635.278C213.311,628.617 209.414,621.861 204.778,616.5C192.272,602.04 166.497,599.912 149.555,606.556C143.761,608.828 139.08,610.975 134.778,615.278C133.299,616.756 131.08,619.09 128.944,617.889C123.488,614.82 120.43,610.831 113.778,609.5C103.415,607.427 93.553,612.419 85.444,618.5C81.775,621.252 78.286,624.944 76,628.944C75.259,630.242 66.337,630.178 64.889,630.556C57.533,632.474 49.463,634.353 43.444,639.278C41.54,640.836 39.66,642.919 39.111,645.389C38.957,646.083 39.331,647.724 38.778,648.278C37.468,649.587 31.12,648.5 29.611,648.5C25.057,648.5 19.165,647.446 15.611,651C10.255,656.356 16.763,660.382 21,662.5C29.314,666.657 44.651,667.674 53,663.5" style="fill:none;fill-rule:nonzero;stroke:rgb(77,77,77);stroke-width:3px;"/>
    <path d="M206,619.5C224.807,619.5 243.513,616.346 262.444,616.5C276.593,616.615 290.677,616.5 304.778,616.5C307.856,616.5 315.743,617.756 317.778,614.5C319.597,611.59 318.673,609.842 315,608.5C298.193,602.359 285.027,601.46 267.667,606.5C262.352,608.043 261.902,600.605 256.778,597.722C246.967,592.204 232.013,590.35 221.222,593.722C217.926,594.752 211.307,600.423 208,600.056C206.627,599.903 204.771,595.73 203.889,594.833C200.537,591.426 196.884,587.913 192.222,586.5C178.463,582.331 162.035,583.915 153,596.278C151.782,597.944 144.517,606.5 150,606.5" style="fill:none;fill-rule:nonzero;stroke:rgb(77,77,77);stroke-width:3px;"/>
    <path d="M831,20C833.034,20.447 835.02,22 837.111,22C838.182,22 839.25,22.791 839.25,23.875C839.25,25.541 838.151,25.836 837.556,27.25C836.881,28.853 837.806,30.52 839.306,31.055C841.448,31.821 843.798,33.75 846.125,33.75L848.5,33.75C849.776,33.75 850.954,32.13 851.736,31.25C853.414,29.363 854.517,26.973 855.861,24.861C856.281,24.201 856.911,23.182 857.194,22.444C857.478,21.708 857.566,20.819 857.875,20.139C858.51,18.741 856.973,16.306 855.75,15.694C854.067,14.853 852.232,14.174 850.5,13.444C848.505,12.604 847.315,14.24 846.167,15.597C845.338,16.576 843.463,16.48 842.375,15.875C841.049,15.138 839.614,14.377 838.25,13.694C837.175,13.157 836.329,12.294 835.194,13.111C833.05,14.655 832.034,17.647 831.25,20" style="fill:none;fill-rule:nonzero;stroke:rgb(77,77,77);stroke-width:3px;"/>
    <path d="M495,436.5L495,458.5" style="fill:none;fill-rule:nonzero;stroke:rgb(77,77,77);stroke-width:3px;"/>
    <path d="M498,408.5L498,423" style="fill:none;fill-rule:nonzero;stroke:rgb(77,77,77);stroke-width:3px;"/>
    <path d="M501,387.5C501.277,383.525 502,379.469 502,375.5" style="fill:none;fill-rule:nonzero;stroke:rgb(77,77,77);stroke-width:3px;"/>
    <path d="M581,106.5C584.3,99.901 587.339,92.327 592,86.5" style="fill:none;fill-rule:nonzero;stroke:rgb(77,77,77);stroke-width:3px;"/>
    <path d="M605,70C609.169,64.938 613.192,59.672 616.5,54" style="fill:none;fill-rule:nonzero;stroke:rgb(77,77,77);stroke-width:3px;"/>
    <path d="M633.5,32.5C636.766,29.234 640.118,26.102 643,22.5" style="fill:none;fill-rule:nonzero;stroke:rgb(77,77,77);stroke-width:3px;"/>
    <path d="M665.5,10C669.343,7.174 673.163,5.359 677.5,3.5" style="fill:none;fill-rule:nonzero;stroke:rgb(77,77,77);stroke-width:3px;"/>
    <path d="M800,2C805.393,2.15 809.709,3.282 814,6.5" style="fill:none;fill-rule:nonzero;stroke:rgb(77,77,77);stroke-width:3px;"/>
    <path d="M547.75,172.75C549.258,169.621 550.447,166.357 552,163.25" style="fill:none;fill-rule:nonzero;stroke:rgb(77,77,77);stroke-width:3px;"/>
    <path d="M562.5,145.25C563.947,142.565 565.059,139.536 566.75,137" style="fill:none;fill-rule:nonzero;stroke:rgb(77,77,77);stroke-width:3px;"/>
    <path d="M525,253.5C523.943,257.666 523.416,262.876 521,266.5" style="fill:none;fill-rule:nonzero;stroke:rgb(77,77,77);stroke-width:3px;"/>
    <path d="M962.899,185.259C963.128,181.532 983.206,145.583 981.835,144.928" style="fill:none;fill-rule:nonzero;stroke:rgb(77,77,77);stroke-width:3px;"/>
    <path d="M946.544,186.905C952.957,177.444 955.602,167.266 960.317,157.091C961.248,155.081 968.863,144.046 967.203,142.458" style="fill:none;fill-rule:nonzero;stroke:rgb(77,77,77);stroke-width:3px;"/>
    <path d="M967.202,142.458C967.202,136.935 961.18,130.852 959.025,125.585C957.497,121.852 955.152,117.716 955.152,113.651" style="fill:none;fill-rule:nonzero;stroke:rgb(77,77,77);stroke-width:3px;"/>
    <path d="M955.152,113.651C950.188,115.169 947.464,117.697 943.771,120.875C941.864,122.516 942.24,123.965 942.24,126.408C942.24,129.869 938.884,126.393 937.937,124.808C935.468,120.677 936.426,119.631 938.797,115.663C941.059,111.879 940.967,108.313 942.91,104.597C946.801,97.156 954.378,93.897 962.468,93.897C967.254,93.897 970.04,95.369 974.519,96.32C978.341,97.132 983.659,97.529 987,99.658" style="fill:none;fill-rule:nonzero;stroke:rgb(77,77,77);stroke-width:3px;"/>
    <path d="M992.165,102.951C1009.19,94.381 1025.17,84.088 1042.52,76.155C1048.56,73.392 1055.06,68.819 1060.59,65.135C1065.44,61.909 1070.18,58.712 1075.18,55.669C1080.69,52.314 1085.2,48.008 1090.48,44.512C1093.32,42.633 1095.39,39.331 1098.71,38.11C1103.45,36.365 1108.35,34.583 1113.34,33.629C1128.87,30.66 1145.35,27.944 1159.96,21.832C1164.53,19.921 1169.27,17.452 1173.78,15.293C1176.43,14.028 1184.66,9.881 1184.07,14.973C1183.61,18.884 1179.48,20.631 1176.27,22.335C1169.49,25.939 1162.32,28.786 1155.52,32.349C1150.61,34.918 1146.09,38.11 1141.22,40.671C1140.25,41.182 1139.44,41.38 1141.41,41.128C1145.76,40.574 1150.07,39.379 1154.37,38.568C1164.07,36.738 1173.36,33.193 1183.01,31.434C1185.31,31.017 1190.98,29.209 1192.72,31.526C1197.93,38.443 1167.38,45.455 1162.59,46.981C1155.6,49.211 1148.61,51.056 1141.46,52.743C1133.56,54.604 1146.36,53.285 1148.15,53.109C1159.22,52.02 1170.4,51.173 1181.53,51.097C1182.4,51.091 1194.28,49.929 1191.29,53.566C1187.62,58.029 1176.35,58.865 1171.01,60.151C1159.33,62.965 1146.98,63.921 1135.05,65.409C1132.68,65.704 1129.57,65.489 1127.3,66.324C1124.3,67.43 1133.74,66.735 1136.96,66.735L1173.93,66.735C1174.9,66.735 1182.04,65.558 1181.48,67.97C1180.66,71.495 1172.1,72.777 1169.29,73.32C1161.3,74.862 1153.56,77.44 1145.43,78.258C1141.69,78.634 1137.35,78.512 1133.71,79.264C1132.06,79.605 1125.66,80.695 1126.83,80.728C1132.15,80.877 1139.15,82.82 1143.95,84.934C1145.62,85.675 1151.19,89.555 1147.58,91.428C1144.04,93.267 1139.74,93.007 1135.91,93.897C1130.72,95.105 1125.05,95.874 1120.04,97.601C1115.53,99.152 1109.09,101.36 1105.35,104.14C1101.01,107.372 1097.57,111.49 1092.44,114.474C1085.89,118.289 1078.8,121.83 1071.4,123.893C1064.47,125.827 1056.77,123.923 1049.84,125.357C1045.85,126.18 1041.85,125.997 1037.78,125.997C1032.05,125.997 1027.28,128.466 1021.43,128.466" style="fill:none;fill-rule:nonzero;stroke:rgb(77,77,77);stroke-width:3px;"/>
    <path d="M977.532,96.366C979.686,91.988 977.816,86.798 976.671,82.419C975.644,78.492 974.064,73.638 972.176,70.028C969.483,64.878 963.079,57.426 968.733,52.56C976.374,45.984 985.951,42.49 993.217,35.275C997.716,30.807 1000.45,25.871 1005.55,21.877C1007.46,20.386 1008.61,18.857 1011.1,18.997C1015.43,19.24 1004.32,31.44 1003.4,32.532C999.665,36.999 995.252,40.928 991.83,45.655C990.665,47.263 991.645,45.924 992.308,45.289C995.768,41.981 999.934,38.768 1003.93,36.098C1008.16,33.272 1012.83,31.038 1016.94,28.051C1018.03,27.256 1019.06,26.149 1020.57,26.404C1024.46,27.061 1009.16,41.447 1008.18,42.317C1006.05,44.228 995.571,50.769 996.516,53.932C996.66,54.412 1015.52,43.871 1017.8,42.866C1018.98,42.343 1030.15,35.793 1028.99,40.58C1027.41,47.049 1017.87,52.193 1012.73,55.761C1009.1,58.274 1005.27,60.727 1001.78,63.397C1001.6,63.531 999.042,65.662 999.577,65.866C1002.1,66.832 1011.02,60.6 1013.11,59.693C1015.82,58.515 1018.59,56.886 1021.43,58.322C1023.67,59.456 1021.82,63.071 1020.57,64.266C1018.48,66.268 1013.97,68.794 1012.82,71.262C1011.47,74.179 1011.93,73.145 1015.4,73.32C1018.44,73.472 1022.9,79.613 1020.57,80.728" style="fill:none;fill-rule:nonzero;stroke:rgb(77,77,77);stroke-width:3px;"/>
    <path d="M1022.29,130.935C1018.52,130.935 1011.59,139.581 1011.1,143.282C1010.9,144.808 1008.44,147.293 1007.23,148.22C1005.44,149.585 1006.55,152.139 1003.35,153.158" style="fill:none;fill-rule:nonzero;stroke:rgb(77,77,77);stroke-width:3px;"/>
    <path d="M1033.05,135.462C1041.66,138.755 1048.93,142.333 1061.08,142.333C1069.24,142.333 1079.06,143.022 1086.52,141.207C1089.3,140.529 1098.33,140.921 1092.87,143.248C1087.94,145.35 1083.02,145.816 1077.27,146.627C1070.95,147.516 1064.88,148.668 1058.26,148.668C1054.91,148.668 1062.55,148.668 1063.39,148.668C1067.02,148.668 1070.27,149.301 1073.86,149.301C1076.92,149.301 1079.49,149.935 1082.47,149.935C1085.1,149.935 1084.75,151.997 1082.53,152.328C1075.71,153.348 1066.39,152.469 1059.35,152.469C1056.31,152.469 1045.62,151.431 1050.93,152.328C1053.51,152.762 1067.6,155.523 1057.61,156.305C1049.45,156.944 1037.78,155.417 1030.38,153.102C1023.12,150.827 1015.25,150.276 1010.24,146.162" style="fill:none;fill-rule:nonzero;stroke:rgb(77,77,77);stroke-width:3px;"/>
    <path d="M1003.35,153.982C1000.58,156.805 998.216,160.555 994.316,162.212C993.758,162.449 989.678,163.291 989.678,163.447C989.678,164.167 992.086,163.824 992.547,163.904C993.723,164.109 994.839,165.104 995.99,165.505C1003.65,168.169 990.757,169.636 990.013,170.032C987.305,171.47 999.014,174.602 990.06,176.159C988.223,176.478 986.262,176.924 984.418,177.028C981.86,177.172 986.808,177.952 987,178.034C992.974,180.573 983.722,182.108 982.027,182.606C979.073,183.475 974.332,184.276 971.506,184.435C967.562,184.657 964.329,186.082 960.316,186.082" style="fill:none;fill-rule:nonzero;stroke:rgb(77,77,77);stroke-width:3px;"/>
    <path d="M1077.38,65.912C1087.47,58.518 1096.86,52.406 1109.23,49.451" style="fill:none;fill-rule:nonzero;stroke:rgb(77,77,77);stroke-width:3px;"/>
    <path d="M945.683,187.522C944.951,187.483 944.22,187.132 943.532,186.905C942.2,186.465 940.998,186.171 939.574,186.093C937.776,185.995 935.039,185.649 933.37,186.287C931.183,187.124 927.392,190.442 927.392,192.872" style="fill:none;fill-rule:nonzero;stroke:rgb(77,77,77);stroke-width:3px;"/>
    <path d="M963.544,185.876C963.186,185.608 962.951,185.372 962.684,185.053" style="fill:none;fill-rule:nonzero;stroke:rgb(77,77,77);stroke-width:3px;"/>
    <path d="M963.544,185.67C961.705,186.743 960.489,187.666 959.348,189.374C958.754,190.263 958.151,191.206 957.639,192.14C957.268,192.817 956.97,193.621 956.335,194.107C956.039,194.333 955.843,193.924 955.582,193.741C955.033,193.354 954.289,193.489 953.646,193.489C951.582,193.489 949.516,193.458 947.453,193.489C945.724,193.516 943.96,194.714 942.456,195.433C940.439,196.397 939.253,197.663 937.925,199.377C936.926,200.666 935.966,202.346 935.617,203.938C935.57,204.156 935.507,205.749 935.785,205.218" style="fill:none;fill-rule:nonzero;stroke:rgb(77,77,77);stroke-width:3px;"/>
    <path d="M951.063,199.868C947.347,200.327 943.207,202.138 941.392,205.435C940.916,206.3 940.734,207.134 940.734,208.099C940.734,208.692 940.734,208.692 940.734,208.099" style="fill:none;fill-rule:nonzero;stroke:rgb(77,77,77);stroke-width:3px;"/>
    <path d="M944.823,212.832C946.607,210.362 948.872,207.707 951.625,206.167C953.605,205.06 956.093,204.366 958.332,203.938C960.09,203.602 961.685,205.16 962.468,206.659C963.395,208.432 963.855,210.831 962.301,212.374C961.744,212.928 961.602,213.449 960.747,213.449C960.278,213.449 959.24,213.654 959.025,213.243" style="fill:none;fill-rule:nonzero;stroke:rgb(77,77,77);stroke-width:3px;"/>
    <path d="M960.962,199.868C961.972,197.409 962.655,194.569 964.19,192.346C964.889,191.334 965.341,189.919 966.234,189.065C966.883,188.444 967.063,187.709 967.537,186.996C967.638,186.844 968.741,185.67 968.494,185.67" style="fill:none;fill-rule:nonzero;stroke:rgb(77,77,77);stroke-width:3px;"/>
    <path d="M941.595,186.493C939.05,183.842 935.668,182.538 932.055,181.76C930.07,181.333 927.276,181.245 925.432,182.195C924.276,182.79 923.232,183.236 922.228,184.07C921.348,184.8 920.811,185.847 920.088,186.71C919.666,187.215 919.248,187.882 919.048,188.505C919.004,188.64 919,189.419 919,189.168" style="fill:none;fill-rule:nonzero;stroke:rgb(77,77,77);stroke-width:3px;"/>
    <path d="M1079.1,98.012C1121.08,101.261 1163.56,105.615 1205.63,101.304" style="fill:none;fill-rule:nonzero;stroke:rgb(77,77,77);stroke-width:3px;"/>
    <path d="M1066.19,108.712C1097.62,111.915 1128.46,114.909 1160.01,112.828" style="fill:none;fill-rule:nonzero;stroke:rgb(77,77,77);stroke-width:3px;"/>
    <path d="M1224.57,61.797C1248.59,59.839 1272.73,56.858 1296.87,56.858" style="fill:none;fill-rule:nonzero;stroke:rgb(77,77,77);stroke-width:3px;"/>
    <path d="M1222.85,48.627C1257.54,44.561 1292.26,40.795 1327,37.104" style="fill:none;fill-rule:nonzero;stroke:rgb(77,77,77);stroke-width:3px;"/>
    <path d="M1427,890.177C1435.07,874.037 1456.52,865.293 1473,861.399C1484.21,858.75 1506.46,858.005 1509.78,872.955C1510.27,875.151 1509.3,876.158 1510.67,873.955C1514.09,868.456 1518.81,863.225 1524.56,860.177C1540.43,851.76 1568.06,848.482 1578.17,867.566C1579.19,869.499 1579.84,871.556 1580,873.733C1580.01,873.876 1579.76,875.451 1580.28,875.399C1581.87,875.24 1584.56,872.69 1585.67,871.955C1589.71,869.259 1593.87,866.793 1598.28,864.733C1619.46,854.832 1654.37,847.536 1675.17,861.733C1678.76,864.187 1685.1,869.489 1684.72,874.566C1684.54,876.96 1680.22,878.295 1682,877.511C1691.26,873.437 1701.78,871.739 1711.72,870.344C1721.32,868.996 1736.18,867.881 1743.11,876.622C1747.92,882.688 1745.92,892.018 1739.33,895.733C1728.03,902.11 1711.78,901.633 1699.33,901.955C1657.75,903.03 1616.05,902.177 1574.44,902.177C1546.51,902.177 1518.19,900.832 1490.33,903.177C1481,903.963 1471.81,905.177 1462.44,905.177L1436,905.177C1430.28,905.177 1428,905.332 1428,899.177" style="fill:none;fill-rule:nonzero;stroke:rgb(77,77,77);stroke-width:3px;"/>
    <path d="M-148.927,750.506C-133.785,740.346 -118.423,731.339 -100.149,728.729C-90.448,727.343 -77.772,725.54 -70.149,733.284C-66.564,736.926 -65.869,743.431 -67.927,748.062C-70.211,753.201 -61.38,748.324 -58.927,747.506C-43.975,742.522 -22.285,739.962 -13.094,756.506C-10.37,761.409 -10.184,768.054 -12.927,772.951C-14.053,774.961 -19.068,779.591 -14.482,779.506C-6.986,779.367 0.207,777.379 7.851,777.506C16.249,777.646 24.568,779.16 31.851,783.506C40.61,788.734 51.822,806.262 38.351,811.895C28.237,816.125 16.082,815.506 5.351,815.506C-7.951,815.506 -21.207,814.806 -34.482,814.006C-60.012,812.468 -85.875,814.115 -111.371,815.729C-127.659,816.759 -143.606,819.28 -159.927,819.506C-165.438,819.583 -170.89,820.786 -176.371,821.284C-184.249,822 -189.665,819.961 -196.371,816.006C-201.901,812.745 -212.527,804.206 -210.816,796.506C-209.61,791.083 -188.907,785.502 -184.705,789.284C-183.079,790.747 -183.961,788.216 -183.927,786.729C-183.832,782.549 -181.382,779.533 -178.705,776.506C-172.954,770.006 -164.117,767.964 -156.427,765.006C-153.25,763.784 -149.883,760.852 -148.927,757.506C-148.163,754.832 -144.343,747.506 -140.927,747.506" style="fill:none;fill-rule:nonzero;stroke:rgb(77,77,77);stroke-width:3px;"/>
    <path d="M-66.932,888.939C-53.781,881.566 -40.823,876.938 -25.71,875.55C-11.63,874.257 6.639,872.746 19.346,880.495C25.099,884.003 25.068,890.666 25.068,896.717C25.068,901.663 28.898,894.089 30.068,892.717C40.551,880.419 57.75,882.438 72.512,882.995C82.515,883.372 88.46,891.913 91.846,900.717C92.139,901.479 92.967,904.725 93.679,904.883C100.228,906.339 104.495,904.674 109.512,910.495C117.186,919.396 108.035,930.141 120.068,934.717C125.93,936.946 132.292,937.27 138.012,939.939C142.617,942.088 145.319,946.175 148.012,950.383C149.534,952.76 153.936,957.478 150.79,959.995C145.217,964.453 135.801,965.63 128.957,965.883C71.49,968.012 13.863,965.297 -43.599,967.939C-64.414,968.896 -84.848,970.939 -105.71,970.939C-118.122,970.939 -128.597,963.59 -138.876,956.939C-152.402,948.187 -150.51,924.537 -135.71,917.939C-128.484,914.718 -118.244,913.642 -110.599,915.995C-103.896,918.057 -106.362,919.097 -103.876,912.883C-99.605,902.204 -86.481,893.581 -74.932,892.939C-73.046,892.834 -62.477,890.939 -65.932,890.939" style="fill:none;fill-rule:nonzero;stroke:rgb(77,77,77);stroke-width:3px;"/>
</svg>
