<svg xmlns="http://www.w3.org/2000/svg" width="346" height="122" fill="none"><path stroke="#4D4D4D" stroke-linecap="round" stroke-width="3" d="M318 29c-13.436-8.29-26.298-16.165-41.778-19.889C264.601 6.315 252.685 4.863 240.778 4 206.576 1.52 172.885 1.405 139 7c-26.489 4.373-53.603 9.649-78.778 19.222C45.327 31.887 26.333 38.902 18.444 54c-4.843 9.269-5.674 25.481.778 34.111 9.762 13.056 33.136 13.845 47.556 16.111 20.795 3.268 41.404 8.129 62.222 11 21.483 2.963 42.851 3.778 64.5 3.778 28.803 0 59.375.715 87.944-3.5 17.169-2.533 32.647-2.907 47.111-13.5 10.088-7.388 16.918-15.261 15.223-28.445-1.886-14.664-6.776-29.553-17.889-39.555-21.435-19.291-48.587-24.777-76.5-26.5-39.281-2.425-77.948 1.872-116.611 8.5-17.456 2.992-35.184 7.18-52.222 12-14.582 4.124-28.815 7.685-42.445 14.5C24.135 49.488-5.616 66.194 3.444 86.222 14.42 110.485 39.354 119.854 64.222 120c40.919.239 81.827-2.015 122.722-2.945 27.038-.614 53.996-.779 81-2.555 9.095-.598 18.258-.996 27.167-3 5.188-1.167 12.702-1.36 16.889-4.5"/></svg>