<svg xmlns="http://www.w3.org/2000/svg" width="632" height="480" fill="none"><path stroke="#4D4D4D" stroke-linecap="round" stroke-width="3" d="M347.5 478c-7.662-14.608-8.072-31.112-10.5-47.167-2.089-13.806-3.646-27.428-4.778-41.333-.841-10.336-3.005-20.391-2.694-30.806.236-7.911.472-15.772.472-23.694 0-10.693 1-21.308 1-31.972 0-4.47 2.5-8.38 2.5-12.723 0-.026.009.936-.028 1.195-.237 1.659-2.836 3.37-3.861 4.5-4.106 4.527-7.847 9.428-12 13.889-1.136 1.22-.595 2.357-1.222 3.611-1.022 2.043 1.149-1.923 1.416-2.278 1.954-2.587 4.08-5.151 6.195-7.611 3.142-3.657 6.99-6.601 10.389-10 2.203-2.203.439-.234 1.722 2 2.931 5.103 7.56 9.17 11.167 13.778.689.88 1.367 2.019 1.722 3.083.426 1.279-.005.841-1.5 1.028M418 2c-.149 5.501 3.241 10.955 4.389 16.278 1.658 7.692 1.324 15.941.583 23.722-1.509 15.85-3.266 31.701-9.472 46.5-10.049 23.962-28.12 42.448-47.333 59.333-7.781 6.838-16.31 13.988-22.528 22.334-4.052 5.438-4.672 12.972-6.028 19.389-1.31 6.197-1.672 12.457-2.861 18.666-.72 3.762-.631 7.891-1.75 11.528-.538 1.747-.708 3.486-1.111 5.25-.636 2.78-.431-1.613-1.195-2.778-2.668-4.072-5.02-8.829-6.083-13.611-.445-2 .643 1.31.778 1.667.832 2.209 2.034 4.124 3.083 6.222 1.351 2.701 2.681 5.739 3.639 8.611.214.641.386 3.258.694 2.778 2.69-4.183 5.459-8.112 8.973-11.667 1.223-1.237 7.488-5.323 6.222-7.222m29-10.5a2695.834 2695.834 0 0 1-5.778 21.806c-.141.528-2.473 7.055-.389 6.361 5.005-1.668 9.197-7.52 13.278-10.667 2.646-2.041 5.713-3.73 8.167-6 .638-.59 1.342-1 .222-1m28.5 12c-5.514 7.269-11.077 14.499-15.111 22.722-.447.911-1.445 2.234.111 2.278 2.346.067 4.661-.025 7 .278 5.994.777 12.829.493 18.639 2 .995.258 3.003 1.722.861 1.722m5 22c-7.998 3.56-15.922 7.291-23.889 10.889-1.145.517-3.611 1.384-3.611 2.889 0 4.919 3.877 8.679 6.222 12.722 1.317 2.271 2.516 4.602 3.75 6.917.281.526 1.417 1.583 1.028 1.583m-26.5-1.5c-5.219-2.907-10.417-7.067-16.056-9.028-2.02-.702-3.94-1.627-5.944-2.361-3.708-1.358-2.964 2.837-3 5.556-.075 5.593-1 11.078-1 16.666 0 2.323.283 2.667-2 2.667m-83-3.5c-1.289-2.822-7.369-19.942-12.889-16-4.27 3.05-8.038 7.6-11.5 11.5-1.104 1.244-4.576 7.357-6.611 6m-34.5 0c0-7.661-.754-15.787.25-23.417.164-1.242 1.026-3.583-.75-3.583-3.269 0-6.515.006-9.778.25-3.881.29-7.852 1.25-11.722 1.25m0-28c6.858-2.174 15.049-3.668 21.417-7.25.744-.419.825-2.005.472-2.75-1.651-3.486-5.425-6.417-7.583-9.694-1.19-1.808-2.904-4.001-3.806-5.806m31-19c6.642 3.343 13.037 7.538 19.694 10.722.516.247 2.565 1.437 3.195.667.52-.636.114-3.061.139-3.75.132-3.623.645-7.289 1.25-10.861.441-2.607 1.034-5.147 1.333-7.778.221-1.941.934-3.022-1.111-2"/><path stroke="#4D4D4D" stroke-linecap="round" stroke-width="3" d="M257.5 232.5c-1.529-9.478-7.917-17.127-12.25-25.472-2.172-4.183-4.737-7.953-8.361-11.028-3.537-3.001-7.923-5.134-11.667-7.889-8.045-5.92-17.076-11.014-25.694-16.083-1.046-.616-6.528-5.048-6.528-3.028m22 87.5c-13.511-6.883-28.636-15.344-44-16.389-9.137-.621-17.452 1.733-26.417 2.639-13.068 1.322-26.368 1.272-39.305-1-21.41-3.759-44.302-12.83-59.917-28.444-2.353-2.353-4.477-4.922-6.833-7.278-2.39-2.39-5.224-4.462-7.417-7.028-.468-.548-1.455-2.944-2.333-2.944-.602 0 1.044 3.089 1.222 3.444m241 103c-1.318.824-1 2.16-1 3.556 0 4.507.07 9.021-.028 13.527-.518 23.857-10.71 47.703-19.861 69.389-9.086 21.535-20.372 42.959-34.111 61.917-3.173 4.378-6.08 8.847-9 13.389-.991 1.542-1.193 2.647-.5.222m163-167c4.632 3.881 7.498 9.761 10.611 14.833 3.483 5.675 6.663 11.524 10.333 17.084 7.109 10.768 15.605 20.519 22.806 31.222 4.697 6.982 8.298 13.96 10.639 22.028 1.206 4.155 2.013 8.479 4 12.361 2.636 5.148 7.011 9.872 8.611 15.472m-24-122c1.337-2.262 9.009.735 11.222 1.111 12.262 2.081 24.387 4.726 36.417 7.889 8.193 2.154 16.187 4.567 24.222 7.167.578.187 2.871.333 1.139.333m-79-57.5c18.27-12.023 35.58-25.404 54.222-36.889 29.096-17.925 61.481-30.303 92.889-43.528 17.749-7.473 36.093-13.619 54.25-20.027 3.758-1.327 7.866-2.42 11-5 2.543-2.094 1.019-2.263-1.361-3.056m-246 87.5c.609-2.261 2.284-4.241 3.611-6.111a369.2 369.2 0 0 1 10.333-13.833c14.468-18.486 30.782-35.355 48.056-51.223 15.138-13.905 30.143-27.991 45.361-41.805 16.478-14.958 34.345-27.225 53.75-38.028 29.963-16.68 62.555-28.057 91.917-46 1.466-.896 4.423-2.134 5.444-3.667 1.102-1.653-1.567 3.762-2.972 5.167M216 289c-2.791 7.73-11.009 11.619-17 16.611-12.174 10.145-24.039 19.969-37.333 28.722-35.386 23.299-70.623 46.598-106.556 69.056C40.717 412.385 27.808 422.585 14.5 433 10.808 435.889 2 441.75 2 447"/></svg>