<svg xmlns="http://www.w3.org/2000/svg" width="1680" height="723" fill="none"><path fill="#666" d="m868.968 365.728-2.232 5.904c-.288.744-.936 3.528-1.632 4.92-1.728-2.328-2.856-6.24-3.624-8.544-.288-.912-1.8-1.392-2.256-.312a174.484 174.484 0 0 1-4.92 10.776c-1.944-2.76-3.384-5.688-4.416-9.024-.48-1.56-2.88-.888-2.376.672 1.344 4.32 3.36 8.112 6.12 11.616.504.624 1.608.408 1.944-.264a160.678 160.678 0 0 0 4.56-9.648c.96 2.808 2.208 5.832 4.128 7.512.456.408.96.456 1.488.216 1.272-.624 1.512-2.328 1.968-3.552 1.2-3.192 2.424-6.408 3.624-9.6.576-1.536-1.8-2.184-2.376-.672Zm17.835-.048c-.144-1.632-2.688-1.632-2.568 0 .336 4.104.672 8.184.984 12.288.144 1.608 2.688 1.632 2.568 0-.336-4.104-.672-8.184-.984-12.288Zm-4.008 3.984a23.61 23.61 0 0 1-5.52.264 65.265 65.265 0 0 0-.792-4.224c-.36-1.608-2.808-.912-2.472.672.888 3.96 1.344 7.944 1.416 12.024.024 1.632 2.592 1.632 2.568 0a68.361 68.361 0 0 0-.384-5.904 28.166 28.166 0 0 0 5.856-.384c1.632-.264.936-2.712-.672-2.448Zm7.519-4.056a45.258 45.258 0 0 0 1.296 10.464c.384 1.584 2.856.912 2.472-.672-.792-3.24-1.2-6.48-1.2-9.792-.024-1.632-2.568-1.632-2.568 0Zm18.199-1.992c-3.528.384-7.08.48-10.632.264-1.632-.096-1.632 2.448 0 2.544 1.536.096 3.072.12 4.584.12-.072.144-.12.336-.144.552a68.16 68.16 0 0 0 .168 9.648c.144 1.608 2.688 1.632 2.544 0a68.16 68.16 0 0 1-.168-9.648 1.009 1.009 0 0 0-.12-.624 64.637 64.637 0 0 0 3.768-.312c1.632-.168 1.632-2.712 0-2.544Zm11.665 13.44c-3.024.768-3.96-1.728-4.176-4.704.048 0 .096.024.144.024a9.636 9.636 0 0 0 3.864-.48c1.536-.504.864-2.952-.696-2.448a7.444 7.444 0 0 1-3.168.384h-.216c.024-2.016.168-3.912.048-4.896 0-.072-.024-.144-.048-.24.168.048.36.072.528.12l.216.072 1.944.528c1.608.432 2.232-1.92.672-2.448a19.729 19.729 0 0 0-5.784-1.08c-1.632-.048-1.632 2.448-.048 2.544-.048.144-.048.312-.024.504.48 3.672-.84 7.68.768 11.184 1.2 2.592 3.816 4.104 6.648 3.408 1.608-.408.936-2.856-.672-2.472Zm28.204-12.648c.192 2.184.36 4.392.552 6.576.144 1.752 0 3.84.624 5.472 1.224 3.168 6.312 1.92 8.856 1.896 1.656 0 1.656-2.544 0-2.544-1.392.024-2.808.048-4.2.048-2.136.024-2.424-1.032-2.568-2.976-.24-2.832-.48-5.64-.696-8.472-.144-1.632-2.688-1.632-2.568 0Zm26.156 11.472c.336-.552.288-1.392-.36-1.824a36.822 36.822 0 0 0-3.696-9.936c-.456-.84-1.752-.84-2.208 0a87.77 87.77 0 0 0-3.864 8.352c-.816.24-1.056 1.2-.72 1.872-.504 1.416-1.008 2.832-1.464 4.296-.48 1.56 1.992 2.232 2.472.672a65.423 65.423 0 0 1 1.488-4.32c1.968.072 3.888.408 5.784.96.192 1.008.312 2.016.408 3.048.144 1.608 2.688 1.632 2.544 0a33.557 33.557 0 0 0-.384-3.12Zm-7.392-3.384a99.97 99.97 0 0 1 2.232-4.92 36.079 36.079 0 0 1 1.992 5.592c-1.392-.336-2.784-.576-4.224-.672Zm17.937-1.032c.624-.744.936-1.656.456-3-1.056-2.928-4.248-3.096-6.888-2.76-1.416.192-1.584 2.184-.48 2.52-.12 3.624.144 7.2.768 10.8.144.84.912 1.056 1.536.816.096.072.192.12.312.168 3.24 1.08 7.368-.144 7.776-3.984.288-2.712-1.392-4.032-3.48-4.56Zm-2.064-2.4c.456 1.344-1.512 1.848-2.304 2.352a39.217 39.217 0 0 1 0-3.36c1.008 0 2.04.192 2.304 1.008Zm-1.536 8.496c-.072-.024-.144-.048-.216-.048a50.29 50.29 0 0 1-.432-3.768c.144.048.312.072.504.048 1.608-.168 4.608-.576 4.656 1.776.072 2.472-2.88 2.544-4.512 1.992Zm17.543-.504c-3.024.768-3.96-1.728-4.176-4.704.048 0 .096.024.144.024a9.636 9.636 0 0 0 3.864-.48c1.532-.504.864-2.952-.696-2.448a7.444 7.444 0 0 1-3.168.384h-.216c.024-2.016.168-3.912.048-4.896 0-.072-.024-.144-.048-.24.168.048.36.072.528.12l.216.072 1.944.528c1.608.432 2.232-1.92.672-2.448a19.729 19.729 0 0 0-5.784-1.08c-1.632-.048-1.632 2.448-.048 2.544-.048.144-.048.312-.024.504.48 3.672-.84 7.68.768 11.184 1.2 2.592 3.816 4.104 6.648 3.408 1.612-.408.932-2.856-.672-2.472Zm4.094-12.648c.19 2.184.36 4.392.55 6.576.15 1.752 0 3.84.63 5.472 1.22 3.168 6.31 1.92 8.85 1.896 1.66 0 1.66-2.544 0-2.544-1.39.024-2.8.048-4.2.048-2.13.024-2.42-1.032-2.56-2.976-.24-2.832-.48-5.64-.7-8.472-.14-1.632-2.69-1.632-2.57 0Zm37.91 1.2c.02 3.528.45 7.032 1.29 10.464.39 1.584 2.86.912 2.47-.672-.79-3.24-1.2-6.48-1.2-9.792-.02-1.632-2.56-1.632-2.56 0Zm11.16.384c-2.68.912-6.09 3.288-4.34 6.552.65 1.176 1.8 1.704 3 2.136 1.01.36 2.81.576 3.41 1.536 1.87 2.328-.6 3.528-2.38 2.784-.69-.24-1.34-.528-1.99-.864-1.46-.744-2.76 1.464-1.3 2.184 2.84 1.392 8.43 2.64 9.03-2.016.24-1.848-1.01-3.648-2.47-4.632-.92-.624-1.92-.888-2.96-1.248-.43-.144-1.22-.24-1.53-.576-1.87-1.944 1.1-3.024 2.21-3.408 1.56-.528.88-2.976-.68-2.448Zm43.93-2.376c-3.53.384-7.08.48-10.63.264-1.63-.096-1.63 2.448 0 2.544 1.54.096 3.07.12 4.58.12-.07.144-.12.336-.14.552a67.57 67.57 0 0 0 .17 9.648c.14 1.608 2.69 1.632 2.54 0a69.067 69.067 0 0 1-.17-9.648.945.945 0 0 0-.12-.624c1.28-.072 2.52-.168 3.77-.312 1.63-.168 1.63-2.712 0-2.544Zm16.59 2.064c-.15-1.632-2.69-1.632-2.57 0 .34 4.104.67 8.184.98 12.288.15 1.608 2.69 1.632 2.57 0-.33-4.104-.67-8.184-.98-12.288Zm-4.01 3.984c-1.82.312-3.67.384-5.52.264a69.596 69.596 0 0 0-.79-4.224c-.36-1.608-2.81-.912-2.47.672.88 3.96 1.34 7.944 1.41 12.024.03 1.632 2.59 1.632 2.57 0-.05-1.992-.17-3.96-.38-5.904 1.96.072 3.91-.048 5.85-.384 1.63-.264.94-2.712-.67-2.448Zm15.44 7.392c-3.03.768-3.96-1.728-4.18-4.704.05 0 .1.024.15.024a9.634 9.634 0 0 0 3.86-.48c1.54-.504.86-2.952-.7-2.448-1.03.36-2.06.48-3.16.384h-.22c.02-2.016.17-3.912.05-4.896 0-.072-.03-.144-.05-.24.17.048.36.072.53.12l.21.072 1.95.528c1.61.432 2.23-1.92.67-2.448a19.702 19.702 0 0 0-5.78-1.08c-1.64-.048-1.64 2.448-.05 2.544-.05.144-.05.312-.03.504.48 3.672-.84 7.68.77 11.184 1.2 2.592 3.82 4.104 6.65 3.408 1.61-.408.94-2.856-.67-2.472Zm-276.7 16.352c.192 2.184.36 4.392.552 6.576.144 1.752 0 3.84.624 5.472 1.224 3.168 6.312 1.92 8.856 1.896 1.656 0 1.656-2.544 0-2.544-1.392.024-2.808.048-4.2.048-2.136.024-2.424-1.032-2.568-2.976-.24-2.832-.48-5.64-.696-8.472-.144-1.632-2.688-1.632-2.568 0Zm21.716 12.648c-3.024.768-3.96-1.728-4.176-4.704.048 0 .096.024.144.024a9.636 9.636 0 0 0 3.864-.48c1.536-.504.864-2.952-.696-2.448a7.444 7.444 0 0 1-3.168.384h-.216c.024-2.016.168-3.912.048-4.896 0-.072-.024-.144-.048-.24.168.048.36.072.528.12l.216.072 1.944.528c1.608.432 2.232-1.92.672-2.448a19.729 19.729 0 0 0-5.784-1.08c-1.632-.048-1.632 2.448-.048 2.544-.048.144-.048.312-.024.504.48 3.672-.84 7.68.768 11.184 1.2 2.592 3.816 4.104 6.648 3.408 1.608-.408.936-2.856-.672-2.472Zm16.455-1.176c.336-.552.288-1.392-.36-1.824a36.822 36.822 0 0 0-3.696-9.936c-.456-.84-1.752-.84-2.208 0a87.77 87.77 0 0 0-3.864 8.352c-.816.24-1.056 1.2-.72 1.872-.504 1.416-1.008 2.832-1.464 4.296-.48 1.56 1.992 2.232 2.472.672a65.423 65.423 0 0 1 1.488-4.32c1.968.072 3.888.408 5.784.96.192 1.008.312 2.016.408 3.048.144 1.608 2.688 1.632 2.544 0a33.557 33.557 0 0 0-.384-3.12Zm-7.392-3.384a99.97 99.97 0 0 1 2.232-4.92 36.079 36.079 0 0 1 1.992 5.592c-1.392-.336-2.784-.576-4.224-.672Zm10.977-4.752c-.408.192-.648.672-.648 1.104 0 3.288-.024 6.6-.024 9.888 0 1.392 1.776 1.608 2.376.672.168.144.432.24.72.264 8.568.552 4.008-15.12-2.424-11.928Zm2.424 9.384c-.216-.024-.384.024-.552.072.024-2.424.024-4.848.048-7.296 2.064.624 4.92 7.512.504 7.224Zm7.232-11.52a45.258 45.258 0 0 0 1.296 10.464c.384 1.584 2.856.912 2.472-.672-.792-3.24-1.2-6.48-1.2-9.792-.024-1.632-2.568-1.632-2.568 0Zm17.047 1.056c-.72 1.728-1.2 3.48-1.44 5.304-2.184-2.352-4.368-4.68-6.552-7.008-.6-.648-1.992-.384-2.112.576-.552 3.816-.744 7.632-.48 11.496.12 1.608 2.664 1.632 2.544 0-.168-2.784-.168-5.544.096-8.304 2.208 2.376 4.416 4.752 6.624 7.104.792.84 2.16.168 2.184-.888.048-2.664.576-5.136 1.584-7.608.648-1.512-1.824-2.16-2.448-.672Zm16.365-2.76c-7.56-3.456-14.976 6.864-9.288 12.96 2.208 2.376 6.312 3.048 8.88.84 2.496-2.16 2.592-6.168.192-8.4-1.2-1.128-3 .672-1.8 1.8 1.56 1.44 1.272 4.08-.672 5.088-2.04 1.032-4.536-.264-5.448-2.16-2.04-4.08 2.208-10.056 6.84-7.944 1.488.672 2.784-1.512 1.296-2.184Zm32.995 2.088c-2.688.912-6.096 3.288-4.344 6.552.648 1.176 1.8 1.704 3 2.136 1.008.36 2.808.576 3.408 1.536 1.872 2.328-.6 3.528-2.376 2.784a14.684 14.684 0 0 1-1.992-.864c-1.464-.744-2.76 1.464-1.296 2.184 2.832 1.392 8.424 2.64 9.024-2.016.24-1.848-1.008-3.648-2.472-4.632-.912-.624-1.92-.888-2.952-1.248-.432-.144-1.224-.24-1.536-.576-1.872-1.944 1.104-3.024 2.208-3.408 1.56-.528.888-2.976-.672-2.448Zm19.821-2.376c-3.528.384-7.08.48-10.632.264-1.632-.096-1.632 2.448 0 2.544 1.536.096 3.072.12 4.584.12-.072.144-.12.336-.144.552a68.16 68.16 0 0 0 .168 9.648c.144 1.608 2.688 1.632 2.544 0a68.16 68.16 0 0 1-.168-9.648 1.009 1.009 0 0 0-.12-.624 64.637 64.637 0 0 0 3.768-.312c1.632-.168 1.632-2.712 0-2.544Zm14.185 10.704c-1.56-1.176-2.976-2.472-4.32-3.864 1.968-.6 4.104-1.56 4.488-3.456.528-2.736-2.736-5.064-4.968-5.736-1.944-.576-4.8-.768-5.424 1.608-.456 1.776-.048 4.32-.048 6.168.024 2.568.024 5.136.024 7.704 0 1.632 2.544 1.632 2.544 0v-6.24a.502.502 0 0 0 .096.144c1.92 2.184 4.032 4.104 6.312 5.88 1.32.984 2.591-1.224 1.296-2.208Zm-7.776-5.256c-.096-1.512-.216-3.096.048-4.416.24-1.128-.168-1.248 1.224-1.104a5.223 5.223 0 0 1 2.52.888c1.656 1.128 1.2 2.664-.48 3.336-.84.312-1.704.552-2.568.768-.36.072-.6.264-.744.528Zm23.211 6.816c.34-.552.29-1.392-.36-1.824a36.633 36.633 0 0 0-3.7-9.936c-.45-.84-1.75-.84-2.2 0a87.324 87.324 0 0 0-3.87 8.352c-.81.24-1.05 1.2-.72 1.872-.5 1.416-1.01 2.832-1.46 4.296-.48 1.56 1.99 2.232 2.47.672a69.12 69.12 0 0 1 1.49-4.32c1.97.072 3.89.408 5.78.96.19 1.008.31 2.016.41 3.048.14 1.608 2.69 1.632 2.54 0a32.25 32.25 0 0 0-.38-3.12Zm-7.39-3.384a96.33 96.33 0 0 1 2.23-4.92 35.258 35.258 0 0 1 1.99 5.592c-1.39-.336-2.78-.576-4.22-.672Zm22.16-8.88c-3.53.384-7.08.48-10.63.264-1.64-.096-1.64 2.448 0 2.544 1.53.096 3.07.12 4.58.12-.07.144-.12.336-.14.552-.17 3.216-.12 6.432.16 9.648.15 1.608 2.69 1.632 2.55 0a67.57 67.57 0 0 1-.17-9.648c.02-.264-.02-.456-.12-.624 1.27-.072 2.52-.168 3.77-.312 1.63-.168 1.63-2.712 0-2.544Zm11.66 13.44c-3.02.768-3.96-1.728-4.17-4.704.05 0 .09.024.14.024 1.3.096 2.62-.048 3.87-.48 1.53-.504.86-2.952-.7-2.448-1.03.36-2.06.48-3.17.384h-.21c.02-2.016.16-3.912.04-4.896 0-.072-.02-.144-.04-.24.16.048.36.072.52.12.08.024.15.048.22.072l1.94.528c1.61.432 2.24-1.92.68-2.448a19.83 19.83 0 0 0-5.79-1.08c-1.63-.048-1.63 2.448-.05 2.544-.04.144-.04.312-.02.504.48 3.672-.84 7.68.77 11.184 1.2 2.592 3.81 4.104 6.65 3.408 1.6-.408.93-2.856-.68-2.472Zm15.4-13.152c-7.56-3.456-14.97 6.864-9.29 12.96 2.21 2.376 6.32 3.048 8.88.84 2.5-2.16 2.6-6.168.2-8.4-1.2-1.128-3 .672-1.8 1.8 1.56 1.44 1.27 4.08-.68 5.088-2.04 1.032-4.53-.264-5.44-2.16-2.04-4.08 2.2-10.056 6.84-7.944 1.48.672 2.78-1.512 1.29-2.184Zm17.55 1.248c-.74 1.2-1.49 2.4-2.25 3.576-.8 1.296-.82 2.424-2.26 1.464-2.45-1.656-4.78-3.528-7.13-5.28-1.32-.96-2.61 1.248-1.29 2.208 1.84 1.368 3.69 2.736 5.54 4.104.62.456 1.34 1.152 2.11 1.656-.12.144-.21.336-.26.576-.41 2.16-.53 4.296-.31 6.48.16 1.632 2.73 1.632 2.56 0-.21-1.944-.16-3.864.22-5.808.05-.24.02-.456-.05-.672.79-.168 1.35-.768 1.83-1.44 1.27-1.776 2.35-3.744 3.5-5.592.89-1.392-1.32-2.664-2.21-1.272Zm41.42 10.728c.34-.552.29-1.392-.36-1.824a36.633 36.633 0 0 0-3.7-9.936c-.45-.84-1.75-.84-2.2 0a87.324 87.324 0 0 0-3.87 8.352c-.81.24-1.05 1.2-.72 1.872-.5 1.416-1.01 2.832-1.46 4.296-.48 1.56 1.99 2.232 2.47.672a69.12 69.12 0 0 1 1.49-4.32c1.97.072 3.89.408 5.78.96.19 1.008.31 2.016.41 3.048.14 1.608 2.69 1.632 2.54 0a32.25 32.25 0 0 0-.38-3.12Zm-7.39-3.384a96.33 96.33 0 0 1 2.23-4.92 35.258 35.258 0 0 1 1.99 5.592c-1.39-.336-2.78-.576-4.22-.672Zm21.61-8.592c-7.56-3.456-14.98 6.864-9.29 12.96 2.21 2.376 6.31 3.048 8.88.84 2.5-2.16 2.59-6.168.19-8.4-1.2-1.128-3 .672-1.8 1.8 1.56 1.44 1.27 4.08-.67 5.088-2.04 1.032-4.54-.264-5.45-2.16-2.04-4.08 2.21-10.056 6.84-7.944 1.49.672 2.79-1.512 1.3-2.184Zm11.98 13.152c-3.02.768-3.96-1.728-4.18-4.704.05 0 .1.024.15.024a9.634 9.634 0 0 0 3.86-.48c1.54-.504.87-2.952-.69-2.448-1.04.36-2.07.48-3.17.384h-.22c.03-2.016.17-3.912.05-4.896a.816.816 0 0 0-.05-.24c.17.048.36.072.53.12.07.024.14.048.22.072l1.94.528c1.61.432 2.23-1.92.67-2.448a19.702 19.702 0 0 0-5.78-1.08c-1.63-.048-1.63 2.448-.05 2.544-.05.144-.05.312-.02.504.48 3.672-.84 7.68.76 11.184 1.2 2.592 3.82 4.104 6.65 3.408 1.61-.408.94-2.856-.67-2.472Zm14.8-10.392c-.72 1.728-1.2 3.48-1.44 5.304-2.19-2.352-4.37-4.68-6.55-7.008-.6-.648-2-.384-2.12.576-.55 3.816-.74 7.632-.48 11.496.12 1.608 2.67 1.632 2.55 0-.17-2.784-.17-5.544.09-8.304 2.21 2.376 4.42 4.752 6.63 7.104.79.84 2.16.168 2.18-.888.05-2.664.58-5.136 1.59-7.608.64-1.512-1.83-2.16-2.45-.672Zm14.3-.912c-4.58-2.952-9.43 2.688-9.24 7.152.24 5.952 8.28 6.336 12.48 4.896 1.54-.528.86-3-.7-2.448-2.44.84-7.36 1.44-8.92-1.368-1.47-2.616 2.06-7.992 5.11-6.024 1.37.888 2.66-1.32 1.27-2.208Zm20.11-.6c-.75 1.2-1.49 2.4-2.26 3.576-.79 1.296-.82 2.424-2.26 1.464-2.44-1.656-4.77-3.528-7.12-5.28-1.32-.96-2.62 1.248-1.3 2.208 1.85 1.368 3.7 2.736 5.54 4.104.63.456 1.35 1.152 2.12 1.656a1.31 1.31 0 0 0-.27.576c-.41 2.16-.53 4.296-.31 6.48.17 1.632 2.74 1.632 2.57 0-.22-1.944-.17-3.864.21-5.808.05-.24.03-.456-.04-.672.79-.168 1.34-.768 1.82-1.44 1.27-1.776 2.35-3.744 3.5-5.592.89-1.392-1.32-2.664-2.2-1.272Zm-343.47 29.456a45.258 45.258 0 0 0 1.296 10.464c.384 1.584 2.856.912 2.472-.672-.792-3.24-1.2-6.48-1.2-9.792-.024-1.632-2.568-1.632-2.568 0Zm17.047 1.056c-.72 1.728-1.2 3.48-1.44 5.304-2.184-2.352-4.368-4.68-6.552-7.008-.6-.648-1.992-.384-2.112.576-.552 3.816-.744 7.632-.48 11.496.12 1.608 2.664 1.632 2.544 0-.168-2.784-.168-5.544.096-8.304 2.208 2.376 4.416 4.752 6.624 7.104.792.84 2.16.168 2.184-.888.048-2.664.576-5.136 1.584-7.608.648-1.512-1.824-2.16-2.448-.672Zm41.026-3.048c-3.528.384-7.08.48-10.632.264-1.632-.096-1.632 2.448 0 2.544 1.536.096 3.072.12 4.584.12-.072.144-.12.336-.144.552a68.16 68.16 0 0 0 .168 9.648c.144 1.608 2.688 1.632 2.544 0a68.16 68.16 0 0 1-.168-9.648 1.009 1.009 0 0 0-.12-.624 64.637 64.637 0 0 0 3.768-.312c1.632-.168 1.632-2.712 0-2.544Zm16.585 2.064c-.144-1.632-2.688-1.632-2.568 0 .336 4.104.672 8.184.984 12.288.144 1.608 2.688 1.632 2.568 0-.336-4.104-.672-8.184-.984-12.288Zm-4.008 3.984a23.61 23.61 0 0 1-5.52.264 65.265 65.265 0 0 0-.792-4.224c-.36-1.608-2.808-.912-2.472.672.888 3.96 1.344 7.944 1.416 12.024.024 1.632 2.592 1.632 2.568 0a68.361 68.361 0 0 0-.384-5.904 28.166 28.166 0 0 0 5.856-.384c1.632-.264.936-2.712-.672-2.448Zm15.439 7.392c-3.024.768-3.96-1.728-4.176-4.704.048 0 .096.024.144.024a9.636 9.636 0 0 0 3.864-.48c1.536-.504.864-2.952-.696-2.448a7.444 7.444 0 0 1-3.168.384h-.216c.024-2.016.168-3.912.048-4.896 0-.072-.024-.144-.048-.24.168.048.36.072.528.12l.216.072 1.944.528c1.608.432 2.232-1.92.672-2.448a19.729 19.729 0 0 0-5.784-1.08c-1.632-.048-1.632 2.448-.048 2.544-.048.144-.048.312-.024.504.48 3.672-.84 7.68.768 11.184 1.2 2.592 3.816 4.104 6.648 3.408 1.608-.408.936-2.856-.672-2.472Zm35.836-5.592c.624-.744.936-1.656.456-3-1.056-2.928-4.248-3.096-6.888-2.76-1.416.192-1.584 2.184-.48 2.52-.12 3.624.144 7.2.768 10.8.144.84.912 1.056 1.536.816.096.072.192.12.312.168 3.24 1.08 7.368-.144 7.776-3.984.288-2.712-1.392-4.032-3.48-4.56Zm-2.064-2.4c.456 1.344-1.512 1.848-2.304 2.352a39.217 39.217 0 0 1 0-3.36c1.008 0 2.04.192 2.304 1.008Zm-1.536 8.496a.7.7 0 0 0-.216-.048 50.29 50.29 0 0 1-.432-3.768c.144.048.312.072.504.048 1.608-.168 4.608-.576 4.656 1.776.072 2.472-2.88 2.544-4.512 1.992Zm21.983-1.68c.336-.552.288-1.392-.36-1.824a36.822 36.822 0 0 0-3.696-9.936c-.456-.84-1.752-.84-2.208 0a87.77 87.77 0 0 0-3.864 8.352c-.816.24-1.056 1.2-.72 1.872-.504 1.416-1.008 2.832-1.464 4.296-.48 1.56 1.992 2.232 2.472.672a65.423 65.423 0 0 1 1.488-4.32c1.968.072 3.888.408 5.784.96.192 1.008.312 2.016.408 3.048.144 1.608 2.688 1.632 2.544 0a33.557 33.557 0 0 0-.384-3.12Zm-7.392-3.384a99.97 99.97 0 0 1 2.232-4.92 36.079 36.079 0 0 1 1.992 5.592c-1.392-.336-2.784-.576-4.224-.672Zm10.305-8.088c.192 2.184.36 4.392.552 6.576.144 1.752 0 3.84.624 5.472 1.224 3.168 6.312 1.92 8.853 1.896 1.66 0 1.66-2.544 0-2.544-1.389.024-2.805.048-4.197.048-2.136.024-2.424-1.032-2.568-2.976-.24-2.832-.48-5.64-.696-8.472-.144-1.632-2.688-1.632-2.568 0Zm25.649-.792c-3.52.384-7.08.48-10.63.264-1.63-.096-1.63 2.448 0 2.544 1.54.096 3.07.12 4.59.12-.08.144-.12.336-.15.552a67.57 67.57 0 0 0 .17 9.648c.14 1.608 2.69 1.632 2.54 0a69.064 69.064 0 0 1-.16-9.648c.02-.264-.03-.456-.12-.624 1.27-.072 2.52-.168 3.76-.312 1.64-.168 1.64-2.712 0-2.544Zm3.75 1.992c.02 3.528.45 7.032 1.29 10.464.39 1.584 2.86.912 2.48-.672-.8-3.24-1.2-6.48-1.2-9.792-.03-1.632-2.57-1.632-2.57 0Zm15.58.144c-4.58-2.952-9.43 2.688-9.24 7.152.24 5.952 8.28 6.336 12.48 4.896 1.54-.528.87-3-.69-2.448-2.45.84-7.37 1.44-8.93-1.368-1.47-2.616 2.06-7.992 5.11-6.024 1.37.888 2.66-1.32 1.27-2.208Zm11.44.24c-2.68.912-6.09 3.288-4.34 6.552.65 1.176 1.8 1.704 3 2.136 1.01.36 2.81.576 3.41 1.536 1.87 2.328-.6 3.528-2.38 2.784-.69-.24-1.34-.528-1.99-.864-1.46-.744-2.76 1.464-1.3 2.184 2.84 1.392 8.43 2.64 9.03-2.016.24-1.848-1.01-3.648-2.47-4.632-.92-.624-1.92-.888-2.96-1.248-.43-.144-1.22-.24-1.53-.576-1.87-1.944 1.1-3.024 2.21-3.408 1.56-.528.88-2.976-.68-2.448Zm9.19 13.32c1.66 0 1.66-2.544 0-2.544-1.63 0-1.63 2.544 0 2.544Z"/><path stroke="#4D4D4D" stroke-linecap="round" stroke-width="3" d="M416.184 460.835c-.275-2.469-2.828-3.478-3.993-5.641-3.076-5.714-6.007-12.287-7.637-18.572-3.153-12.161-5.554-23.752-5.554-36.363 0-15.849 8.577-30.481 17.965-43.133 13.152-17.727 29.846-30.727 49.207-41.483 31.248-17.36 69.242-16.708 99.63 1.128 31.555 18.522 63.062 47.712 71.424 84.876 4.027 17.897 8.415 35.06 2.343 52.939-5.219 15.368-14.89 26.732-22.651 40.529-18.986 33.752-64.922 30.974-98.848 27.858-26.661-2.448-57.755-10.196-79.236-26.903-7.183-5.587-12.668-9.76-17.964-17.705-3.861-5.791-10.309-10.966-12.497-17.53"/><path stroke="#4D4D4D" stroke-linecap="round" stroke-width="3" d="M514.882 304.677v88.728c0 22.143 5.6 44.374 7.893 66.391 2.154 20.683 2.321 41.359 2.321 62.16"/><path stroke="#4D4D4D" stroke-linecap="round" stroke-width="3" d="M401.6 382.675c4.286 8.571 11.891 17.282 18.571 24.142 1.14 1.171 9.851 12.053 10.42 11.142 1.731-2.768 5.918-5.309 8.357-7.428a122.704 122.704 0 0 0 10.936-10.73c.647-.718 5.262-8.924 6.5-7.376 5.964 7.455 14.652 13.398 21.924 19.551 2.836 2.399 5.57 4.692 8.202 7.325.38.379 3.248 2.997 3.353 2.734 3.139-7.846 11.819-14.089 17.642-19.912 2.739-2.739 5.336-10.535 8.306-12.02m8.357 79.855h85.426c2.742 0 19.102 1.722 20.428-.929"/><path fill="#060606" d="M208.32 383.4a60.58 60.58 0 0 1-4.752-8.88c-.48-1.128-1.896-.6-2.256.288a68.059 68.059 0 0 1-4.944 10.224 76.798 76.798 0 0 1-3.48-9.552c-.48-1.56-2.832-.888-2.376.672 1.224 4.2 2.784 8.208 4.656 12.144.432.912 1.632.744 2.112 0a69.181 69.181 0 0 0 5.28-10.056c1.44 2.928 3.072 5.736 4.992 8.4.648.936 1.824.744 2.232-.312 1.512-3.768 3.048-7.56 4.56-11.328.624-1.512-1.752-2.16-2.352-.672l-3.672 9.072Zm16.563 1.656c-3.024.768-3.96-1.728-4.176-4.704.048 0 .096.024.144.024a9.636 9.636 0 0 0 3.864-.48c1.536-.504.864-2.952-.696-2.448a7.444 7.444 0 0 1-3.168.384h-.216c.024-2.016.168-3.912.048-4.896 0-.072-.024-.144-.048-.24.168.048.36.072.528.12l.216.072 1.944.528c1.608.432 2.232-1.92.672-2.448a19.729 19.729 0 0 0-5.784-1.08c-1.632-.048-1.632 2.448-.048 2.544-.048.144-.048.312-.024.504.48 3.672-.84 7.68.768 11.184 1.2 2.592 3.816 4.104 6.648 3.408 1.608-.408.936-2.856-.672-2.472Zm6.255-15.264c-.696 1.848-1.392 3.672-2.088 5.52-.576 1.536 1.896 2.208 2.472.672.696-1.824 1.368-3.672 2.064-5.52.576-1.536-1.872-2.208-2.448-.672Zm15.514 12.528c-1.56-1.176-2.976-2.472-4.32-3.864 1.968-.6 4.104-1.56 4.488-3.456.528-2.736-2.736-5.064-4.968-5.736-1.944-.576-4.8-.768-5.424 1.608-.456 1.776-.048 4.32-.048 6.168.024 2.568.024 5.136.024 7.704 0 1.632 2.544 1.632 2.544 0v-6.24a.502.502 0 0 0 .096.144c1.92 2.184 4.032 4.104 6.312 5.88 1.32.984 2.592-1.224 1.296-2.208Zm-7.776-5.256c-.096-1.512-.216-3.096.048-4.416.24-1.128-.168-1.248 1.224-1.104a5.223 5.223 0 0 1 2.52.888c1.656 1.128 1.2 2.664-.48 3.336-.84.312-1.704.552-2.568.768-.36.072-.6.264-.744.528Zm18.771 7.992c-3.024.768-3.96-1.728-4.176-4.704.048 0 .096.024.144.024a9.636 9.636 0 0 0 3.864-.48c1.536-.504.864-2.952-.696-2.448a7.444 7.444 0 0 1-3.168.384h-.216c.024-2.016.168-3.912.048-4.896 0-.072-.024-.144-.048-.24.168.048.36.072.528.12l.216.072 1.944.528c1.608.432 2.232-1.92.672-2.448a19.729 19.729 0 0 0-5.784-1.08c-1.632-.048-1.632 2.448-.048 2.544-.048.144-.048.312-.024.504.48 3.672-.84 7.68.768 11.184 1.2 2.592 3.816 4.104 6.648 3.408 1.608-.408.936-2.856-.672-2.472Zm38.643-2.736c-1.56-1.176-2.976-2.472-4.32-3.864 1.968-.6 4.104-1.56 4.488-3.456.528-2.736-2.736-5.064-4.968-5.736-1.944-.576-4.8-.768-5.424 1.608-.456 1.776-.048 4.32-.048 6.168.024 2.568.024 5.136.024 7.704 0 1.632 2.544 1.632 2.544 0v-6.24a.502.502 0 0 0 .096.144c1.92 2.184 4.032 4.104 6.312 5.88 1.32.984 2.592-1.224 1.296-2.208Zm-7.776-5.256c-.096-1.512-.216-3.096.048-4.416.24-1.128-.168-1.248 1.224-1.104a5.223 5.223 0 0 1 2.52.888c1.656 1.128 1.2 2.664-.48 3.336-.84.312-1.704.552-2.568.768-.36.072-.6.264-.744.528Zm18.771 7.992c-3.024.768-3.96-1.728-4.176-4.704.048 0 .096.024.144.024a9.636 9.636 0 0 0 3.864-.48c1.536-.504.864-2.952-.696-2.448a7.444 7.444 0 0 1-3.168.384h-.216c.024-2.016.168-3.912.048-4.896 0-.072-.024-.144-.048-.24.168.048.36.072.528.12l.216.072 1.944.528c1.608.432 2.232-1.92.672-2.448a19.729 19.729 0 0 0-5.784-1.08c-1.632-.048-1.632 2.448-.048 2.544-.048.144-.048.312-.024.504.48 3.672-.84 7.68.768 11.184 1.2 2.592 3.816 4.104 6.648 3.408 1.608-.408.936-2.856-.672-2.472Zm16.455-1.176c.336-.552.288-1.392-.36-1.824a36.822 36.822 0 0 0-3.696-9.936c-.456-.84-1.752-.84-2.208 0a87.77 87.77 0 0 0-3.864 8.352c-.816.24-1.056 1.2-.72 1.872-.504 1.416-1.008 2.832-1.464 4.296-.48 1.56 1.992 2.232 2.472.672a65.423 65.423 0 0 1 1.488-4.32c1.968.072 3.888.408 5.784.96.192 1.008.312 2.016.408 3.048.144 1.608 2.688 1.632 2.544 0a33.557 33.557 0 0 0-.384-3.12Zm-7.392-3.384a99.97 99.97 0 0 1 2.232-4.92 36.079 36.079 0 0 1 1.992 5.592c-1.392-.336-2.784-.576-4.224-.672Zm10.977-4.752c-.408.192-.648.672-.648 1.104 0 3.288-.024 6.6-.024 9.888 0 1.392 1.776 1.608 2.376.672.168.144.432.24.72.264 8.568.552 4.008-15.12-2.424-11.928Zm2.424 9.384c-.216-.024-.384.024-.552.072.024-2.424.024-4.848.048-7.296 2.064.624 4.92 7.512.504 7.224Zm20.72-11.976c-.744 1.2-1.488 2.4-2.256 3.576-.792 1.296-.816 2.424-2.256 1.464-2.448-1.656-4.776-3.528-7.128-5.28-1.32-.96-2.616 1.248-1.296 2.208l5.544 4.104c.624.456 1.344 1.152 2.112 1.656-.12.144-.216.336-.264.576-.408 2.16-.528 4.296-.312 6.48.168 1.632 2.736 1.632 2.568 0-.216-1.944-.168-3.864.216-5.808.048-.24.024-.456-.048-.672.792-.168 1.344-.768 1.824-1.44 1.272-1.776 2.352-3.744 3.504-5.592.888-1.392-1.32-2.664-2.208-1.272Zm33.929 1.08c1.176-.432 2.496-.576 3.744-.792 1.608-.264.936-2.712-.696-2.448-2.184.36-6.984.648-7.752 3.312-.432 1.464.096 3.432.216 4.92l.552 7.032c.12 1.608 2.688 1.632 2.544 0-.168-2.064-.312-4.128-.48-6.216h4.824c1.656 0 1.656-2.544 0-2.544h-5.04c-.144-2.064-.072-2.52 2.088-3.264Zm17.367 4.608c-.336-3.312-3.624-4.728-6.408-5.616-.984-.312-1.608.528-1.56 1.32-3.792 2.784-2.688 9.816 2.832 9.864 2.976 0 5.424-2.568 5.136-5.568Zm-5.136 3.024c-3.072-.048-3.504-4.584-.816-5.592a.572.572 0 0 0 .264-.144c1.104.408 2.184.96 2.784 1.92 1.032 1.68-.288 3.84-2.232 3.816Zm18.117.456c-1.56-1.176-2.976-2.472-4.32-3.864 1.968-.6 4.104-1.56 4.488-3.456.528-2.736-2.736-5.064-4.968-5.736-1.944-.576-4.8-.768-5.424 1.608-.456 1.776-.048 4.32-.048 6.168.024 2.568.024 5.136.024 7.704 0 1.632 2.544 1.632 2.544 0v-6.24a.502.502 0 0 0 .096.144c1.92 2.184 4.032 4.104 6.312 5.88 1.32.984 2.592-1.224 1.296-2.208Zm-7.776-5.256c-.096-1.512-.216-3.096.048-4.416.24-1.128-.168-1.248 1.224-1.104a5.223 5.223 0 0 1 2.52.888c1.656 1.128 1.2 2.664-.48 3.336-.84.312-1.704.552-2.568.768-.36.072-.6.264-.744.528Zm48.448-3.912c-.744 1.2-1.488 2.4-2.256 3.576-.792 1.296-.816 2.424-2.256 1.464-2.448-1.656-4.776-3.528-7.128-5.28-1.32-.96-2.616 1.248-1.296 2.208l5.544 4.104c.624.456 1.344 1.152 2.112 1.656-.12.144-.216.336-.264.576-.408 2.16-.528 4.296-.312 6.48.168 1.632 2.736 1.632 2.568 0-.216-1.944-.168-3.864.216-5.808.048-.24.024-.456-.048-.672.792-.168 1.344-.768 1.824-1.44 1.272-1.776 2.352-3.744 3.504-5.592.888-1.392-1.32-2.664-2.208-1.272Zm15.149 5.688c-.336-3.312-3.624-4.728-6.408-5.616-.984-.312-1.608.528-1.56 1.32-3.792 2.784-2.688 9.816 2.832 9.864 2.976 0 5.424-2.568 5.136-5.568Zm-5.136 3.024c-3.072-.048-3.504-4.584-.816-5.592a.572.572 0 0 0 .264-.144c1.104.408 2.184.96 2.784 1.92 1.032 1.68-.288 3.84-2.232 3.816Zm8.062-7.104c.72 3.84-3.072 13.344 4.128 13.68 2.376.12 4.416-1.68 5.424-3.672 1.536-3.024.696-6.696 1.032-9.912.168-1.632-2.376-1.632-2.544 0-.216 2.064.024 4.152-.144 6.24-.192 2.064-2.352 6.72-4.968 4.104-1.488-1.488-.912-4.008-.6-5.832.312-1.8.48-3.48.144-5.28-.312-1.608-2.76-.936-2.472.672Zm15.267 8.208-2.088 5.544c-.576 1.536 1.896 2.184 2.472.672.696-1.848 1.368-3.696 2.064-5.544.576-1.536-1.896-2.184-2.448-.672Zm41.543.912c.336-.552.288-1.392-.36-1.824a36.822 36.822 0 0 0-3.696-9.936c-.456-.84-1.752-.84-2.208 0a87.77 87.77 0 0 0-3.864 8.352c-.816.24-1.056 1.2-.72 1.872-.504 1.416-1.008 2.832-1.464 4.296-.48 1.56 1.992 2.232 2.472.672a65.423 65.423 0 0 1 1.488-4.32c1.968.072 3.888.408 5.784.96.192 1.008.312 2.016.408 3.048.144 1.608 2.688 1.632 2.544 0a33.557 33.557 0 0 0-.384-3.12Zm-7.392-3.384a99.97 99.97 0 0 1 2.232-4.92 36.079 36.079 0 0 1 1.992 5.592c-1.392-.336-2.784-.576-4.224-.672Zm20.744 1.824c-1.56-1.176-2.976-2.472-4.32-3.864 1.968-.6 4.104-1.56 4.488-3.456.528-2.736-2.736-5.064-4.968-5.736-1.944-.576-4.8-.768-5.424 1.608-.456 1.776-.048 4.32-.048 6.168.024 2.568.024 5.136.024 7.704 0 1.632 2.544 1.632 2.544 0v-6.24a.502.502 0 0 0 .096.144c1.92 2.184 4.032 4.104 6.312 5.88 1.32.984 2.592-1.224 1.296-2.208Zm-7.776-5.256c-.096-1.512-.216-3.096.048-4.416.24-1.128-.168-1.248 1.224-1.104a5.223 5.223 0 0 1 2.52.888c1.656 1.128 1.2 2.664-.48 3.336-.84.312-1.704.552-2.568.768-.36.072-.6.264-.744.528Zm18.771 7.992c-3.024.768-3.96-1.728-4.176-4.704.048 0 .096.024.144.024a9.636 9.636 0 0 0 3.864-.48c1.536-.504.864-2.952-.696-2.448a7.444 7.444 0 0 1-3.168.384h-.216c.024-2.016.168-3.912.048-4.896 0-.072-.024-.144-.048-.24.168.048.36.072.528.12l.216.072 1.944.528c1.608.432 2.232-1.92.672-2.448a19.729 19.729 0 0 0-5.784-1.08c-1.632-.048-1.632 2.448-.048 2.544-.048.144-.048.312-.024.504.48 3.672-.84 7.68.768 11.184 1.2 2.592 3.816 4.104 6.648 3.408 1.608-.408.936-2.856-.672-2.472Zm41.692-11.904c-.744 1.2-1.488 2.4-2.256 3.576-.792 1.296-.816 2.424-2.256 1.464-2.448-1.656-4.776-3.528-7.128-5.28-1.32-.96-2.616 1.248-1.296 2.208l5.544 4.104c.624.456 1.344 1.152 2.112 1.656-.12.144-.216.336-.264.576-.408 2.16-.528 4.296-.312 6.48.168 1.632 2.736 1.632 2.568 0-.216-1.944-.168-3.864.216-5.808.048-.24.024-.456-.048-.672.792-.168 1.344-.768 1.824-1.44 1.272-1.776 2.352-3.744 3.504-5.592.888-1.392-1.32-2.664-2.208-1.272Zm15.149 5.688c-.336-3.312-3.624-4.728-6.408-5.616-.984-.312-1.608.528-1.56 1.32-3.792 2.784-2.688 9.816 2.832 9.864 2.976 0 5.424-2.568 5.136-5.568Zm-5.136 3.024c-3.072-.048-3.504-4.584-.816-5.592a.572.572 0 0 0 .264-.144c1.104.408 2.184.96 2.784 1.92 1.032 1.68-.288 3.84-2.232 3.816Zm8.062-7.104c.72 3.84-3.072 13.344 4.128 13.68 2.376.12 4.416-1.68 5.424-3.672 1.536-3.024.696-6.696 1.032-9.912.168-1.632-2.376-1.632-2.544 0-.216 2.064.024 4.152-.144 6.24-.192 2.064-2.352 6.72-4.968 4.104-1.488-1.488-.912-4.008-.6-5.832.312-1.8.48-3.48.144-5.28-.312-1.608-2.76-.936-2.472.672Zm15.939 2.016c-.264-.84-.408-1.512-.12-2.376.504-1.536 2.52-2.112 3.216-.504.504 1.176.048 2.688-.456 3.768-.984 2.136-2.16 3.888-2.472 6.264-.216 1.632 2.352 1.608 2.544 0 .504-3.84 5.976-9.24 1.416-12.84-1.512-1.176-3.6-1.08-5.112.096-1.968 1.536-2.184 4.056-1.488 6.288.504 1.536 2.976.888 2.472-.696Zm1.992 13.632c1.656 0 1.656-2.544 0-2.544-1.632 0-1.632 2.544 0 2.544Z"/><path stroke="#15CE79" stroke-linecap="round" stroke-width="3" d="M343 275.098c2.574 0 4.713-1.183 7.406-1.093 3.335.111 5.728 1.992 8.742 3.035 3.941 1.364 8.169 6.409 8.924 10.563 1.044 5.741 2.246 12.03 2.246 17.969v6.01c0 1.786-2.784-2.278-4.371-3.096-2.751-1.417-5.762-4.605-8.742-4.978-1.045-.131-2.666-1.945-.607 0 4.256 4.02 10.005 7.447 15.116 10.199 1.117.601 15.08-13.562 17.18-15.662"/><path stroke="#4D4D4D" stroke-linecap="round" stroke-width="3" d="M791.657 349c2.999 22.945 2.263 45.947 2.263 69.019 0 20.467.076 40.765-2.766 61.091-2.028 14.51-.484 29.324-2.011 43.836-1.119 10.633-2.012 21.551-2.012 32.236 0 24.311-1.131 97.235-1.131 72.925"/><path stroke="#4D4D4D" stroke-linecap="round" stroke-width="3" d="M742.303 325c-1.687 19.429.368 39.306-.058 58.827-.392 17.999-2.139 36.392-3.576 54.351-1.959 24.479-3.368 49.039-4.615 73.533-.54 10.628-3.172 20.816-3.172 31.506 0 9.861-2.077 19.458-2.077 29.181 0 3.165-1.957 14.64.231 17.09 8.652 9.688 19.991 16.935 28.61 26.972 5.6 6.522 11.701 10.389 18.919 13.835 1.979.945 4.376 3.21 6.461 3.371 1.675.13 7.279 4.267 3.922 3.139M784 641c13.535-.181 27.135-1.2 40.659-1.881 26.637-1.343 53.376-.176 80.04-1.294 51.123-2.143 101.281-10.935 152.191-15.345 20.08-1.739 40.08-4.609 60.05-7.349 14.05-1.929 28.83-.588 42.99-.588 7.95 0 17.7-1.551 25.49.588 3.94 1.08 7.68 2.249 11.78 2.528 1.29.089 5.86.01 2.72 1.117"/><path stroke="#4D4D4D" stroke-linecap="round" stroke-width="3" d="M1211 289c.93 10.608-4.37 79.401-6.37 89.867-1.47 7.705-2.62 14.893-2.72 22.728-.23 18.387-3.27 36.649-3.27 55.165 0 28.063-2.44 57.646 2.18 85.393 1.59 9.536 0 18.206 0 27.669v23.834c0 8.563-1.09 16.823-1.09 25.344m-379.451 22.352c3.687 8.239.557 21.515 0 29.952-.672 10.173-3.193 20.351-3.193 30.538 0 3.981-3.55 15.461 2.188 14.036 4.55-1.129 9.924 1.85 10.821-2.407 2.149-10.198 1.892-21.035 1.892-31.42 0-4.839-.316-9.81.237-14.623.572-4.991 2.96-9.536 3.784-14.448.736-4.385-.292-8.894.296-13.272.558-4.158 4.112-10.575-1.124-3.641M741.243 605c-.16 9.19-2.493 17.642-3.664 26.653-.836 6.443-.215 13.318-.215 19.817 0 5.623-2.171 11.431 4.094 11.431 4.338 0 3.738.96 3.663-3.102-.157-8.534 1.34-16.682 1.94-25.159.499-7.055 1.939-14.715 1.939-21.368m401 4.389c-2.27 9.591-2.3 19.338-4.33 29.004-2.18 10.34-4.9 21.046-4.9 31.705 0 2.374.55 5.434-1.09 7.398-1.43 1.717-13.2 1.45-15.33.352-1.45-.746 2.09-14.496 2.28-16.44.95-9.596 3.17-21.27 6.5-30.296 2.17-5.901 3.53-10.6 3.53-16.968 0-1.602-1.03-8.605-1.03-3.699M1141 693c5.82-14.443 12.13-29.755 25.73-38.812 2.14-1.427 8.5-5.607 6.78-3.697-3.5 3.914-6.25 7.482-8.3 12.36-3.44 8.164-5.26 15.35-5.26 24.2 0 .616.24-1.217.47-1.79 1.21-3.053 3.16-5.867 5.02-8.548 4.88-7.01 10.53-13.2 17.43-18.309.94-.695 5.23-4.274 3.74-.636-2.8 6.866-6.48 13.375-9.35 20.215-1.31 3.104-3.48 8.031-2.46 11.552.3 1.036 8.12-7.695 8.89-8.491 5.01-5.182 15.71-15.804 12.05-1.79-2.43 9.291 1.94 4.44 5.26-.809M807 689c1.09 10.686 2 21.262 2 32m-18-39c3.294 10.426 7.803 21.347 8.953 32.283.106 1.014 0 2.883 0 .709M788 698a1393.233 1393.233 0 0 1 3 20m-76-66 6 7m-27-5h10m220-78c42.125-2.288 84.06-4.434 126.22-5 10.43-.14 20.77-1 31.22-1 2.36 0 15.33-1.784 17.12 0 .59.597-1.51 1.157-1.56 2-.07 1.324 0 2.675 0 4 0 3.143 1.42 7-2.44 7-21.16 0-42.34-2-63.56-2-32.737 0-65.257 1.879-97.778 3-1.896.066-15.098 3.103-15.222 1-.114-1.941.41-3.695-.778-5.222-.448-.576 9.504-.778 10.778-.778M777 349c5.022-.186 9.308-2.251 14.111-3.5 11.94-3.104 23.948-5.879 35.889-9 24.474-6.397 49.308-11.834 74-17.278 24.83-5.474 50.183-9.877 75.333-13.666 25.697-3.873 51.537-4.235 77.387-6.056 39.57-2.786 79.15-4.642 118.45-10 9.85-1.343 19.61-2.016 29.5-2.722 7.83-.56 16.2-.18 23.89-2 2.91-.691 5.41-.778 8.44-.778h2m-459 66c-1.62-4.5-4.537-8.829-8.222-11.778-1.613-1.29-3.47.168-4.333 1.278-1.383 1.778-3.389 1.614-5.445 1.5-8.512-.473 1.316-16-9.5-16-6.381 0-15.5 7.268-15.5-4.5 0-4.179-4.172-4.5-7.5-4.5-2.049 0-9.856 2.548-5.5 4m0-6c6.251-3.542 14.113-4.214 21-6 12.38-3.21 25.777-4.587 38.444-6.444 9.599-1.408 19.489-1.796 28.778-4.778 9.126-2.93 18.599-4.916 28-6.778 34.002-6.733 66.763-18.121 100.778-25 50.384-10.19 102.58-16 154-16m-272 70c30.078-3.2 59.004-11.221 88.556-17 24.737-4.838 49.799-7.245 74.555-11.778 17.259-3.161 34.539-4.019 51.889-6.222 19.63-2.493 39.83-1.38 59.33-4.556 11.77-1.915 22.84-3.444 34.84-3.444 10.85 0 21.51-2 32.33-2 9.38 0 19.22-1.051 28.5-2.5 3.07-.479 18.6.958 10-1.5m-217 6c26.61-3.038 53.1-5.458 79.56-9.444 14.92-2.25 29.96-1.383 45-1.556 6.53-.075 12.32-3 19-3 3.17 0 16.61-1 6.44-1"/><path stroke="#4D4D4D" stroke-linecap="round" stroke-width="3" d="M1086 251c5.45 0 10.07-.08 14.78 3 2.67 1.745 7.22 6.747 7.22 10m23 0c4.98 0 18.74-2.377 22.22 3 1.87 2.885 9.24 7 12.78 7m27 0c9.04 0 16.74-1.265 23.5 5.5 4.37 4.367 13.78 2.5 19.5 2.5m-112 259c-2.5-4.478-4.66-12.075 1.78-14.222 5.3-1.767 5.22 1.117 5.22 5.722 0 1.65-5.97 7.484-2 5.5 1.74-.869 12-8.736 12.94-4.5 1.42 6.36-11.71 12.134-16.72 9.056-5-3.078-.54.111 1.22 2.889 1.68 2.632 3 3.273 5.56 4.555m22 21c0-4.043-1.97-13.191 4.06-13.944 3.67-.459 6.71.652 4.33 4.889-1.5 2.659-10.65 4.338-7.67 5 4.46.99 8.6-2.792 12.67-1.889 3.55.789-4.96 4.86-5.17 4.944-3.34 1.321-6.67 1-10.22 1-.58 0 3.48 1.79 4.22 3 .99 1.616 2.94 3 4.78 3m-295 11c5.232-2.721 18.717-7.456 14.444-16-1.109-2.22-5.521-3.483-7.944-2.945-3.22.716-3.181 9.148-1.944 11.445 2.517 4.675.386-2.933-.778-4.5-1.984-2.671-6.944-4.834-9.778-2-2.533 2.533-.775 8.256 1 10.778 2.344 3.331 7.392 3.222 11 3.222m366-83c2.73 5.739 6.29 7.734 11.94 9.5 4.98 1.554-.03-6.725-2-8-2.84-1.847-5.59-4.643-9.16-4.5-3.15.126-2 4.261.22 5"/><path stroke="#4D4D4D" stroke-linecap="round" stroke-width="3" d="M1245 506c-1.31-5.09-2.92-10.187-1.44-15.444 1.13-4.058 6.24-8.52 10.83-7.5 3.44.765-2.55 10.03-3.39 10.944-1.52 1.651-2.64 3.644-4.22 5.222-.28.281-3.1 2.075-2.56 2.556 1.23 1.091 22.78-15.552 22.78-6.722 0 9.334-17.5 10.319-24 11.944m70-46c-5.11-8.117-5.95-22.017 7.78-21 2.92.217 1.03 10.357 0 12.222-2 3.595-4.11 6.524-7.56 8.778-4.19 2.744 2.09-3.25 3-4 4.54-3.713 8.07-5.869 13.78-7.222 3.35-.794 5.96-1.357 4.78 3.222-1.13 4.388-6.78 6.883-10.67 7.945-4.21 1.148-8.16 1.055-12.5 1.055-1.71 0 3.54.506 4.89 1.556 1.69 1.317 4.88 3.675 5.94 5.5 2.98 5.094-2.32 9.206-6.83 5.389-2.02-1.708-7.74-10.88-4.61-12.445m84-17c-4.78-4.1-13.25-16.426-3.39-20.444 13.4-5.459 9.37 9.909 3.61 15.666-.34.341-3.84 2.91-3.78 2.778 1.52-3.033 8.67-6.373 11.56-8 2.17-1.219 7.62-6.118 10.39-4.889 1.94.864.07 6.538-.61 7.667-3.34 5.523-13.98 9.348-20.11 10.167-4.35.58-4.54 2.177-.45 5.055 1.02.716 10.86 9.817 9.72 3.556-.98-5.408-7.7-5.851-8.94-9.556m51-38c-1.36-1.859-8.28-16.389-4.94-16.945 1.69-.283 5.37-.601 6.33 1.111 1.46 2.596 1.82 11.343-.83 13.834-3.47 3.25 4.14-9.54 8.5-11.445 6.47-2.832 4.89 5.374 2.44 8.389-2.79 3.439-16.24 5.566-11.83 6.056 3.78.42 8.52.422 10.33 4.5 2.13 4.79-3.05 1.45-4.78-.278-1.24-1.243-2.63-3.205-4.22-4-.46-.23-3.36-.222-2-.222m69-47c-1.85-7.394-.85-15.117 6.44-18.389 2.54-1.139 6.56-3.268 6.56.833 0 5.094-1.53 9.268-6 12-3.15 1.925-7.22.705-2.28-.944 4.26-1.42 9.72-2.956 14.28-2.5 4.03.403.82 6.33-1 7.444-3.05 1.864-16.84 7.882-19 3.556m-149 11c-1.41-3.348-2.41-11.06 1.06-13.445 3.8-2.612 8.94-2.436 8.94 2.945 0 1.63.28 2.959-1.11 4.055-.92.723-1.81 1.427-2.67 2.223-.53.488-2.28.713-1.78 1.222 2.04 2.036 10.81-4.34 12.78-4.778 1.75-.388 5.97-1.719 7.34 0 1.3 1.644-.08 4.302-1.62 5.167-3.63 2.045-10.23 3.611-14.44 3.611-1.65 0-6.48-1-4.83-1 3.84 0 5.79 2.463 8.33 5m90 100c-1.89-3.782-5.08-8.52-3.56-13 1.05-3.091 9.56-11.064 9.56-3.944 0 6.87-1.64 10.35-7.39 14.333-1.49 1.031 7.65-3.575 9.95-4.167 3.49-.897 3.75 3.175 3.44 5.778-.32 2.761-9.23 2.131-11 1.445-4.06-1.58-4.37-5.246-1-1.389 2.37 2.705 4.03 5.993 6 8.944m28.02-168.104c-2.83-1.572-8.73-6.246-9-9.778-.26-3.498 1.63-7.681 6-7.055 4.23.604 4.26 9.884 3.95 12.722-.07.619-1.84 3.382-1.84 2.278 0-4 2.5-7.936 4.89-10.945 2.17-2.727 7.29-5.425 8.78-.222 1.83 6.383-2.22 10.454-6.78 14-2.09 1.627-10.95 3.423-4.44 3.944 4.17.334 6.69 1.805 10.44 3.056M1588 367c-4.97-3.657-21.18-8.508-15-17.778.85-1.28 9.36-6.235 9.94-3.611 1.02 4.58-5.22 10.329-8.44 12.833-2.05 1.597 18.5-13.988 18.5-7.944 0 10.27-18.06 6.629-21 12.5m13 75c-5.12-1.524-30.17-6.035-25.78-17.222 1.26-3.209 9.83-7.667 13.22-7.667 3.09 0-5.25 11.914-5.88 12.834-1.02 1.473-1.73 1.428-3.12 2.277-2.02 1.247 4.69-1.093 6.78-2.222.87-.467 10.46-5.357 10.72-4.444 2.65 9.272-14.8 9.444-19.94 9.444m-31.48-220.903c-7.46-.973-25.37-.365-20.78-13.222 1.36-3.807 6.38-5.402 10.11-4.723 2.62.476-.08 10.171-1.33 11.5-4.96 5.263-2.75-.853.56-3.5 1.88-1.508 11.71-9.336 14.22-6.833 3 3.006-2.82 9.22-4.89 10.722-2.03 1.475-11.89 4.48-11.89 6.056M1562 183c-8.68.607-28.47 3.743-26.94-10 .59-5.351 7.84-8.847 12.5-9.778 3.72-.745.22 13.478-1.34 15.111-1.33 1.396-9.99 5.92-5.55 1.056 3.71-4.069 15.47-13.789 21.55-12.167 4.55 1.213-5.79 14.073-7.44 15.333-1.61 1.222-10.58 3.445-7.78 3.445m69 12c-3.51 0-35.5 4.226-26.44-8.945 5.53-8.045 15.56 1.069 9.27 5.389-.91.629-8.12 2.757-5.61.334 1.95-1.879 11.5-8.531 14.34-7.112 1.95.977-4.37 9.147-5.34 10.112-2.25 2.248-5.23 2.724-8.22 3.222m40 85c-1.98-1.396-20.91-10.944-18.89-15.5 2.05-4.606 20.69-6.105 14.78 2.333-1.52 2.166-5.26 3.175-7.67 3.945-3.57 1.142 6.42-3.895 9.78-5.556 1.49-.735 11.03-5.938 10-.444-.94 4.996-10.22 10.222-15 10.222m-7 221c-11.24-2.84-36.38-2.537-31.78-21.778.96-3.988 6.98-6.145 10.61-5.055 6.18 1.852-.3 11.357-2.72 13.222-2.57 1.987-8.12 4.06-2.89-.389 4.14-3.515 11.76-8.565 17.61-7.833 5.08.635-16.42 25.054-18.83 17.833m55-59c-5.93-.702-16.89-.943-18.89-8.445-1.02-3.832 1.74-7.131 5.11-8.555 4.39-1.854 7.43.298 6.11 5.389-1.05 4.065-6.14 5.718-9.89 5.611-5.89-.169 18.56-15.761 18.56-8.778 0 6.166-11.01 14.778-17 14.778m-9-369c-7.44 0-32.42 1.397-17.56-10.39 1.55-1.221 6.25-4.75 8.56-3.388 2.98 1.754-.42 6.337-2 7.556-4.71 3.635-4.76 1.112.06-1.723 1.23-.723 11.83-7.323 11.83-4.889 0 9.464-10.55 12.366-17.89 13.834m-379 481c5.62 3.149 19.68 12.547 13.39 13.945-7.28 1.618-9.3-6.628-13.83-10.334-.62-.507-3.45-.435-3.45-1.166 0-1.281 3.37-2.161 4.39-2.389 1.2-.267 3.39.952 3.39 2.333 0 1.764-1.89-3.18-1.89-4.944 0-4.394 6.81-10.981 8.22-4.223.58 2.783 1.29 6.307-1.44 8.334-.86.632-6.44 3.282-3.11 1.222 1.05-.652 19.21-11.039 15.89-3.778-2.45 5.358-8.01 8-13.56 8m-857.777 5.005c-2.567 5.739-5.911 7.734-11.218 9.5-4.67 1.554.036-6.725 1.878-8 2.669-1.847 5.251-4.643 8.61-4.5 2.954.126 1.873 4.261-.209 5"/><path stroke="#4D4D4D" stroke-linecap="round" stroke-width="3" d="M367.663 565.092c1.229-5.09 2.739-10.187 1.356-15.445-1.067-4.057-5.866-8.519-10.174-7.5-3.236.766 2.391 10.03 3.182 10.945 1.429 1.651 2.483 3.643 3.966 5.222.264.281 2.909 2.074 2.4 2.556-1.153 1.091-21.393-15.552-21.393-6.723 0 9.335 16.438 10.32 22.541 11.945m-74.817 15.961c4.8-8.117 5.585-22.017-7.305-21-2.746.216-.973 10.357 0 12.222 1.876 3.595 3.858 6.524 7.097 8.778 3.941 2.744-1.958-3.251-2.818-4-4.262-3.713-7.575-5.869-12.94-7.222-3.148-.794-5.594-1.357-4.488 3.222 1.06 4.388 6.362 6.882 10.019 7.944 3.954 1.149 7.667 1.056 11.74 1.056 1.606 0-3.324.505-4.592 1.555-1.59 1.317-4.583 3.676-5.583 5.5-2.791 5.094 2.181 9.207 6.418 5.389 1.895-1.707 7.271-10.879 4.331-12.444m-50.982-84.967c4.493-4.101 12.447-16.426 3.183-20.445-12.584-5.459-8.799 9.91-3.392 15.667.32.341 3.61 2.91 3.548 2.778-1.424-3.034-8.137-6.374-10.853-8-2.035-1.219-7.159-6.119-9.757-4.889-1.826.864-.068 6.537.574 7.666 3.136 5.523 13.125 9.349 18.888 10.167 4.087.58 4.259 2.177.418 5.056-.955.715-10.201 9.816-9.131 3.555.923-5.408 7.24-5.851 8.4-9.555m511.578 70.512c4.493-4.1 12.447-16.426 3.183-20.444-12.584-5.459-8.799 9.909-3.391 15.666.32.342 3.61 2.911 3.548 2.778-1.425-3.033-8.137-6.373-10.853-8-2.035-1.219-7.159-6.118-9.758-4.889-1.826.864-.067 6.538.574 7.667 3.137 5.523 13.126 9.349 18.889 10.167 4.086.58 4.259 2.177.417 5.055-.955.716-10.2 9.817-9.131 3.556.923-5.408 7.241-5.851 8.401-9.556M199.599 462.085c1.275-1.859 7.775-16.389 4.644-16.944-1.596-.283-5.043-.602-5.948 1.111-1.371 2.596-1.713 11.342.783 13.833 3.256 3.25-3.895-9.54-7.984-11.444-6.079-2.832-4.597 5.373-2.296 8.389 2.625 3.439 15.251 5.566 11.114 6.055-3.552.42-8.002.422-9.705 4.5-1.999 4.79 2.865 1.45 4.488-.278 1.167-1.243 2.471-3.204 3.965-4 .432-.229 3.159-.222 1.879-.222m488.265 122.084c1.274-1.859 7.775-16.389 4.643-16.944-1.595-.283-5.043-.602-5.948 1.111-1.371 2.596-1.713 11.342.783 13.833 3.256 3.25-3.895-9.54-7.983-11.444-6.08-2.832-4.597 5.373-2.296 8.389 2.624 3.439 15.25 5.566 11.114 6.055-3.553.42-8.003.422-9.706 4.5-1.999 4.79 2.865 1.45 4.488-.278 1.167-1.243 2.471-3.204 3.965-4 .432-.229 3.159-.222 1.879-.222m-554.01-170.084c1.736-7.394.802-15.117-6.053-18.389-2.386-1.138-6.157-3.267-6.157.834 0 5.094 1.437 9.268 5.636 12 2.957 1.924 6.784.704 2.139-.945-4-1.419-9.132-2.955-13.41-2.5-3.79.404-.774 6.33.939 7.445 2.864 1.863 15.814 7.881 17.845 3.555m704.999 145.881c1.736-7.394.802-15.118-6.053-18.389-2.385-1.139-6.157-3.268-6.157.833 0 5.094 1.437 9.268 5.636 12 2.957 1.924 6.784.704 2.139-.944-4-1.42-9.132-2.956-13.41-2.5-3.79.403-.774 6.329.939 7.444 2.864 1.864 15.814 7.882 17.845 3.556m-27.939 9c1.736-7.394.802-15.118-6.053-18.389-2.385-1.139-6.157-3.268-6.157.833 0 5.094 1.437 9.268 5.636 12 2.957 1.924 6.784.704 2.139-.944-4-1.42-9.132-2.956-13.41-2.5-3.79.403-.774 6.329.939 7.444 2.864 1.864 15.814 7.882 17.845 3.556m-403.06 28.12c1.324-3.347 2.266-11.06-.991-13.444-3.569-2.613-8.401-2.437-8.401 2.944 0 1.631-.267 2.959 1.044 4.056.863.722 1.697 1.426 2.504 2.222.496.489 2.148.714 1.67 1.222-1.912 2.036-10.148-4.339-12.001-4.777-1.64-.388-5.61-1.719-6.888 0-1.222 1.644.07 4.302 1.514 5.166 3.414 2.045 9.611 3.611 13.566 3.611 1.545 0 6.085-1 4.539-1-3.607 0-5.444 2.464-7.826 5m-220.465-76c1.776-3.783 4.769-8.52 3.339-13-.986-3.092-8.974-11.064-8.974-3.945 0 6.87 1.536 10.35 6.94 14.333 1.398 1.031-7.18-3.575-9.34-4.166-3.278-.898-3.523 3.175-3.235 5.778.305 2.76 8.672 2.131 10.331 1.444 3.815-1.58 4.108-5.245.939-1.389-2.223 2.705-3.787 5.994-5.635 8.945m183.18 68.732c1.776-3.782 4.768-8.52 3.339-13-.986-3.091-8.974-11.064-8.974-3.944 0 6.87 1.536 10.35 6.939 14.333 1.399 1.031-7.18-3.575-9.34-4.167-3.278-.897-3.522 3.175-3.235 5.778.305 2.76 8.673 2.131 10.332 1.444 3.815-1.579 4.108-5.245.939-1.388-2.223 2.705-3.788 5.993-5.635 8.944M158.274 365.085c2.657-1.571 8.207-6.245 8.453-9.777.243-3.498-1.524-7.681-5.635-7.056-3.972.604-4.001 9.885-3.705 12.722.065.619 1.722 3.382 1.722 2.278 0-4-2.344-7.936-4.592-10.944-2.037-2.727-6.848-5.426-8.244-.223-1.713 6.384 2.084 10.454 6.366 14 1.964 1.627 10.292 3.424 4.174 3.945-3.915.333-6.284 1.804-9.809 3.055m485.418 243.811c2.657-1.572 8.207-6.246 8.453-9.778.243-3.498-1.525-7.681-5.636-7.055-3.971.604-4 9.884-3.704 12.722.064.619 1.722 3.382 1.722 2.278 0-4-2.344-7.936-4.592-10.945-2.037-2.727-6.848-5.425-8.244-.222-1.713 6.383 2.083 10.454 6.366 14 1.964 1.627 10.292 3.423 4.174 3.944-3.915.334-6.284 1.805-9.81 3.056m-119.729-18c2.657-1.572 8.207-6.246 8.453-9.778.243-3.498-1.525-7.681-5.636-7.055-3.971.604-4 9.884-3.704 12.722.064.619 1.722 3.382 1.722 2.278 0-4-2.344-7.936-4.592-10.945-2.037-2.727-6.848-5.425-8.244-.222-1.713 6.383 2.083 10.454 6.366 14 1.964 1.627 10.292 3.423 4.174 3.944-3.915.334-6.284 1.805-9.81 3.056M79 382.376c3.043-1.404 31.653-9.822 22.541-17.445-6.94-5.805-10.94 2.796-5.635 8.445 3.514 3.742-.387-3.632-2.087-5-2.232-1.796-11.062-7.082-11.062-1.5 0 9.89 6.677 9.87 14.088 12.5M67.17 491.086c4.81-1.525 28.34-6.036 24.211-17.223-1.184-3.208-9.233-7.666-12.418-7.666-2.901 0 4.937 11.913 5.53 12.833.952 1.474 1.626 1.428 2.923 2.278 1.902 1.246-4.4-1.093-6.366-2.222-.813-.467-9.825-5.357-10.07-4.445-2.489 9.272 13.9 9.445 18.732 9.445m16.905-191c7.003-.973 23.828-.365 19.515-13.223-1.277-3.806-5.989-5.401-9.496-4.722-2.457.476.075 10.171 1.252 11.5 4.66 5.263 2.585-.853-.522-3.5-1.771-1.508-11.007-9.336-13.358-6.833-2.823 3.006 2.652 9.219 4.592 10.722 1.904 1.474 11.166 4.48 11.166 6.056m18.52-12.28c8.151.608 26.74 3.743 25.306-10-.558-5.351-7.369-8.847-11.74-9.778-3.497-.744-.214 13.478 1.252 15.111 1.253 1.396 9.389 5.92 5.218 1.056-3.489-4.069-14.532-13.789-20.245-12.167-4.271 1.213 5.436 14.073 6.992 15.334 1.508 1.221 9.936 3.444 7.305 3.444M38.055 251.085c3.293 0 33.341 4.226 24.837-8.944-5.195-8.045-14.616 1.068-8.714 5.389.859.628 7.634 2.756 5.27.333-1.832-1.879-10.795-8.531-13.462-7.111-1.835.977 4.103 9.146 5.01 10.111 2.11 2.248 4.914 2.724 7.722 3.222M21.15 339.086c1.859-1.396 19.642-10.945 17.74-15.5-1.923-4.606-19.428-6.106-13.88 2.333 1.424 2.165 4.942 3.175 7.2 3.944 3.354 1.143-6.026-3.894-9.183-5.555-1.398-.736-10.36-5.939-9.392-.445.88 4.997 9.598 10.223 14.089 10.223M181 441.115c10.558-2.84 34.168-2.538 29.846-21.778-.895-3.988-6.555-6.145-9.966-5.056-5.798 1.852.29 11.357 2.557 13.223 2.416 1.987 7.63 4.06 2.713-.389-3.883-3.515-11.046-8.565-16.54-7.834-4.771.635 15.427 25.055 17.688 17.834M8.94 492.085c5.57-.701 15.861-.942 17.74-8.444.96-3.832-1.633-7.132-4.8-8.556-4.125-1.854-6.98.298-5.74 5.389.99 4.066 5.767 5.718 9.288 5.611C30.959 485.917 8 470.325 8 477.307c0 6.166 10.337 14.778 15.967 14.778m-15.132-327c6.984 0 30.446 1.398 16.488-10.389-1.447-1.222-5.862-4.75-8.035-3.389-2.8 1.754.395 6.338 1.878 7.556 4.426 3.635 4.474 1.112-.052-1.722C17.959 156.418 8 149.817 8 152.252c0 9.463 9.91 12.366 16.802 13.833m521.823 455.593c-5.28 3.149-18.483 12.547-12.575 13.945 6.841 1.618 8.739-6.628 12.993-10.333.582-.508 3.235-.436 3.235-1.167 0-1.281-3.16-2.161-4.122-2.389-1.128-.267-3.183.952-3.183 2.333 0 1.765 1.774-3.18 1.774-4.944 0-4.394-6.394-10.98-7.722-4.222-.547 2.782-1.213 6.306 1.356 8.333.801.632 6.048 3.282 2.922 1.222-.988-.651-18.04-11.038-14.923-3.778 2.3 5.358 7.518 8 12.732 8M1078 538c4.2.156 12.34 2.22 12 8-.15 2.478-5.91.224-6.78-.444-2.37-1.837-4.32-4.869-5.66-7.556-1.99-3.964-1.94-4.81 2.55-7.555 1.95-1.189 15.84-6.789 11.67 1.555-1.06 2.121-10.16 5.643-4.78 3.222 2.78-1.252 10.43-3.833 13.44-2.111 4.47 2.553-5.72 6.622-6.88 6.834-3.31.601-7.19.055-10.56.055m-213 49c-2.228.117-19.728 7.025-14.889 9.444 9.952 4.977 14.786-8.341 19.889-13.444"/></svg>