<?xml version="1.0" encoding="UTF-8" standalone="no"?>
<!DOCTYPE svg PUBLIC "-//W3C//DTD SVG 1.1//EN" "http://www.w3.org/Graphics/SVG/1.1/DTD/svg11.dtd">
<svg width="100%" height="100%" viewBox="0 0 1961 1105" version="1.1" xmlns="http://www.w3.org/2000/svg" xmlns:xlink="http://www.w3.org/1999/xlink" xml:space="preserve" xmlns:serif="http://www.serif.com/" style="fill-rule:evenodd;clip-rule:evenodd;stroke-linecap:round;">
    <path d="M906.996,268.015C916.828,282.38 934.947,283.822 943.987,299.508C945.999,303 946.5,305 949.5,309.5C950.127,315.526 956.839,319.154 960.86,321.327L960.983,321.393C976.281,329.663 997.3,328.38 1009.97,313.92C1015.35,307.783 1020.63,301.782 1025.74,295.638C1029.66,290.93 1033.01,284.057 1037.96,280.559C1053.85,269.335 1081.38,257.84 1081.95,231.051C1082.31,214.307 1080.74,201.008 1073.73,186.347C1070.49,179.562 1068.35,170.977 1063.4,165.596C1058.92,160.727 1051.22,155.85 1045.74,152.985C1030.7,145.132 1016.89,139.854 1000.53,137.639C984.485,135.468 966.872,136.571 950.985,139.507C936.971,142.097 919.429,147.971 908.218,158.99C894.472,172.501 891,189.927 891,210.367C891,221.027 892.504,232.009 894.499,242.394C896.579,253.218 901.22,259.576 906.996,268.015Z" style="fill:none;fill-rule:nonzero;stroke:rgb(77,77,77);stroke-width:3px;"/>
    <path d="M980,326.5C979.718,331.304 974.039,338.103 971,341.5C965.094,348.101 980.293,344.003 983,345.056C988.778,347.303 991.567,348.837 988.5,341C986.474,335.822 983.91,331.865 981,327.5" style="fill:none;fill-rule:nonzero;stroke:rgb(77,77,77);stroke-width:3px;"/>
    <path d="M981,345.5C979.029,351.905 980.442,357.731 977.444,364C974.473,370.213 968.33,375.725 963.555,380.5C956.852,387.204 949.601,392.244 944.555,400.5C943.436,402.332 930.5,423.5 931.5,459.5" style="fill:none;fill-rule:nonzero;stroke:rgb(77,77,77);stroke-width:3px;"/>
    <path d="M983,348.5C985.986,355.218 984.917,367.509 976.944,370C969.472,372.335 958.669,368.496 954,375.5" style="fill:none;fill-rule:nonzero;stroke:rgb(77,77,77);stroke-width:3px;"/>
    <path d="M706.237,513.804L706.237,532.315C706.237,537.267 704.315,540.82 703.641,545.537C702.531,553.312 696.473,559.679 693.7,566.888C688.901,579.366 687.726,589.787 687.726,603.274C687.726,609.203 688.288,614.707 688.607,620.463C688.76,623.207 689.474,624.87 692.133,624.87C696.232,624.87 699.957,625.752 704.033,625.752C707.741,625.752 711.251,624.87 715.003,624.87C717.51,624.87 721.59,625.686 723.867,624.674C727.239,623.175 731.273,623.405 734.836,621.785C737.866,620.408 741.016,618.86 744.141,617.819" style="fill:none;fill-rule:nonzero;stroke:rgb(77,77,77);stroke-width:3px;"/>
    <path d="M745.904,622.226L745.904,592.256C745.904,585.703 746.065,577.385 742.818,571.541C741.655,569.447 740.721,566.14 739.929,563.852C739.291,562.009 736.534,556.204 734.836,555.233C731.187,553.148 725.514,545.329 723.426,541.57C722.337,539.611 720.86,535.752 720.39,533.637C720.075,532.222 720.043,527.315 719.263,526.34C717.935,524.68 716.108,514.219 717.892,512.237C723.059,506.495 717.942,506.752 712.407,506.752C710.929,506.752 706.303,506.008 705.355,507.193C704.363,508.433 702.445,510.585 705.355,512.041" style="fill:none;fill-rule:nonzero;stroke:rgb(77,77,77);stroke-width:3px;"/>
    <path d="M701.83,584.322C703.937,590.41 706.349,600.347 712.408,603.911C714.692,605.254 722.625,614.94 725.434,609.885C728.127,605.038 730.263,599.9 732.486,594.9C734.163,591.127 733.838,578.439 733.563,582.559C733.222,587.673 724.407,588.176 721.908,585.399C720.469,583.8 717.696,571.818 717.696,577.27C717.696,582.141 715.596,587.848 709.763,587.848C708.284,587.848 703.659,588.592 702.711,587.407C701.919,586.416 699.662,584.965 699.185,585.204" style="fill:none;fill-rule:nonzero;stroke:rgb(77,77,77);stroke-width:3px;"/>
    <path d="M715.933,498.819C722.42,484.404 734.64,473.098 748.548,465.371C752.548,463.149 757.914,460.033 762.603,460.033C763.955,460.033 768.666,460.033 764.415,460.033" style="fill:none;fill-rule:nonzero;stroke:rgb(77,77,77);stroke-width:3px;"/>
    <path d="M710.645,484.715C716.941,464.746 725.084,448.799 738.95,433.001C741.15,430.495 745.572,424.486 748.891,423.158C749.942,422.738 747.002,424.499 745.904,424.774" style="fill:none;fill-rule:nonzero;stroke:rgb(77,77,77);stroke-width:3px;"/>
    <path d="M702.711,478.544C697.65,463.511 690.009,450.035 684.2,435.352C683.289,433.05 680.674,421.723 680.674,429.182" style="fill:none;fill-rule:nonzero;stroke:rgb(77,77,77);stroke-width:3px;"/>
    <path d="M701.83,494.411C685.695,474.589 663.274,461.177 637.531,460.033C628.966,459.653 620.493,459.152 611.919,459.152C607.707,459.152 611.651,458.231 612.8,456.507" style="fill:none;fill-rule:nonzero;stroke:rgb(77,77,77);stroke-width:3px;"/>
    <path d="M589.881,463.559C592.58,459.216 595.944,455.245 595.121,449.896C594.603,446.53 594.956,453.572 597.374,454.646C599.81,455.729 601.341,452.749 601.341,450.778C601.341,449.191 597.143,455.096 596.982,456.948C596.71,460.082 597.529,461.473 598.892,464.049C600.148,466.42 601.241,463.852 599.578,462.874C594.736,460.026 589,460.779 589,467.085" style="fill:none;fill-rule:nonzero;stroke:rgb(77,77,77);stroke-width:3px;"/>
    <path d="M777.637,466.204C778.044,460.507 781.502,454.122 784.199,449.113C786.033,445.708 787.898,453.893 788.656,455.577C789.652,457.791 795.28,463.691 789.488,459.984C784.661,456.895 778.852,452.1 772.887,452.1C767.181,452.1 778.032,452.982 779.596,452.982L790.37,452.982C792.165,452.982 795.756,451.186 795.756,452.982C795.756,453.503 784.812,460.819 783.807,461.796C782.597,462.975 774.141,471.676 778.519,466.204" style="fill:none;fill-rule:nonzero;stroke:rgb(77,77,77);stroke-width:3px;"/>
    <path d="M822.593,415.078C821.999,413.552 822.344,413.044 822.593,411.552" style="fill:none;fill-rule:nonzero;stroke:rgb(77,77,77);stroke-width:3px;"/>
    <path d="M827,429.182C826.188,429.08 826.416,428.895 826.118,428.3" style="fill:none;fill-rule:nonzero;stroke:rgb(77,77,77);stroke-width:3px;"/>
    <path d="M814.659,442.404L815.541,440.641" style="fill:none;fill-rule:nonzero;stroke:rgb(77,77,77);stroke-width:3px;"/>
    <path d="M821.711,424.774C822.622,424.345 823.405,424.13 824.356,423.893" style="fill:none;fill-rule:nonzero;stroke:rgb(77,77,77);stroke-width:3px;"/>
    <path d="M681.556,418.604C687.513,416.822 692.991,415.078 699.185,415.078" style="fill:none;fill-rule:nonzero;stroke:rgb(77,77,77);stroke-width:3px;"/>
    <path d="M675.385,415.959C675.528,412.1 676.267,408.396 676.267,404.5" style="fill:none;fill-rule:nonzero;stroke:rgb(77,77,77);stroke-width:3px;"/>
    <path d="M669.215,418.604C664.006,417.115 659.704,414.804 654.23,414.196" style="fill:none;fill-rule:nonzero;stroke:rgb(77,77,77);stroke-width:3px;"/>
    <path d="M668.333,426.537C662.238,428.23 656.335,430.773 650.704,433.589" style="fill:none;fill-rule:nonzero;stroke:rgb(77,77,77);stroke-width:3px;"/>
    <path d="M672.741,429.181C672.009,432.987 670.941,436.307 669.215,439.759" style="fill:none;fill-rule:nonzero;stroke:rgb(77,77,77);stroke-width:3px;"/>
    <path d="M812.896,426.537C791.811,426.537 769.738,432.265 751.633,443.285C745.606,446.954 738.549,450.884 734.249,456.507C729.89,462.207 725.934,467.759 721.222,473.256" style="fill:none;fill-rule:nonzero;stroke:rgb(77,77,77);stroke-width:3px;"/>
    <path d="M868,863.5C876.49,844.742 883.198,824.949 892.222,806.5C895.042,800.735 898.08,795.12 899.944,788.945C901.813,782.755 902.361,776.058 904.611,770C908.737,758.893 915.428,749.098 919.5,737.945C925.75,720.825 934.328,704.585 940,687.278C945.082,671.771 952.24,657.376 961.5,644C963.709,640.81 965.791,636.051 969.778,634.722C972.43,633.838 975.34,635.383 977.611,636.556C984.93,640.333 992.782,643.563 999.389,648.556C1010.52,656.968 1016.36,670.416 1027.61,679C1042.78,690.569 1058.55,701.521 1073.22,713.722C1086.93,725.127 1098.86,736.73 1114.22,745.945C1125.98,753 1140.4,762.124 1149,773.111C1152.39,777.439 1154.32,782.691 1158,786.833C1162.82,792.265 1169.38,795.802 1176,798.5C1182.86,801.294 1189.3,804.463 1194.33,810.056C1198.03,814.167 1200.88,818.736 1204.78,822.722C1208.5,826.523 1214.8,832.05 1217,837C1217.88,838.974 1223.23,843.784 1219,838.5" style="fill:none;fill-rule:nonzero;stroke:rgb(77,77,77);stroke-width:3px;"/>
    <path d="M706,803.5C698.529,799.425 695.731,789.849 691.056,783.111C682.67,771.026 674.547,758.699 667.611,745.722C660.147,731.758 648.73,716.776 635.222,707.944C631.145,705.278 624.303,711.863 621.556,713.944C611.502,721.561 600.408,727.256 590.611,735.389C581.405,743.031 572.76,751.282 563.667,759.055C559.795,762.365 556.576,766.212 552,768.5" style="fill:none;fill-rule:nonzero;stroke:rgb(77,77,77);stroke-width:3px;"/>
    <path d="M608,847.5C599.368,834.205 591.337,820.419 581.444,808C575.473,800.503 568.607,793.742 562.444,786.389C554.904,777.392 550.072,765.871 542,757.5C536.607,751.907 530.761,746.399 526,740.278C519.451,731.857 514.944,720.81 506.944,713.611C503.575,710.578 497.498,709.934 493.5,707.5C489.624,705.141 483.485,697.749 479,697.5C462.256,696.57 446.485,715.146 434.5,724.5C425.483,731.538 416.649,738.631 407.944,746.056C398.8,753.855 388.55,760.118 379.5,768C372.194,774.363 364.909,780.591 358.056,787.444C351.544,793.956 345.603,801.742 338.222,807.278C332.959,811.225 328.837,816.108 324.222,820.722C319.944,825 315.336,829.256 311.5,833.944C309.086,836.895 305.14,838.36 302.5,841C300.591,842.909 299.478,845.283 298,847.5" style="fill:none;fill-rule:nonzero;stroke:rgb(77,77,77);stroke-width:3px;"/>
    <path d="M1456,820.465C1494.34,817.115 1532.23,813.288 1570.78,814.687C1600.54,815.767 1630.1,817.465 1659.89,817.465C1680.5,817.465 1700.95,818.317 1721.17,813.465C1730.09,811.324 1738.58,807.719 1747.34,805.021C1754.41,802.842 1767.95,800.985 1769.56,791.799C1772.14,777.043 1755.2,766.04 1742.78,764.465C1729.06,762.725 1714.43,764.62 1701.11,768.076C1691.59,770.55 1679.44,774.139 1672.22,781.354C1669.74,783.84 1673.28,781.797 1674,779.021C1675.95,771.538 1673.54,766.026 1667.78,760.91C1658.42,752.591 1644.98,750.105 1632.95,749.132C1617.92,747.916 1602.61,747.705 1589.22,755.576C1581.37,760.195 1575.94,768.116 1570.22,775.021C1569.24,776.214 1567.38,779.966 1565.39,779.354C1560.38,777.813 1555.95,774.175 1550.89,772.465C1540.24,768.866 1527.22,767.926 1516.45,771.687C1508.98,774.294 1503.29,779.72 1498.61,785.91C1497.07,787.956 1494.45,794.255 1491.78,795.243C1489.01,796.27 1485.56,794.54 1482.89,794.021C1476.65,792.808 1469.54,793.205 1463.22,793.521C1458.73,793.745 1454.83,795.688 1450.78,797.465C1445.32,799.861 1438.34,801.548 1434.11,805.965C1432.15,808.023 1429.91,810.438 1430,813.465C1430.09,816.532 1434.67,815.465 1436.78,815.465C1440.47,815.465 1454.83,818.804 1456,816.465" style="fill:none;fill-rule:nonzero;stroke:rgb(77,77,77);stroke-width:3px;"/>
    <path d="M975,855.5C975,847.911 969.306,846.608 963,843.5C954.873,839.494 944.577,837.898 935.778,840.722C926.389,843.736 918.778,849.726 914.222,858.5C913.739,859.43 911.891,865.5 911,865.5C909.156,865.5 907.45,864.105 905.778,863.5C901.684,862.019 896.94,862.447 892.667,862.5C886.006,862.583 882.059,865.985 876.222,868.278C869.225,871.027 867.802,861.443 861,859.5C851.043,856.655 840.623,854.863 830.5,857.944C825.425,859.489 821.732,861.583 817.556,865C814.881,867.188 814.83,868.731 811.944,864.944C801.73,851.539 780.563,851.829 767.556,860.5C761.683,864.415 754.267,868.453 749.667,873.889C748.814,874.897 747,878.433 747,875.5" style="fill:none;fill-rule:nonzero;stroke:rgb(77,77,77);stroke-width:3px;"/>
    <path d="M760,807.5C760,800.327 758.406,799.087 751.222,796.722C743.102,794.05 734.032,793.37 725.889,796.278C717.217,799.375 704.026,806.893 700.778,816.278C700.163,818.054 699.61,821.64 698.778,823.056C698.043,824.305 683.038,822.477 681.222,822.5C671.993,822.615 664.831,827.335 656.667,831.056C651.773,833.286 644.964,835.618 641.555,840C636.703,846.239 629.781,841.132 623,841.556C613.866,842.126 607.744,848.886 601,853.944C600.403,854.392 598.858,852.325 598.389,852C595.926,850.295 592.705,849.898 589.833,849.444C580.368,847.95 571.057,845.161 561.389,845.556C552.21,845.93 543.073,848.294 535.444,853.556C533.892,854.626 522.913,862.529 526,861.5" style="fill:none;fill-rule:nonzero;stroke:rgb(77,77,77);stroke-width:3px;"/>
    <path d="M1030,778.5C1028.56,786.15 1026.84,792.839 1030.5,800C1032.37,803.663 1034.21,807.374 1034.78,811.5C1035.7,818.26 1034,824.793 1034,831.5C1034,836.312 1036.47,837.341 1037.78,841.278C1038.98,844.871 1038.33,845.414 1036,842.5" style="fill:none;fill-rule:nonzero;stroke:rgb(77,77,77);stroke-width:3px;"/>
    <path d="M688,593.5C676.9,589.536 670.116,578.505 662.056,570.444C660.236,568.625 651.211,556.364 648.389,557.667C643.148,560.085 638.681,567.293 635,571.5C630.05,577.158 626.867,583.439 623.444,590.056C617.01,602.496 606.821,614.157 599,625.889C591.734,636.789 581.033,647.467 571.778,656.722C562.384,666.116 552.947,675.553 543.556,684.944C536.057,692.443 529.18,700.453 522,708.056C519.278,710.937 515.863,713.808 514.222,717.5C513.358,719.446 513.043,721.479 511,722.5" style="fill:none;fill-rule:nonzero;stroke:rgb(77,77,77);stroke-width:3px;"/>
    <path d="M476,701.5C476,709.166 472.38,714.723 470.222,721.944C469.11,725.665 469.199,733.444 465.778,735.944C458.895,740.974 452.047,746.453 446,752.5C442.34,756.16 436.144,761.175 434,766C430.78,773.244 434.045,779.455 427.5,786C422.291,791.209 415.71,794.79 410.5,800C407.284,803.216 403.789,810.606 400,812.5" style="fill:none;fill-rule:nonzero;stroke:rgb(77,77,77);stroke-width:3px;"/>
    <path d="M968,639.5C968.169,642.549 969.912,644.112 971.5,646.556C975.07,652.048 974.873,658.276 977.056,664.278C980.155,672.801 988.939,677.976 990.944,687C991.315,688.668 988.721,690.134 988,691.5C986.338,694.649 986.072,698.103 985.222,701.5C984.075,706.087 980.256,708.658 978.222,712.5C975.992,716.712 968.45,720.462 964.944,723.556C959.526,728.336 954.373,733.1 949.5,738.444C947.202,740.965 940.827,744.528 940.056,748C939.156,752.047 940,757.186 940,761.278C940,766.92 941.146,768.5 935,768.5" style="fill:none;fill-rule:nonzero;stroke:rgb(77,77,77);stroke-width:3px;"/>
    <path d="M631,711.5C631,717.138 633.971,730.349 627.833,733.111C622.295,735.603 616.867,739.384 612.056,743.056C608.513,745.759 601.428,750.215 600,754.5" style="fill:none;fill-rule:nonzero;stroke:rgb(77,77,77);stroke-width:3px;"/>
    <path d="M617,766.5C611.417,770.272 607.525,773.842 603,778.5C601.732,779.805 600.498,781.751 599,782.5" style="fill:none;fill-rule:nonzero;stroke:rgb(77,77,77);stroke-width:3px;"/>
    <path d="M647,560.5C643.612,567.276 643.215,574.358 642,581.722C641.152,586.866 640.747,592.092 640.222,597.278C640.008,599.395 640.62,602.499 639.778,604.5C638.274,608.072 632.961,609.984 630.222,612.722C626.602,616.343 621.916,620.89 619.611,625.5C617.47,629.782 620.663,635.299 619.445,640C618.132,645.063 616.538,650.66 614.445,655.444C612.938,658.889 595.054,671.554 596,672.5" style="fill:none;fill-rule:nonzero;stroke:rgb(77,77,77);stroke-width:3px;"/>
    <path d="M672,619.5C675.871,621.334 679.748,622.5 684,622.5C685.277,622.5 691.484,623.016 690,624.5" style="fill:none;fill-rule:nonzero;stroke:rgb(77,77,77);stroke-width:3px;"/>
    <path d="M747,621.5C749.546,621.5 760.206,618.53 761.778,621.5C762.796,623.424 762.204,628.155 764,629.278C768.14,631.865 770,638.964 770,643.5" style="fill:none;fill-rule:nonzero;stroke:rgb(77,77,77);stroke-width:3px;"/>
    <path d="M797,741.5C799.299,746.099 801.969,750.676 803.778,755.5C805.545,760.213 805.397,765.034 806.556,769.833C807.984,775.752 813.791,779.083 816.5,784.5C817.686,786.873 830.087,801.413 830,801.5" style="fill:none;fill-rule:nonzero;stroke:rgb(77,77,77);stroke-width:3px;"/>
    <path d="M1667,720.5C1699.66,716.561 1732.03,717.076 1764.78,719.278C1768.7,719.541 1798.72,722.296 1799.89,716.444C1802.7,702.366 1768.47,705.833 1761.56,704.389C1754.22,702.856 1747.21,698.989 1741.22,694.5C1734.9,689.756 1728.62,690.5 1721,690.5C1704.95,690.5 1692.3,690.213 1681.22,703.056C1679.17,705.431 1677.43,707.214 1675.94,709.944C1674.36,712.858 1666.24,712.538 1663.5,713.056C1658.1,714.077 1647.63,719.411 1659,720.444C1663.52,720.855 1670.85,721.574 1675,719.5" style="fill:none;fill-rule:nonzero;stroke:rgb(77,77,77);stroke-width:3px;"/>
    <path d="M1149,772.5C1158.29,772.744 1166.87,773.825 1176.22,772.5C1189.52,770.617 1202.91,769.804 1216.28,768.5C1226.43,767.509 1236.25,766.5 1246.5,766.5C1253.24,766.5 1260.14,766.994 1266.78,765.722C1278.07,763.559 1278.6,754.401 1267.94,749.556C1256.66,744.426 1246.63,743.365 1234.22,743.5C1225.36,743.596 1216.77,746.5 1208,746.5C1203.09,746.5 1202.04,742.629 1199.39,739C1193.87,731.437 1183.03,726.42 1173.89,725.722C1164.36,724.995 1153.97,724.771 1144.78,727.722C1139.23,729.502 1132.81,732.799 1127,733.444C1117.87,734.458 1111.68,725.741 1103,725.5C1099.53,725.404 1097.59,726.128 1094.5,727.5C1091.5,728.834 1094.63,729.865 1097,727.5" style="fill:none;fill-rule:nonzero;stroke:rgb(77,77,77);stroke-width:3px;"/>
    <path d="M770,645.5C786.237,667.982 794.854,695.263 810.389,718.278C816.228,726.928 821.211,736.314 828,744.278C830.931,747.717 834.307,750.807 837.5,754C841.1,757.6 842.507,762.223 845.056,766.556C847.455,770.635 850.983,772.906 853.778,776.5C855.607,778.852 856.662,781.943 858.056,784.556C861.967,791.889 868.559,796.061 873,802.722C874.801,805.424 876.321,808.659 877.944,811.5C878.732,812.878 881.581,815.782 881.944,817.056C882.551,819.18 885.437,822.646 882,821.5" style="fill:none;fill-rule:nonzero;stroke:rgb(77,77,77);stroke-width:3px;"/>
    <path d="M742,659.5C742.205,668.303 744.541,674.549 746.778,682.722C748.538,689.154 748.303,695.888 750,702.278C750.874,705.567 754.736,710.816 752,711.5" style="fill:none;fill-rule:nonzero;stroke:rgb(77,77,77);stroke-width:3px;"/>
    <path d="M720,667.5C720.1,682.735 721.691,696.62 718.556,711.444C716.827,719.617 715,727.906 715,736.278C715,739.876 715.408,751.5 710,751.5" style="fill:none;fill-rule:nonzero;stroke:rgb(77,77,77);stroke-width:3px;"/>
    <path d="M1061,748.5C1071.16,763.956 1081.85,778.453 1093.78,792.5C1099.44,799.169 1098.74,809.473 1104.44,815.5C1108.14,819.405 1111.58,821.27 1113.78,826.5C1115.02,829.451 1116.03,829.652 1112,828.5" style="fill:none;fill-rule:nonzero;stroke:rgb(77,77,77);stroke-width:3px;"/>
    <path d="M259,663.5C284.34,660.736 309.499,658.5 335,658.5C358.092,658.5 381.143,659.382 404.222,659.5C415.586,659.558 426.654,658.5 437.944,658.5C442.001,658.5 445.644,656.5 450,656.5C454.803,656.5 463.368,656.17 467.5,653.944C474.677,650.08 481.218,643.541 472.333,637.278C462.815,630.568 445.97,629.129 435.611,634.5C433.905,635.384 429.852,638.179 428.778,635.278C426.311,628.617 422.414,621.861 417.778,616.5C405.272,602.04 379.497,599.912 362.555,606.556C356.761,608.828 352.08,610.975 347.778,615.278C346.299,616.756 344.08,619.09 341.944,617.889C336.488,614.819 333.43,610.83 326.778,609.5C316.415,607.427 306.553,612.419 298.444,618.5C294.775,621.252 291.286,624.944 289,628.944C288.258,630.242 279.337,630.178 277.889,630.556C270.533,632.474 262.463,634.353 256.444,639.278C254.54,640.836 252.66,642.919 252.111,645.389C251.957,646.083 252.331,647.724 251.778,648.278C250.468,649.587 244.12,648.5 242.611,648.5C238.057,648.5 232.165,647.446 228.611,651C223.255,656.356 229.763,660.381 234,662.5C242.314,666.657 257.651,667.674 266,663.5" style="fill:none;fill-rule:nonzero;stroke:rgb(77,77,77);stroke-width:3px;"/>
    <path d="M419,619.5C437.807,619.5 456.513,616.346 475.444,616.5C489.593,616.615 503.677,616.5 517.778,616.5C520.856,616.5 528.743,617.756 530.778,614.5C532.597,611.59 531.673,609.842 528,608.5C511.193,602.359 498.027,601.46 480.667,606.5C475.352,608.043 474.902,600.605 469.778,597.722C459.967,592.204 445.013,590.35 434.222,593.722C430.926,594.752 424.307,600.423 421,600.056C419.627,599.903 417.771,595.73 416.889,594.833C413.537,591.426 409.884,587.913 405.222,586.5C391.463,582.331 375.035,583.915 366,596.278C364.782,597.944 357.517,606.5 363,606.5" style="fill:none;fill-rule:nonzero;stroke:rgb(77,77,77);stroke-width:3px;"/>
    <path d="M1044,20C1046.03,20.446 1048.02,22 1050.11,22C1051.18,22 1052.25,22.79 1052.25,23.875C1052.25,25.541 1051.15,25.836 1050.56,27.25C1049.88,28.852 1050.81,30.52 1052.31,31.055C1054.45,31.821 1056.8,33.75 1059.12,33.75L1061.5,33.75C1062.78,33.75 1063.95,32.13 1064.74,31.25C1066.41,29.363 1067.52,26.973 1068.86,24.861C1069.28,24.201 1069.91,23.182 1070.19,22.444C1070.48,21.708 1070.57,20.819 1070.88,20.139C1071.51,18.741 1069.97,16.306 1068.75,15.694C1067.07,14.853 1065.23,14.174 1063.5,13.444C1061.5,12.604 1060.31,14.24 1059.17,15.597C1058.34,16.576 1056.46,16.48 1055.38,15.875C1054.05,15.138 1052.61,14.377 1051.25,13.694C1050.17,13.157 1049.33,12.294 1048.19,13.111C1046.05,14.655 1045.03,17.647 1044.25,20" style="fill:none;fill-rule:nonzero;stroke:rgb(77,77,77);stroke-width:3px;"/>
    <path d="M708,436.5L708,458.5" style="fill:none;fill-rule:nonzero;stroke:rgb(77,77,77);stroke-width:3px;"/>
    <path d="M711,408.5L711,423" style="fill:none;fill-rule:nonzero;stroke:rgb(77,77,77);stroke-width:3px;"/>
    <path d="M714,387.5C714.277,383.525 715,379.469 715,375.5" style="fill:none;fill-rule:nonzero;stroke:rgb(77,77,77);stroke-width:3px;"/>
    <path d="M794,106.5C797.3,99.901 800.339,92.327 805,86.5" style="fill:none;fill-rule:nonzero;stroke:rgb(77,77,77);stroke-width:3px;"/>
    <path d="M818,70C822.169,64.938 826.192,59.672 829.5,54" style="fill:none;fill-rule:nonzero;stroke:rgb(77,77,77);stroke-width:3px;"/>
    <path d="M846.5,32.5C849.766,29.234 853.118,26.102 856,22.5" style="fill:none;fill-rule:nonzero;stroke:rgb(77,77,77);stroke-width:3px;"/>
    <path d="M878.5,10C882.343,7.174 886.163,5.359 890.5,3.5" style="fill:none;fill-rule:nonzero;stroke:rgb(77,77,77);stroke-width:3px;"/>
    <path d="M1013,2C1018.39,2.15 1022.71,3.282 1027,6.5" style="fill:none;fill-rule:nonzero;stroke:rgb(77,77,77);stroke-width:3px;"/>
    <path d="M760.75,172.75C762.258,169.621 763.447,166.357 765,163.25" style="fill:none;fill-rule:nonzero;stroke:rgb(77,77,77);stroke-width:3px;"/>
    <path d="M775.5,145.25C776.947,142.565 778.059,139.536 779.75,137" style="fill:none;fill-rule:nonzero;stroke:rgb(77,77,77);stroke-width:3px;"/>
    <path d="M738,253.5C736.943,257.666 736.416,262.876 734,266.5" style="fill:none;fill-rule:nonzero;stroke:rgb(77,77,77);stroke-width:3px;"/>
    <path d="M1175.9,185.259C1176.13,181.532 1196.21,145.583 1194.84,144.928" style="fill:none;fill-rule:nonzero;stroke:rgb(77,77,77);stroke-width:3px;"/>
    <path d="M1159.54,186.905C1165.96,177.444 1168.6,167.267 1173.32,157.091C1174.25,155.081 1181.86,144.046 1180.2,142.458" style="fill:none;fill-rule:nonzero;stroke:rgb(77,77,77);stroke-width:3px;"/>
    <path d="M1180.2,142.458C1180.2,136.935 1174.18,130.852 1172.03,125.585C1170.5,121.852 1168.15,117.716 1168.15,113.651" style="fill:none;fill-rule:nonzero;stroke:rgb(77,77,77);stroke-width:3px;"/>
    <path d="M1168.15,113.651C1163.19,115.169 1160.46,117.697 1156.77,120.875C1154.86,122.516 1155.24,123.964 1155.24,126.408C1155.24,129.869 1151.88,126.393 1150.94,124.808C1148.47,120.677 1149.43,119.631 1151.8,115.663C1154.06,111.879 1153.97,108.313 1155.91,104.597C1159.8,97.156 1167.38,93.897 1175.47,93.897C1180.25,93.897 1183.04,95.369 1187.52,96.32C1191.34,97.132 1196.66,97.529 1200,99.658" style="fill:none;fill-rule:nonzero;stroke:rgb(77,77,77);stroke-width:3px;"/>
    <path d="M1205.16,102.951C1222.19,94.381 1238.17,84.088 1255.52,76.155C1261.56,73.392 1268.06,68.819 1273.59,65.135C1278.44,61.909 1283.18,58.712 1288.18,55.669C1293.69,52.314 1298.2,48.008 1303.48,44.512C1306.32,42.633 1308.39,39.331 1311.71,38.11C1316.45,36.365 1321.35,34.583 1326.34,33.629C1341.87,30.66 1358.35,27.944 1372.96,21.832C1377.53,19.921 1382.27,17.452 1386.78,15.293C1389.43,14.028 1397.66,9.881 1397.07,14.973C1396.61,18.884 1392.48,20.631 1389.27,22.335C1382.49,25.939 1375.32,28.786 1368.52,32.349C1363.61,34.918 1359.09,38.11 1354.22,40.671C1353.25,41.182 1352.44,41.38 1354.41,41.128C1358.76,40.574 1363.07,39.379 1367.37,38.568C1377.07,36.738 1386.36,33.193 1396.01,31.434C1398.31,31.017 1403.98,29.209 1405.72,31.526C1410.93,38.443 1380.38,45.455 1375.59,46.981C1368.6,49.211 1361.61,51.056 1354.46,52.743C1346.56,54.604 1359.36,53.285 1361.15,53.109C1372.22,52.02 1383.4,51.173 1394.53,51.097C1395.4,51.091 1407.28,49.929 1404.29,53.566C1400.62,58.029 1389.35,58.865 1384.01,60.151C1372.33,62.965 1359.98,63.921 1348.05,65.409C1345.68,65.704 1342.57,65.489 1340.3,66.324C1337.3,67.43 1346.74,66.735 1349.96,66.735L1386.93,66.735C1387.9,66.735 1395.04,65.558 1394.48,67.97C1393.66,71.495 1385.1,72.777 1382.29,73.32C1374.3,74.862 1366.56,77.44 1358.43,78.258C1354.69,78.634 1350.35,78.512 1346.71,79.264C1345.06,79.605 1338.66,80.695 1339.83,80.728C1345.15,80.877 1352.15,82.82 1356.95,84.934C1358.62,85.675 1364.19,89.555 1360.58,91.428C1357.04,93.267 1352.74,93.007 1348.91,93.897C1343.72,95.105 1338.05,95.874 1333.04,97.601C1328.53,99.152 1322.09,101.36 1318.35,104.14C1314.01,107.372 1310.57,111.49 1305.44,114.474C1298.89,118.289 1291.8,121.83 1284.4,123.893C1277.47,125.827 1269.77,123.923 1262.84,125.357C1258.85,126.18 1254.85,125.997 1250.78,125.997C1245.05,125.997 1240.28,128.466 1234.43,128.466" style="fill:none;fill-rule:nonzero;stroke:rgb(77,77,77);stroke-width:3px;"/>
    <path d="M1190.53,96.366C1192.69,91.988 1190.82,86.798 1189.67,82.419C1188.64,78.492 1187.06,73.638 1185.18,70.027C1182.48,64.878 1176.08,57.426 1181.73,52.56C1189.37,45.984 1198.95,42.49 1206.22,35.275C1210.72,30.807 1213.45,25.871 1218.55,21.877C1220.46,20.385 1221.61,18.857 1224.1,18.997C1228.43,19.24 1217.32,31.439 1216.4,32.532C1212.66,36.999 1208.25,40.928 1204.83,45.655C1203.67,47.263 1204.64,45.923 1205.31,45.289C1208.77,41.981 1212.93,38.768 1216.93,36.098C1221.16,33.272 1225.83,31.038 1229.94,28.05C1231.03,27.256 1232.06,26.149 1233.57,26.404C1237.46,27.061 1222.16,41.447 1221.18,42.317C1219.05,44.228 1208.57,50.769 1209.52,53.932C1209.66,54.412 1228.52,43.871 1230.8,42.866C1231.98,42.343 1243.15,35.793 1241.99,40.58C1240.41,47.049 1230.87,52.193 1225.73,55.761C1222.1,58.274 1218.27,60.727 1214.78,63.397C1214.6,63.531 1212.04,65.662 1212.58,65.866C1215.1,66.832 1224.02,60.6 1226.11,59.693C1228.82,58.515 1231.59,56.886 1234.43,58.321C1236.67,59.456 1234.82,63.07 1233.57,64.266C1231.48,66.268 1226.97,68.794 1225.82,71.262C1224.47,74.179 1224.93,73.145 1228.4,73.32C1231.44,73.472 1235.9,79.613 1233.57,80.727" style="fill:none;fill-rule:nonzero;stroke:rgb(77,77,77);stroke-width:3px;"/>
    <path d="M1235.29,130.935C1231.52,130.935 1224.59,139.581 1224.1,143.281C1223.9,144.808 1221.44,147.293 1220.23,148.22C1218.44,149.585 1219.55,152.139 1216.35,153.158" style="fill:none;fill-rule:nonzero;stroke:rgb(77,77,77);stroke-width:3px;"/>
    <path d="M1246.05,135.462C1254.66,138.754 1261.93,142.333 1274.08,142.333C1282.24,142.333 1292.06,143.022 1299.52,141.207C1302.3,140.529 1311.33,140.921 1305.87,143.248C1300.94,145.349 1296.02,145.816 1290.27,146.627C1283.95,147.516 1277.88,148.668 1271.26,148.668C1267.91,148.668 1275.55,148.668 1276.39,148.668C1280.02,148.668 1283.27,149.301 1286.86,149.301C1289.92,149.301 1292.49,149.935 1295.47,149.935C1298.1,149.935 1297.75,151.997 1295.53,152.328C1288.71,153.348 1279.39,152.469 1272.35,152.469C1269.31,152.469 1258.62,151.431 1263.93,152.328C1266.51,152.762 1280.6,155.523 1270.61,156.304C1262.45,156.943 1250.78,155.417 1243.38,153.102C1236.12,150.827 1228.25,150.276 1223.24,146.162" style="fill:none;fill-rule:nonzero;stroke:rgb(77,77,77);stroke-width:3px;"/>
    <path d="M1216.35,153.981C1213.58,156.805 1211.22,160.555 1207.32,162.212C1206.76,162.449 1202.68,163.291 1202.68,163.447C1202.68,164.167 1205.09,163.824 1205.55,163.904C1206.72,164.109 1207.84,165.104 1208.99,165.505C1216.65,168.169 1203.76,169.636 1203.01,170.031C1200.3,171.47 1212.01,174.602 1203.06,176.159C1201.22,176.478 1199.26,176.924 1197.42,177.028C1194.86,177.172 1199.81,177.952 1200,178.034C1205.97,180.572 1196.72,182.108 1195.03,182.606C1192.07,183.475 1187.33,184.276 1184.51,184.435C1180.56,184.657 1177.33,186.082 1173.32,186.082" style="fill:none;fill-rule:nonzero;stroke:rgb(77,77,77);stroke-width:3px;"/>
    <path d="M1290.38,65.912C1300.47,58.518 1309.86,52.406 1322.23,49.45" style="fill:none;fill-rule:nonzero;stroke:rgb(77,77,77);stroke-width:3px;"/>
    <path d="M1158.68,187.522C1157.95,187.483 1157.22,187.132 1156.53,186.905C1155.2,186.465 1154,186.171 1152.57,186.093C1150.78,185.995 1148.04,185.649 1146.37,186.287C1144.18,187.124 1140.39,190.442 1140.39,192.872" style="fill:none;fill-rule:nonzero;stroke:rgb(77,77,77);stroke-width:3px;"/>
    <path d="M1176.54,185.876C1176.19,185.608 1175.95,185.372 1175.68,185.053" style="fill:none;fill-rule:nonzero;stroke:rgb(77,77,77);stroke-width:3px;"/>
    <path d="M1176.54,185.67C1174.7,186.743 1173.49,187.666 1172.35,189.374C1171.75,190.264 1171.15,191.206 1170.64,192.14C1170.27,192.817 1169.97,193.621 1169.34,194.107C1169.04,194.334 1168.84,193.924 1168.58,193.741C1168.03,193.354 1167.29,193.489 1166.65,193.489C1164.58,193.489 1162.52,193.458 1160.45,193.489C1158.72,193.516 1156.96,194.714 1155.46,195.433C1153.44,196.397 1152.25,197.663 1150.92,199.377C1149.93,200.666 1148.97,202.346 1148.62,203.938C1148.57,204.157 1148.51,205.749 1148.78,205.218" style="fill:none;fill-rule:nonzero;stroke:rgb(77,77,77);stroke-width:3px;"/>
    <path d="M1164.06,199.868C1160.35,200.327 1156.21,202.138 1154.39,205.435C1153.92,206.3 1153.73,207.134 1153.73,208.099C1153.73,208.692 1153.73,208.692 1153.73,208.099" style="fill:none;fill-rule:nonzero;stroke:rgb(77,77,77);stroke-width:3px;"/>
    <path d="M1157.82,212.832C1159.61,210.362 1161.87,207.707 1164.63,206.167C1166.6,205.06 1169.09,204.366 1171.33,203.938C1173.09,203.602 1174.68,205.16 1175.47,206.659C1176.4,208.432 1176.86,210.831 1175.3,212.374C1174.74,212.928 1174.6,213.449 1173.75,213.449C1173.28,213.449 1172.24,213.654 1172.03,213.243" style="fill:none;fill-rule:nonzero;stroke:rgb(77,77,77);stroke-width:3px;"/>
    <path d="M1173.96,199.868C1174.97,197.409 1175.65,194.569 1177.19,192.346C1177.89,191.334 1178.34,189.92 1179.23,189.065C1179.88,188.445 1180.06,187.709 1180.54,186.996C1180.64,186.844 1181.74,185.67 1181.49,185.67" style="fill:none;fill-rule:nonzero;stroke:rgb(77,77,77);stroke-width:3px;"/>
    <path d="M1154.59,186.493C1152.05,183.843 1148.67,182.538 1145.05,181.761C1143.07,181.334 1140.28,181.245 1138.43,182.195C1137.28,182.79 1136.23,183.236 1135.23,184.07C1134.35,184.8 1133.81,185.847 1133.09,186.71C1132.67,187.215 1132.25,187.882 1132.05,188.505C1132,188.64 1132,189.419 1132,189.168" style="fill:none;fill-rule:nonzero;stroke:rgb(77,77,77);stroke-width:3px;"/>
    <path d="M1292.1,98.012C1334.08,101.261 1376.56,105.615 1418.63,101.305" style="fill:none;fill-rule:nonzero;stroke:rgb(77,77,77);stroke-width:3px;"/>
    <path d="M1279.19,108.712C1310.62,111.915 1341.46,114.909 1373.01,112.828" style="fill:none;fill-rule:nonzero;stroke:rgb(77,77,77);stroke-width:3px;"/>
    <path d="M1437.57,61.797C1461.59,59.839 1485.73,56.858 1509.87,56.858" style="fill:none;fill-rule:nonzero;stroke:rgb(77,77,77);stroke-width:3px;"/>
    <path d="M1435.85,48.627C1470.54,44.561 1505.26,40.795 1540,37.104" style="fill:none;fill-rule:nonzero;stroke:rgb(77,77,77);stroke-width:3px;"/>
    <path d="M1640,890.177C1648.07,874.037 1669.52,865.293 1686,861.399C1697.21,858.75 1719.46,858.005 1722.78,872.955C1723.27,875.151 1722.3,876.158 1723.67,873.955C1727.09,868.456 1731.81,863.225 1737.56,860.177C1753.43,851.76 1781.06,848.482 1791.17,867.566C1792.19,869.499 1792.84,871.556 1793,873.733C1793.01,873.876 1792.76,875.451 1793.28,875.399C1794.87,875.24 1797.56,872.69 1798.67,871.955C1802.71,869.259 1806.87,866.793 1811.28,864.733C1832.46,854.832 1867.37,847.536 1888.17,861.733C1891.76,864.187 1898.1,869.489 1897.72,874.566C1897.54,876.96 1893.22,878.295 1895,877.511C1904.26,873.437 1914.78,871.739 1924.72,870.344C1934.32,868.996 1949.18,867.881 1956.11,876.622C1960.92,882.688 1958.92,892.018 1952.33,895.733C1941.03,902.11 1924.78,901.633 1912.33,901.955C1870.75,903.03 1829.05,902.177 1787.44,902.177C1759.51,902.177 1731.19,900.832 1703.33,903.177C1694,903.963 1684.81,905.177 1675.44,905.177L1649,905.177C1643.28,905.177 1641,905.332 1641,899.177" style="fill:none;fill-rule:nonzero;stroke:rgb(77,77,77);stroke-width:3px;"/>
    <path d="M64.073,750.506C79.215,740.346 94.577,731.339 112.851,728.729C122.552,727.343 135.228,725.54 142.851,733.284C146.436,736.926 147.131,743.431 145.073,748.062C142.789,753.201 151.621,748.324 154.073,747.506C169.025,742.522 190.715,739.962 199.906,756.506C202.63,761.409 202.816,768.054 200.073,772.951C198.947,774.961 193.932,779.591 198.518,779.506C206.014,779.367 213.207,777.379 220.851,777.506C229.249,777.646 237.568,779.16 244.851,783.506C253.61,788.734 264.822,806.262 251.351,811.895C241.237,816.125 229.082,815.506 218.351,815.506C205.049,815.506 191.793,814.806 178.518,814.006C152.988,812.468 127.125,814.115 101.629,815.729C85.341,816.759 69.394,819.28 53.073,819.506C47.562,819.583 42.11,820.786 36.629,821.284C28.751,822 23.334,819.961 16.629,816.006C11.099,812.745 0.473,804.206 2.184,796.506C3.39,791.083 24.093,785.502 28.295,789.284C29.921,790.747 29.039,788.216 29.073,786.729C29.168,782.549 31.618,779.533 34.295,776.506C40.046,770.006 48.883,767.964 56.573,765.006C59.75,763.784 63.117,760.852 64.073,757.506C64.837,754.832 68.657,747.506 72.073,747.506" style="fill:none;fill-rule:nonzero;stroke:rgb(77,77,77);stroke-width:3px;"/>
    <path d="M146.068,888.939C159.22,881.566 172.177,876.938 187.29,875.55C201.37,874.257 219.639,872.746 232.346,880.495C238.099,884.003 238.068,890.666 238.068,896.717C238.068,901.663 241.898,894.089 243.068,892.717C253.551,880.419 270.75,882.438 285.512,882.995C295.515,883.372 301.46,891.913 304.846,900.717C305.139,901.479 305.967,904.725 306.679,904.883C313.228,906.339 317.495,904.674 322.512,910.495C330.186,919.396 321.035,930.141 333.068,934.717C338.93,936.946 345.292,937.27 351.012,939.939C355.617,942.088 358.319,946.175 361.012,950.383C362.534,952.76 366.936,957.478 363.79,959.995C358.217,964.453 348.801,965.63 341.957,965.883C284.49,968.012 226.863,965.297 169.401,967.939C148.586,968.896 128.152,970.939 107.29,970.939C94.878,970.939 84.403,963.59 74.124,956.939C60.598,948.187 62.49,924.537 77.29,917.939C84.516,914.718 94.756,913.642 102.401,915.995C109.104,918.057 106.638,919.097 109.124,912.883C113.395,902.204 126.519,893.581 138.068,892.939C139.954,892.834 150.523,890.939 147.068,890.939" style="fill:none;fill-rule:nonzero;stroke:rgb(77,77,77);stroke-width:3px;"/>
</svg>
