<svg xmlns="http://www.w3.org/2000/svg" xml:space="preserve" style="fill-rule:evenodd;clip-rule:evenodd;stroke-linecap:round" viewBox="0 0 1961 1105"><path d="M906.996 268.015c9.832 14.365 27.951 15.807 36.991 31.493C945.999 303 946.5 305 949.5 309.5c.627 6.026 7.339 9.654 11.36 11.827l.123.066c15.298 8.27 36.317 6.987 48.987-7.473 5.38-6.137 10.66-12.138 15.77-18.282 3.92-4.708 7.27-11.581 12.22-15.079 15.89-11.224 43.42-22.719 43.99-49.508.36-16.744-1.21-30.043-8.22-44.704-3.24-6.785-5.38-15.37-10.33-20.751-4.48-4.869-12.18-9.746-17.66-12.611-15.04-7.853-28.85-13.131-45.21-15.346-16.045-2.171-33.658-1.068-49.545 1.868-14.014 2.59-31.556 8.464-42.767 19.483C894.472 172.501 891 189.927 891 210.367c0 10.66 1.504 21.642 3.499 32.027 2.08 10.824 6.721 17.182 12.497 25.621Z" style="fill:none;fill-rule:nonzero;stroke:#4d4d4d;stroke-width:3px"/><path d="M980 326.5c-.282 4.804-5.961 11.603-9 15-5.906 6.601 9.293 2.503 12 3.556 5.778 2.247 8.567 3.781 5.5-4.056-2.026-5.178-4.59-9.135-7.5-13.5" style="fill:none;fill-rule:nonzero;stroke:#4d4d4d;stroke-width:3px"/><path d="M981 345.5c-1.971 6.405-.558 12.231-3.556 18.5-2.971 6.213-9.114 11.725-13.889 16.5-6.703 6.704-13.954 11.744-19 20-1.119 1.832-14.055 23-13.055 59" style="fill:none;fill-rule:nonzero;stroke:#4d4d4d;stroke-width:3px"/><path d="M983 348.5c2.986 6.718 1.917 19.009-6.056 21.5-7.472 2.335-18.275-1.504-22.944 5.5M706.237 513.804v18.511c0 4.952-1.922 8.505-2.596 13.222-1.11 7.775-7.168 14.142-9.941 21.351-4.799 12.478-5.974 22.899-5.974 36.386 0 5.929.562 11.433.881 17.189.153 2.744.867 4.407 3.526 4.407 4.099 0 7.824.882 11.9.882 3.708 0 7.218-.882 10.97-.882 2.507 0 6.587.816 8.864-.196 3.372-1.499 7.406-1.269 10.969-2.889 3.03-1.377 6.18-2.925 9.305-3.966" style="fill:none;fill-rule:nonzero;stroke:#4d4d4d;stroke-width:3px"/><path d="M745.904 622.226v-29.97c0-6.553.161-14.871-3.086-20.715-1.163-2.094-2.097-5.401-2.889-7.689-.638-1.843-3.395-7.648-5.093-8.619-3.649-2.085-9.322-9.904-11.41-13.663-1.089-1.959-2.566-5.818-3.036-7.933-.315-1.415-.347-6.322-1.127-7.297-1.328-1.66-3.155-12.121-1.371-14.103 5.167-5.742.05-5.485-5.485-5.485-1.478 0-6.104-.744-7.052.441-.992 1.24-2.91 3.392 0 4.848" style="fill:none;fill-rule:nonzero;stroke:#4d4d4d;stroke-width:3px"/><path d="M701.83 584.322c2.107 6.088 4.519 16.025 10.578 19.589 2.284 1.343 10.217 11.029 13.026 5.974 2.693-4.847 4.829-9.985 7.052-14.985 1.677-3.773 1.352-16.461 1.077-12.341-.341 5.114-9.156 5.617-11.655 2.84-1.439-1.599-4.212-13.581-4.212-8.129 0 4.871-2.1 10.578-7.933 10.578-1.479 0-6.104.744-7.052-.441-.792-.991-3.049-2.442-3.526-2.203m16.748-86.385c6.487-14.415 18.707-25.721 32.615-33.448 4-2.222 9.366-5.338 14.055-5.338h1.812m-53.77 24.682c6.296-19.969 14.439-35.916 28.305-51.714 2.2-2.506 6.622-8.515 9.941-9.843 1.051-.42-1.889 1.341-2.987 1.616m-43.193 53.77c-5.061-15.033-12.702-28.509-18.511-43.192-.911-2.302-3.526-13.629-3.526-6.17m21.156 65.229c-16.135-19.822-38.556-33.234-64.299-34.378-8.565-.38-17.038-.881-25.612-.881-4.212 0-.268-.921.881-2.645m-22.919 7.052c2.699-4.343 6.063-8.314 5.24-13.663-.518-3.366-.165 3.676 2.253 4.75 2.436 1.083 3.967-1.897 3.967-3.868 0-1.587-4.198 4.318-4.359 6.17-.272 3.134.547 4.525 1.91 7.101 1.256 2.371 2.349-.197.686-1.175-4.842-2.848-10.578-2.095-10.578 4.211m188.637-.881c.407-5.697 3.865-12.082 6.562-17.091 1.834-3.405 3.699 4.78 4.457 6.464.996 2.214 6.624 8.114.832 4.407-4.827-3.089-10.636-7.884-16.601-7.884-5.706 0 5.145.882 6.709.882h10.774c1.795 0 5.386-1.796 5.386 0 0 .521-10.944 7.837-11.949 8.814-1.21 1.179-9.666 9.88-5.288 4.408m44.074-51.126c-.594-1.526-.249-2.034 0-3.526m4.407 17.63c-.812-.102-.584-.287-.882-.882m-11.459 14.104.882-1.763m6.17-15.867c.911-.429 1.694-.644 2.645-.881m-142.8-5.289c5.957-1.782 11.435-3.526 17.629-3.526m-23.8.881c.143-3.859.882-7.563.882-11.459m-7.052 14.104c-5.209-1.489-9.511-3.8-14.985-4.408m14.103 12.341c-6.095 1.693-11.998 4.236-17.629 7.052m22.037-4.408c-.732 3.806-1.8 7.126-3.526 10.578m143.681-13.222c-21.085 0-43.158 5.728-61.263 16.748-6.027 3.669-13.084 7.599-17.384 13.222-4.359 5.7-8.315 11.252-13.027 16.749M868 863.5c8.49-18.758 15.198-38.551 24.222-57 2.82-5.765 5.858-11.38 7.722-17.555 1.869-6.19 2.417-12.887 4.667-18.945 4.126-11.107 10.817-20.902 14.889-32.055 6.25-17.12 14.828-33.36 20.5-50.667A166.858 166.858 0 0 1 961.5 644c2.209-3.19 4.291-7.949 8.278-9.278 2.652-.884 5.562.661 7.833 1.834 7.319 3.777 15.171 7.007 21.778 12 11.131 8.412 16.971 21.86 28.221 30.444 15.17 11.569 30.94 22.521 45.61 34.722 13.71 11.405 25.64 23.008 41 32.223 11.76 7.055 26.18 16.179 34.78 27.166 3.39 4.328 5.32 9.58 9 13.722 4.82 5.432 11.38 8.969 18 11.667 6.86 2.794 13.3 5.963 18.33 11.556 3.7 4.111 6.55 8.68 10.45 12.666 3.72 3.801 10.02 9.328 12.22 14.278.88 1.974 6.23 6.784 2 1.5m-513-35c-7.471-4.075-10.269-13.651-14.944-20.389-8.386-12.085-16.509-24.412-23.445-37.389-7.464-13.964-18.881-28.946-32.389-37.778-4.077-2.666-10.919 3.919-13.666 6-10.054 7.617-21.148 13.312-30.945 21.445-9.206 7.642-17.851 15.893-26.944 23.666-3.872 3.31-7.091 7.157-11.667 9.445m56 79c-8.632-13.295-16.663-27.081-26.556-39.5-5.971-7.497-12.837-14.258-19-21.611-7.54-8.997-12.372-20.518-20.444-28.889-5.393-5.593-11.239-11.101-16-17.222-6.549-8.421-11.056-19.468-19.056-26.667-3.369-3.033-9.446-3.677-13.444-6.111-3.876-2.359-10.015-9.751-14.5-10-16.744-.93-32.515 17.646-44.5 27-9.017 7.038-17.851 14.131-26.556 21.556C398.8 753.855 388.55 760.118 379.5 768c-7.306 6.363-14.591 12.591-21.444 19.444-6.512 6.512-12.453 14.298-19.834 19.834-5.263 3.947-9.385 8.83-14 13.444-4.278 4.278-8.886 8.534-12.722 13.222-2.414 2.951-6.36 4.416-9 7.056-1.909 1.909-3.022 4.283-4.5 6.5m1158-27.035c38.34-3.35 76.23-7.177 114.78-5.778 29.76 1.08 59.32 2.778 89.11 2.778 20.61 0 41.06.852 61.28-4 8.92-2.141 17.41-5.746 26.17-8.444 7.07-2.179 20.61-4.036 22.22-13.222 2.58-14.756-14.36-25.759-26.78-27.334-13.72-1.74-28.35.155-41.67 3.611-9.52 2.474-21.67 6.063-28.89 13.278-2.48 2.486 1.06.443 1.78-2.333 1.95-7.483-.46-12.995-6.22-18.111-9.36-8.319-22.8-10.805-34.83-11.778-15.03-1.216-30.34-1.427-43.73 6.444-7.85 4.619-13.28 12.54-19 19.445-.98 1.193-2.84 4.945-4.83 4.333-5.01-1.541-9.44-5.179-14.5-6.889-10.65-3.599-23.67-4.539-34.44-.778-7.47 2.607-13.16 8.033-17.84 14.223-1.54 2.046-4.16 8.345-6.83 9.333-2.77 1.027-6.22-.703-8.89-1.222-6.24-1.213-13.35-.816-19.67-.5-4.49.224-8.39 2.167-12.44 3.944-5.46 2.396-12.44 4.083-16.67 8.5-1.96 2.058-4.2 4.473-4.11 7.5.09 3.067 4.67 2 6.78 2 3.69 0 18.05 3.339 19.22 1" style="fill:none;fill-rule:nonzero;stroke:#4d4d4d;stroke-width:3px"/><path d="M975 855.5c0-7.589-5.694-8.892-12-12-8.127-4.006-18.423-5.602-27.222-2.778-9.389 3.014-17 9.004-21.556 17.778-.483.93-2.331 7-3.222 7-1.844 0-3.55-1.395-5.222-2-4.094-1.481-8.838-1.053-13.111-1-6.661.083-10.608 3.485-16.445 5.778-6.997 2.749-8.42-6.835-15.222-8.778-9.957-2.845-20.377-4.637-30.5-1.556-5.075 1.545-8.768 3.639-12.944 7.056-2.675 2.188-2.726 3.731-5.612-.056-10.214-13.405-31.381-13.115-44.388-4.444-5.873 3.915-13.289 7.953-17.889 13.389-.853 1.008-2.667 4.544-2.667 1.611m13-68c0-7.173-1.594-8.413-8.778-10.778-8.12-2.672-17.19-3.352-25.333-.444-8.672 3.097-21.863 10.615-25.111 20-.615 1.776-1.168 5.362-2 6.778-.735 1.249-15.74-.579-17.556-.556-9.229.115-16.391 4.835-24.555 8.556-4.894 2.23-11.703 4.562-15.112 8.944-4.852 6.239-11.774 1.132-18.555 1.556-9.134.57-15.256 7.33-22 12.388-.597.448-2.142-1.619-2.611-1.944-2.463-1.705-5.684-2.102-8.556-2.556-9.465-1.494-18.776-4.283-28.444-3.888-9.179.374-18.316 2.738-25.945 8-1.552 1.07-12.531 8.973-9.444 7.944m504-83c-1.44 7.65-3.16 14.339.5 21.5 1.87 3.663 3.71 7.374 4.28 11.5.92 6.76-.78 13.293-.78 20 0 4.812 2.47 5.841 3.78 9.778 1.2 3.593.55 4.136-1.78 1.222m-348-249c-11.1-3.964-17.884-14.995-25.944-23.056-1.82-1.819-10.845-14.08-13.667-12.777-5.241 2.418-9.708 9.626-13.389 13.833-4.95 5.658-8.133 11.939-11.556 18.556-6.434 12.44-16.623 24.101-24.444 35.833-7.266 10.9-17.967 21.578-27.222 30.833l-28.222 28.222c-7.499 7.499-14.376 15.509-21.556 23.112-2.722 2.881-6.137 5.752-7.778 9.444-.864 1.946-1.179 3.979-3.222 5m-35-21c0 7.666-3.62 13.223-5.778 20.444-1.112 3.721-1.023 11.5-4.444 14-6.883 5.03-13.731 10.509-19.778 16.556-3.66 3.66-9.856 8.675-12 13.5-3.22 7.244.045 13.455-6.5 20-5.209 5.209-11.79 8.79-17 14-3.216 3.216-6.711 10.606-10.5 12.5m568-173c.169 3.049 1.912 4.612 3.5 7.056 3.57 5.492 3.373 11.72 5.556 17.722 3.099 8.523 11.883 13.698 13.888 22.722.371 1.668-2.223 3.134-2.944 4.5-1.662 3.149-1.928 6.603-2.778 10-1.147 4.587-4.966 7.158-7 11-2.23 4.212-9.772 7.962-13.278 11.056-5.418 4.78-10.571 9.544-15.444 14.888-2.298 2.521-8.673 6.084-9.444 9.556-.9 4.047-.056 9.186-.056 13.278 0 5.642 1.146 7.222-5 7.222m-304-57c0 5.638 2.971 18.849-3.167 21.611-5.538 2.492-10.966 6.273-15.777 9.945-3.543 2.703-10.628 7.159-12.056 11.444m17 12c-5.583 3.772-9.475 7.342-14 12-1.268 1.305-2.502 3.251-4 4" style="fill:none;fill-rule:nonzero;stroke:#4d4d4d;stroke-width:3px"/><path d="M647 560.5c-3.388 6.776-3.785 13.858-5 21.222-.848 5.144-1.253 10.37-1.778 15.556-.214 2.117.398 5.221-.444 7.222-1.504 3.572-6.817 5.484-9.556 8.222-3.62 3.621-8.306 8.168-10.611 12.778-2.141 4.282 1.052 9.799-.166 14.5-1.313 5.063-2.907 10.66-5 15.444-1.507 3.445-19.391 16.11-18.445 17.056m76-53c3.871 1.834 7.748 3 12 3 1.277 0 7.484.516 6 2m57-3c2.546 0 13.206-2.97 14.778 0 1.018 1.924.426 6.655 2.222 7.778 4.14 2.587 6 9.686 6 14.222m27 98c2.299 4.599 4.969 9.176 6.778 14 1.767 4.713 1.619 9.534 2.778 14.333 1.428 5.919 7.235 9.25 9.944 14.667 1.186 2.373 13.587 16.913 13.5 17m837-81c32.66-3.939 65.03-3.424 97.78-1.222 3.92.263 33.94 3.018 35.11-2.834 2.81-14.078-31.42-10.611-38.33-12.055-7.34-1.533-14.35-5.4-20.34-9.889-6.32-4.744-12.6-4-20.22-4-16.05 0-28.7-.287-39.78 12.556-2.05 2.375-3.79 4.158-5.28 6.888-1.58 2.914-9.7 2.594-12.44 3.112-5.4 1.021-15.87 6.355-4.5 7.388 4.52.411 11.85 1.13 16-.944m-526 53c9.29.244 17.87 1.325 27.22 0 13.3-1.883 26.69-2.696 40.06-4 10.15-.991 19.97-2 30.22-2 6.74 0 13.64.494 20.28-.778 11.29-2.163 11.82-11.321 1.16-16.166-11.28-5.13-21.31-6.191-33.72-6.056-8.86.096-17.45 3-26.22 3-4.91 0-5.96-3.871-8.61-7.5-5.52-7.563-16.36-12.58-25.5-13.278-9.53-.727-19.92-.951-29.11 2-5.55 1.78-11.97 5.077-17.78 5.722-9.13 1.014-15.32-7.703-24-7.944-3.47-.096-5.41.628-8.5 2-3 1.334.13 2.365 2.5 0m-327-82c16.237 22.482 24.854 49.763 40.389 72.778 5.839 8.65 10.822 18.036 17.611 26 2.931 3.439 6.307 6.529 9.5 9.722 3.6 3.6 5.007 8.223 7.556 12.556 2.399 4.079 5.927 6.35 8.722 9.944 1.829 2.352 2.884 5.443 4.278 8.056 3.911 7.333 10.503 11.505 14.944 18.166 1.801 2.702 3.321 5.937 4.944 8.778.788 1.378 3.637 4.282 4 5.556.607 2.124 3.493 5.59.056 4.444m-140-162c.205 8.803 2.541 15.049 4.778 23.222 1.76 6.432 1.525 13.166 3.222 19.556.874 3.289 4.736 8.538 2 9.222m-32-44c.1 15.235 1.691 29.12-1.444 43.944-1.729 8.173-3.556 16.462-3.556 24.834 0 3.598.408 15.222-5 15.222m351-3c10.16 15.456 20.85 29.953 32.78 44 5.66 6.669 4.96 16.973 10.66 23 3.7 3.905 7.14 5.77 9.34 11 1.24 2.951 2.25 3.152-1.78 2m-853-165c25.34-2.764 50.499-5 76-5 23.092 0 46.143.882 69.222 1 11.364.058 22.432-1 33.722-1 4.057 0 7.7-2 12.056-2 4.803 0 13.368-.33 17.5-2.556 7.177-3.864 13.718-10.403 4.833-16.666-9.518-6.71-26.363-8.149-36.722-2.778-1.706.884-5.759 3.679-6.833.778-2.467-6.661-6.364-13.417-11-18.778-12.506-14.46-38.281-16.588-55.223-9.944-5.794 2.272-10.475 4.419-14.777 8.722-1.479 1.478-3.698 3.812-5.834 2.611-5.456-3.07-8.514-7.059-15.166-8.389-10.363-2.073-20.225 2.919-28.334 9-3.669 2.752-7.158 6.444-9.444 10.444-.742 1.298-9.663 1.234-11.111 1.612-7.356 1.918-15.426 3.797-21.445 8.722-1.904 1.558-3.784 3.641-4.333 6.111-.154.694.22 2.335-.333 2.889-1.31 1.309-7.658.222-9.167.222-4.554 0-10.446-1.054-14 2.5-5.356 5.356 1.152 9.381 5.389 11.5 8.314 4.157 23.651 5.174 32 1" style="fill:none;fill-rule:nonzero;stroke:#4d4d4d;stroke-width:3px"/><path d="M419 619.5c18.807 0 37.513-3.154 56.444-3 14.149.115 28.233 0 42.334 0 3.078 0 10.965 1.256 13-2 1.819-2.91.895-4.658-2.778-6-16.807-6.141-29.973-7.04-47.333-2-5.315 1.543-5.765-5.895-10.889-8.778-9.811-5.518-24.765-7.372-35.556-4-3.296 1.03-9.915 6.701-13.222 6.334-1.373-.153-3.229-4.326-4.111-5.223-3.352-3.407-7.005-6.92-11.667-8.333-13.759-4.169-30.187-2.585-39.222 9.778-1.218 1.666-8.483 10.222-3 10.222M1044 20c2.03.446 4.02 2 6.11 2 1.07 0 2.14.79 2.14 1.875 0 1.666-1.1 1.961-1.69 3.375-.68 1.602.25 3.27 1.75 3.805 2.14.766 4.49 2.695 6.81 2.695h2.38c1.28 0 2.45-1.62 3.24-2.5 1.67-1.887 2.78-4.277 4.12-6.389.42-.66 1.05-1.679 1.33-2.417.29-.736.38-1.625.69-2.305.63-1.398-.91-3.833-2.13-4.445-1.68-.841-3.52-1.52-5.25-2.25-2-.84-3.19.796-4.33 2.153-.83.979-2.71.883-3.79.278-1.33-.737-2.77-1.498-4.13-2.181-1.08-.537-1.92-1.4-3.06-.583-2.14 1.544-3.16 4.536-3.94 6.889M708 436.5v22m3-50V423m3-35.5c.277-3.975 1-8.031 1-12m79-269c3.3-6.599 6.339-14.173 11-20M818 70c4.169-5.062 8.192-10.328 11.5-16m17-21.5c3.266-3.266 6.618-6.398 9.5-10M878.5 10c3.843-2.826 7.663-4.641 12-6.5M1013 2c5.39.15 9.71 1.282 14 4.5M760.75 172.75c1.508-3.129 2.697-6.393 4.25-9.5m10.5-18c1.447-2.685 2.559-5.714 4.25-8.25M738 253.5c-1.057 4.166-1.584 9.376-4 13m441.9-81.241c.23-3.727 20.31-39.676 18.94-40.331m-35.3 41.977c6.42-9.461 9.06-19.638 13.78-29.814.93-2.01 8.54-13.045 6.88-14.633m0 0c0-5.523-6.02-11.606-8.17-16.873-1.53-3.733-3.88-7.869-3.88-11.934" style="fill:none;fill-rule:nonzero;stroke:#4d4d4d;stroke-width:3px"/><path d="M1168.15 113.651c-4.96 1.518-7.69 4.046-11.38 7.224-1.91 1.641-1.53 3.089-1.53 5.533 0 3.461-3.36-.015-4.3-1.6-2.47-4.131-1.51-5.177.86-9.145 2.26-3.784 2.17-7.35 4.11-11.066 3.89-7.441 11.47-10.7 19.56-10.7 4.78 0 7.57 1.472 12.05 2.423 3.82.812 9.14 1.209 12.48 3.338m5.16 3.293c17.03-8.57 33.01-18.863 50.36-26.796 6.04-2.763 12.54-7.336 18.07-11.02 4.85-3.226 9.59-6.423 14.59-9.466 5.51-3.355 10.02-7.661 15.3-11.157 2.84-1.879 4.91-5.181 8.23-6.402 4.74-1.745 9.64-3.527 14.63-4.481 15.53-2.969 32.01-5.685 46.62-11.797 4.57-1.911 9.31-4.38 13.82-6.539 2.65-1.265 10.88-5.412 10.29-.32-.46 3.911-4.59 5.658-7.8 7.362-6.78 3.604-13.95 6.451-20.75 10.014-4.91 2.569-9.43 5.761-14.3 8.322-.97.511-1.78.709.19.457 4.35-.554 8.66-1.749 12.96-2.56 9.7-1.83 18.99-5.375 28.64-7.134 2.3-.417 7.97-2.225 9.71.092 5.21 6.917-25.34 13.929-30.13 15.455-6.99 2.23-13.98 4.075-21.13 5.762-7.9 1.861 4.9.542 6.69.366 11.07-1.089 22.25-1.936 33.38-2.012.87-.006 12.75-1.168 9.76 2.469-3.67 4.463-14.94 5.299-20.28 6.585-11.68 2.814-24.03 3.77-35.96 5.258-2.37.295-5.48.08-7.75.915-3 1.106 6.44.411 9.66.411h36.97c.97 0 8.11-1.177 7.55 1.235-.82 3.525-9.38 4.807-12.19 5.35-7.99 1.542-15.73 4.12-23.86 4.938-3.74.376-8.08.254-11.72 1.006-1.65.341-8.05 1.431-6.88 1.464 5.32.149 12.32 2.092 17.12 4.206 1.67.741 7.24 4.621 3.63 6.494-3.54 1.839-7.84 1.579-11.67 2.469-5.19 1.208-10.86 1.977-15.87 3.704-4.51 1.551-10.95 3.759-14.69 6.539-4.34 3.232-7.78 7.35-12.91 10.334-6.55 3.815-13.64 7.356-21.04 9.419-6.93 1.934-14.63.03-21.56 1.464-3.99.823-7.99.64-12.06.64-5.73 0-10.5 2.469-16.35 2.469m-43.9-32.1c2.16-4.378.29-9.568-.86-13.947-1.03-3.927-2.61-8.781-4.49-12.392-2.7-5.149-9.1-12.601-3.45-17.467 7.64-6.576 17.22-10.07 24.49-17.285 4.5-4.468 7.23-9.404 12.33-13.398 1.91-1.492 3.06-3.02 5.55-2.88 4.33.243-6.78 12.442-7.7 13.535-3.74 4.467-8.15 8.396-11.57 13.123-1.16 1.608-.19.268.48-.366 3.46-3.308 7.62-6.521 11.62-9.191 4.23-2.826 8.9-5.06 13.01-8.048 1.09-.794 2.12-1.901 3.63-1.646 3.89.657-11.41 15.043-12.39 15.913-2.13 1.911-12.61 8.452-11.66 11.615.14.48 19-10.061 21.28-11.066 1.18-.523 12.35-7.073 11.19-2.286-1.58 6.469-11.12 11.613-16.26 15.181-3.63 2.513-7.46 4.966-10.95 7.636-.18.134-2.74 2.265-2.2 2.469 2.52.966 11.44-5.266 13.53-6.173 2.71-1.178 5.48-2.807 8.32-1.372 2.24 1.135.39 4.749-.86 5.945-2.09 2.002-6.6 4.528-7.75 6.996-1.35 2.917-.89 1.883 2.58 2.058 3.04.152 7.5 6.293 5.17 7.407m1.72 50.208c-3.77 0-10.7 8.646-11.19 12.346-.2 1.527-2.66 4.012-3.87 4.939-1.79 1.365-.68 3.919-3.88 4.938m29.7-17.696c8.61 3.292 15.88 6.871 28.03 6.871 8.16 0 17.98.689 25.44-1.126 2.78-.678 11.81-.286 6.35 2.041-4.93 2.101-9.85 2.568-15.6 3.379-6.32.889-12.39 2.041-19.01 2.041h5.13c3.63 0 6.88.633 10.47.633 3.06 0 5.63.634 8.61.634 2.63 0 2.28 2.062.06 2.393-6.82 1.02-16.14.141-23.18.141-3.04 0-13.73-1.038-8.42-.141 2.58.434 16.67 3.195 6.68 3.976-8.16.639-19.83-.887-27.23-3.202-7.26-2.275-15.13-2.826-20.14-6.94m-6.89 7.819c-2.77 2.824-5.13 6.574-9.03 8.231-.56.237-4.64 1.079-4.64 1.235 0 .72 2.41.377 2.87.457 1.17.205 2.29 1.2 3.44 1.601 7.66 2.664-5.23 4.131-5.98 4.526-2.71 1.439 9 4.571.05 6.128-1.84.319-3.8.765-5.64.869-2.56.144 2.39.924 2.58 1.006 5.97 2.538-3.28 4.074-4.97 4.572-2.96.869-7.7 1.67-10.52 1.829-3.95.222-7.18 1.647-11.19 1.647" style="fill:none;fill-rule:nonzero;stroke:#4d4d4d;stroke-width:3px"/><path d="M1290.38 65.912c10.09-7.394 19.48-13.506 31.85-16.462m-163.55 138.072c-.73-.039-1.46-.39-2.15-.617-1.33-.44-2.53-.734-3.96-.812-1.79-.098-4.53-.444-6.2.194-2.19.837-5.98 4.155-5.98 6.585m36.15-6.996a5.141 5.141 0 0 1-.86-.823" style="fill:none;fill-rule:nonzero;stroke:#4d4d4d;stroke-width:3px"/><path d="M1176.54 185.67c-1.84 1.073-3.05 1.996-4.19 3.704-.6.89-1.2 1.832-1.71 2.766-.37.677-.67 1.481-1.3 1.967-.3.227-.5-.183-.76-.366-.55-.387-1.29-.252-1.93-.252-2.07 0-4.13-.031-6.2 0-1.73.027-3.49 1.225-4.99 1.944-2.02.964-3.21 2.23-4.54 3.944-.99 1.289-1.95 2.969-2.3 4.561-.05.219-.11 1.811.16 1.28m15.28-5.35c-3.71.459-7.85 2.27-9.67 5.567-.47.865-.66 1.699-.66 2.664 0 .593 0 .593 0 0m4.09 4.733c1.79-2.47 4.05-5.125 6.81-6.665 1.97-1.107 4.46-1.801 6.7-2.229 1.76-.336 3.35 1.222 4.14 2.721.93 1.773 1.39 4.172-.17 5.715-.56.554-.7 1.075-1.55 1.075-.47 0-1.51.205-1.72-.206m1.93-13.375c1.01-2.459 1.69-5.299 3.23-7.522.7-1.012 1.15-2.426 2.04-3.281.65-.62.83-1.356 1.31-2.069.1-.152 1.2-1.326.95-1.326m-26.9.823c-2.54-2.65-5.92-3.955-9.54-4.732-1.98-.427-4.77-.516-6.62.434-1.15.595-2.2 1.041-3.2 1.875-.88.73-1.42 1.777-2.14 2.64-.42.505-.84 1.172-1.04 1.795-.05.135-.05.914-.05.663m160.1-91.156c41.98 3.249 84.46 7.603 126.53 3.293m-139.44 7.407c31.43 3.203 62.27 6.197 93.82 4.116m64.56-51.031c24.02-1.958 48.16-4.939 72.3-4.939m-74.02-8.231c34.69-4.066 69.41-7.832 104.15-11.523m100 853.073c8.07-16.14 29.52-24.884 46-28.778 11.21-2.649 33.46-3.394 36.78 11.556.49 2.196-.48 3.203.89 1 3.42-5.499 8.14-10.73 13.89-13.778 15.87-8.417 43.5-11.695 53.61 7.389 1.02 1.933 1.67 3.99 1.83 6.167.01.143-.24 1.718.28 1.666 1.59-.159 4.28-2.709 5.39-3.444 4.04-2.696 8.2-5.162 12.61-7.222 21.18-9.901 56.09-17.197 76.89-3 3.59 2.454 9.93 7.756 9.55 12.833-.18 2.394-4.5 3.729-2.72 2.945 9.26-4.074 19.78-5.772 29.72-7.167 9.6-1.348 24.46-2.463 31.39 6.278 4.81 6.066 2.81 15.396-3.78 19.111-11.3 6.377-27.55 5.9-40 6.222-41.58 1.075-83.28.222-124.89.222-27.93 0-56.25-1.345-84.11 1-9.33.786-18.52 2-27.89 2H1649c-5.72 0-8 .155-8-6M64.073 750.506c15.142-10.16 30.504-19.167 48.778-21.777 9.701-1.386 22.377-3.189 30 4.555 3.585 3.642 4.28 10.147 2.222 14.778-2.284 5.139 6.548.262 9-.556 14.952-4.984 36.642-7.544 45.833 9 2.724 4.903 2.91 11.548.167 16.445-1.126 2.01-6.141 6.64-1.555 6.555 7.496-.139 14.689-2.127 22.333-2 8.398.14 16.717 1.654 24 6 8.759 5.228 19.971 22.756 6.5 28.389-10.114 4.23-22.269 3.611-33 3.611-13.302 0-26.558-.7-39.833-1.5-25.53-1.538-51.393.109-76.889 1.723-16.288 1.03-32.235 3.551-48.556 3.777-5.511.077-10.963 1.28-16.444 1.778-7.878.716-13.295-1.323-20-5.278-5.53-3.261-16.156-11.8-14.445-19.5 1.206-5.423 21.909-11.004 26.111-7.222 1.626 1.463.744-1.068.778-2.555.095-4.18 2.545-7.196 5.222-10.223 5.751-6.5 14.588-8.542 22.278-11.5 3.177-1.222 6.544-4.154 7.5-7.5.764-2.674 4.584-10 8-10m73.995 141.433c13.152-7.373 26.109-12.001 41.222-13.389 14.08-1.293 32.349-2.804 45.056 4.945 5.753 3.508 5.722 10.171 5.722 16.222 0 4.946 3.83-2.628 5-4 10.483-12.298 27.682-10.279 42.444-9.722 10.003.377 15.948 8.918 19.334 17.722.293.762 1.121 4.008 1.833 4.166 6.549 1.456 10.816-.209 15.833 5.612 7.674 8.901-1.477 19.646 10.556 24.222 5.862 2.229 12.224 2.553 17.944 5.222 4.605 2.149 7.307 6.236 10 10.444 1.522 2.377 5.924 7.095 2.778 9.612-5.573 4.458-14.989 5.635-21.833 5.888-57.467 2.129-115.094-.586-172.556 2.056-20.815.957-41.249 3-62.111 3-12.412 0-22.887-7.349-33.166-14-13.526-8.752-11.634-32.402 3.166-39 7.226-3.221 17.466-4.297 25.111-1.944 6.703 2.062 4.237 3.102 6.723-3.112 4.271-10.679 17.395-19.302 28.944-19.944 1.886-.105 12.455-2 9-2" style="fill:none;fill-rule:nonzero;stroke:#4d4d4d;stroke-width:3px"/></svg>