<svg xmlns="http://www.w3.org/2000/svg" width="170" height="279" fill="none"><path stroke="#4D4D4D" stroke-linecap="round" stroke-width="3" d="M5 274.5c19.72-1.467 39.231-1.458 58.944-2.056 10.972-.332 21.823-2.684 32.834-1.722 8.658.757 17.112 2.83 25.666 4.222 6.652 1.083 13.445-.168 20.056 1.056 5.664 1.049 11.732.5 17.5.5 1.348 0 3.146.315 4.444-.056 1.441-.411.556-9.55.556-10.888 0-27.744-5.969-57.15 3-84.056"/><path stroke="#4D4D4D" stroke-linecap="round" stroke-width="3" d="M6 274.5c-4.09-7.668-2-19.537-2-27.944V223.5c0-3.914-1-7.656-1-11.5v-2.5m17-1c13.704-1.465 27.955-2.351 41.333-6 8.505-2.319 17.035-5.254 25.667-7 7.746-1.567 15.734-2.165 23.556-3.222 4.991-.675 9.933-2.637 15-2.778 4.832-.134 11.985-1.24 16.444-3.222 2.496-1.11 10.732-1.778 8-1.778"/><path stroke="#4D4D4D" stroke-linecap="round" stroke-width="3" d="M2 241.5c6.864.381 12.714 1.851 18.778-3 5.192-4.154 7.64-14.297 13.722-17 11.656-5.181 5.791 14 14.5 14 7.303 0 13.05-12.941 18.222-16.778 5.973-4.431 12.91-6.222 20.278-6.222 2.943 0-.01 28.338 10.5 23.833 5.743-2.461 4.457-19.325 6.556-24.722 1.766-4.543 5.245-5.11 9.222-6.333 3.063-.943 6.15-.187 9.222-1 3.601-.953 6.116-2.665 10-1.278 3.364 1.201 7.12-.394 10.444.556 2.702.771 2.715 3.944 6.556 3.944 2.344 0 5.213.453 7.5-.056 1.609-.357 4.956-4.488 4.5-4.944m-118 49c19.7 0 39.316.387 58.944-1.5 12.404-1.193 24.602-1.5 37.056-1.5 3.046 0 8.115.06 11-1.222 2.233-.993 7.532-2.895 4-3.778"/><path stroke="#4D4D4D" stroke-linecap="round" stroke-width="3" d="M102 231.5c15.951 0 31.721.324 47.333-3.444 2.683-.648 5.405-1.556 8.167-1.556h1.5m-89 7c6.746 0 13.448-1 20-1m63 13c3.069-.722 5.884-1 9-1m6-63.75c-2.112-1.629-3.966-3.537-6.111-5.167-3.66-2.78-6.64-6.294-10.111-9.291-2.811-2.428-6.415-3.787-9.514-5.792a82.833 82.833 0 0 0-7.514-4.306c-4.553-2.316-8.742-5.327-13.347-7.555-.953-.461-2.051-1.342-3.042-1.625-.685-.196-1.873-.3-2.111-1.014"/><path stroke="#4D4D4D" stroke-linecap="round" stroke-width="3" d="M117.25 146.5c-1.886 0-3.848-.171-5.694.25-2.533.577-4.743 2.449-7.028 3.611-4.439 2.257-8.956 4.323-13.417 6.528-9.532 4.711-19.186 9.183-28.347 14.597-8.546 5.05-16.607 10.752-25.014 16.014-5.51 3.448-11.063 6.831-16.556 10.306-3.301 2.088-6.25 4.963-9.833 6.569-.64.287-6.78 4.538-7.361 3.375m15.25 1c-5.743.681-11.496 3-17.25 3m74.75-121.5c.47 2.87.844 5.761.986 8.667.103 2.111-.017 4.42.57 6.472.434 1.519 1.21 3.119 2.694 3.861 1.426.713 2.982.823 4.514 1.139 1.917.395 3.875 1.002 5.736 1.611 1.147.375 2.373.472 3.5.875.45.161 1.353.375.25.375m5-1.75c.933-.055 1.912-1.075 2.556-1.694.773-.745 1.884-1.108 2.569-1.945 1.066-1.303 2.229-1.989 2.125-3.861-.031-.55-.93-1.568-1.306-1.944-1.249-1.25-2.513-2.401-3.444-3.931-.779-1.28-1.686-2.123-2.639-3.25-1.023-1.21-1.701-2.638-2.611-3.93-.838-1.191-2.479-2.778-3.625-3.695-.278-.222-.384-.824-.625-1.125-.322-.403-1.272-.375-1.75-.375-1.238 0-2.676-.207-3.889.014-.777.141-1.476.553-2.236.722-.351.078-1.49.264-1.375.264m-1.503.222c.946-1.839 2-3.192 2-5.36 0-1.2.571-2.662.194-3.834C83.928 76.18 82.081 74 80.247 74c-1.263 0-2.303 2.304-2.75 3.222-.682 1.401-.602 3.196-.125 4.625.406 1.218 1.304 2.703 2.625 3.07.642.178 2.755.066 3 .555"/><path stroke="#4D4D4D" stroke-linecap="round" stroke-width="3" d="M83.25 104.75c2.242-2.679 3.797-4.161 7.111-4.764 1.168-.212 1.247-.115 2.028.889 1.077 1.384 1.167 4.456.611 6.125"/><path stroke="#4D4D4D" stroke-linecap="round" stroke-width="3" d="M90.25 100c1.646-.484 3.153-1.526 4.861-2.014 1.351-.386 1.06.685 2.139 1.32 1.682.989 2 4.456 2 6.194M90 87c-.482 3.327-.856 6.235-1.74 9.336-.34 1.19-.249 2.396-.249 3.664M93 107.5c-1.019 2.727-2.105 5.412-3.139 8.139-.771 2.034-1.875 4.112-2.347 6.236-.238 1.069 1.773 2.267 2.486 2.681.305.176 1.5 1.645 1.5 1.444m3.554-7c-.48 1.02 2.38 3.881 3.25 4.75M76 90.5c0 7.757-3 15.158-3 22.944 0 .911 1.28 2.768 2.306 2.806 2.317.086 4.146-.476 6.194-1.5M79.004 29c.014 7.17-.097 14.365.306 21.528.06 1.077.194 2.142.194 3.222M63 2c1.027 18.917 2.113 37.808 2.5 56.75m10.813 21.5c-.32-2.284-.373-4.536-.216-6.837.14-2.036.278-4.043.278-6.087 0-1.394.25-2.75.25-4.138M79.5 73.75c.19-2.746.317-5.518.674-8.25.131-1.008.425-2.179.201-3.188m2.438 12.438c.64-3.138.835-6.37 1.25-9.549.082-.632.236-1.236.343-1.86.033-.192.146-.544-.031-.279M89 71c.596-15.617 1.15-31.27 1.42-46.946C90.546 16.694 91 9.362 91 2m8.25 11c-.052 5.985-.454 11.99-1.056 17.944-.28 2.772-.694 5.455-.694 8.25 0 1.438-.198 2.843-.25 4.25-.014.38.047 2.493-.25 1.306"/></svg>