<svg width="1680" height="723" viewBox="0 0 1680 723" fill="none" xmlns="http://www.w3.org/2000/svg">
<path d="M868.968 365.728C868.224 367.696 867.48 369.664 866.736 371.632C866.448 372.376 865.8 375.16 865.104 376.552C863.376 374.224 862.248 370.312 861.48 368.008C861.192 367.096 859.68 366.616 859.224 367.696C857.712 371.344 856.056 374.944 854.304 378.472C852.36 375.712 850.92 372.784 849.888 369.448C849.408 367.888 847.008 368.56 847.512 370.12C848.856 374.44 850.872 378.232 853.632 381.736C854.136 382.36 855.24 382.144 855.576 381.472C857.208 378.304 858.72 375.088 860.136 371.824C861.096 374.632 862.344 377.656 864.264 379.336C864.72 379.744 865.224 379.792 865.752 379.552C867.024 378.928 867.264 377.224 867.72 376C868.92 372.808 870.144 369.592 871.344 366.4C871.92 364.864 869.544 364.216 868.968 365.728Z" fill="#666666"/>
<path d="M886.803 365.68C886.659 364.048 884.115 364.048 884.235 365.68C884.571 369.784 884.907 373.864 885.219 377.968C885.363 379.576 887.907 379.6 887.787 377.968C887.451 373.864 887.115 369.784 886.803 365.68ZM882.795 369.664C880.971 369.976 879.123 370.048 877.275 369.928C877.059 368.512 876.795 367.12 876.483 365.704C876.123 364.096 873.675 364.792 874.011 366.376C874.899 370.336 875.355 374.32 875.427 378.4C875.451 380.032 878.019 380.032 877.995 378.4C877.947 376.408 877.827 374.44 877.611 372.496C879.579 372.568 881.523 372.448 883.467 372.112C885.099 371.848 884.403 369.4 882.795 369.664Z" fill="#666666"/>
<path d="M890.314 365.608C890.338 369.136 890.77 372.64 891.61 376.072C891.994 377.656 894.466 376.984 894.082 375.4C893.29 372.16 892.882 368.92 892.882 365.608C892.858 363.976 890.314 363.976 890.314 365.608Z" fill="#666666"/>
<path d="M908.513 363.616C904.985 364 901.433 364.096 897.881 363.88C896.249 363.784 896.249 366.328 897.881 366.424C899.417 366.52 900.953 366.544 902.465 366.544C902.393 366.688 902.345 366.88 902.321 367.096C902.153 370.312 902.201 373.528 902.489 376.744C902.633 378.352 905.177 378.376 905.033 376.744C904.745 373.528 904.697 370.312 904.865 367.096C904.889 366.832 904.841 366.64 904.745 366.472C906.017 366.4 907.265 366.304 908.513 366.16C910.145 365.992 910.145 363.448 908.513 363.616Z" fill="#666666"/>
<path d="M920.178 377.056C917.154 377.824 916.218 375.328 916.002 372.352C916.05 372.352 916.098 372.376 916.146 372.376C917.442 372.472 918.762 372.328 920.01 371.896C921.546 371.392 920.874 368.944 919.314 369.448C918.282 369.808 917.25 369.928 916.146 369.832C916.074 369.832 916.002 369.832 915.93 369.832C915.954 367.816 916.098 365.92 915.978 364.936C915.978 364.864 915.954 364.792 915.93 364.696C916.098 364.744 916.29 364.768 916.458 364.816C916.53 364.84 916.602 364.864 916.674 364.888L918.618 365.416C920.226 365.848 920.85 363.496 919.29 362.968C917.418 362.32 915.498 361.96 913.506 361.888C911.874 361.84 911.874 364.336 913.458 364.432C913.41 364.576 913.41 364.744 913.434 364.936C913.914 368.608 912.594 372.616 914.202 376.12C915.402 378.712 918.018 380.224 920.85 379.528C922.458 379.12 921.786 376.672 920.178 377.056Z" fill="#666666"/>
<path d="M948.382 364.408C948.574 366.592 948.742 368.8 948.934 370.984C949.078 372.736 948.934 374.824 949.558 376.456C950.782 379.624 955.87 378.376 958.414 378.352C960.07 378.352 960.07 375.808 958.414 375.808C957.022 375.832 955.606 375.856 954.214 375.856C952.078 375.88 951.79 374.824 951.646 372.88C951.406 370.048 951.166 367.24 950.95 364.408C950.806 362.776 948.262 362.776 948.382 364.408Z" fill="#666666"/>
<path d="M974.538 375.88C974.874 375.328 974.826 374.488 974.178 374.056C973.434 370.6 972.21 367.288 970.482 364.12C970.026 363.28 968.73 363.28 968.274 364.12C966.834 366.832 965.562 369.616 964.41 372.472C963.594 372.712 963.354 373.672 963.69 374.344C963.186 375.76 962.682 377.176 962.226 378.64C961.746 380.2 964.218 380.872 964.698 379.312C965.154 377.848 965.634 376.408 966.186 374.992C968.154 375.064 970.074 375.4 971.97 375.952C972.162 376.96 972.282 377.968 972.378 379C972.522 380.608 975.066 380.632 974.922 379C974.85 377.944 974.706 376.912 974.538 375.88ZM967.146 372.496C967.842 370.84 968.586 369.208 969.378 367.576C970.194 369.4 970.866 371.248 971.37 373.168C969.978 372.832 968.586 372.592 967.146 372.496Z" fill="#666666"/>
<path d="M985.083 371.464C985.707 370.72 986.019 369.808 985.539 368.464C984.483 365.536 981.291 365.368 978.651 365.704C977.235 365.896 977.067 367.888 978.171 368.224C978.051 371.848 978.315 375.424 978.939 379.024C979.083 379.864 979.851 380.08 980.475 379.84C980.571 379.912 980.667 379.96 980.787 380.008C984.027 381.088 988.155 379.864 988.563 376.024C988.851 373.312 987.171 371.992 985.083 371.464ZM983.019 369.064C983.475 370.408 981.507 370.912 980.715 371.416C980.667 370.312 980.667 369.184 980.715 368.056C981.723 368.056 982.755 368.248 983.019 369.064ZM981.483 377.56C981.411 377.536 981.339 377.512 981.267 377.512C981.075 376.264 980.931 374.992 980.835 373.744C980.979 373.792 981.147 373.816 981.339 373.792C982.947 373.624 985.947 373.216 985.995 375.568C986.067 378.04 983.115 378.112 981.483 377.56Z" fill="#666666"/>
<path d="M999.026 377.056C996.002 377.824 995.066 375.328 994.85 372.352C994.898 372.352 994.946 372.376 994.994 372.376C996.29 372.472 997.61 372.328 998.858 371.896C1000.39 371.392 999.722 368.944 998.162 369.448C997.13 369.808 996.098 369.928 994.994 369.832C994.922 369.832 994.85 369.832 994.778 369.832C994.802 367.816 994.946 365.92 994.826 364.936C994.826 364.864 994.802 364.792 994.778 364.696C994.946 364.744 995.138 364.768 995.306 364.816C995.378 364.84 995.45 364.864 995.522 364.888L997.466 365.416C999.074 365.848 999.698 363.496 998.138 362.968C996.266 362.32 994.346 361.96 992.354 361.888C990.722 361.84 990.722 364.336 992.306 364.432C992.258 364.576 992.258 364.744 992.282 364.936C992.762 368.608 991.442 372.616 993.05 376.12C994.25 378.712 996.866 380.224 999.698 379.528C1001.31 379.12 1000.63 376.672 999.026 377.056Z" fill="#666666"/>
<path d="M1003.12 364.408C1003.31 366.592 1003.48 368.8 1003.67 370.984C1003.82 372.736 1003.67 374.824 1004.3 376.456C1005.52 379.624 1010.61 378.376 1013.15 378.352C1014.81 378.352 1014.81 375.808 1013.15 375.808C1011.76 375.832 1010.35 375.856 1008.95 375.856C1006.82 375.88 1006.53 374.824 1006.39 372.88C1006.15 370.048 1005.91 367.24 1005.69 364.408C1005.55 362.776 1003 362.776 1003.12 364.408Z" fill="#666666"/>
<path d="M1041.03 365.608C1041.05 369.136 1041.48 372.64 1042.32 376.072C1042.71 377.656 1045.18 376.984 1044.79 375.4C1044 372.16 1043.59 368.92 1043.59 365.608C1043.57 363.976 1041.03 363.976 1041.03 365.608Z" fill="#666666"/>
<path d="M1052.19 365.992C1049.51 366.904 1046.1 369.28 1047.85 372.544C1048.5 373.72 1049.65 374.248 1050.85 374.68C1051.86 375.04 1053.66 375.256 1054.26 376.216C1056.13 378.544 1053.66 379.744 1051.88 379C1051.19 378.76 1050.54 378.472 1049.89 378.136C1048.43 377.392 1047.13 379.6 1048.59 380.32C1051.43 381.712 1057.02 382.96 1057.62 378.304C1057.86 376.456 1056.61 374.656 1055.15 373.672C1054.23 373.048 1053.23 372.784 1052.19 372.424C1051.76 372.28 1050.97 372.184 1050.66 371.848C1048.79 369.904 1051.76 368.824 1052.87 368.44C1054.43 367.912 1053.75 365.464 1052.19 365.992Z" fill="#666666"/>
<path d="M1096.12 363.616C1092.59 364 1089.04 364.096 1085.49 363.88C1083.86 363.784 1083.86 366.328 1085.49 366.424C1087.03 366.52 1088.56 366.544 1090.07 366.544C1090 366.688 1089.95 366.88 1089.93 367.096C1089.76 370.312 1089.81 373.528 1090.1 376.744C1090.24 378.352 1092.79 378.376 1092.64 376.744C1092.35 373.528 1092.31 370.312 1092.47 367.096C1092.5 366.832 1092.45 366.64 1092.35 366.472C1093.63 366.4 1094.87 366.304 1096.12 366.16C1097.75 365.992 1097.75 363.448 1096.12 363.616Z" fill="#666666"/>
<path d="M1112.71 365.68C1112.56 364.048 1110.02 364.048 1110.14 365.68C1110.48 369.784 1110.81 373.864 1111.12 377.968C1111.27 379.576 1113.81 379.6 1113.69 377.968C1113.36 373.864 1113.02 369.784 1112.71 365.68ZM1108.7 369.664C1106.88 369.976 1105.03 370.048 1103.18 369.928C1102.96 368.512 1102.7 367.12 1102.39 365.704C1102.03 364.096 1099.58 364.792 1099.92 366.376C1100.8 370.336 1101.26 374.32 1101.33 378.4C1101.36 380.032 1103.92 380.032 1103.9 378.4C1103.85 376.408 1103.73 374.44 1103.52 372.496C1105.48 372.568 1107.43 372.448 1109.37 372.112C1111 371.848 1110.31 369.4 1108.7 369.664Z" fill="#666666"/>
<path d="M1124.14 377.056C1121.11 377.824 1120.18 375.328 1119.96 372.352C1120.01 372.352 1120.06 372.376 1120.11 372.376C1121.4 372.472 1122.72 372.328 1123.97 371.896C1125.51 371.392 1124.83 368.944 1123.27 369.448C1122.24 369.808 1121.21 369.928 1120.11 369.832C1120.03 369.832 1119.96 369.832 1119.89 369.832C1119.91 367.816 1120.06 365.92 1119.94 364.936C1119.94 364.864 1119.91 364.792 1119.89 364.696C1120.06 364.744 1120.25 364.768 1120.42 364.816C1120.49 364.84 1120.56 364.864 1120.63 364.888L1122.58 365.416C1124.19 365.848 1124.81 363.496 1123.25 362.968C1121.38 362.32 1119.46 361.96 1117.47 361.888C1115.83 361.84 1115.83 364.336 1117.42 364.432C1117.37 364.576 1117.37 364.744 1117.39 364.936C1117.87 368.608 1116.55 372.616 1118.16 376.12C1119.36 378.712 1121.98 380.224 1124.81 379.528C1126.42 379.12 1125.75 376.672 1124.14 377.056Z" fill="#666666"/>
<path d="M847.44 393.408C847.632 395.592 847.8 397.8 847.992 399.984C848.136 401.736 847.992 403.824 848.616 405.456C849.84 408.624 854.928 407.376 857.472 407.352C859.128 407.352 859.128 404.808 857.472 404.808C856.08 404.832 854.664 404.856 853.272 404.856C851.136 404.88 850.848 403.824 850.704 401.88C850.464 399.048 850.224 396.24 850.008 393.408C849.864 391.776 847.32 391.776 847.44 393.408Z" fill="#666666"/>
<path d="M869.156 406.056C866.132 406.824 865.196 404.328 864.98 401.352C865.028 401.352 865.076 401.376 865.124 401.376C866.42 401.472 867.74 401.328 868.988 400.896C870.524 400.392 869.852 397.944 868.292 398.448C867.26 398.808 866.228 398.928 865.124 398.832C865.052 398.832 864.98 398.832 864.908 398.832C864.932 396.816 865.076 394.92 864.956 393.936C864.956 393.864 864.932 393.792 864.908 393.696C865.076 393.744 865.268 393.768 865.436 393.816C865.508 393.84 865.58 393.864 865.652 393.888L867.596 394.416C869.204 394.848 869.828 392.496 868.268 391.968C866.396 391.32 864.476 390.96 862.484 390.888C860.852 390.84 860.852 393.336 862.436 393.432C862.388 393.576 862.388 393.744 862.412 393.936C862.892 397.608 861.572 401.616 863.18 405.12C864.38 407.712 866.996 409.224 869.828 408.528C871.436 408.12 870.764 405.672 869.156 406.056Z" fill="#666666"/>
<path d="M885.611 404.88C885.947 404.328 885.899 403.488 885.251 403.056C884.507 399.6 883.283 396.288 881.555 393.12C881.099 392.28 879.803 392.28 879.347 393.12C877.907 395.832 876.635 398.616 875.483 401.472C874.667 401.712 874.427 402.672 874.763 403.344C874.259 404.76 873.755 406.176 873.299 407.64C872.819 409.2 875.291 409.872 875.771 408.312C876.227 406.848 876.707 405.408 877.259 403.992C879.227 404.064 881.147 404.4 883.043 404.952C883.235 405.96 883.355 406.968 883.451 408C883.595 409.608 886.139 409.632 885.995 408C885.923 406.944 885.779 405.912 885.611 404.88ZM878.219 401.496C878.915 399.84 879.659 398.208 880.451 396.576C881.267 398.4 881.939 400.248 882.443 402.168C881.051 401.832 879.659 401.592 878.219 401.496Z" fill="#666666"/>
<path d="M889.196 396.744C888.788 396.936 888.548 397.416 888.548 397.848C888.548 401.136 888.524 404.448 888.524 407.736C888.524 409.128 890.3 409.344 890.9 408.408C891.068 408.552 891.332 408.648 891.62 408.672C900.188 409.224 895.628 393.552 889.196 396.744ZM891.62 406.128C891.404 406.104 891.236 406.152 891.068 406.2C891.092 403.776 891.092 401.352 891.116 398.904C893.18 399.528 896.036 406.416 891.62 406.128Z" fill="#666666"/>
<path d="M898.852 394.608C898.876 398.136 899.308 401.64 900.148 405.072C900.532 406.656 903.004 405.984 902.62 404.4C901.828 401.16 901.42 397.92 901.42 394.608C901.396 392.976 898.852 392.976 898.852 394.608Z" fill="#666666"/>
<path d="M915.899 395.664C915.179 397.392 914.699 399.144 914.459 400.968C912.275 398.616 910.091 396.288 907.907 393.96C907.307 393.312 905.915 393.576 905.795 394.536C905.243 398.352 905.051 402.168 905.315 406.032C905.435 407.64 907.979 407.664 907.859 406.032C907.691 403.248 907.691 400.488 907.955 397.728C910.163 400.104 912.371 402.48 914.579 404.832C915.371 405.672 916.739 405 916.763 403.944C916.811 401.28 917.339 398.808 918.347 396.336C918.995 394.824 916.523 394.176 915.899 395.664Z" fill="#666666"/>
<path d="M932.264 392.904C924.704 389.448 917.288 399.768 922.976 405.864C925.184 408.24 929.288 408.912 931.856 406.704C934.352 404.544 934.448 400.536 932.048 398.304C930.848 397.176 929.048 398.976 930.248 400.104C931.808 401.544 931.52 404.184 929.576 405.192C927.536 406.224 925.04 404.928 924.128 403.032C922.088 398.952 926.336 392.976 930.968 395.088C932.456 395.76 933.752 393.576 932.264 392.904Z" fill="#666666"/>
<path d="M965.259 394.992C962.571 395.904 959.163 398.28 960.915 401.544C961.563 402.72 962.715 403.248 963.915 403.68C964.923 404.04 966.723 404.256 967.323 405.216C969.195 407.544 966.723 408.744 964.947 408C964.251 407.76 963.603 407.472 962.955 407.136C961.491 406.392 960.195 408.6 961.659 409.32C964.491 410.712 970.083 411.96 970.683 407.304C970.923 405.456 969.675 403.656 968.211 402.672C967.299 402.048 966.291 401.784 965.259 401.424C964.827 401.28 964.035 401.184 963.723 400.848C961.851 398.904 964.827 397.824 965.931 397.44C967.491 396.912 966.819 394.464 965.259 394.992Z" fill="#666666"/>
<path d="M985.08 392.616C981.552 393 978 393.096 974.448 392.88C972.816 392.784 972.816 395.328 974.448 395.424C975.984 395.52 977.52 395.544 979.032 395.544C978.96 395.688 978.912 395.88 978.888 396.096C978.72 399.312 978.768 402.528 979.056 405.744C979.2 407.352 981.744 407.376 981.6 405.744C981.312 402.528 981.264 399.312 981.432 396.096C981.456 395.832 981.408 395.64 981.312 395.472C982.584 395.4 983.832 395.304 985.08 395.16C986.712 394.992 986.712 392.448 985.08 392.616Z" fill="#666666"/>
<path d="M999.265 403.32C997.705 402.144 996.289 400.848 994.945 399.456C996.913 398.856 999.049 397.896 999.433 396C999.961 393.264 996.697 390.936 994.465 390.264C992.521 389.688 989.665 389.496 989.041 391.872C988.585 393.648 988.993 396.192 988.993 398.04C989.017 400.608 989.017 403.176 989.017 405.744C989.017 407.376 991.561 407.376 991.561 405.744C991.561 403.728 991.561 401.712 991.561 399.696C991.561 399.624 991.561 399.576 991.561 399.504C991.585 399.552 991.609 399.6 991.657 399.648C993.577 401.832 995.689 403.752 997.969 405.528C999.289 406.512 1000.56 404.304 999.265 403.32ZM991.489 398.064C991.393 396.552 991.273 394.968 991.537 393.648C991.777 392.52 991.369 392.4 992.761 392.544C993.673 392.616 994.537 392.928 995.281 393.432C996.937 394.56 996.481 396.096 994.801 396.768C993.961 397.08 993.097 397.32 992.233 397.536C991.873 397.608 991.633 397.8 991.489 398.064Z" fill="#666666"/>
<path d="M1014.7 404.88C1015.04 404.328 1014.99 403.488 1014.34 403.056C1013.6 399.6 1012.37 396.288 1010.64 393.12C1010.19 392.28 1008.89 392.28 1008.44 393.12C1007 395.832 1005.72 398.616 1004.57 401.472C1003.76 401.712 1003.52 402.672 1003.85 403.344C1003.35 404.76 1002.84 406.176 1002.39 407.64C1001.91 409.2 1004.38 409.872 1004.86 408.312C1005.32 406.848 1005.8 405.408 1006.35 403.992C1008.32 404.064 1010.24 404.4 1012.13 404.952C1012.32 405.96 1012.44 406.968 1012.54 408C1012.68 409.608 1015.23 409.632 1015.08 408C1015.01 406.944 1014.87 405.912 1014.7 404.88ZM1007.31 401.496C1008 399.84 1008.75 398.208 1009.54 396.576C1010.36 398.4 1011.03 400.248 1011.53 402.168C1010.14 401.832 1008.75 401.592 1007.31 401.496Z" fill="#666666"/>
<path d="M1029.47 392.616C1025.94 393 1022.39 393.096 1018.84 392.88C1017.2 392.784 1017.2 395.328 1018.84 395.424C1020.37 395.52 1021.91 395.544 1023.42 395.544C1023.35 395.688 1023.3 395.88 1023.28 396.096C1023.11 399.312 1023.16 402.528 1023.44 405.744C1023.59 407.352 1026.13 407.376 1025.99 405.744C1025.7 402.528 1025.65 399.312 1025.82 396.096C1025.84 395.832 1025.8 395.64 1025.7 395.472C1026.97 395.4 1028.22 395.304 1029.47 395.16C1031.1 394.992 1031.1 392.448 1029.47 392.616Z" fill="#666666"/>
<path d="M1041.13 406.056C1038.11 406.824 1037.17 404.328 1036.96 401.352C1037.01 401.352 1037.05 401.376 1037.1 401.376C1038.4 401.472 1039.72 401.328 1040.97 400.896C1042.5 400.392 1041.83 397.944 1040.27 398.448C1039.24 398.808 1038.21 398.928 1037.1 398.832C1037.03 398.832 1036.96 398.832 1036.89 398.832C1036.91 396.816 1037.05 394.92 1036.93 393.936C1036.93 393.864 1036.91 393.792 1036.89 393.696C1037.05 393.744 1037.25 393.768 1037.41 393.816C1037.49 393.84 1037.56 393.864 1037.63 393.888L1039.57 394.416C1041.18 394.848 1041.81 392.496 1040.25 391.968C1038.37 391.32 1036.45 390.96 1034.46 390.888C1032.83 390.84 1032.83 393.336 1034.41 393.432C1034.37 393.576 1034.37 393.744 1034.39 393.936C1034.87 397.608 1033.55 401.616 1035.16 405.12C1036.36 407.712 1038.97 409.224 1041.81 408.528C1043.41 408.12 1042.74 405.672 1041.13 406.056Z" fill="#666666"/>
<path d="M1056.53 392.904C1048.97 389.448 1041.56 399.768 1047.24 405.864C1049.45 408.24 1053.56 408.912 1056.12 406.704C1058.62 404.544 1058.72 400.536 1056.32 398.304C1055.12 397.176 1053.32 398.976 1054.52 400.104C1056.08 401.544 1055.79 404.184 1053.84 405.192C1051.8 406.224 1049.31 404.928 1048.4 403.032C1046.36 398.952 1050.6 392.976 1055.24 395.088C1056.72 395.76 1058.02 393.576 1056.53 392.904Z" fill="#666666"/>
<path d="M1074.08 394.152C1073.34 395.352 1072.59 396.552 1071.83 397.728C1071.03 399.024 1071.01 400.152 1069.57 399.192C1067.12 397.536 1064.79 395.664 1062.44 393.912C1061.12 392.952 1059.83 395.16 1061.15 396.12C1062.99 397.488 1064.84 398.856 1066.69 400.224C1067.31 400.68 1068.03 401.376 1068.8 401.88C1068.68 402.024 1068.59 402.216 1068.54 402.456C1068.13 404.616 1068.01 406.752 1068.23 408.936C1068.39 410.568 1070.96 410.568 1070.79 408.936C1070.58 406.992 1070.63 405.072 1071.01 403.128C1071.06 402.888 1071.03 402.672 1070.96 402.456C1071.75 402.288 1072.31 401.688 1072.79 401.016C1074.06 399.24 1075.14 397.272 1076.29 395.424C1077.18 394.032 1074.97 392.76 1074.08 394.152Z" fill="#666666"/>
<path d="M1115.5 404.88C1115.84 404.328 1115.79 403.488 1115.14 403.056C1114.4 399.6 1113.17 396.288 1111.44 393.12C1110.99 392.28 1109.69 392.28 1109.24 393.12C1107.8 395.832 1106.52 398.616 1105.37 401.472C1104.56 401.712 1104.32 402.672 1104.65 403.344C1104.15 404.76 1103.64 406.176 1103.19 407.64C1102.71 409.2 1105.18 409.872 1105.66 408.312C1106.12 406.848 1106.6 405.408 1107.15 403.992C1109.12 404.064 1111.04 404.4 1112.93 404.952C1113.12 405.96 1113.24 406.968 1113.34 408C1113.48 409.608 1116.03 409.632 1115.88 408C1115.81 406.944 1115.67 405.912 1115.5 404.88ZM1108.11 401.496C1108.8 399.84 1109.55 398.208 1110.34 396.576C1111.16 398.4 1111.83 400.248 1112.33 402.168C1110.94 401.832 1109.55 401.592 1108.11 401.496Z" fill="#666666"/>
<path d="M1129.72 392.904C1122.16 389.448 1114.74 399.768 1120.43 405.864C1122.64 408.24 1126.74 408.912 1129.31 406.704C1131.81 404.544 1131.9 400.536 1129.5 398.304C1128.3 397.176 1126.5 398.976 1127.7 400.104C1129.26 401.544 1128.97 404.184 1127.03 405.192C1124.99 406.224 1122.49 404.928 1121.58 403.032C1119.54 398.952 1123.79 392.976 1128.42 395.088C1129.91 395.76 1131.21 393.576 1129.72 392.904Z" fill="#666666"/>
<path d="M1141.7 406.056C1138.68 406.824 1137.74 404.328 1137.52 401.352C1137.57 401.352 1137.62 401.376 1137.67 401.376C1138.96 401.472 1140.28 401.328 1141.53 400.896C1143.07 400.392 1142.4 397.944 1140.84 398.448C1139.8 398.808 1138.77 398.928 1137.67 398.832C1137.6 398.832 1137.52 398.832 1137.45 398.832C1137.48 396.816 1137.62 394.92 1137.5 393.936C1137.5 393.864 1137.48 393.792 1137.45 393.696C1137.62 393.744 1137.81 393.768 1137.98 393.816C1138.05 393.84 1138.12 393.864 1138.2 393.888L1140.14 394.416C1141.75 394.848 1142.37 392.496 1140.81 391.968C1138.94 391.32 1137.02 390.96 1135.03 390.888C1133.4 390.84 1133.4 393.336 1134.98 393.432C1134.93 393.576 1134.93 393.744 1134.96 393.936C1135.44 397.608 1134.12 401.616 1135.72 405.12C1136.92 407.712 1139.54 409.224 1142.37 408.528C1143.98 408.12 1143.31 405.672 1141.7 406.056Z" fill="#666666"/>
<path d="M1156.5 395.664C1155.78 397.392 1155.3 399.144 1155.06 400.968C1152.87 398.616 1150.69 396.288 1148.51 393.96C1147.91 393.312 1146.51 393.576 1146.39 394.536C1145.84 398.352 1145.65 402.168 1145.91 406.032C1146.03 407.64 1148.58 407.664 1148.46 406.032C1148.29 403.248 1148.29 400.488 1148.55 397.728C1150.76 400.104 1152.97 402.48 1155.18 404.832C1155.97 405.672 1157.34 405 1157.36 403.944C1157.41 401.28 1157.94 398.808 1158.95 396.336C1159.59 394.824 1157.12 394.176 1156.5 395.664Z" fill="#666666"/>
<path d="M1170.8 394.752C1166.22 391.8 1161.37 397.44 1161.56 401.904C1161.8 407.856 1169.84 408.24 1174.04 406.8C1175.58 406.272 1174.9 403.8 1173.34 404.352C1170.9 405.192 1165.98 405.792 1164.42 402.984C1162.95 400.368 1166.48 394.992 1169.53 396.96C1170.9 397.848 1172.19 395.64 1170.8 394.752Z" fill="#666666"/>
<path d="M1190.91 394.152C1190.16 395.352 1189.42 396.552 1188.65 397.728C1187.86 399.024 1187.83 400.152 1186.39 399.192C1183.95 397.536 1181.62 395.664 1179.27 393.912C1177.95 392.952 1176.65 395.16 1177.97 396.12C1179.82 397.488 1181.67 398.856 1183.51 400.224C1184.14 400.68 1184.86 401.376 1185.63 401.88C1185.51 402.024 1185.41 402.216 1185.36 402.456C1184.95 404.616 1184.83 406.752 1185.05 408.936C1185.22 410.568 1187.79 410.568 1187.62 408.936C1187.4 406.992 1187.45 405.072 1187.83 403.128C1187.88 402.888 1187.86 402.672 1187.79 402.456C1188.58 402.288 1189.13 401.688 1189.61 401.016C1190.88 399.24 1191.96 397.272 1193.11 395.424C1194 394.032 1191.79 392.76 1190.91 394.152Z" fill="#666666"/>
<path d="M847.44 423.608C847.464 427.136 847.896 430.64 848.736 434.072C849.12 435.656 851.592 434.984 851.208 433.4C850.416 430.16 850.008 426.92 850.008 423.608C849.984 421.976 847.44 421.976 847.44 423.608Z" fill="#666666"/>
<path d="M864.487 424.664C863.767 426.392 863.287 428.144 863.047 429.968C860.863 427.616 858.679 425.288 856.495 422.96C855.895 422.312 854.503 422.576 854.383 423.536C853.831 427.352 853.639 431.168 853.903 435.032C854.023 436.64 856.567 436.664 856.447 435.032C856.279 432.248 856.279 429.488 856.543 426.728C858.751 429.104 860.959 431.48 863.167 433.832C863.959 434.672 865.327 434 865.351 432.944C865.399 430.28 865.927 427.808 866.935 425.336C867.583 423.824 865.111 423.176 864.487 424.664Z" fill="#666666"/>
<path d="M905.513 421.616C901.985 422 898.433 422.096 894.881 421.88C893.249 421.784 893.249 424.328 894.881 424.424C896.417 424.52 897.953 424.544 899.465 424.544C899.393 424.688 899.345 424.88 899.321 425.096C899.153 428.312 899.201 431.528 899.489 434.744C899.633 436.352 902.177 436.376 902.033 434.744C901.745 431.528 901.697 428.312 901.865 425.096C901.889 424.832 901.841 424.64 901.745 424.472C903.017 424.4 904.265 424.304 905.513 424.16C907.145 423.992 907.145 421.448 905.513 421.616Z" fill="#666666"/>
<path d="M922.098 423.68C921.954 422.048 919.41 422.048 919.53 423.68C919.866 427.784 920.202 431.864 920.514 435.968C920.658 437.576 923.202 437.6 923.082 435.968C922.746 431.864 922.41 427.784 922.098 423.68ZM918.09 427.664C916.266 427.976 914.418 428.048 912.57 427.928C912.354 426.512 912.09 425.12 911.778 423.704C911.418 422.096 908.97 422.792 909.306 424.376C910.194 428.336 910.65 432.32 910.722 436.4C910.746 438.032 913.314 438.032 913.29 436.4C913.242 434.408 913.122 432.44 912.906 430.496C914.874 430.568 916.818 430.448 918.762 430.112C920.394 429.848 919.698 427.4 918.09 427.664Z" fill="#666666"/>
<path d="M933.529 435.056C930.505 435.824 929.569 433.328 929.353 430.352C929.401 430.352 929.449 430.376 929.497 430.376C930.793 430.472 932.113 430.328 933.361 429.896C934.897 429.392 934.225 426.944 932.665 427.448C931.633 427.808 930.601 427.928 929.497 427.832C929.425 427.832 929.353 427.832 929.281 427.832C929.305 425.816 929.449 423.92 929.329 422.936C929.329 422.864 929.305 422.792 929.281 422.696C929.449 422.744 929.641 422.768 929.809 422.816C929.881 422.84 929.953 422.864 930.025 422.888L931.969 423.416C933.577 423.848 934.201 421.496 932.641 420.968C930.769 420.32 928.849 419.96 926.857 419.888C925.225 419.84 925.225 422.336 926.809 422.432C926.761 422.576 926.761 422.744 926.785 422.936C927.265 426.608 925.945 430.616 927.553 434.12C928.753 436.712 931.369 438.224 934.201 437.528C935.809 437.12 935.137 434.672 933.529 435.056Z" fill="#666666"/>
<path d="M969.365 429.464C969.989 428.72 970.301 427.808 969.821 426.464C968.765 423.536 965.573 423.368 962.933 423.704C961.517 423.896 961.349 425.888 962.453 426.224C962.333 429.848 962.597 433.424 963.221 437.024C963.365 437.864 964.133 438.08 964.757 437.84C964.853 437.912 964.949 437.96 965.069 438.008C968.309 439.088 972.437 437.864 972.845 434.024C973.133 431.312 971.453 429.992 969.365 429.464ZM967.301 427.064C967.757 428.408 965.789 428.912 964.997 429.416C964.949 428.312 964.949 427.184 964.997 426.056C966.005 426.056 967.037 426.248 967.301 427.064ZM965.765 435.56C965.693 435.536 965.621 435.512 965.549 435.512C965.357 434.264 965.213 432.992 965.117 431.744C965.261 431.792 965.429 431.816 965.621 431.792C967.229 431.624 970.229 431.216 970.277 433.568C970.349 436.04 967.397 436.112 965.765 435.56Z" fill="#666666"/>
<path d="M987.748 433.88C988.084 433.328 988.036 432.488 987.388 432.056C986.644 428.6 985.42 425.288 983.692 422.12C983.236 421.28 981.94 421.28 981.484 422.12C980.044 424.832 978.772 427.616 977.62 430.472C976.804 430.712 976.564 431.672 976.9 432.344C976.396 433.76 975.892 435.176 975.436 436.64C974.956 438.2 977.428 438.872 977.908 437.312C978.364 435.848 978.844 434.408 979.396 432.992C981.364 433.064 983.284 433.4 985.18 433.952C985.372 434.96 985.492 435.968 985.588 437C985.732 438.608 988.276 438.632 988.132 437C988.06 435.944 987.916 434.912 987.748 433.88ZM980.356 430.496C981.052 428.84 981.796 427.208 982.588 425.576C983.404 427.4 984.076 429.248 984.58 431.168C983.188 430.832 981.796 430.592 980.356 430.496Z" fill="#666666"/>
<path d="M990.661 422.408C990.853 424.592 991.021 426.8 991.213 428.984C991.357 430.736 991.213 432.824 991.837 434.456C993.061 437.624 998.149 436.376 1000.69 436.352C1002.35 436.352 1002.35 433.808 1000.69 433.808C999.301 433.832 997.885 433.856 996.493 433.856C994.357 433.88 994.069 432.824 993.925 430.88C993.685 428.048 993.445 425.24 993.229 422.408C993.085 420.776 990.541 420.776 990.661 422.408Z" fill="#666666"/>
<path d="M1016.31 421.616C1012.79 422 1009.23 422.096 1005.68 421.88C1004.05 421.784 1004.05 424.328 1005.68 424.424C1007.22 424.52 1008.75 424.544 1010.27 424.544C1010.19 424.688 1010.15 424.88 1010.12 425.096C1009.95 428.312 1010 431.528 1010.29 434.744C1010.43 436.352 1012.98 436.376 1012.83 434.744C1012.55 431.528 1012.5 428.312 1012.67 425.096C1012.69 424.832 1012.64 424.64 1012.55 424.472C1013.82 424.4 1015.07 424.304 1016.31 424.16C1017.95 423.992 1017.95 421.448 1016.31 421.616Z" fill="#666666"/>
<path d="M1020.06 423.608C1020.08 427.136 1020.51 430.64 1021.35 434.072C1021.74 435.656 1024.21 434.984 1023.83 433.4C1023.03 430.16 1022.63 426.92 1022.63 423.608C1022.6 421.976 1020.06 421.976 1020.06 423.608Z" fill="#666666"/>
<path d="M1035.64 423.752C1031.06 420.8 1026.21 426.44 1026.4 430.904C1026.64 436.856 1034.68 437.24 1038.88 435.8C1040.42 435.272 1039.75 432.8 1038.19 433.352C1035.74 434.192 1030.82 434.792 1029.26 431.984C1027.79 429.368 1031.32 423.992 1034.37 425.96C1035.74 426.848 1037.03 424.64 1035.64 423.752Z" fill="#666666"/>
<path d="M1047.08 423.992C1044.4 424.904 1040.99 427.28 1042.74 430.544C1043.39 431.72 1044.54 432.248 1045.74 432.68C1046.75 433.04 1048.55 433.256 1049.15 434.216C1051.02 436.544 1048.55 437.744 1046.77 437C1046.08 436.76 1045.43 436.472 1044.78 436.136C1043.32 435.392 1042.02 437.6 1043.48 438.32C1046.32 439.712 1051.91 440.96 1052.51 436.304C1052.75 434.456 1051.5 432.656 1050.04 431.672C1049.12 431.048 1048.12 430.784 1047.08 430.424C1046.65 430.28 1045.86 430.184 1045.55 429.848C1043.68 427.904 1046.65 426.824 1047.76 426.44C1049.32 425.912 1048.64 423.464 1047.08 423.992Z" fill="#666666"/>
<path d="M1056.27 437.312C1057.93 437.312 1057.93 434.768 1056.27 434.768C1054.64 434.768 1054.64 437.312 1056.27 437.312Z" fill="#666666"/>
<path d="M416.184 460.835C415.909 458.366 413.356 457.357 412.191 455.194C409.115 449.48 406.184 442.907 404.554 436.622C401.401 424.461 399 412.87 399 400.259C399 384.41 407.577 369.778 416.965 357.126C430.117 339.399 446.811 326.399 466.172 315.643C497.42 298.283 535.414 298.935 565.802 316.771C597.357 335.293 628.864 364.483 637.226 401.647C641.253 419.544 645.641 436.707 639.569 454.586C634.35 469.954 624.679 481.318 616.918 495.115C597.932 528.867 551.996 526.089 518.07 522.973C491.409 520.525 460.315 512.777 438.834 496.07C431.651 490.483 426.166 486.31 420.87 478.365C417.009 472.574 410.561 467.399 408.373 460.835" stroke="#4D4D4D" stroke-width="3" stroke-linecap="round"/>
<path d="M514.882 304.677C514.882 334.253 514.882 363.829 514.882 393.405C514.882 415.548 520.482 437.779 522.775 459.796C524.929 480.479 525.096 501.155 525.096 521.956" stroke="#4D4D4D" stroke-width="3" stroke-linecap="round"/>
<path d="M401.6 382.675C405.886 391.246 413.491 399.957 420.171 406.817C421.311 407.988 430.022 418.87 430.591 417.959C432.322 415.191 436.509 412.65 438.948 410.531C442.89 407.106 446.409 403.662 449.884 399.801C450.531 399.083 455.146 390.877 456.384 392.425C462.348 399.88 471.036 405.823 478.308 411.976C481.144 414.375 483.878 416.668 486.51 419.301C486.89 419.68 489.758 422.298 489.863 422.035C493.002 414.189 501.682 407.946 507.505 402.123C510.244 399.384 512.841 391.588 515.811 390.103" stroke="#4D4D4D" stroke-width="3" stroke-linecap="round"/>
<path d="M524.168 469.958C552.643 469.958 581.118 469.958 609.594 469.958C612.336 469.958 628.696 471.68 630.022 469.029" stroke="#4D4D4D" stroke-width="3" stroke-linecap="round"/>
<path d="M208.32 383.4C206.496 380.568 204.912 377.64 203.568 374.52C203.088 373.392 201.672 373.92 201.312 374.808C199.944 378.384 198.288 381.768 196.368 385.032C195 381.936 193.848 378.768 192.888 375.48C192.408 373.92 190.056 374.592 190.512 376.152C191.736 380.352 193.296 384.36 195.168 388.296C195.6 389.208 196.8 389.04 197.28 388.296C199.32 385.08 201.072 381.744 202.56 378.24C204 381.168 205.632 383.976 207.552 386.64C208.2 387.576 209.376 387.384 209.784 386.328C211.296 382.56 212.832 378.768 214.344 375C214.968 373.488 212.592 372.84 211.992 374.328L208.32 383.4ZM224.883 385.056C221.859 385.824 220.923 383.328 220.707 380.352C220.755 380.352 220.803 380.376 220.851 380.376C222.147 380.472 223.467 380.328 224.715 379.896C226.251 379.392 225.579 376.944 224.019 377.448C222.987 377.808 221.955 377.928 220.851 377.832C220.779 377.832 220.707 377.832 220.635 377.832C220.659 375.816 220.803 373.92 220.683 372.936C220.683 372.864 220.659 372.792 220.635 372.696C220.803 372.744 220.995 372.768 221.163 372.816C221.235 372.84 221.307 372.864 221.379 372.888L223.323 373.416C224.931 373.848 225.555 371.496 223.995 370.968C222.123 370.32 220.203 369.96 218.211 369.888C216.579 369.84 216.579 372.336 218.163 372.432C218.115 372.576 218.115 372.744 218.139 372.936C218.619 376.608 217.299 380.616 218.907 384.12C220.107 386.712 222.723 388.224 225.555 387.528C227.163 387.12 226.491 384.672 224.883 385.056ZM231.138 369.792C230.442 371.64 229.746 373.464 229.05 375.312C228.474 376.848 230.946 377.52 231.522 375.984C232.218 374.16 232.89 372.312 233.586 370.464C234.162 368.928 231.714 368.256 231.138 369.792ZM246.652 382.32C245.092 381.144 243.676 379.848 242.332 378.456C244.3 377.856 246.436 376.896 246.82 375C247.348 372.264 244.084 369.936 241.852 369.264C239.908 368.688 237.052 368.496 236.428 370.872C235.972 372.648 236.38 375.192 236.38 377.04C236.404 379.608 236.404 382.176 236.404 384.744C236.404 386.376 238.948 386.376 238.948 384.744C238.948 382.728 238.948 380.712 238.948 378.696C238.948 378.624 238.948 378.576 238.948 378.504C238.972 378.552 238.996 378.6 239.044 378.648C240.964 380.832 243.076 382.752 245.356 384.528C246.676 385.512 247.948 383.304 246.652 382.32ZM238.876 377.064C238.78 375.552 238.66 373.968 238.924 372.648C239.164 371.52 238.756 371.4 240.148 371.544C241.06 371.616 241.924 371.928 242.668 372.432C244.324 373.56 243.868 375.096 242.188 375.768C241.348 376.08 240.484 376.32 239.62 376.536C239.26 376.608 239.02 376.8 238.876 377.064ZM257.647 385.056C254.623 385.824 253.687 383.328 253.471 380.352C253.519 380.352 253.567 380.376 253.615 380.376C254.911 380.472 256.231 380.328 257.479 379.896C259.015 379.392 258.343 376.944 256.783 377.448C255.751 377.808 254.719 377.928 253.615 377.832C253.543 377.832 253.471 377.832 253.399 377.832C253.423 375.816 253.567 373.92 253.447 372.936C253.447 372.864 253.423 372.792 253.399 372.696C253.567 372.744 253.759 372.768 253.927 372.816C253.999 372.84 254.071 372.864 254.143 372.888L256.087 373.416C257.695 373.848 258.319 371.496 256.759 370.968C254.887 370.32 252.967 369.96 250.975 369.888C249.343 369.84 249.343 372.336 250.927 372.432C250.879 372.576 250.879 372.744 250.903 372.936C251.383 376.608 250.063 380.616 251.671 384.12C252.871 386.712 255.487 388.224 258.319 387.528C259.927 387.12 259.255 384.672 257.647 385.056ZM296.29 382.32C294.73 381.144 293.314 379.848 291.97 378.456C293.938 377.856 296.074 376.896 296.458 375C296.986 372.264 293.722 369.936 291.49 369.264C289.546 368.688 286.69 368.496 286.066 370.872C285.61 372.648 286.018 375.192 286.018 377.04C286.042 379.608 286.042 382.176 286.042 384.744C286.042 386.376 288.586 386.376 288.586 384.744C288.586 382.728 288.586 380.712 288.586 378.696C288.586 378.624 288.586 378.576 288.586 378.504C288.61 378.552 288.634 378.6 288.682 378.648C290.602 380.832 292.714 382.752 294.994 384.528C296.314 385.512 297.586 383.304 296.29 382.32ZM288.514 377.064C288.418 375.552 288.298 373.968 288.562 372.648C288.802 371.52 288.394 371.4 289.786 371.544C290.698 371.616 291.562 371.928 292.306 372.432C293.962 373.56 293.506 375.096 291.826 375.768C290.986 376.08 290.122 376.32 289.258 376.536C288.898 376.608 288.658 376.8 288.514 377.064ZM307.285 385.056C304.261 385.824 303.325 383.328 303.109 380.352C303.157 380.352 303.205 380.376 303.253 380.376C304.549 380.472 305.869 380.328 307.117 379.896C308.653 379.392 307.981 376.944 306.421 377.448C305.389 377.808 304.357 377.928 303.253 377.832C303.181 377.832 303.109 377.832 303.037 377.832C303.061 375.816 303.205 373.92 303.085 372.936C303.085 372.864 303.061 372.792 303.037 372.696C303.205 372.744 303.397 372.768 303.565 372.816C303.637 372.84 303.709 372.864 303.781 372.888L305.725 373.416C307.333 373.848 307.957 371.496 306.397 370.968C304.525 370.32 302.605 369.96 300.613 369.888C298.981 369.84 298.981 372.336 300.565 372.432C300.517 372.576 300.517 372.744 300.541 372.936C301.021 376.608 299.701 380.616 301.309 384.12C302.509 386.712 305.125 388.224 307.957 387.528C309.565 387.12 308.893 384.672 307.285 385.056ZM323.74 383.88C324.076 383.328 324.028 382.488 323.38 382.056C322.636 378.6 321.412 375.288 319.684 372.12C319.228 371.28 317.932 371.28 317.476 372.12C316.036 374.832 314.764 377.616 313.612 380.472C312.796 380.712 312.556 381.672 312.892 382.344C312.388 383.76 311.884 385.176 311.428 386.64C310.948 388.2 313.42 388.872 313.9 387.312C314.356 385.848 314.836 384.408 315.388 382.992C317.356 383.064 319.276 383.4 321.172 383.952C321.364 384.96 321.484 385.968 321.58 387C321.724 388.608 324.268 388.632 324.124 387C324.052 385.944 323.908 384.912 323.74 383.88ZM316.348 380.496C317.044 378.84 317.788 377.208 318.58 375.576C319.396 377.4 320.068 379.248 320.572 381.168C319.18 380.832 317.788 380.592 316.348 380.496ZM327.325 375.744C326.917 375.936 326.677 376.416 326.677 376.848C326.677 380.136 326.653 383.448 326.653 386.736C326.653 388.128 328.429 388.344 329.029 387.408C329.197 387.552 329.461 387.648 329.749 387.672C338.317 388.224 333.757 372.552 327.325 375.744ZM329.749 385.128C329.533 385.104 329.365 385.152 329.197 385.2C329.221 382.776 329.221 380.352 329.245 377.904C331.309 378.528 334.165 385.416 329.749 385.128ZM350.469 373.152C349.725 374.352 348.981 375.552 348.213 376.728C347.421 378.024 347.397 379.152 345.957 378.192C343.509 376.536 341.181 374.664 338.829 372.912C337.509 371.952 336.213 374.16 337.533 375.12C339.381 376.488 341.229 377.856 343.077 379.224C343.701 379.68 344.421 380.376 345.189 380.88C345.069 381.024 344.973 381.216 344.925 381.456C344.517 383.616 344.397 385.752 344.613 387.936C344.781 389.568 347.349 389.568 347.181 387.936C346.965 385.992 347.013 384.072 347.397 382.128C347.445 381.888 347.421 381.672 347.349 381.456C348.141 381.288 348.693 380.688 349.173 380.016C350.445 378.24 351.525 376.272 352.677 374.424C353.565 373.032 351.357 371.76 350.469 373.152ZM384.398 374.232C385.574 373.8 386.894 373.656 388.142 373.44C389.75 373.176 389.078 370.728 387.446 370.992C385.262 371.352 380.462 371.64 379.694 374.304C379.262 375.768 379.79 377.736 379.91 379.224L380.462 386.256C380.582 387.864 383.15 387.888 383.006 386.256C382.838 384.192 382.694 382.128 382.526 380.04H387.35C389.006 380.04 389.006 377.496 387.35 377.496H382.31C382.166 375.432 382.238 374.976 384.398 374.232ZM401.765 378.84C401.429 375.528 398.141 374.112 395.357 373.224C394.373 372.912 393.749 373.752 393.797 374.544C390.005 377.328 391.109 384.36 396.629 384.408C399.605 384.408 402.053 381.84 401.765 378.84ZM396.629 381.864C393.557 381.816 393.125 377.28 395.813 376.272C395.909 376.248 396.005 376.2 396.077 376.128C397.181 376.536 398.261 377.088 398.861 378.048C399.893 379.728 398.573 381.888 396.629 381.864ZM414.746 382.32C413.186 381.144 411.77 379.848 410.426 378.456C412.394 377.856 414.53 376.896 414.914 375C415.442 372.264 412.178 369.936 409.946 369.264C408.002 368.688 405.146 368.496 404.522 370.872C404.066 372.648 404.474 375.192 404.474 377.04C404.498 379.608 404.498 382.176 404.498 384.744C404.498 386.376 407.042 386.376 407.042 384.744C407.042 382.728 407.042 380.712 407.042 378.696C407.042 378.624 407.042 378.576 407.042 378.504C407.066 378.552 407.09 378.6 407.138 378.648C409.058 380.832 411.17 382.752 413.45 384.528C414.77 385.512 416.042 383.304 414.746 382.32ZM406.97 377.064C406.874 375.552 406.754 373.968 407.018 372.648C407.258 371.52 406.85 371.4 408.242 371.544C409.154 371.616 410.018 371.928 410.762 372.432C412.418 373.56 411.962 375.096 410.282 375.768C409.442 376.08 408.578 376.32 407.714 376.536C407.354 376.608 407.114 376.8 406.97 377.064ZM455.418 373.152C454.674 374.352 453.93 375.552 453.162 376.728C452.37 378.024 452.346 379.152 450.906 378.192C448.458 376.536 446.13 374.664 443.778 372.912C442.458 371.952 441.162 374.16 442.482 375.12C444.33 376.488 446.178 377.856 448.026 379.224C448.65 379.68 449.37 380.376 450.138 380.88C450.018 381.024 449.922 381.216 449.874 381.456C449.466 383.616 449.346 385.752 449.562 387.936C449.73 389.568 452.298 389.568 452.13 387.936C451.914 385.992 451.962 384.072 452.346 382.128C452.394 381.888 452.37 381.672 452.298 381.456C453.09 381.288 453.642 380.688 454.122 380.016C455.394 378.24 456.474 376.272 457.626 374.424C458.514 373.032 456.306 371.76 455.418 373.152ZM470.567 378.84C470.231 375.528 466.943 374.112 464.159 373.224C463.175 372.912 462.551 373.752 462.599 374.544C458.807 377.328 459.911 384.36 465.431 384.408C468.407 384.408 470.855 381.84 470.567 378.84ZM465.431 381.864C462.359 381.816 461.927 377.28 464.615 376.272C464.711 376.248 464.807 376.2 464.879 376.128C465.983 376.536 467.063 377.088 467.663 378.048C468.695 379.728 467.375 381.888 465.431 381.864ZM473.493 374.76C474.213 378.6 470.421 388.104 477.621 388.44C479.997 388.56 482.037 386.76 483.045 384.768C484.581 381.744 483.741 378.072 484.077 374.856C484.245 373.224 481.701 373.224 481.533 374.856C481.317 376.92 481.557 379.008 481.389 381.096C481.197 383.16 479.037 387.816 476.421 385.2C474.933 383.712 475.509 381.192 475.821 379.368C476.133 377.568 476.301 375.888 475.965 374.088C475.653 372.48 473.205 373.152 473.493 374.76ZM488.76 382.968C488.064 384.816 487.368 386.664 486.672 388.512C486.096 390.048 488.568 390.696 489.144 389.184C489.84 387.336 490.512 385.488 491.208 383.64C491.784 382.104 489.312 381.456 488.76 382.968ZM530.303 383.88C530.639 383.328 530.591 382.488 529.943 382.056C529.199 378.6 527.975 375.288 526.247 372.12C525.791 371.28 524.495 371.28 524.039 372.12C522.599 374.832 521.327 377.616 520.175 380.472C519.359 380.712 519.119 381.672 519.455 382.344C518.951 383.76 518.447 385.176 517.991 386.64C517.511 388.2 519.983 388.872 520.463 387.312C520.919 385.848 521.399 384.408 521.951 382.992C523.919 383.064 525.839 383.4 527.735 383.952C527.927 384.96 528.047 385.968 528.143 387C528.287 388.608 530.831 388.632 530.687 387C530.615 385.944 530.471 384.912 530.303 383.88ZM522.911 380.496C523.607 378.84 524.351 377.208 525.143 375.576C525.959 377.4 526.631 379.248 527.135 381.168C525.743 380.832 524.351 380.592 522.911 380.496ZM543.655 382.32C542.095 381.144 540.679 379.848 539.335 378.456C541.303 377.856 543.439 376.896 543.823 375C544.351 372.264 541.087 369.936 538.855 369.264C536.911 368.688 534.055 368.496 533.431 370.872C532.975 372.648 533.383 375.192 533.383 377.04C533.407 379.608 533.407 382.176 533.407 384.744C533.407 386.376 535.951 386.376 535.951 384.744C535.951 382.728 535.951 380.712 535.951 378.696C535.951 378.624 535.951 378.576 535.951 378.504C535.975 378.552 535.999 378.6 536.047 378.648C537.967 380.832 540.079 382.752 542.359 384.528C543.679 385.512 544.951 383.304 543.655 382.32ZM535.879 377.064C535.783 375.552 535.663 373.968 535.927 372.648C536.167 371.52 535.759 371.4 537.151 371.544C538.063 371.616 538.927 371.928 539.671 372.432C541.327 373.56 540.871 375.096 539.191 375.768C538.351 376.08 537.487 376.32 536.623 376.536C536.263 376.608 536.023 376.8 535.879 377.064ZM554.65 385.056C551.626 385.824 550.69 383.328 550.474 380.352C550.522 380.352 550.57 380.376 550.618 380.376C551.914 380.472 553.234 380.328 554.482 379.896C556.018 379.392 555.346 376.944 553.786 377.448C552.754 377.808 551.722 377.928 550.618 377.832C550.546 377.832 550.474 377.832 550.402 377.832C550.426 375.816 550.57 373.92 550.45 372.936C550.45 372.864 550.426 372.792 550.402 372.696C550.57 372.744 550.762 372.768 550.93 372.816C551.002 372.84 551.074 372.864 551.146 372.888L553.09 373.416C554.698 373.848 555.322 371.496 553.762 370.968C551.89 370.32 549.97 369.96 547.978 369.888C546.346 369.84 546.346 372.336 547.93 372.432C547.882 372.576 547.882 372.744 547.906 372.936C548.386 376.608 547.066 380.616 548.674 384.12C549.874 386.712 552.49 388.224 555.322 387.528C556.93 387.12 556.258 384.672 554.65 385.056ZM596.342 373.152C595.598 374.352 594.854 375.552 594.086 376.728C593.294 378.024 593.27 379.152 591.83 378.192C589.382 376.536 587.054 374.664 584.702 372.912C583.382 371.952 582.086 374.16 583.406 375.12C585.254 376.488 587.102 377.856 588.95 379.224C589.574 379.68 590.294 380.376 591.062 380.88C590.942 381.024 590.846 381.216 590.798 381.456C590.39 383.616 590.27 385.752 590.486 387.936C590.654 389.568 593.222 389.568 593.054 387.936C592.838 385.992 592.886 384.072 593.27 382.128C593.318 381.888 593.294 381.672 593.222 381.456C594.014 381.288 594.566 380.688 595.046 380.016C596.318 378.24 597.398 376.272 598.55 374.424C599.438 373.032 597.23 371.76 596.342 373.152ZM611.491 378.84C611.155 375.528 607.867 374.112 605.083 373.224C604.099 372.912 603.475 373.752 603.523 374.544C599.731 377.328 600.835 384.36 606.355 384.408C609.331 384.408 611.779 381.84 611.491 378.84ZM606.355 381.864C603.283 381.816 602.851 377.28 605.539 376.272C605.635 376.248 605.731 376.2 605.803 376.128C606.907 376.536 607.987 377.088 608.587 378.048C609.619 379.728 608.299 381.888 606.355 381.864ZM614.417 374.76C615.137 378.6 611.345 388.104 618.545 388.44C620.921 388.56 622.961 386.76 623.969 384.768C625.505 381.744 624.665 378.072 625.001 374.856C625.169 373.224 622.625 373.224 622.457 374.856C622.241 376.92 622.481 379.008 622.313 381.096C622.121 383.16 619.961 387.816 617.345 385.2C615.857 383.712 616.433 381.192 616.745 379.368C617.057 377.568 617.225 375.888 616.889 374.088C616.577 372.48 614.129 373.152 614.417 374.76ZM630.356 376.776C630.092 375.936 629.948 375.264 630.236 374.4C630.74 372.864 632.756 372.288 633.452 373.896C633.956 375.072 633.5 376.584 632.996 377.664C632.012 379.8 630.836 381.552 630.524 383.928C630.308 385.56 632.876 385.536 633.068 383.928C633.572 380.088 639.044 374.688 634.484 371.088C632.972 369.912 630.884 370.008 629.372 371.184C627.404 372.72 627.188 375.24 627.884 377.472C628.388 379.008 630.86 378.36 630.356 376.776ZM632.348 390.408C634.004 390.408 634.004 387.864 632.348 387.864C630.716 387.864 630.716 390.408 632.348 390.408Z" fill="#060606"/>
<path d="M343 275.098C345.574 275.098 347.713 273.915 350.406 274.005C353.741 274.116 356.134 275.997 359.148 277.04C363.089 278.404 367.317 283.449 368.072 287.603C369.116 293.344 370.318 299.633 370.318 305.572C370.318 307.576 370.318 309.579 370.318 311.582C370.318 313.368 367.534 309.304 365.947 308.486C363.196 307.069 360.185 303.881 357.205 303.508C356.16 303.377 354.539 301.563 356.598 303.508C360.854 307.528 366.603 310.955 371.714 313.707C372.831 314.308 386.794 300.145 388.894 298.045" stroke="#15CE79" stroke-width="3" stroke-linecap="round"/>
<path d="M791.657 349C794.656 371.945 793.92 394.947 793.92 418.019C793.92 438.486 793.996 458.784 791.154 479.11C789.126 493.62 790.67 508.434 789.143 522.946C788.024 533.579 787.131 544.497 787.131 555.182C787.131 579.493 786 652.417 786 628.107" stroke="#4D4D4D" stroke-width="3" stroke-linecap="round"/>
<path d="M742.303 325C740.616 344.429 742.671 364.306 742.245 383.827C741.853 401.826 740.106 420.219 738.669 438.178C736.71 462.657 735.301 487.217 734.054 511.711C733.514 522.339 730.882 532.527 730.882 543.217C730.882 553.078 728.805 562.675 728.805 572.398C728.805 575.563 726.848 587.038 729.036 589.488C737.688 599.176 749.027 606.423 757.646 616.46C763.246 622.982 769.347 626.849 776.565 630.295C778.544 631.24 780.941 633.505 783.026 633.666C784.701 633.796 790.305 637.933 786.948 636.805" stroke="#4D4D4D" stroke-width="3" stroke-linecap="round"/>
<path d="M784 641C797.535 640.819 811.135 639.8 824.659 639.119C851.296 637.776 878.035 638.943 904.699 637.825C955.822 635.682 1005.98 626.89 1056.89 622.48C1076.97 620.741 1096.97 617.871 1116.94 615.131C1130.99 613.202 1145.77 614.543 1159.93 614.543C1167.88 614.543 1177.63 612.992 1185.42 615.131C1189.36 616.211 1193.1 617.38 1197.2 617.659C1198.49 617.748 1203.06 617.669 1199.92 618.776" stroke="#4D4D4D" stroke-width="3" stroke-linecap="round"/>
<path d="M1211 289C1211.93 299.608 1206.63 368.401 1204.63 378.867C1203.16 386.572 1202.01 393.76 1201.91 401.595C1201.68 419.982 1198.64 438.244 1198.64 456.76C1198.64 484.823 1196.2 514.406 1200.82 542.153C1202.41 551.689 1200.82 560.359 1200.82 569.822C1200.82 577.767 1200.82 585.711 1200.82 593.656C1200.82 602.219 1199.73 610.479 1199.73 619" stroke="#4D4D4D" stroke-width="3" stroke-linecap="round"/>
<path d="M820.279 641.352C823.966 649.591 820.836 662.867 820.279 671.304C819.607 681.477 817.086 691.655 817.086 701.842C817.086 705.823 813.536 717.303 819.274 715.878C823.824 714.749 829.198 717.728 830.095 713.471C832.244 703.273 831.987 692.436 831.987 682.051C831.987 677.212 831.671 672.241 832.224 667.428C832.796 662.437 835.184 657.892 836.008 652.98C836.744 648.595 835.716 644.086 836.304 639.708C836.862 635.55 840.416 629.133 835.18 636.067" stroke="#4D4D4D" stroke-width="3" stroke-linecap="round"/>
<path d="M741.243 605C741.083 614.19 738.75 622.642 737.579 631.653C736.743 638.096 737.364 644.971 737.364 651.47C737.364 657.093 735.193 662.901 741.458 662.901C745.796 662.901 745.196 663.861 745.121 659.799C744.964 651.265 746.461 643.117 747.061 634.64C747.56 627.585 749 619.925 749 613.272" stroke="#4D4D4D" stroke-width="3" stroke-linecap="round"/>
<path d="M1150 617.661C1147.73 627.252 1147.7 636.999 1145.67 646.665C1143.49 657.005 1140.77 667.711 1140.77 678.37C1140.77 680.744 1141.32 683.804 1139.68 685.768C1138.25 687.485 1126.48 687.218 1124.35 686.12C1122.9 685.374 1126.44 671.624 1126.63 669.68C1127.58 660.084 1129.8 648.41 1133.13 639.384C1135.3 633.483 1136.66 628.784 1136.66 622.416C1136.66 620.814 1135.63 613.811 1135.63 618.717" stroke="#4D4D4D" stroke-width="3" stroke-linecap="round"/>
<path d="M1141 693C1146.82 678.557 1153.13 663.245 1166.73 654.188C1168.87 652.761 1175.23 648.581 1173.51 650.491C1170.01 654.405 1167.26 657.973 1165.21 662.851C1161.77 671.015 1159.95 678.201 1159.95 687.051C1159.95 687.667 1160.19 685.834 1160.42 685.261C1161.63 682.208 1163.58 679.394 1165.44 676.713C1170.32 669.703 1175.97 663.513 1182.87 658.404C1183.81 657.709 1188.1 654.13 1186.61 657.768C1183.81 664.634 1180.13 671.143 1177.26 677.983C1175.95 681.087 1173.78 686.014 1174.8 689.535C1175.1 690.571 1182.92 681.84 1183.69 681.044C1188.7 675.862 1199.4 665.24 1195.74 679.254C1193.31 688.545 1197.68 683.694 1201 678.445" stroke="#4D4D4D" stroke-width="3" stroke-linecap="round"/>
<path d="M807 689C808.09 699.686 809 710.262 809 721" stroke="#4D4D4D" stroke-width="3" stroke-linecap="round"/>
<path d="M791 682C794.294 692.426 798.803 703.347 799.953 714.283C800.059 715.297 799.953 717.166 799.953 714.992" stroke="#4D4D4D" stroke-width="3" stroke-linecap="round"/>
<path d="M788 698C789.048 704.662 790.049 711.325 791 718" stroke="#4D4D4D" stroke-width="3" stroke-linecap="round"/>
<path d="M715 652L721 659" stroke="#4D4D4D" stroke-width="3" stroke-linecap="round"/>
<path d="M694 654H704" stroke="#4D4D4D" stroke-width="3" stroke-linecap="round"/>
<path d="M924 576C966.125 573.712 1008.06 571.566 1050.22 571C1060.65 570.86 1070.99 570 1081.44 570C1083.8 570 1096.77 568.216 1098.56 570C1099.15 570.597 1097.05 571.157 1097 572C1096.93 573.324 1097 574.675 1097 576C1097 579.143 1098.42 583 1094.56 583C1073.4 583 1052.22 581 1031 581C998.263 581 965.743 582.879 933.222 584C931.326 584.066 918.124 587.103 918 585C917.886 583.059 918.41 581.305 917.222 579.778C916.774 579.202 926.726 579 928 579" stroke="#4D4D4D" stroke-width="3" stroke-linecap="round"/>
<path d="M777 349C782.022 348.814 786.308 346.749 791.111 345.5C803.051 342.396 815.059 339.621 827 336.5C851.474 330.103 876.308 324.666 901 319.222C925.83 313.748 951.183 309.345 976.333 305.556C1002.03 301.683 1027.87 301.321 1053.72 299.5C1093.29 296.714 1132.87 294.858 1172.17 289.5C1182.02 288.157 1191.78 287.484 1201.67 286.778C1209.5 286.218 1217.87 286.598 1225.56 284.778C1228.47 284.087 1230.97 284 1234 284C1235.74 284 1240.75 284 1236 284" stroke="#4D4D4D" stroke-width="3" stroke-linecap="round"/>
<path d="M777 350C775.38 345.5 772.463 341.171 768.778 338.222C767.165 336.932 765.308 338.39 764.445 339.5C763.062 341.278 761.056 341.114 759 341C750.488 340.527 760.316 325 749.5 325C743.119 325 734 332.268 734 320.5C734 316.321 729.828 316 726.5 316C724.451 316 716.644 318.548 721 320" stroke="#4D4D4D" stroke-width="3" stroke-linecap="round"/>
<path d="M721 314C727.251 310.458 735.113 309.786 742 308C754.38 304.79 767.777 303.413 780.444 301.556C790.043 300.148 799.933 299.76 809.222 296.778C818.348 293.848 827.821 291.862 837.222 290C871.224 283.267 903.985 271.879 938 265C988.384 254.81 1040.58 249 1092 249" stroke="#4D4D4D" stroke-width="3" stroke-linecap="round"/>
<path d="M820 319C850.078 315.8 879.004 307.779 908.556 302C933.293 297.162 958.355 294.755 983.111 290.222C1000.37 287.061 1017.65 286.203 1035 284C1054.63 281.507 1074.83 282.62 1094.33 279.444C1106.1 277.529 1117.17 276 1129.17 276C1140.02 276 1150.68 274 1161.5 274C1170.88 274 1180.72 272.949 1190 271.5C1193.07 271.021 1208.6 272.458 1200 270" stroke="#4D4D4D" stroke-width="3" stroke-linecap="round"/>
<path d="M983 276C1009.61 272.962 1036.1 270.542 1062.56 266.556C1077.48 264.306 1092.52 265.173 1107.56 265C1114.09 264.925 1119.88 262 1126.56 262C1129.73 262 1143.17 261 1133 261" stroke="#4D4D4D" stroke-width="3" stroke-linecap="round"/>
<path d="M1086 251C1091.45 251 1096.07 250.92 1100.78 254C1103.45 255.745 1108 260.747 1108 264" stroke="#4D4D4D" stroke-width="3" stroke-linecap="round"/>
<path d="M1131 264C1135.98 264 1149.74 261.623 1153.22 267C1155.09 269.885 1162.46 274 1166 274" stroke="#4D4D4D" stroke-width="3" stroke-linecap="round"/>
<path d="M1193 274C1202.04 274 1209.74 272.735 1216.5 279.5C1220.87 283.867 1230.28 282 1236 282" stroke="#4D4D4D" stroke-width="3" stroke-linecap="round"/>
<path d="M1124 541C1121.5 536.522 1119.34 528.925 1125.78 526.778C1131.08 525.011 1131 527.895 1131 532.5C1131 534.15 1125.03 539.984 1129 538C1130.74 537.131 1141 529.264 1141.94 533.5C1143.36 539.86 1130.23 545.634 1125.22 542.556C1120.22 539.478 1124.68 542.667 1126.44 545.445C1128.12 548.077 1129.44 548.718 1132 550" stroke="#4D4D4D" stroke-width="3" stroke-linecap="round"/>
<path d="M1154 571C1154 566.957 1152.03 557.809 1158.06 557.056C1161.73 556.597 1164.77 557.708 1162.39 561.945C1160.89 564.604 1151.74 566.283 1154.72 566.945C1159.18 567.935 1163.32 564.153 1167.39 565.056C1170.94 565.845 1162.43 569.916 1162.22 570C1158.88 571.321 1155.55 571 1152 571C1151.42 571 1155.48 572.79 1156.22 574C1157.21 575.616 1159.16 577 1161 577" stroke="#4D4D4D" stroke-width="3" stroke-linecap="round"/>
<path d="M866 588C871.232 585.279 884.717 580.544 880.444 572C879.335 569.78 874.923 568.517 872.5 569.055C869.28 569.771 869.319 578.203 870.556 580.5C873.073 585.175 870.942 577.567 869.778 576C867.794 573.329 862.834 571.166 860 574C857.467 576.533 859.225 582.256 861 584.778C863.344 588.109 868.392 588 872 588" stroke="#4D4D4D" stroke-width="3" stroke-linecap="round"/>
<path d="M1238 505C1240.73 510.739 1244.29 512.734 1249.94 514.5C1254.92 516.054 1249.91 507.775 1247.94 506.5C1245.1 504.653 1242.35 501.857 1238.78 502C1235.63 502.126 1236.78 506.261 1239 507" stroke="#4D4D4D" stroke-width="3" stroke-linecap="round"/>
<path d="M1245 506C1243.69 500.91 1242.08 495.813 1243.56 490.556C1244.69 486.498 1249.8 482.036 1254.39 483.056C1257.83 483.821 1251.84 493.086 1251 494C1249.48 495.651 1248.36 497.644 1246.78 499.222C1246.5 499.503 1243.68 501.297 1244.22 501.778C1245.45 502.869 1267 486.226 1267 495.056C1267 504.39 1249.5 505.375 1243 507" stroke="#4D4D4D" stroke-width="3" stroke-linecap="round"/>
<path d="M1313 461C1307.89 452.883 1307.05 438.983 1320.78 440C1323.7 440.217 1321.81 450.357 1320.78 452.222C1318.78 455.817 1316.67 458.746 1313.22 461C1309.03 463.744 1315.31 457.75 1316.22 457C1320.76 453.287 1324.29 451.131 1330 449.778C1333.35 448.984 1335.96 448.421 1334.78 453C1333.65 457.388 1328 459.883 1324.11 460.945C1319.9 462.093 1315.95 462 1311.61 462C1309.9 462 1315.15 462.506 1316.5 463.556C1318.19 464.873 1321.38 467.231 1322.44 469.056C1325.42 474.15 1320.12 478.262 1315.61 474.445C1313.59 472.737 1307.87 463.565 1311 462" stroke="#4D4D4D" stroke-width="3" stroke-linecap="round"/>
<path d="M1395 445C1390.22 440.9 1381.75 428.574 1391.61 424.556C1405.01 419.097 1400.98 434.465 1395.22 440.222C1394.88 440.563 1391.38 443.132 1391.44 443C1392.96 439.967 1400.11 436.627 1403 435C1405.17 433.781 1410.62 428.882 1413.39 430.111C1415.33 430.975 1413.46 436.649 1412.78 437.778C1409.44 443.301 1398.8 447.126 1392.67 447.945C1388.32 448.525 1388.13 450.122 1392.22 453C1393.24 453.716 1403.08 462.817 1401.94 456.556C1400.96 451.148 1394.24 450.705 1393 447" stroke="#4D4D4D" stroke-width="3" stroke-linecap="round"/>
<path d="M1444 409C1442.64 407.141 1435.72 392.611 1439.06 392.055C1440.75 391.772 1444.43 391.454 1445.39 393.166C1446.85 395.762 1447.21 404.509 1444.56 407C1441.09 410.25 1448.7 397.46 1453.06 395.555C1459.53 392.723 1457.95 400.929 1455.5 403.944C1452.71 407.383 1439.26 409.51 1443.67 410C1447.45 410.42 1452.19 410.422 1454 414.5C1456.13 419.29 1450.95 415.95 1449.22 414.222C1447.98 412.979 1446.59 411.017 1445 410.222C1444.54 409.992 1441.64 410 1443 410" stroke="#4D4D4D" stroke-width="3" stroke-linecap="round"/>
<path d="M1512 363C1510.15 355.606 1511.15 347.883 1518.44 344.611C1520.98 343.472 1525 341.343 1525 345.444C1525 350.538 1523.47 354.712 1519 357.444C1515.85 359.369 1511.78 358.149 1516.72 356.5C1520.98 355.08 1526.44 353.544 1531 354C1535.03 354.403 1531.82 360.33 1530 361.444C1526.95 363.308 1513.16 369.326 1511 365" stroke="#4D4D4D" stroke-width="3" stroke-linecap="round"/>
<path d="M1362 376C1360.59 372.652 1359.59 364.94 1363.06 362.555C1366.86 359.943 1372 360.119 1372 365.5C1372 367.13 1372.28 368.459 1370.89 369.555C1369.97 370.278 1369.08 370.982 1368.22 371.778C1367.69 372.266 1365.94 372.491 1366.44 373C1368.48 375.036 1377.25 368.66 1379.22 368.222C1380.97 367.834 1385.19 366.503 1386.56 368.222C1387.86 369.866 1386.48 372.524 1384.94 373.389C1381.31 375.434 1374.71 377 1370.5 377C1368.85 377 1364.02 376 1365.67 376C1369.51 376 1371.46 378.463 1374 381" stroke="#4D4D4D" stroke-width="3" stroke-linecap="round"/>
<path d="M1464 481C1462.11 477.218 1458.92 472.48 1460.44 468C1461.49 464.909 1470 456.936 1470 464.056C1470 470.926 1468.36 474.406 1462.61 478.389C1461.12 479.42 1470.26 474.814 1472.56 474.222C1476.05 473.325 1476.31 477.397 1476 480C1475.68 482.761 1466.77 482.131 1465 481.445C1460.94 479.865 1460.63 476.199 1464 480.056C1466.37 482.761 1468.03 486.049 1470 489" stroke="#4D4D4D" stroke-width="3" stroke-linecap="round"/>
<path d="M1498.02 320.896C1495.19 319.324 1489.29 314.65 1489.02 311.118C1488.76 307.62 1490.65 303.437 1495.02 304.063C1499.25 304.667 1499.28 313.947 1498.97 316.785C1498.9 317.404 1497.13 320.167 1497.13 319.063C1497.13 315.063 1499.63 311.127 1502.02 308.118C1504.19 305.391 1509.31 302.693 1510.8 307.896C1512.63 314.279 1508.58 318.35 1504.02 321.896C1501.93 323.523 1493.07 325.319 1499.58 325.84C1503.75 326.174 1506.27 327.645 1510.02 328.896" stroke="#4D4D4D" stroke-width="3" stroke-linecap="round"/>
<path d="M1588 367C1583.03 363.343 1566.82 358.492 1573 349.222C1573.85 347.942 1582.36 342.987 1582.94 345.611C1583.96 350.191 1577.72 355.94 1574.5 358.444C1572.45 360.041 1593 344.456 1593 350.5C1593 360.77 1574.94 357.129 1572 363" stroke="#4D4D4D" stroke-width="3" stroke-linecap="round"/>
<path d="M1585 438C1579.88 436.476 1554.83 431.965 1559.22 420.778C1560.48 417.569 1569.05 413.111 1572.44 413.111C1575.53 413.111 1567.19 425.025 1566.56 425.945C1565.54 427.418 1564.83 427.373 1563.44 428.222C1561.42 429.469 1568.13 427.129 1570.22 426C1571.09 425.533 1580.68 420.643 1580.94 421.556C1583.59 430.828 1566.14 431 1561 431" stroke="#4D4D4D" stroke-width="3" stroke-linecap="round"/>
<path d="M1529.52 210.097C1522.06 209.124 1504.15 209.732 1508.74 196.875C1510.1 193.068 1515.12 191.473 1518.85 192.152C1521.47 192.628 1518.77 202.323 1517.52 203.652C1512.56 208.915 1514.77 202.799 1518.08 200.152C1519.96 198.644 1529.79 190.816 1532.3 193.319C1535.3 196.325 1529.48 202.539 1527.41 204.041C1525.38 205.516 1515.52 208.521 1515.52 210.097" stroke="#4D4D4D" stroke-width="3" stroke-linecap="round"/>
<path d="M1562 183C1553.32 183.607 1533.53 186.743 1535.06 173C1535.65 167.649 1542.9 164.153 1547.56 163.222C1551.28 162.477 1547.78 176.7 1546.22 178.333C1544.89 179.729 1536.23 184.253 1540.67 179.389C1544.38 175.32 1556.14 165.6 1562.22 167.222C1566.77 168.435 1556.43 181.295 1554.78 182.555C1553.17 183.777 1544.2 186 1547 186" stroke="#4D4D4D" stroke-width="3" stroke-linecap="round"/>
<path d="M1616 198C1612.49 198 1580.5 202.226 1589.56 189.055C1595.09 181.01 1605.12 190.124 1598.83 194.444C1597.92 195.073 1590.71 197.201 1593.22 194.778C1595.17 192.899 1604.72 186.247 1607.56 187.666C1609.51 188.643 1603.19 196.813 1602.22 197.778C1599.97 200.026 1596.99 200.502 1594 201" stroke="#4D4D4D" stroke-width="3" stroke-linecap="round"/>
<path d="M1634 286C1632.02 284.604 1613.09 275.056 1615.11 270.5C1617.16 265.894 1635.8 264.395 1629.89 272.833C1628.37 274.999 1624.63 276.008 1622.22 276.778C1618.65 277.92 1628.64 272.883 1632 271.222C1633.49 270.487 1643.03 265.284 1642 270.778C1641.06 275.774 1631.78 281 1627 281" stroke="#4D4D4D" stroke-width="3" stroke-linecap="round"/>
<path d="M1620 502C1608.76 499.16 1583.62 499.463 1588.22 480.222C1589.18 476.234 1595.2 474.077 1598.83 475.167C1605.01 477.019 1598.53 486.524 1596.11 488.389C1593.54 490.376 1587.99 492.449 1593.22 488C1597.36 484.485 1604.98 479.435 1610.83 480.167C1615.91 480.802 1594.41 505.221 1592 498" stroke="#4D4D4D" stroke-width="3" stroke-linecap="round"/>
<path d="M1647 439C1641.07 438.298 1630.11 438.057 1628.11 430.555C1627.09 426.723 1629.85 423.424 1633.22 422C1637.61 420.146 1640.65 422.298 1639.33 427.389C1638.28 431.454 1633.19 433.107 1629.44 433C1623.55 432.831 1648 417.239 1648 424.222C1648 430.388 1636.99 439 1631 439" stroke="#4D4D4D" stroke-width="3" stroke-linecap="round"/>
<path d="M1622 69.9998C1614.56 69.9998 1589.58 71.3971 1604.44 59.6109C1605.99 58.3885 1610.69 54.8607 1613 56.222C1615.98 57.9758 1612.58 62.5594 1611 63.7776C1606.29 67.413 1606.24 64.8898 1611.06 62.0554C1612.29 61.3321 1622.89 54.7317 1622.89 57.1665C1622.89 66.6298 1612.34 69.5324 1605 70.9998" stroke="#4D4D4D" stroke-width="3" stroke-linecap="round"/>
<path d="M1226 552C1231.62 555.149 1245.68 564.547 1239.39 565.945C1232.11 567.563 1230.09 559.317 1225.56 555.611C1224.94 555.104 1222.11 555.176 1222.11 554.445C1222.11 553.164 1225.48 552.284 1226.5 552.056C1227.7 551.789 1229.89 553.008 1229.89 554.389C1229.89 556.153 1228 551.209 1228 549.445C1228 545.051 1234.81 538.464 1236.22 545.222C1236.8 548.005 1237.51 551.529 1234.78 553.556C1233.92 554.188 1228.34 556.838 1231.67 554.778C1232.72 554.126 1250.88 543.739 1247.56 551C1245.11 556.358 1239.55 559 1234 559" stroke="#4D4D4D" stroke-width="3" stroke-linecap="round"/>
<path d="M376.223 564.005C373.656 569.744 370.312 571.739 365.005 573.505C360.335 575.059 365.041 566.78 366.883 565.505C369.552 563.658 372.134 560.862 375.493 561.005C378.447 561.131 377.366 565.266 375.284 566.005" stroke="#4D4D4D" stroke-width="3" stroke-linecap="round"/>
<path d="M367.663 565.092C368.892 560.002 370.402 554.905 369.019 549.647C367.952 545.59 363.153 541.128 358.845 542.147C355.609 542.913 361.236 552.177 362.027 553.092C363.456 554.743 364.51 556.735 365.993 558.314C366.257 558.595 368.902 560.388 368.393 560.87C367.24 561.961 347 545.318 347 554.147C347 563.482 363.438 564.467 369.541 566.092" stroke="#4D4D4D" stroke-width="3" stroke-linecap="round"/>
<path d="M294.724 582.053C299.524 573.936 300.309 560.036 287.419 561.053C284.673 561.269 286.446 571.41 287.419 573.275C289.295 576.87 291.277 579.799 294.516 582.053C298.457 584.797 292.558 578.802 291.698 578.053C287.436 574.34 284.123 572.184 278.758 570.831C275.61 570.037 273.164 569.474 274.27 574.053C275.33 578.441 280.632 580.935 284.289 581.997C288.243 583.146 291.956 583.053 296.029 583.053C297.635 583.053 292.705 583.558 291.437 584.608C289.847 585.925 286.854 588.284 285.854 590.108C283.063 595.202 288.035 599.315 292.272 595.497C294.167 593.79 299.543 584.618 296.603 583.053" stroke="#4D4D4D" stroke-width="3" stroke-linecap="round"/>
<path d="M245.621 498.086C250.114 493.985 258.068 481.66 248.804 477.641C236.22 472.182 240.005 487.551 245.412 493.308C245.732 493.649 249.022 496.218 248.96 496.086C247.536 493.052 240.823 489.712 238.107 488.086C236.072 486.867 230.948 481.967 228.35 483.197C226.524 484.061 228.282 489.734 228.924 490.863C232.06 496.386 242.049 500.212 247.812 501.03C251.899 501.61 252.071 503.207 248.23 506.086C247.275 506.801 238.029 515.902 239.099 509.641C240.022 504.233 246.339 503.79 247.499 500.086" stroke="#4D4D4D" stroke-width="3" stroke-linecap="round"/>
<path d="M759.077 570.598C763.57 566.498 771.524 554.172 762.26 550.154C749.676 544.695 753.461 560.063 758.869 565.82C759.189 566.162 762.479 568.731 762.417 568.598C760.992 565.565 754.28 562.225 751.564 560.598C749.529 559.379 744.405 554.48 741.806 555.709C739.98 556.573 741.739 562.247 742.38 563.376C745.517 568.899 755.506 572.725 761.269 573.543C765.355 574.123 765.528 575.72 761.686 578.598C760.731 579.314 751.486 588.415 752.555 582.154C753.478 576.746 759.796 576.303 760.956 572.598" stroke="#4D4D4D" stroke-width="3" stroke-linecap="round"/>
<path d="M199.599 462.085C200.874 460.226 207.374 445.696 204.243 445.141C202.647 444.858 199.2 444.539 198.295 446.252C196.924 448.848 196.582 457.594 199.078 460.085C202.334 463.335 195.183 450.545 191.094 448.641C185.015 445.809 186.497 454.014 188.798 457.03C191.423 460.469 204.049 462.596 199.912 463.085C196.36 463.505 191.91 463.507 190.207 467.585C188.208 472.375 193.072 469.035 194.695 467.307C195.862 466.064 197.166 464.103 198.66 463.307C199.092 463.078 201.819 463.085 200.539 463.085" stroke="#4D4D4D" stroke-width="3" stroke-linecap="round"/>
<path d="M688.804 585.169C690.078 583.31 696.579 568.78 693.447 568.225C691.852 567.942 688.404 567.623 687.499 569.336C686.128 571.932 685.786 580.678 688.282 583.169C691.538 586.419 684.387 573.629 680.299 571.725C674.219 568.893 675.702 577.098 678.003 580.114C680.627 583.553 693.253 585.68 689.117 586.169C685.564 586.589 681.114 586.591 679.411 590.669C677.412 595.459 682.276 592.119 683.899 590.391C685.066 589.148 686.37 587.187 687.864 586.391C688.296 586.162 691.023 586.169 689.743 586.169" stroke="#4D4D4D" stroke-width="3" stroke-linecap="round"/>
<path d="M135.733 416.085C137.469 408.691 136.535 400.968 129.68 397.696C127.294 396.558 123.523 394.429 123.523 398.53C123.523 403.624 124.96 407.798 129.159 410.53C132.116 412.454 135.943 411.234 131.298 409.585C127.298 408.166 122.166 406.63 117.888 407.085C114.098 407.489 117.114 413.415 118.827 414.53C121.691 416.393 134.641 422.411 136.672 418.085" stroke="#4D4D4D" stroke-width="3" stroke-linecap="round"/>
<path d="M841.671 563.966C843.407 556.572 842.473 548.848 835.618 545.577C833.233 544.438 829.461 542.309 829.461 546.41C829.461 551.504 830.898 555.678 835.097 558.41C838.054 560.334 841.881 559.114 837.236 557.466C833.236 556.046 828.104 554.51 823.826 554.966C820.036 555.369 823.052 561.295 824.765 562.41C827.629 564.274 840.579 570.292 842.61 565.966" stroke="#4D4D4D" stroke-width="3" stroke-linecap="round"/>
<path d="M814.671 574.966C816.407 567.572 815.473 559.848 808.618 556.577C806.233 555.438 802.461 553.309 802.461 557.41C802.461 562.504 803.898 566.678 808.097 569.41C811.054 571.334 814.881 570.114 810.236 568.466C806.236 567.046 801.104 565.51 796.826 565.966C793.036 566.369 796.052 572.295 797.765 573.41C800.629 575.274 813.579 581.292 815.61 576.966" stroke="#4D4D4D" stroke-width="3" stroke-linecap="round"/>
<path d="M412.55 605.086C413.874 601.739 414.816 594.026 411.559 591.642C407.99 589.029 403.158 589.205 403.158 594.586C403.158 596.217 402.891 597.545 404.202 598.642C405.065 599.364 405.899 600.068 406.706 600.864C407.202 601.353 408.854 601.578 408.376 602.086C406.464 604.122 398.228 597.747 396.375 597.309C394.735 596.921 390.765 595.59 389.487 597.309C388.265 598.953 389.557 601.611 391.001 602.475C394.415 604.52 400.612 606.086 404.567 606.086C406.112 606.086 410.652 605.086 409.106 605.086C405.499 605.086 403.662 607.55 401.28 610.086" stroke="#4D4D4D" stroke-width="3" stroke-linecap="round"/>
<path d="M180.815 534.086C182.591 530.303 185.584 525.566 184.154 521.086C183.168 517.994 175.18 510.022 175.18 517.141C175.18 524.011 176.716 527.491 182.12 531.474C183.518 532.505 174.94 527.899 172.78 527.308C169.502 526.41 169.257 530.483 169.545 533.086C169.85 535.846 178.217 535.217 179.876 534.53C183.691 532.95 183.984 529.285 180.815 533.141C178.592 535.846 177.028 539.135 175.18 542.086" stroke="#4D4D4D" stroke-width="3" stroke-linecap="round"/>
<path d="M358.36 610.818C360.136 607.036 363.128 602.298 361.699 597.818C360.713 594.727 352.725 586.754 352.725 593.874C352.725 600.744 354.261 604.224 359.664 608.207C361.063 609.238 352.484 604.632 350.324 604.04C347.046 603.143 346.802 607.215 347.089 609.818C347.394 612.578 355.762 611.949 357.421 611.262C361.236 609.683 361.529 606.017 358.36 609.874C356.137 612.579 354.572 615.867 352.725 618.818" stroke="#4D4D4D" stroke-width="3" stroke-linecap="round"/>
<path d="M158.274 365.085C160.931 363.514 166.481 358.84 166.727 355.308C166.97 351.81 165.203 347.627 161.092 348.252C157.12 348.856 157.091 358.137 157.387 360.974C157.452 361.593 159.109 364.356 159.109 363.252C159.109 359.252 156.765 355.316 154.517 352.308C152.48 349.581 147.669 346.882 146.273 352.085C144.56 358.469 148.357 362.539 152.639 366.085C154.603 367.712 162.931 369.509 156.813 370.03C152.898 370.363 150.529 371.834 147.004 373.085" stroke="#4D4D4D" stroke-width="3" stroke-linecap="round"/>
<path d="M632.422 616.896C635.079 615.324 640.629 610.65 640.875 607.118C641.118 603.62 639.35 599.437 635.239 600.063C631.268 600.667 631.239 609.947 631.535 612.785C631.599 613.404 633.257 616.167 633.257 615.063C633.257 611.063 630.913 607.127 628.665 604.118C626.628 601.391 621.817 598.693 620.421 603.896C618.708 610.279 622.504 614.35 626.787 617.896C628.751 619.523 637.079 621.319 630.961 621.84C627.046 622.174 624.677 623.645 621.151 624.896" stroke="#4D4D4D" stroke-width="3" stroke-linecap="round"/>
<path d="M501.422 606.896C504.079 605.324 509.629 600.65 509.875 597.118C510.118 593.62 508.35 589.437 504.239 590.063C500.268 590.667 500.239 599.947 500.535 602.785C500.599 603.404 502.257 606.167 502.257 605.063C502.257 601.063 499.913 597.127 497.665 594.118C495.628 591.391 490.817 588.693 489.421 593.896C487.708 600.279 491.504 604.35 495.787 607.896C497.751 609.523 506.079 611.319 499.961 611.84C496.046 612.174 493.677 613.645 490.151 614.896" stroke="#4D4D4D" stroke-width="3" stroke-linecap="round"/>
<path d="M79.0001 382.376C82.0427 380.972 110.653 372.554 101.541 364.931C94.6016 359.126 90.6004 367.727 95.9059 373.376C99.4203 377.118 95.5192 369.744 93.8187 368.376C91.5868 366.58 82.7569 361.294 82.7569 366.876C82.7569 376.766 89.4344 376.746 96.8451 379.376" stroke="#4D4D4D" stroke-width="3" stroke-linecap="round"/>
<path d="M67.1705 491.086C71.9806 489.561 95.5091 485.05 91.3813 473.863C90.1974 470.655 82.1484 466.197 78.9629 466.197C76.062 466.197 83.8997 478.11 84.4938 479.03C85.4453 480.504 86.1189 480.458 87.4158 481.308C89.3176 482.554 83.0152 480.215 81.05 479.086C80.2372 478.619 71.2245 473.729 70.9796 474.641C68.4915 483.913 84.8799 484.086 89.7116 484.086" stroke="#4D4D4D" stroke-width="3" stroke-linecap="round"/>
<path d="M106.617 293.086C113.62 292.113 130.445 292.721 126.132 279.863C124.855 276.057 120.143 274.462 116.636 275.141C114.179 275.617 116.711 285.312 117.888 286.641C122.548 291.904 120.473 285.788 117.366 283.141C115.595 281.633 106.359 273.805 104.008 276.308C101.185 279.314 106.66 285.527 108.6 287.03C110.504 288.504 119.766 291.51 119.766 293.086" stroke="#4D4D4D" stroke-width="3" stroke-linecap="round"/>
<path d="M138.286 280.806C146.437 281.414 165.026 284.549 163.592 270.806C163.034 265.455 156.223 261.959 151.852 261.028C148.355 260.284 151.638 274.506 153.104 276.139C154.357 277.535 162.493 282.059 158.322 277.195C154.833 273.126 143.79 263.406 138.077 265.028C133.806 266.241 143.513 279.101 145.069 280.362C146.577 281.583 155.005 283.806 152.374 283.806" stroke="#4D4D4D" stroke-width="3" stroke-linecap="round"/>
<path d="M38.055 251.085C41.3478 251.085 71.3962 255.311 62.8919 242.141C57.6972 234.096 48.2756 243.209 54.1781 247.53C55.0369 248.158 61.8115 250.286 59.4482 247.863C57.6158 245.984 48.6526 239.332 45.9861 240.752C44.1509 241.729 50.0892 249.898 50.9952 250.863C53.1066 253.111 55.9102 253.587 58.7177 254.085" stroke="#4D4D4D" stroke-width="3" stroke-linecap="round"/>
<path d="M21.1491 339.086C23.0087 337.69 40.7915 328.141 38.8898 323.586C36.9671 318.98 19.4623 317.48 25.0103 325.919C26.4337 328.084 29.952 329.094 32.2109 329.863C35.5642 331.006 26.1838 325.969 23.0275 324.308C21.6293 323.572 12.6678 318.369 13.6354 323.863C14.5153 328.86 23.233 334.086 27.7236 334.086" stroke="#4D4D4D" stroke-width="3" stroke-linecap="round"/>
<path d="M181 441.115C191.558 438.275 215.168 438.577 210.846 419.337C209.951 415.349 204.291 413.192 200.88 414.281C195.082 416.133 201.17 425.638 203.437 427.504C205.853 429.491 211.067 431.564 206.15 427.115C202.267 423.6 195.104 418.55 189.61 419.281C184.839 419.916 205.037 444.336 207.298 437.115" stroke="#4D4D4D" stroke-width="3" stroke-linecap="round"/>
<path d="M8.93937 492.085C14.5091 491.384 24.8011 491.143 26.68 483.641C27.6398 479.809 25.0475 476.509 21.8796 475.085C17.7551 473.231 14.9004 475.383 16.14 480.474C17.13 484.54 21.9069 486.192 25.4278 486.085C30.9593 485.917 8.00015 470.325 8.00015 477.307C8.00015 483.473 18.337 492.085 23.9668 492.085" stroke="#4D4D4D" stroke-width="3" stroke-linecap="round"/>
<path d="M8.83486 165.085C15.8192 165.085 39.2808 166.483 25.3232 154.696C23.8756 153.474 19.4613 149.946 17.2878 151.307C14.4876 153.061 17.683 157.645 19.1662 158.863C23.5923 162.498 23.6397 159.975 19.114 157.141C17.9592 156.418 8.00001 149.817 8.00001 152.252C8.00001 161.715 17.9102 164.618 24.8015 166.085" stroke="#4D4D4D" stroke-width="3" stroke-linecap="round"/>
<path d="M546.625 621.678C541.345 624.827 528.142 634.225 534.05 635.623C540.891 637.241 542.789 628.995 547.043 625.29C547.625 624.782 550.278 624.854 550.278 624.123C550.278 622.842 547.118 621.962 546.156 621.734C545.028 621.467 542.973 622.686 542.973 624.067C542.973 625.832 544.747 620.887 544.747 619.123C544.747 614.729 538.353 608.143 537.025 614.901C536.478 617.683 535.812 621.207 538.381 623.234C539.182 623.866 544.429 626.516 541.303 624.456C540.315 623.805 523.263 613.418 526.38 620.678C528.68 626.036 533.898 628.678 539.112 628.678" stroke="#4D4D4D" stroke-width="3" stroke-linecap="round"/>
<path d="M1078 538C1082.2 538.156 1090.34 540.22 1090 546C1089.85 548.478 1084.09 546.224 1083.22 545.556C1080.85 543.719 1078.9 540.687 1077.56 538C1075.57 534.036 1075.62 533.19 1080.11 530.445C1082.06 529.256 1095.95 523.656 1091.78 532C1090.72 534.121 1081.62 537.643 1087 535.222C1089.78 533.97 1097.43 531.389 1100.44 533.111C1104.91 535.664 1094.72 539.733 1093.56 539.945C1090.25 540.546 1086.37 540 1083 540" stroke="#4D4D4D" stroke-width="3" stroke-linecap="round"/>
<path d="M870 589C867.772 589.117 850.272 596.025 855.111 598.444C865.063 603.421 869.897 590.103 875 585" stroke="#4D4D4D" stroke-width="3" stroke-linecap="round"/>
</svg>
