<svg xmlns="http://www.w3.org/2000/svg" width="28" height="28" fill="none"><path stroke="#4D4D4D" stroke-linecap="round" stroke-width="3" d="M22.625 11.678c-5.28 3.149-18.483 12.547-12.575 13.945 6.841 1.618 8.739-6.628 12.993-10.333.582-.508 3.235-.436 3.235-1.167 0-1.28-3.16-2.161-4.122-2.389-1.128-.267-3.183.952-3.183 2.333 0 1.765 1.774-3.18 1.774-4.944 0-4.394-6.394-10.98-7.723-4.222-.546 2.782-1.212 6.306 1.357 8.333.801.632 6.048 3.282 2.922 1.222-.989-.651-18.04-11.038-14.923-3.778 2.3 5.358 7.518 8 12.732 8"/></svg>