<svg xmlns="http://www.w3.org/2000/svg" width="658" height="730" fill="none"><path stroke="#15CE79" stroke-linecap="round" stroke-width="3" d="M474 2c5.261 4.817 9.984 9.984 15 15m7 1c5.169-4.608 11.837-8.673 15-15"/><path stroke="#4D4D4D" stroke-linecap="round" stroke-width="3" d="M85.726 189.118c9.488-2.688 16.505-4.701 24.777-9.778 3.17-1.945 7.968-3.824 9.723-7.333 2.925-5.852 2.058-11.224 2.555-17.445.474-5.92 1.945-11.077 1.945-17.222 0-3.162.1-5.971 1.222-9 1.73-4.672 7.611-3.899 11.778-4.278 4.963-.451 10.587-2.46 15.055.612 4.341 2.984 7.945 7.016 7.945 12.444 0 3.417.945 8.304-1 11.222-2.001 3.001-4.966 5.909-5.945 9.334-1.672 5.853 1.381 8.638 5.945 10.666 4.996 2.221 11.126 3.125 16.5 4.778 2.939.904 16.727 14.773 16.5 15m-105 2c-9.681.569-6 29.085-6 34.667 0 8.182.292 16.275 2.5 24.222.97 3.492 1.056 8.29 5 9.166 4.472.994 7.3 2.058 12.277 1.945 5.252-.119 11.806-2.857 16.223-5.556 5.701-3.484 11.035-6.627 17-9.666 3.845-1.959 7.615-4.628 10.777-7.556 1.655-1.532.072-.222-1.777-.222"/><path stroke="#4D4D4D" stroke-linecap="round" stroke-width="3" d="M98.726 239.118c10.302-9.854 27.043-21 42-21 5.25 0 13.545-8.152 19-3 5.249 4.958 8.285 8.368 8 15.778-.232 6.016-8.717 7.222-13 7.222"/><path stroke="#4D4D4D" stroke-linecap="round" stroke-width="3" d="M191.726 192.118c-2.275 7.676-.146 15.27 0 23 .142 7.537 1.118 14.563 1.944 22 .883 7.948 1.46 21.683-8.167 24.778-5.178 1.664-10.015-3.168-14-5.778-4.916-3.221-9.675-6.669-14.222-10.389-3.441-2.815-9.018-7.611-13.555-7.611m-42 23c0 22.968-3 45.854-3 68.778v53.222c0 12.275 3 24.531 3 36.5 0 6.211 3 11.26 3 17.722v15.778m73-189c0 23.397-1.018 46.154-3 69.444-.979 11.501-5.497 22.646-7.445 34.056-1.652 9.674-2.44 19.732-3.778 29.5-1.944 14.195-1.777 28.125-1.777 42.5 0 8.62.867 14.294 5.5 21.5 2.06 3.206 8.062 8.281 8.5 12 .699 5.947 1.639 11.51-.056 17.444-1.245 4.357-10.648 2.556-13.944 2.556-5.541 0-9.878-.695-12-6m-7-190c0 25.216.041 49.816-4 74.778-2.244 13.859-3.034 28.05-4.778 42-1.712 13.695-.9 27.573-3 41.222-1.41 9.161 6.7 16.923 12.778 23 4.28 4.28 5 10.106 5 16 0 17.435-28.521-3.038-34-5.778-2.51-1.255-4.585-1.389-5.778-4.222-1.41-3.349-1.065-11.228-1.222-14.778-.367-8.237-1.52-17.079-3-25.222"/><path stroke="#4D4D4D" stroke-linecap="round" stroke-width="3" d="M108.726 480.118c-4.719 0-12.791 3.137-13 8.778-.287 7.753 1.513 9.869 7.444 14.722 11.489 9.4 30.335 6.5 44.111 6.5 8.324 0 15.425-2.385 23.5-4 2.559-.512 12.574-4.664 12.945-8 .795-7.157 1.6-14-8-14"/><path stroke="#4D4D4D" stroke-linecap="round" stroke-width="3" d="M183.726 496.118c0 9.478-2 18.59-2 28v9c0 2.308.854 8.427 0 8m-84-46c0 8.639.333 16.494 1.777 25 .83 4.884-.43 14.022 2.223 18m-4 5c2.099 11.068 7.972 10.441 17.5 11.055 6.874.444 13.523.945 20.444.945 4.637 0 14.784-.457 17.056-5"/><path stroke="#4D4D4D" stroke-linecap="round" stroke-width="3" d="M98.726 533.118c-.96 8.643-14.693 14.648-18.778 22-1.143 2.057-4.597 2.936-5.167 5.5-.709 3.19.84 6.876-.555 9.944-6.03 13.266 11.692 19.133 20.444 24.056 14.734 8.288 36.18 4.554 51.834 1.278 8.367-1.752 16.432-4.839 24.166-8.223 3.243-1.418 11.443-5.329 13.056-8.555"/><path stroke="#4D4D4D" stroke-linecap="round" stroke-width="3" d="M183.726 536.118c2.847 5.378 8.74 8.836 11.777 14 .941 1.6 2.771 1.787 3.723 3.5 1.335 2.403-.5 4.55-.5 7 0 4.548.183 9.609-1.056 13.944-.255.895-2.027.538-2.722.778-1.658.574-2.851 2.527-4.222 3.556-6.183 4.637-11.655 8.551-19 11.222"/><path stroke="#4D4D4D" stroke-linecap="round" stroke-width="3" d="M73.726 563.118c9.605 15.742 26.249 18 43.222 18h21.278c7.384 0 13.514-3.89 20.5-5.778 8.42-2.276 17.971-4.193 24.222-10.444 2.429-2.429 5.155-3.39 8.278-4.778 1.405-.624 7.383-3.294 3.5-2m-59-396c.546 2.914 7.331 4.148 10 4 3.47-.193 6.659-3.66 9-6m21 40c0 6.486-1.506 13.046-.945 19.5.282 3.239.945 6.204.945 9.5m-74-18c0 7.885-.4 15.753.777 23.555.301 1.989 1.132 6.49-.777 7.445M274 463c-7.298.521-13.733 7.288-14 14.778-.299 8.369 8.376 11.144 15.222 12 9.472 1.184 20.021 3.019 29.556 3.222 6.061.129 15.449 1.689 21.222-.556 6.061-2.356 19-9.612 19-17.444 0-4.508-1.649-3.76-4.444-6.556-2.077-2.076-7.689-1.71-8.556-3.444m50-3c-7.49.288-20.593 9.868-21 18-.436 8.713 10.769 11.776 18 13.222 9.816 1.963 19.903 5.498 30 5.778 6.626.184 15.582 1.428 22-.222 7.253-1.865 15.362-3.312 22-7 2.769-1.538 3.158-10.939 3-13.778-.256-4.607-8.374-7.819-12-8-2.597-.13-6.571-1.755-9-2.778-2.577-1.085-2.941 1.263-5 1.778M256 613c7.988 4.229 11.783 10.553 17.778 16.778 4.394 4.563 5.057 9.566 6.166 15.666C281.376 653.316 284 660.876 284 669v24.444c0 3.591-3 6.587-3 10.056 0 3.28-3 5.269-3 8.5"/><path stroke="#4D4D4D" stroke-linecap="round" stroke-width="3" d="M266 621c7.203-2.493 15.467-4 23-4m2-1c15.36 0 26 22.538 26 35.5 0 7.698 1.775 13.999-1.778 21.5-1.765 3.726-5.587 13.182-9.222 15m1 1c-5.148 0-9.597 1.855-14.5 2.944-4.488.998-7.43 4.699-11.5 6.056"/><path stroke="#4D4D4D" stroke-linecap="round" stroke-width="3" d="M317 668c27.467-5.93 53.15-19.118 80.722-24.389 20.155-3.853 40.665-10.205 59.834-17.611 8.91-3.443 17.49-7.302 26.444-10.5 7.679-2.743 13.951 2.563 21 4.278 7.271 1.768 15.144 2.146 22.5 3.277 4.121.634 9.524 2.272 13.5.167 7.446-3.942 8.236-16.515 10.222-23.667 2.418-8.702 4.88-16.284 8.556-24.555 1.941-4.367-1.092-6.604-2.778-9.556-1.394-2.439-8.423-4.264-4.778-5.666 4.734-1.821 6.402-6.532 10.334-8.778 3.876-2.215 4.218-4.717 6.666-7.778 6.16-7.699-3.438-13.167-7-19.222-6.064-10.309-33.222-7.726-33.222 5 0 2.558.993 7.491 2.556 9.5 3.067 3.944.306 4.611-2.334 6.722-5.165 4.132-14.399 1.084-20.222.778-16.234-.855-32.735 0-49 0-6.281 0-16-1.098-16 8 0 8.559 4.475 12.95 8 20"/><path stroke="#4D4D4D" stroke-linecap="round" stroke-width="3" d="M473 591c.293-10.243 3.014-15 13.5-15 5.631 0 9.717 6.386 14.5 8.778 2.283 1.141 4.65 1.955 7 3 2.941 1.307 5.787 3.405 9.056 4.222 4.79 1.198 18.882 5 13.944 5"/><path stroke="#4D4D4D" stroke-linecap="round" stroke-width="3" d="M532 578c-2.432 1.86-4.66 4.353-7.222 6-1.503.966-3.43.787-4.778 2-2.159 1.943-3.627 4.418-6 6m-68-18c-17.765 0-36.606 11.531-52.778 18-9.094 3.638-17.624 9.233-27 12-7.444 2.197-15.236 5.952-22.222 9.444-6.926 3.464-16.829 5.556-24.5 5.556-1.519 0-4.132.502-5.5-.222-1.965-1.041-1.875-3.099-4.444-3.834-5.309-1.516-5.064 1.318-7.556 5.056m11 13c4.154-2.825 7.24-4.891 12.444-3.944 2.761.502 4.784 3.636 7.556 3.944 3.075.342 5.182 2 8.556 2 5.689 0 10.976-2.785 16.444-4 3.572-.794 6.465-3.282 10.056-4 3.806-.761 7.276-1.754 10.944-3a872.864 872.864 0 0 1 26.5-8.556c8.162-2.484 16.061-5.671 24.278-8 3.494-.99 16.861-2.723 18.222-5.444m4-26c4.341 2.554 7.146 6.478 12 8.778 2.926 1.386 5.852 2.222 9 2.222m0-26c1.879 4.441 5.771 7.029 7 11.944.594 2.375 1.264 4.32 3 6.056m-224-97c0 10.433-1 20.655-1 31.056V521c0 2.485 2 3.709 2 6 0 2.258 1 4.133 1 6.5 0 3.733-1.559 4.48-3.5 7.5-1.828 2.844-14.034 14.233-12.5 15m115-67c-1.779 4.003 0 9.527 0 13.889v13c0 5.998-.371 11.159-1.944 16.667-.426 1.487-.889 3.937-1.056 5.444-.264 2.374-3.287 2.842-4.778 4.222C347.743 546.37 342.849 555.05 337 557m115-70c-5.624 13.357-3 31.612-3 46m-207 82c5.527 5.527 11.378 10.08 15.222 17 2.289 4.119 4.721 8.561 7.778 12 3.124 3.514 2.688 11.345 4.222 15.778 2.144 6.193 1.555 13.246 2.722 19.666.912 5.015.056 10.945.056 16.056 0 5.046-1.45 8.827-2 13.5-.454 3.856-4.317 8.317-7 11-4.067 4.067-9.045 3.73-14 5.5-15.427 5.51-27.742-11.873-33.556-23.5-3.163-6.328-2.871-13.422-4.944-20.056-2.462-7.878-2.5-15.777-2.5-23.944 0-15.099-1.771-31.233 11.5-41.556 4.474-3.48 6.365-3.444 12.056-3.444 3.927 0 9.443-.001 11.444 4"/><path stroke="#4D4D4D" stroke-linecap="round" stroke-width="3" d="M231 616c4.998-2.499 9.517-3 15-3 2.121 0 7.058.885 8-1m3 116c3.047-1.524 6.787-1.993 9.5-3.5 1.717-.954 3.591-2.5 5.5-2.5m71-244c0 11.062.659 21.084-.778 32.222-.589 4.57.229 9.218-.278 13.778-.321 2.892-1.672 4.408.056 7m-101 27c-2.642 5.946-1 14.538-1 21"/><path stroke="#4D4D4D" stroke-linecap="round" stroke-width="3" d="M239 577c.31 8.07 7.969 8.985 14 12 3.157 1.579 6.564 3.919 10 4.778 3.436.859 7.238.276 10.778 1C284.073 596.884 295.489 597 306 597m29-36c-1.689 3.589-1 8.115-1 12 0 1.289-.233 9.233 1 8m-2 2c8.043 3.785 18.094 11 27 11"/><path stroke="#4D4D4D" stroke-linecap="round" stroke-width="3" d="M334 562c4.551 11.378 23.927 14 34.5 14 4.778 0 24.381 2.239 26.5-2m-154-17c.958 5.75 13.776 8.779 18.556 10.5 8.129 2.926 14.726 4.5 23.444 4.5 9.686 0 19.258 1 29 1m-25-123c-4.985 3.812-16.318 11.889-14.944 19.444 1.628 8.959 14.827 7.668 20.944 6.556m14-24.5c-1.329 1.789-2.589 4.288-4.333 5.722-2.21 1.817-4.34 3.259-5.945 5.667-.984 1.477-3.084 3.93-3.222 5.722-.138 1.798-1.482 4.819 0 6.389 1.59 1.684 2.639 3.577 4.75 4.75 4.22 2.344 9.88.061 13.861-1.361 4.878-1.742 9.114-5.245 14.139-6.361 4.434-.986 3.25-7.766 3.25-11.556 0-5.528-.5-10.961-.5-16.5 0-8.19-2-16.156-2-24.361 0-18.117 2-35.961 2-54.083 0-7.08.487-13.992 1.028-21.028.18-2.349.472-4.575.472-6.944 0-1.1 1.12-3.436.5-4.056m68-45c-1.401 21.951-4.274 43.772-4.972 65.75-.529 16.659-.028 33.414-.028 50.083 0 10.298.5 20.527.5 30.834 0 3.52-.567 6.584-.972 10.027-.255 2.164-2.498 3.635-4.028 5.056-5.982 5.555-11.031 13.253-9.972 21.722.545 4.365 4.369 4.634 7.972 4.528 2.342-.069 9.937-1.873 11-4M414 446c-3.55 4.634-6.443 9.33-10.5 13.5-2.043 2.1-2.978 4.256-3.889 6.889-1.693 4.891 2.737 11.195 7.417 12.833 3.258 1.141 7.095-.576 10.194-1.444 3.165-.886 5.684-1.208 8.5-3 .883-.562 3.348-1.115 3.778-2.084.932-2.097 1.477-3.208 1.889-5.527.886-4.985.111-10.727.111-15.778 0-6.295-.071-12.594 0-18.889.093-8.261 2.5-16.228 2.5-24.556 0-3.444-.262-7.015.111-10.444.449-4.128 1.696-8.115 2.139-12.278.979-9.205 1.366-18.424 2.528-27.611 1.649-13.042.222-25.382.222-38.417 0-7.323.5-14.606.5-21.916 0-2.97-1.325-8.953 1-11.278"/><path stroke="#4D4D4D" stroke-linecap="round" stroke-width="3" d="M418.5 300.5c-3.143 27.542-4.217 55.47-5.5 83.167-.58 12.527-1.056 25.296-.389 37.833.346 6.502.983 13.003 1.389 19.5.037.589.5-2.379.5-3m-105-79.5c-.063 20.559-1.14 40.818-3 61.278-.722 7.945-1 15.75-1 23.722v5c0 .891.506 4.01-.5 2.5m-23 4c-2.017-10.024-3.274-19.893-3.472-30.111-.217-11.184 2.485-21.976 2.916-33.083.67-17.246-1.019-34.239.778-51.445.842-8.061-.222-16.265-.222-24.361 0-.992-.688-8.282 1.5-5"/><path stroke="#4D4D4D" stroke-linecap="round" stroke-width="3" d="M283 312.5V289c0-2.981.5-5.889.5-8.889 0-2.337 1-4.353 1-6.611m45.5 64c.69-7.416.811-14.815 1.5-22.222.482-5.186.144-10.349.528-15.528.111-1.507 2.074-12.801 1.972-12.75m-23-16.5c8.343 4.767 16.959 5.315 26.139 6.5 4.102.529 7.735 1.5 11.917 1.5 11.542 0 6.99-17.758 6.472-24.75-.894-12.067-1.173-24.699-.5-36.806.344-6.198.073-12.477.5-18.666.284-4.122 1.014-7.824-2.056-11.278-2.907-3.27-6.125-7.01-10.694-7.889-2.677-.515-8.009-.957-10.167-2.722-2.815-2.303-2.111-4.976-2.111-8.5 0-6.729-1.372-13.166-2.389-19.778-.349-2.268-.574-5.202-1.722-7.222-1.833-3.226-3.936-7.733-7-9.889-3.992-2.809-6.926-1.817-11.389-.611-10.501 2.838-13.5 15.246-13.5 24.722 0 3.98 1.007 9.294 4.25 11.889 1.492 1.194 4.268 3 6.25 3 1.311 0 2.576.098 3.75.75.452.251.944 1.694 1 1.694.737 0-1.166-1.342-1.5-1.416-1.138-.253-1.25.252-1.25 1.222m-18.972 14.972c-1.463 1.707-3.41 3.57-5.028 5.278-3.686 3.891-4.151 8.553-5.889 13.5-2.739 7.797-4.946 15.716-5.722 23.944-.679 7.196-2.269 14.44-3.5 21.556-.604 3.49-.889 6.513-.889 10.111 0 3.451 7.203 5.863 10 6.278 5.456.808 11.808-.19 17-1.889 2.152-.704 4.01-2.189 6.111-2.889.235-.078 2.598-.611 1.889-.611"/><path stroke="#4D4D4D" stroke-linecap="round" stroke-width="3" d="M313 272.5c-3.077-3.026-5.569-4.592-9.278-6.5-2.364-1.216-3.822-3.322-5.222-5.5-2.518-3.916-3.937-9.474-2.25-13.972 1.256-3.349 2.409-5.33 6.25-6.028 3.14-.571 6.102-.99 9 .5 2.381 1.224 2.569 2.676 4.111 4.389 1.499 1.666 6.181.447 8.139.889 4.213.951 7.619 3.222 12 3.222h5.75"/><path stroke="#4D4D4D" stroke-linecap="round" stroke-width="3" d="M336 206.5c-2.326 10.998-3.874 22.702-4 34-.02 1.805-.577 4.781.111 6.5.64 1.599.059-.49-.111-1m-42.5-35.5c1.33 7.359-.076 15.554-1.5 22.889-.309 1.593-4.08 9.571-2 10.611m20 65.5c-.503 7.11-.048 14.313 0 21.444.047 6.883.131 14.181 1.5 20.945.594 2.932 1.5 5.618 1.5 8.611m130.5-73c0-4.247.59-8.186.972-12.389.457-5.025-.032-10.068.528-15.111.767-6.907 2.26-13.94 2.5-20.889.032-.931.576-5.46 1-4.611m-47.5 62c-.783-12.534-3.747-24.624-4.5-37.167-.716-11.921-.519-23.809-1.389-35.722-.385-5.271.082-11.949-1.722-17-.461-1.29-2.839-2.172-4-2.611-4.205-1.588-9.07-1.56-13.389-3-1.437-.479-3.014-1.321-4.528-1.472-1.476-.148-3.013.176-4.472-.139-1.574-.34-9.074.259-8-1.889m61-3.5c-.296-7.696-1.245-15.646-7.528-20.75-1.906-1.549-3.694-2.844-5.361-4.639-2.085-2.246-1.245-5.481-1.722-8.222-1.808-10.398-.764-24.702 10.083-29.583 5.627-2.532 10.835-.128 14.417 4.694 4.334 5.834 3.611 13.305 3.611 20.25 0 6.289-1 12.315-1 18.639v7.111c0 .505-.134 3.269.5 2"/><path stroke="#4D4D4D" stroke-linecap="round" stroke-width="3" d="M417.5 188.5c-2.796-.678-6.129-1.293-9-1.472-3.813-.239-8.292-.179-11.889-1.528-4.922-1.846-10.059-1.487-15.111-2.75-4.329-1.082-8.709-1.92-13.028-3-2.42-.605-4.994-.588-7.472-1.139-2.272-.505-5.192-.85-7.528-1.083-1.206-.121-10.295-.881-10.972.472m-34.5-5.5c0 8.71-.5 17.654-.5 26.25 0 2.363-1.075 3.506-3 4.361-2.975 1.322-5.399-2.89-6.722-5.055C295.093 193.662 292 190.34 292 185c0-7.124 4.271-11.271 9-16m141 66c-5.578-10.459 9.091 22.59 17.472 30.972 2.493 2.493 4.509 4.305 8.417 3.417 3.618-.822 7.661-4.893 9.861-7.667 4.119-5.193 3.182-12.396 5.222-18.389 2.536-7.447 2.109-14.925 2.028-22.722-.056-5.449-.5-10.89-.5-16.361v-4.694c0-1.432.551-2.719-1-1.556"/><path stroke="#4D4D4D" stroke-linecap="round" stroke-width="3" d="M426.5 184c5.031 0 9.921.112 14.917.528 2.504.209 3.42 3.052 4.583 4.861 2.022 3.145 2.932 6.53 3.75 10.167 1.208 5.369 2.223 10.911 3.25 16.333a48.257 48.257 0 0 0 4.25 12.611c1.281 2.563 2.993 4.895 3.639 7.722.412 1.801 1.266 6.778 3.611 6.778"/><path stroke="#4D4D4D" stroke-linecap="round" stroke-width="3" d="M464.5 243c2.083-13.966 2.5-28.153 2.5-42.25 0-.611.351-2.761-.111-3.139-.974-.797-4.529.022-5.778-.222-2.561-.501-8.984-3.992-4.139-6.111 2.584-1.131 5.263.722 7.778.722 1.346 0 2.048-.084 1.639-1.722-.892-3.566-2.319-7.105-2.778-10.778-.4-3.197-.695-7.486.611-10.472.807-1.845 2.364 3.464 2.778 4.528 1.225 3.149 1.982 6.271 3 9.444.359 1.12 1.436 2.907 1.5 4 .034.584.109 2.013.75 1.5 1.338-1.07.731-6.063.75-7.5.05-3.746 1.5-7.183 1.5-10.944 0-1.244-.477-3.394.722-4.25.403-.288.348 1.363.389 1.583.202 1.084.562 2.14.778 3.222.697 3.484.699 6.923 1.222 10.389.243 1.612.072 3.792.889 5.222.378.662 2.562.278 3.278.278 2.25 0 6.817-.842 8.444 1.25 1.596 2.052 1.016 5.695-.722 7.25-4.23 3.785-10.883 4-16 4m-70-31.5c1.747.103 3.155 1 5 1h8.5"/><path stroke="#15CE79" stroke-linecap="round" stroke-width="3" d="M6 110.966c19.701-4.581 31-20.547 31-40.555v-1.889c0 6.852.793 13.76 4 19.944 3.014 5.813 6.725 10.783 10.222 16.278 3.022 4.748 6.296 5.222 11.556 5.222H65c-7.037 0-12.863 2.881-18.5 7.056-7.829 5.799-14.68 19.681-16.444 29.389-.436 2.395-.056 4.465-.056.333 0-5.45.917-11.813-1-17-4.142-11.209-14.86-19.778-27-19.778M482 317c16.6-7.747 31.06-18.608 31.944-38.5.259-5.82 2.54-17.691-.888-22.833-1.892-2.838-.406 6.906.388 10.222 2.085 8.704 3.676 18.564 7.556 26.667 4.793 10.009 10.55 16.556 21.5 19.888 1.434.437 9.813.556 4.5.556-6.262 0-8.666 2.138-13 6.556-4.988 5.083-9.589 11.985-13.444 18-3.779 5.895-7.556 11.683-7.556 18.833 0 2.517-.779 6.367-1 1.389-.343-7.711-1.768-15.874-5.778-22.556-3.186-5.31-10.042-13.395-16.222-14.278-2.773-.396-10.769-2.482-12-4.944M219 81c4.961 2.451 9.958 4.731 15 7m10 7c4.255 2.782 8.802 5.201 13 8m-14-17c3.693-4.645 7.296-9.37 11-14m-22 30c-4.403 4.477-8.212 8.424-11 14M68 398a1447.2 1447.2 0 0 0 11-14m-16 18c-3.237 5.044-7.32 9.641-10 15m-5-27c3.32 1.685 8.715 3.143 10 7m13 7c2.648 1.135 4.654 2.436 7 4M496 23c5.275 3.75 10.426 7.426 15 12m-25-8c-2.561 3.79-5.222 7.388-8 11M185 406c12.461-5.307 19.914-11.551 22-25.111.489-3.177 1.288-5.916 2.444-8.889.559-1.436-.716-4.929.778-4.555 1.909.477 2.794 10.957 3.334 12.5 1.396 3.99 4.992 11.244 8.444 13.833 3.301 2.476 7.722 3.269 11.5 4.722 2.506.964 5.124-.058 7.5 1.278 1.349.759-4.821 2.301-6 2.722-4.258 1.521-8.034 5.888-10.556 9.556-3.255 4.735-6.262 9.327-7.666 14.944-.964 3.854-.14 7.629-.834 11.445-1.012 5.566-1.502-4.705-1.722-6-.817-4.812-2.344-9.162-4.722-13.389-2.679-4.763-8.032-7.293-10.5-11.611-2.195-3.842-9.296-1.963-13-3.445"/><path stroke="#4D4D4D" stroke-linecap="round" stroke-width="3" d="M216 339.274c11.392 1.899 20 10.176 20 22.222v3.278c0-4.605-.284-9.3.056-13.889.553-7.469 6.461-17.293 14.722-17.611 1.776-.068 4.839-1 1.222-1-3.976 0-7.28-.911-10.444-3.5-7.077-5.79-7.556-12.391-7.556-20.889v-1.389c0 4.36.632 9.284-.222 13.556-1.761 8.805-10.021 25.808-20.778 22.222"/><path stroke="#15CE79" stroke-linecap="round" stroke-width="3" d="M598 255c8.807-8.808 15.847-15.85 20.389-27.5 3.765-9.658 2.611-20.448 2.611-30.611 0-4.389.897-17.451-.056-13.167-1.162 5.233-1.091 10.478-.888 15.834.45 11.94 4.101 32.385 17.444 36.833 1.69.563 19.358 1.57 18.278 3.611-1.828 3.453-8.876 6.209-11.722 9.056-5.116 5.115-8.022 11.398-10.278 18.166-2.062 6.185-2.031 11.988-3.278 18.222-.469 2.345-1.198 7.752-1.556 2.389-.717-10.765-5.042-26.873-15.944-31.333-4.837-1.979-11.991-5.839-17-2.5m-4 195c4.804 2.431 9.784 4.627 14 8m6 8c5.251 3.063 10.262 5.525 13 11m-13-15c2.31-2.909 5.369-6.79 9-8m-28 20c2.844-1.934 6.875-4.625 8-8"/></svg>