<svg xmlns="http://www.w3.org/2000/svg" width="363" height="247" fill="none"><path fill="#4D4D4D" d="M11.672 21.448c-1.28 1.344-3.168 1.376-4.736.512C4.6 20.648 4.152 17.864 4.44 15.4c.448-3.808 2.752-9.632 7.328-9.568 2.176.032 2.176-3.36 0-3.392C4.248 2.344.024 12.232 1.08 18.664c.992 5.824 8.32 10.112 12.992 5.184 1.504-1.568-.896-3.968-2.4-2.4Zm22.717-.608c.448-.736.384-1.856-.48-2.432A49.096 49.096 0 0 0 28.98 5.16c-.608-1.12-2.336-1.12-2.944 0-1.92 3.616-3.616 7.328-5.152 11.136-1.088.32-1.408 1.6-.96 2.496-.672 1.888-1.344 3.776-1.952 5.728-.64 2.08 2.656 2.976 3.296.896.608-1.952 1.248-3.872 1.984-5.76 2.624.096 5.184.544 7.712 1.28.256 1.344.416 2.688.544 4.064.192 2.144 3.584 2.176 3.392 0-.096-1.408-.288-2.784-.512-4.16Zm-9.856-4.512c.928-2.208 1.92-4.384 2.976-6.56 1.088 2.432 1.984 4.896 2.656 7.456-1.856-.448-3.712-.768-5.632-.896ZM38.272 5.544c.256 2.912.48 5.856.736 8.768.192 2.336 0 5.12.832 7.296 1.632 4.224 8.416 2.56 11.808 2.528 2.208 0 2.208-3.392 0-3.392-1.856.032-3.744.064-5.6.064-2.848.032-3.232-1.376-3.424-3.968-.32-3.776-.64-7.52-.928-11.296-.192-2.176-3.584-2.176-3.424 0Zm30.715 1.792c-6.112-3.936-12.576 3.584-12.32 9.536.32 7.936 11.04 8.448 16.64 6.528 2.048-.704 1.152-4-.928-3.264-3.264 1.12-9.824 1.92-11.904-1.824-1.952-3.488 2.752-10.656 6.816-8.032 1.824 1.184 3.552-1.76 1.696-2.944Zm9.337 1.344c.96 5.12-4.096 17.792 5.504 18.24 3.168.16 5.888-2.24 7.232-4.896 2.048-4.032.928-8.928 1.376-13.216.224-2.176-3.168-2.176-3.392 0-.288 2.752.032 5.536-.192 8.32-.256 2.752-3.136 8.96-6.624 5.472-1.984-1.984-1.216-5.344-.8-7.776.416-2.4.64-4.64.192-7.04-.416-2.144-3.68-1.248-3.296.896Zm17.477-3.136c.256 2.912.48 5.856.736 8.768.192 2.336 0 5.12.832 7.296 1.632 4.224 8.416 2.56 11.808 2.528 2.208 0 2.208-3.392 0-3.392-1.856.032-3.744.064-5.6.064-2.848.032-3.232-1.376-3.424-3.968-.32-3.776-.64-7.52-.928-11.296-.192-2.176-3.584-2.176-3.424 0Zm34.875 15.296c.448-.736.384-1.856-.48-2.432a49.096 49.096 0 0 0-4.928-13.248c-.608-1.12-2.336-1.12-2.944 0-1.92 3.616-3.616 7.328-5.152 11.136-1.088.32-1.408 1.6-.96 2.496-.672 1.888-1.344 3.776-1.952 5.728-.64 2.08 2.656 2.976 3.296.896.608-1.952 1.248-3.872 1.984-5.76 2.624.096 5.184.544 7.712 1.28.256 1.344.416 2.688.544 4.064.192 2.144 3.584 2.176 3.392 0-.096-1.408-.288-2.784-.512-4.16Zm-9.856-4.512c.928-2.208 1.92-4.384 2.976-6.56 1.088 2.432 1.984 4.896 2.656 7.456-1.856-.448-3.712-.768-5.632-.896Zm29.548-11.84c-4.704.512-9.44.64-14.176.352-2.176-.128-2.176 3.264 0 3.392 2.048.128 4.096.16 6.112.16-.096.192-.16.448-.192.736a90.88 90.88 0 0 0 .224 12.864c.192 2.144 3.584 2.176 3.392 0a90.88 90.88 0 0 1-.224-12.864c.032-.352-.032-.608-.16-.832a86.183 86.183 0 0 0 5.024-.416c2.176-.224 2.176-3.616 0-3.392Zm15.553 17.92c-4.032 1.024-5.28-2.304-5.568-6.272.064 0 .128.032.192.032 1.728.128 3.488-.064 5.152-.64 2.048-.672 1.152-3.936-.928-3.264-1.376.48-2.752.64-4.224.512h-.288c.032-2.688.224-5.216.064-6.528 0-.096-.032-.192-.064-.32.224.064.48.096.704.16l.288.096 2.592.704c2.144.576 2.976-2.56.896-3.264a26.305 26.305 0 0 0-7.712-1.44c-2.176-.064-2.176 3.264-.064 3.392-.064.192-.064.416-.032.672.64 4.896-1.12 10.24 1.024 14.912 1.6 3.456 5.088 5.472 8.864 4.544 2.144-.544 1.248-3.808-.896-3.296Zm6.356-12.416c-.544.256-.864.896-.864 1.472 0 4.384-.032 8.8-.032 13.184 0 1.856 2.368 2.144 3.168.896.224.192.576.32.96.352 11.424.736 5.344-20.16-3.232-15.904Zm3.232 12.512c-.288-.032-.512.032-.736.096.032-3.232.032-6.464.064-9.728 2.752.832 6.56 10.016.672 9.632Zm55.707-3.744c-2.08-1.568-3.968-3.296-5.76-5.152 2.624-.8 5.472-2.08 5.984-4.608.704-3.648-3.648-6.752-6.624-7.648-2.592-.768-6.4-1.024-7.232 2.144-.608 2.368-.064 5.76-.064 8.224.032 3.424.032 6.848.032 10.272 0 2.176 3.392 2.176 3.392 0v-8.32c.032.064.064.128.128.192 2.56 2.912 5.376 5.472 8.416 7.84 1.76 1.312 3.456-1.632 1.728-2.944Zm-10.368-7.008c-.128-2.016-.288-4.128.064-5.888.32-1.504-.224-1.664 1.632-1.472a6.964 6.964 0 0 1 3.36 1.184c2.208 1.504 1.6 3.552-.64 4.448-1.12.416-2.272.736-3.424 1.024-.48.096-.8.352-.992.704Zm14.468-4.608a60.344 60.344 0 0 0 1.728 13.952c.512 2.112 3.808 1.216 3.296-.896-1.056-4.32-1.6-8.64-1.6-13.056-.032-2.176-3.424-2.176-3.424 0Zm14.89.512c-3.584 1.216-8.128 4.384-5.792 8.736.864 1.568 2.4 2.272 4 2.848 1.344.48 3.744.768 4.544 2.048 2.496 3.104-.8 4.704-3.168 3.712a19.578 19.578 0 0 1-2.656-1.152c-1.952-.992-3.68 1.952-1.728 2.912 3.776 1.856 11.232 3.52 12.032-2.688.32-2.464-1.344-4.864-3.296-6.176-1.216-.832-2.56-1.184-3.936-1.664-.576-.192-1.632-.32-2.048-.768-2.496-2.592 1.472-4.032 2.944-4.544 2.08-.704 1.184-3.968-.896-3.264Zm27.867 15.2c-3.104-2.08-6.24-4.16-9.344-6.24a87.048 87.048 0 0 0 5.152-5.696c1.344-1.664-.8-3.936-2.432-2.4-.96.928-1.952 1.824-2.944 2.752-.384.384-.544.8-.512 1.216-.864.896-1.728 1.792-2.624 2.656a94.97 94.97 0 0 0-1.184-6.592c-.48-2.112-3.776-1.216-3.296.928a82.428 82.428 0 0 1 1.92 15.84c.064 2.176 3.456 2.208 3.424 0-.064-2.016-.192-4-.352-6.016l.032-.032a2.07 2.07 0 0 1 .288-.256c3.392 2.24 6.784 4.512 10.176 6.752 1.824 1.216 3.52-1.728 1.696-2.912ZM7.416 45.976c1.568-.576 3.328-.768 4.992-1.056 2.144-.352 1.248-3.616-.928-3.264-2.912.48-9.312.864-10.336 4.416-.576 1.952.128 4.576.288 6.56l.736 9.376c.16 2.144 3.584 2.176 3.392 0-.224-2.752-.416-5.504-.64-8.288h6.432c2.208 0 2.208-3.392 0-3.392h-6.72c-.192-2.752-.096-3.36 2.784-4.352ZM30.891 56.76c-2.08-1.568-3.968-3.296-5.76-5.152 2.624-.8 5.472-2.08 5.984-4.608.704-3.648-3.648-6.752-6.624-7.648-2.592-.768-6.4-1.024-7.232 2.144-.608 2.368-.064 5.76-.064 8.224.032 3.424.032 6.848.032 10.272 0 2.176 3.392 2.176 3.392 0v-8.32a.67.67 0 0 0 .128.192c2.56 2.912 5.376 5.472 8.416 7.84 1.76 1.312 3.456-1.632 1.728-2.944Zm-10.368-7.008c-.128-2.016-.288-4.128.064-5.888.32-1.504-.224-1.664 1.632-1.472a6.964 6.964 0 0 1 3.36 1.184c2.208 1.504 1.6 3.552-.64 4.448-1.12.416-2.272.736-3.424 1.024-.48.096-.8.352-.992.704Zm28.068 2.368c-.448-4.416-4.832-6.304-8.544-7.488-1.312-.416-2.144.704-2.08 1.76-5.056 3.712-3.584 13.088 3.776 13.152 3.968 0 7.232-3.424 6.848-7.424Zm-6.848 4.032c-4.096-.064-4.672-6.112-1.088-7.456a.763.763 0 0 0 .352-.192c1.472.544 2.912 1.28 3.712 2.56 1.376 2.24-.384 5.12-2.976 5.088Zm42.045.224c-2.272-5.056-4.544-10.08-6.816-15.136-.416-.992-1.952-1.088-2.624-.352-3.072 3.328-5.632 6.912-7.808 10.816a62.5 62.5 0 0 1-6.208-8.736c-.608-1.088-2.304-1.152-2.912 0-2.752 5.088-4.576 10.368-5.44 16.16-.32 2.112 2.912 3.04 3.264.896.672-4.512 1.92-8.704 3.808-12.736 1.984 3.04 4.16 5.888 6.656 8.576.704.768 2.176.608 2.656-.352a52.562 52.562 0 0 1 6.72-10.336c1.92 4.32 3.872 8.608 5.792 12.928.896 1.984 3.808.256 2.912-1.728Zm51.477-13.888c-4.704.512-9.44.64-14.176.352-2.176-.128-2.176 3.264 0 3.392 2.048.128 4.096.16 6.112.16-.096.192-.16.448-.192.736a90.88 90.88 0 0 0 .224 12.864c.192 2.144 3.584 2.176 3.392 0a90.88 90.88 0 0 1-.224-12.864c.032-.352-.032-.608-.16-.832a86.183 86.183 0 0 0 5.024-.416c2.176-.224 2.176-3.616 0-3.392Zm22.114 2.752c-.192-2.176-3.584-2.176-3.424 0 .448 5.472.896 10.912 1.312 16.384.192 2.144 3.584 2.176 3.424 0-.448-5.472-.896-10.912-1.312-16.384Zm-5.344 5.312c-2.432.416-4.896.512-7.36.352a87.02 87.02 0 0 0-1.056-5.632c-.48-2.144-3.744-1.216-3.296.896 1.184 5.28 1.792 10.592 1.888 16.032.032 2.176 3.456 2.176 3.424 0a91.148 91.148 0 0 0-.512-7.872 37.555 37.555 0 0 0 7.808-.512c2.176-.352 1.248-3.616-.896-3.264Zm20.585 9.856c-4.032 1.024-5.28-2.304-5.568-6.272.064 0 .128.032.192.032 1.728.128 3.488-.064 5.152-.64 2.048-.672 1.152-3.936-.928-3.264-1.376.48-2.752.64-4.224.512h-.288c.032-2.688.224-5.216.064-6.528 0-.096-.032-.192-.064-.32.224.064.48.096.704.16l.288.096 2.592.704c2.144.576 2.976-2.56.896-3.264a26.305 26.305 0 0 0-7.712-1.44c-2.176-.064-2.176 3.264-.064 3.392-.064.192-.064.416-.032.672.64 4.896-1.12 10.24 1.024 14.912 1.6 3.456 5.088 5.472 8.864 4.544 2.144-.544 1.248-3.808-.896-3.296Zm47.781-7.456c.832-.992 1.248-2.208.608-4-1.408-3.904-5.664-4.128-9.184-3.68-1.888.256-2.112 2.912-.64 3.36-.16 4.832.192 9.6 1.024 14.4.192 1.12 1.216 1.408 2.048 1.088.128.096.256.16.416.224 4.32 1.44 9.824-.192 10.368-5.312.384-3.616-1.856-5.376-4.64-6.08Zm-2.752-3.2c.608 1.792-2.016 2.464-3.072 3.136a52.29 52.29 0 0 1 0-4.48c1.344 0 2.72.256 3.072 1.344Zm-2.048 11.328a.934.934 0 0 0-.288-.064 67.054 67.054 0 0 1-.576-5.024c.192.064.416.096.672.064 2.144-.224 6.144-.768 6.208 2.368.096 3.296-3.84 3.392-6.016 2.656Zm23.391-.672c-4.032 1.024-5.28-2.304-5.568-6.272.064 0 .128.032.192.032 1.728.128 3.488-.064 5.152-.64 2.048-.672 1.152-3.936-.928-3.264-1.376.48-2.752.64-4.224.512h-.288c.032-2.688.224-5.216.064-6.528 0-.096-.032-.192-.064-.32.224.064.48.096.704.16l.288.096 2.592.704c2.144.576 2.976-2.56.896-3.264a26.305 26.305 0 0 0-7.712-1.44c-2.176-.064-2.176 3.264-.064 3.392-.064.192-.064.416-.032.672.64 4.896-1.12 10.24 1.024 14.912 1.6 3.456 5.088 5.472 8.864 4.544 2.144-.544 1.248-3.808-.896-3.296Zm20.532-17.536c-10.08-4.608-19.968 9.152-12.384 17.28 2.944 3.168 8.416 4.064 11.84 1.12 3.328-2.88 3.456-8.224.256-11.2-1.6-1.504-4 .896-2.4 2.4 2.08 1.92 1.696 5.44-.896 6.784-2.72 1.376-6.048-.352-7.264-2.88-2.72-5.44 2.944-13.408 9.12-10.592 1.984.896 3.712-2.016 1.728-2.912Zm5.417 2.272a60.345 60.345 0 0 0 1.728 13.952c.512 2.112 3.808 1.216 3.296-.896-1.056-4.32-1.6-8.64-1.6-13.056-.032-2.176-3.424-2.176-3.424 0Zm22.73 1.408a27.61 27.61 0 0 0-1.92 7.072c-2.912-3.136-5.824-6.24-8.736-9.344-.8-.864-2.656-.512-2.816.768-.736 5.088-.992 10.176-.64 15.328.16 2.144 3.552 2.176 3.392 0-.224-3.712-.224-7.392.128-11.072 2.944 3.168 5.888 6.336 8.832 9.472 1.056 1.12 2.88.224 2.912-1.184.064-3.552.768-6.848 2.112-10.144.864-2.016-2.432-2.88-3.264-.896Zm21.02 0a27.61 27.61 0 0 0-1.92 7.072c-2.912-3.136-5.824-6.24-8.736-9.344-.8-.864-2.656-.512-2.816.768-.736 5.088-.992 10.176-.64 15.328.16 2.144 3.552 2.176 3.392 0-.224-3.712-.224-7.392.128-11.072 2.944 3.168 5.888 6.336 8.832 9.472 1.056 1.12 2.88.224 2.912-1.184.064-3.552.768-6.848 2.112-10.144.864-2.016-2.432-2.88-3.264-.896Zm6.748-1.408a60.345 60.345 0 0 0 1.728 13.952c.512 2.112 3.808 1.216 3.296-.896-1.056-4.32-1.6-8.64-1.6-13.056-.032-2.176-3.424-2.176-3.424 0Zm22.729 1.408a27.61 27.61 0 0 0-1.92 7.072c-2.912-3.136-5.824-6.24-8.736-9.344-.8-.864-2.656-.512-2.816.768-.736 5.088-.992 10.176-.64 15.328.16 2.144 3.552 2.176 3.392 0-.224-3.712-.224-7.392.128-11.072 2.944 3.168 5.888 6.336 8.832 9.472 1.056 1.12 2.88.224 2.912-1.184.064-3.552.768-6.848 2.112-10.144.864-2.016-2.432-2.88-3.264-.896Zm21.82-3.68c-10.08-4.608-19.968 9.152-12.384 17.28 2.944 3.168 8.416 4.064 11.84 1.12 3.328-2.88 3.456-8.224.256-11.2-1.6-1.504-4 .896-2.4 2.4 2.08 1.92 1.696 5.44-.896 6.784-2.72 1.376-6.048-.352-7.264-2.88-2.72-5.44 2.944-13.408 9.12-10.592 1.984.896 3.712-2.016 1.728-2.912ZM17.4 96.84c.448-.736.384-1.856-.48-2.432a49.096 49.096 0 0 0-4.928-13.248c-.608-1.12-2.336-1.12-2.944 0-1.92 3.616-3.616 7.328-5.152 11.136-1.088.32-1.408 1.6-.96 2.496-.672 1.888-1.344 3.776-1.952 5.728-.64 2.08 2.656 2.976 3.296.896.608-1.952 1.248-3.872 1.984-5.76 2.624.096 5.184.544 7.712 1.28.256 1.344.416 2.688.544 4.064.192 2.144 3.584 2.176 3.392 0-.096-1.408-.288-2.784-.512-4.16Zm-9.856-4.512c.928-2.208 1.92-4.384 2.976-6.56 1.088 2.432 1.984 4.896 2.656 7.456-1.856-.448-3.712-.768-5.632-.896Zm28.012-7.776a27.61 27.61 0 0 0-1.92 7.072c-2.912-3.136-5.824-6.24-8.736-9.344-.8-.864-2.656-.512-2.816.768-.736 5.088-.992 10.176-.64 15.328.16 2.144 3.552 2.176 3.392 0-.224-3.712-.224-7.392.128-11.072 2.944 3.168 5.888 6.336 8.832 9.472 1.056 1.12 2.88.224 2.912-1.184.064-3.552.768-6.848 2.112-10.144.864-2.016-2.432-2.88-3.264-.896Zm7.644 1.44c-.544.256-.864.896-.864 1.472 0 4.384-.032 8.8-.032 13.184 0 1.856 2.368 2.144 3.168.896.224.192.576.32.96.352 11.424.736 5.344-20.16-3.232-15.904Zm3.232 12.512c-.288-.032-.512.032-.736.096.032-3.232.032-6.464.064-9.728 2.752.832 6.56 10.016.672 9.632Zm51.963-7.552c.832-.992 1.248-2.208.608-4-1.408-3.904-5.664-4.128-9.184-3.68-1.888.256-2.112 2.912-.64 3.36-.16 4.832.192 9.6 1.024 14.4.192 1.12 1.216 1.408 2.048 1.088.128.096.256.16.416.224 4.32 1.44 9.824-.192 10.368-5.312.384-3.616-1.856-5.376-4.64-6.08Zm-2.752-3.2c.608 1.792-2.016 2.464-3.072 3.136a52.29 52.29 0 0 1 0-4.48c1.344 0 2.72.256 3.072 1.344ZM93.595 99.08a.934.934 0 0 0-.288-.064 67.054 67.054 0 0 1-.576-5.024c.192.064.416.096.672.064 2.144-.224 6.144-.768 6.208 2.368.096 3.296-3.84 3.392-6.016 2.656Zm23.391-.672c-4.032 1.024-5.28-2.304-5.568-6.272.064 0 .128.032.192.032 1.728.128 3.488-.064 5.152-.64 2.048-.672 1.152-3.936-.928-3.264-1.376.48-2.752.64-4.224.512h-.288c.032-2.688.224-5.216.064-6.528 0-.096-.032-.192-.064-.32.224.064.48.096.704.16l.288.096 2.592.704c2.144.576 2.976-2.56.896-3.264a26.305 26.305 0 0 0-7.712-1.44c-2.176-.064-2.176 3.264-.064 3.392-.064.192-.064.416-.032.672.64 4.896-1.12 10.24 1.024 14.912 1.6 3.456 5.088 5.472 8.864 4.544 2.144-.544 1.248-3.808-.896-3.296Zm23.444-15.872c-.992 1.6-1.984 3.2-3.008 4.768-1.056 1.728-1.088 3.232-3.008 1.952-3.264-2.208-6.368-4.704-9.504-7.04-1.76-1.28-3.488 1.664-1.728 2.944l7.392 5.472c.832.608 1.792 1.536 2.816 2.208a1.71 1.71 0 0 0-.352.768c-.544 2.88-.704 5.728-.416 8.64.224 2.176 3.648 2.176 3.424 0-.288-2.592-.224-5.152.288-7.744.064-.32.032-.608-.064-.896 1.056-.224 1.792-1.024 2.432-1.92 1.696-2.368 3.136-4.992 4.672-7.456 1.184-1.856-1.76-3.552-2.944-1.696Zm20.199 7.584c-.448-4.416-4.832-6.304-8.544-7.488-1.312-.416-2.144.704-2.08 1.76-5.056 3.712-3.584 13.088 3.776 13.152 3.968 0 7.232-3.424 6.848-7.424Zm-6.848 4.032c-4.096-.064-4.672-6.112-1.088-7.456a.763.763 0 0 0 .352-.192c1.472.544 2.912 1.28 3.712 2.56 1.376 2.24-.384 5.12-2.976 5.088Zm24.508-9.6a27.61 27.61 0 0 0-1.92 7.072c-2.912-3.136-5.824-6.24-8.736-9.344-.8-.864-2.656-.512-2.816.768-.736 5.088-.992 10.176-.64 15.328.16 2.144 3.552 2.176 3.392 0-.224-3.712-.224-7.392.128-11.072 2.944 3.168 5.888 6.336 8.832 9.472 1.056 1.12 2.88.224 2.912-1.184.064-3.552.768-6.848 2.112-10.144.864-2.016-2.432-2.88-3.264-.896Zm7.644 1.44c-.544.256-.864.896-.864 1.472 0 4.384-.032 8.8-.032 13.184 0 1.856 2.368 2.144 3.168.896.224.192.576.32.96.352 11.424.736 5.344-20.16-3.232-15.904Zm3.232 12.512c-.288-.032-.512.032-.736.096.032-3.232.032-6.464.064-9.728 2.752.832 6.56 10.016.672 9.632Zm11.274 2.912c2.208 0 2.208-3.392 0-3.392-2.176 0-2.176 3.392 0 3.392Z"/><path stroke="#4D4D4D" stroke-linecap="round" stroke-width="3" d="M10 228.453c14.171 0 31.644 2.968 45.469-.104 1.84-.409 4.513-11.457 5.282-12.947 7.362-14.254 17.368-27.636 26.515-40.808 1.032-1.486 7.037-12.419 8.907-9.528 3.636 5.619 7.394 10.867 10.772 16.779 4.014 7.025 8.808 27.73 15.743 31.693 2.173 1.242 19.931-17.842 23.408-20.922 11.997-10.626 11.964-20.631 26.1-9.321 7.808 6.245 23.246 12.194 28.38 20.921 3.77 6.411 10.804 12.048 15.95 17.194 5.415 5.415 11.563 14.208 15.225 20.922 6.277 11.507 3.833-14.311 3.833-17.608 0-10.778-.743-21.162 1.864-31.59.832-3.327.541-11.303 2.071-13.982 2.278-3.986 12.68-3.249 16.158-7.043 7.01-7.648 12.964-17.319 19.472-25.272 3.188-3.897 5.427-8.756 8.907-12.429 7.015-7.405 17.851-14.365 22.372-23.408"/><path stroke="#4D4D4D" stroke-linecap="round" stroke-width="3" d="M280 121.025c7.288-1.325 14.427-6.176 20.972-9.369 3.18-1.551 5.932-3.475 8.988-5.183.815-.456 2.08-2.473 2.948-2.473 1.087 0-1.519 2.342-1.664 2.52-2.171 2.671-3.917 5.691-5.564 8.703-3.116 5.698-4.725 13.162-5.992 19.498"/></svg>