<svg xmlns="http://www.w3.org/2000/svg" width="174" height="208" fill="none"><path stroke="#4D4D4D" stroke-linecap="round" stroke-width="3" d="M55.598 72.248v69.827m-2.45-66.764c17.64 0 35.666-1.101 53.288 0 .461.029-.085 2.871-.136 3.335-.698 6.373-.476 12.789-.476 19.192 0 5.903-.014 11.742.476 17.627.35 4.199 1.561 8.218 1.94 12.386.455 5.007-.573 9.922.953 14.802.796 2.549-7.775 1.02-8.984.919-6.898-.575-13.741-1.768-20.655-2.11-6.982-.344-13.909-.612-20.894-.612m-4.287-67.989c.504-5.038 7.762-6.95 9.8-11.025m41.651 11.638c.466-1.554 3.206-2.855 4.287-4.152.947-1.136 2.019-2.154 3.063-3.199m-50.839-3.675h48.389"/><path stroke="#4D4D4D" stroke-linecap="round" stroke-width="3" d="M108.274 143.3c0-1.222-.292-2.879.068-4.05.521-1.693 2.811-3.49 2.994-5.138.361-3.245 3.09-7.084 4.9-9.8"/><path stroke="#4D4D4D" stroke-linecap="round" stroke-width="3" d="M114.399 69.799v52.369c0 1.609 1.372 5.966 2.45 7.044M76.15 110.21c0-3.028.277-5.172 3.002-6.92 3.994-2.563 10.43-2.366 12.128 2.728.754 2.261 1.344 5.797.075 7.962-1.305 2.225-3.148 4.553-5.829 5.06-5.085.96-10.045-5.185-10.045-9.946m1.116-10.715c-.95-2.417-2.989-4.56-4.465-6.697-.807-1.169-1.79-2.239-2.678-3.348m1.116 12.5c-1.405 0-2.645-.112-4.018-.397-2.013-.417-3.906-1.835-6.027-1.835m2.232 13.394c1.48 0 3.516.334 4.91-.224m-2.008 12.948c.142-1.28 3.342-2.647 4.191-3.349.85-.702 1.925-1.469 2.605-2.344.352-.452.47-.954 1.017-1.227m4.688 4.91v4.688m9.375-3.571c.18 1.164 1.074 2.13 1.563 3.174.446.953.91 1.893 1.339 2.853.525 1.173.933 2.574 1.34 3.795m.223-14.51c2.236.248 4.303 2.821 6.25 3.795m-2.679-13.394c2.35 0 4.932.223 7.143.223m-10.491-9.152c1.127-.125 2.838-1.413 3.844-2.009.67-.397 1.463-.876 2.183-1.116m-13.84-13.17v13.17"/><path stroke="#4D4D4D" stroke-linecap="round" stroke-width="3" d="M95.979 39.017c0-1.263.447-2.21 1.194-3.253 1.61-2.248 3.474-4.464 5.271-6.568 3.03-3.55 5.833-7.624 9.121-10.913 1.126-1.125 3.297-2.994 3.665-4.653.336-1.513.809 2.967.844 3.315.346 3.42 1.28 6.799 1.936 10.171.936 4.816.947 9.599.947 14.495 0 5.912 6.85 3.485 10.254 2.306 3.414-1.181 6.464-2.951 9.986-3.973 4.477-1.3 8.887-3.273 13.3-4.839 2.852-1.012 5.648-2.729 8.689-3.109 1.679-.21.139.6-.432 1.256-1.909 2.193-3.684 4.547-5.662 6.671-2.785 2.991-5.795 5.707-8.627 8.648-1.704 1.77-2.444 4.572-4.159 6.382-2.45 2.586-4.077 5.802-4.077 9.266 0 1.873 5.599 3.12 7.021 3.706 4.163 1.714 8.247 3.537 12.374 5.353 2.873 1.264 5.545 1.928 8.751 2.615 1.711.367 3.447.927 5.209.927.773 0 .91.447.124.762-5.353 2.14-10.321 5.45-15.896 7.02-2.675.754-6.455 2.527-8.483 4.448-1.209 1.146-2.232 1.78-2.717 3.418-.564 1.901-.56 4.37-.165 6.3.37 1.808 1.149 2.783 1.935 4.159 1.264 2.212 3.541 4.663 5.189 6.671 4.792 5.84 11.169 8.824 18.695 10.192.554.101 1.005.3 1.503.577.804.446-3.606.18-4.262.185-4.493.035-8.968.371-13.465.371-2.235 0-4.429-.095-6.63.288-3.5.609-8.097 1.087-11.036 3.047m-1.112.371c0 1.733-1.112 3.632-1.112 5.58 0 4.218 2.463 8.344 4.9 11.756 4.09 5.726 9.642 10 14.187 15.278 2.172 2.522 4.863 4.935 7.433 7.062 1.126.933 4.715 2.944 3.253 2.944-2.835 0-6.375-1.542-9.101-2.306-4.236-1.186-8.29-3.028-12.518-4.282-4.398-1.305-11.573-3.258-15.731-.371-3.007 2.089-4.531 3.974-5.209 7.742-1.431 7.947-.927 16.349-.927 24.399 0 4.432 1.853 8.679 1.853 12.992 0 1.343-.026-.682-.205-1.092-1.061-2.424-3.097-4.594-4.407-6.897-1.255-2.208-2.095-4.618-3.335-6.836-1.821-3.258-4.033-6.387-6.136-9.471-2.412-3.537-6.015-5.92-9.265-8.607-2.775-2.294-6.481-3.265-10.007-3.706-4.144-.518-7.37.776-10.83 2.965-6.41 4.055-12.391 6.958-16.76 13.445-4.18 6.206-7.586 12.671-11.118 19.231-.18.334-1.264 1.221-1.318.515-.23-2.979-1.693-5.869-2.224-8.813-1.394-7.74-2.078-16.132-4.9-23.513-1.934-5.058-9.262-5.765-14.001-5.765-3.664 0-6.774.395-10.357 1.112-2.487.497-9.932 1.663-7.577.72 1.575-.629 3.71-3.37 4.962-4.509 2.825-2.568 5.765-5.315 8.236-8.236 3.6-4.254 6.136-9.089 6.218-14.865.095-6.641-4.35-11.423-10.603-12.581-2.593-.48-5.372-.324-8.01-.638-2.786-.332-5.664-.866-8.441-1.029-1.065-.063 2.14-.027 3.191-.206 3.4-.581 6.464-1.953 9.595-3.295 3.194-1.369 6.036-2.664 8.915-4.653 2.693-1.86 4.052-5.783 5.189-8.648 1.32-3.328 1.76-6.619 1.647-10.17-.086-2.692-2.816-5.11-4.448-7.043-2.996-3.548-7.804-6.198-11.51-8.977-1.489-1.117-3.15-1.992-4.611-3.13-.56-.434 1.003 1.15 1.873 1.463 5.714 2.056 12.081.193 16.184-3.974 2.766-2.81 5.932-5.715 8.36-8.813.607-.775 1.082-1.426 1.935-1.853"/><path stroke="#4D4D4D" stroke-linecap="round" stroke-width="3" d="M37.245 68.534c.61 0 1.409-.812 1.83-1.203 1.073-.992 1.857-2.436 2.308-3.819 1.754-5.387-.004-10.568-1.123-15.931-.952-4.567-2.176-9.099-4.129-13.35-1.404-3.059-3.169-5.927-4.81-8.859-1.008-1.802-1.704-3.573-3.147-5.057-.184-.19-1.128-1.34-.61-.53 1.619 2.529 4.098 4.692 6.41 6.55a99.314 99.314 0 0 1 8.054 7.197c1.764 1.764 3.549 3.3 5.791 4.439 2.242 1.137 4.234 2.723 6.781 3.04 1.762.221 3.661.888 5.473.381 2.343-.656 4.716-1.58 6.577-3.253 4.318-3.882 5.765-9.947 5.765-15.508 0-6.275.297-12.796-1.185-18.937-.128-.53-.407-2.127-.407-1.582 0 .326.345.688.487.963.516 1.007 1.102 1.967 1.67 2.944 3.25 5.594 6.204 11.326 10.256 16.4 1.649 2.065 3.15 4.194 4.739 6.295 1.076 1.424 1.935 2.914 3.218 4.173 1.354 1.33 3.17 2.053 4.898 2.705.582.22 1.551.687 2.104.319"/></svg>