<svg xmlns="http://www.w3.org/2000/svg" width="1557" height="563" fill="none"><path stroke="#4D4D4D" stroke-linecap="round" stroke-width="3" d="M108.5 101c-3.882-.863-7.374-2.69-11.111-4-4.5-1.577-8.992-2-13.722-2-4.091 0-8.469-.04-12.278 1.722-4.49 2.076-6.598 6.531-8.611 10.75-3.32 6.957-4.278 15.723-4.278 23.278 0 1.787.84 3.25-1.278 3.25-2.852 0-4.957 1.057-7.222 2.389-1.39.818-3.627 3.374-1.75 4.833 1.498 1.165 6.396.278 8.25.278 1.9 0 5.244-.33 7-1.111 1.002-.445 1.904-.389 3-.389 1.645 0 1.275-3.117 1.472-4.5.855-5.98.948-12.058 3.028-17.778 1.945-5.349 5.056-7.309 10.389-8.833 2.175-.622 4.217-.466 6.333.139.675.193 3.268 1.477 2.278 1.972"/><path stroke="#4D4D4D" stroke-linecap="round" stroke-width="3" d="M98.5 117c5.92 0 13.441.559 18-4 3.809-3.809 3.558-10.561 3.972-15.528.533-6.389.028-13.038.028-19.444V72c0-1.615.217.642-.5 1m0-2c5.546-.277 11.701-3.002 16.5-5.5 6.087-3.168 10.325-9.176 13.722-15 1.622-2.78 1.778-6.131 1.778-9.278V38.5c0-1.158.092-.273-1 0m-38.5 16c-2.939 3.4-5.948 6.64-6.611 11.222-.196 1.356-.963 3.852.333 4.889 4.225 3.38 8.276-5.178 9.167-8.056.544-1.758 2.915-15.166-3.111-12.11-5.745 2.912-6.778 11.43-6.778 17.055M126 20c2.534 3.207 4.919 6.26 8.375 8.486 2.054 1.323 4.189 2.615 6.361 3.736 3.087 1.593 6.25 2.349 9.722 2.514 2.44.116 5.146.222 7.542-.236 3.537-.676 6.705-2.266 9.889-3.889 4.118-2.099 10.633-8.115 8.222-13.375-1.133-2.471-3.734-2.92-6.25-3.18-2.971-.308-5.089 1.458-7.111 3.444-1.734 1.702-2.608 3.678-4 5.611a27.603 27.603 0 0 1-4 4.403c-2.124 1.888-4.787 3.482-7.444 4.486-1.539.581-3.667.25-5.306.25-.787 0-1.813-.187-2.556-.445-.487-.168-.795-.603-1.25-.75-.76-.244-1.437-.177-2.194-.555"/><path stroke="#4D4D4D" stroke-linecap="round" stroke-width="3" d="M136.5 29.25c2.061-4.063 3.868-8.123 5.222-12.486.92-2.964 2.371-4.325 4.403-6.514 1.774-1.91 2.469 2.405 2.569 3.389.139 1.351.056 2.74.056 4.097 0 .305-.171 1.973.056.903.593-2.808 3.074-5.988 5.166-7.847 2.159-1.92 2.028 2.255 2.028 3.458 0 2.833-.197 5.661-.25 8.5-.018.99.212 3.5-1 3.5"/><path stroke="#4D4D4D" stroke-linecap="round" stroke-width="3" d="M125.75 20.75c-3.237-3.427-4.971-9.393-2.861-13.778.686-1.425 1.978-4.126 3.778-4.416 1.957-.316 5.145-.037 6.541 1.57 1.156 1.328 1.136 3.58 1.417 5.207.22 1.277.596 2.412.875 3.667.263 1.183 1.467 2.474 2.125 3.486.872 1.342 2.839 2.014 4.375 2.014m-59.5 101c-.22 2.707.221 5.283.25 7.972.033 3.041 0 6.084 0 9.125 0 .787.159 1.752-.014 2.528-.248 1.116-3.71 2.29-4.57 2.764-1.124.621-7.873 5.334-3.277 5.597 1.718.098 3.196-.273 4.861-.597 1.98-.385 4.03-.437 6-.889 2.003-.46 4.073-1 6.125-1 1.274 0 1.96.149 2.82-.806.394-.438.055-2.473.055-3.069 0-.987-.103-14.125-1.25-14.125m15.25-50c-3.882 1.333-7.711 1.765-11.778 2.056-1.954.14-3.94.501-5.903.375-2.864-.185-5.477-1.373-7.819-2.973-4.069-2.778-6.892-6.889-8.194-11.625-.474-1.723-.556-5.333-.556-5.333m34 17.75c-.057 2.21-.71 4.317-1 6.5-.432 3.252-.417 6.744-.125 10.014.149 1.672.045 3.324.375 4.972.095.475.103 1.565.5 1.764M1561 420.685c-25.42 17.58-51.82 32.626-78.67 47.889-14.19 8.068-27.8 17.066-42.55 24.111-10.43 4.976-21.01 9.718-31.28 15-8.26 4.246-17.7 6.783-25.44 11.945-7.25 4.832-13.45 10.323-20 16.055-4.02 3.515-4.87 6.673-10.28 3-11.28-7.655-23.59-13.903-35.78-20-23.88-11.939-49.48-18.839-72.67-32.444-18.39-10.793-37.28-20.989-55.33-32.334-6.54-4.108-12.61-8.854-18.56-13.722-6-4.909-5.35-3.068-9.61 1.611-14 15.399-32.19 26.599-47.27 40.889-15.11 14.315-30.29 28.889-44.56 44.056-7.82 8.313-15.21 17.881-24 25.166-2.03 1.685-7.75 10.097-11 8.556-5.58-2.643-10.58-6.582-16.17-9.278-13.63-6.575-28.478-10.811-42.386-16.833-38.075-16.486-75.191-37.944-110-60.445-65.343-42.238-124.316-94.173-191.389-133.833-31.802-18.805-59.635-43.239-89.5-64.833-16.643-12.035-34.259-23.779-50-37-3.357-2.82-8.611-6.914-11.555-2.334-9.27 14.421-21.665 25.351-33.667 37.445-18.396 18.537-34.367 38.689-50.555 59.111-5.043 6.361-10.115 12.694-15.167 19.056-1.334 1.68-4.144 7.029-6.611 7.166-5.575.31-10.705-5.369-14.667-8.611-15.114-12.366-32.132-21.854-47.833-33.389C312.153 285.573 118.369 142.601 75 113m-12-9c-3.967-2.936-24.314-20.13-28.444-22.76-1.74-1.106-1.769-1.373-.556.445"/><path stroke="#4D4D4D" stroke-linecap="round" stroke-width="3" d="M1564 407.685c-13.48 7.114-25.4 17.421-38.67 25.111-16.56 9.605-32.72 19.788-49.11 29.667-13.72 8.276-28.41 14.61-42.22 22.667-9.91 5.781-20.01 11.255-30.44 16-7.02 3.189-14.3 5.493-21.56 8-7.3 2.523-13.55 7.707-20.5 11.055-4.2 2.022-8.33 4.194-12.5 6.278-5.29 2.647-4.49-1.966-7.44-5.555-7.49-9.101-22.28-14.741-32.62-19.723-17.52-8.447-32.54-20.74-49.94-29.5-17.08-8.6-32.53-19.641-49.17-29-13.08-7.359-27.65-12.328-41.33-18.5-2.78-1.254-15.21-8.347-18.5-5.055-2.19 2.194-3.47 5.689-5.56 8.111-5.91 6.863-12.8 12.541-19.44 18.667-16.35 15.068-31.55 31.348-48 46.277-13.77 12.499-28.14 24.896-40.89 38.445-1.84 1.951-9.57 15.498-13.11 13.833-1.21-.569-.74-1.818-1.22-2.778-.99-1.978-3.49-2.742-5.34-3.555-25.457-11.203-51.081-23.229-74.44-38.445-7.018-4.571-14.434-8.205-21.111-13.333-7.049-5.414-13.653-11.364-20.833-16.611-13.531-9.887-26.708-20.197-40.167-30.167-26.107-19.338-49.876-41.667-76.111-60.889-29.202-21.395-54.287-48.207-84-68.777-26.983-18.681-52.486-38.672-81.278-54.667-10.493-5.83-21.824-9.481-31.722-16.333-8.734-6.047-18.863-10.487-28.334-15.223-2.144-1.072-25.989-15.31-27.444-10.944-2.377 7.131-9.577 13.458-14.667 18.611-9.088 9.202-17.502 19.481-25.833 29.389-16.028 19.061-30.954 39.006-46.056 58.722-5.967 7.791-12.609 14.387-19.444 21.222-1.35 1.351-4.014 6.875-6.444 4.445-3.087-3.087-5.197-7.403-8.556-10.389-12.175-10.823-26.026-20.858-40.056-29.111-8.152-4.796-14.478-11.966-22.722-16.722-9.627-5.555-17.929-13.581-27-20-8.912-6.307-18.839-11.758-28.278-17.223-11.844-6.857-22.297-15.671-33.444-23.555-11.223-7.938-21.013-17.621-32.944-24.667-12.92-7.629-26.265-15.055-38.334-24C165.4 163.289 110.429 126.802 89 110M68.5 97C63.786 92.679 55.603 86.727 50 83.685c-1.791-.972-7.886-5.825-8-8-.195-3.7 5.637-8.042 7.444-11 2.502-4.094 4.72-6.825-1.444-5.944-6.718.96-13.37 1.055-20.222.944-3.386-.054-6.26-1.291-9.556-1.777-3.414-.504-6.835.047-10.222-.723-1.59-.361-7.792-2.634-6 .278 3.735 6.07 7.015 12.856 9.778 19.445 1.676 3.997 5.153 25.182 11.722 23.722 2.408-.535 10.06-22.826 11.5-19.945"/></svg>