<svg xmlns="http://www.w3.org/2000/svg" width="401" height="307" fill="none"><path stroke="#4D4D4D" stroke-linecap="round" stroke-width="3" d="M4.141 224.015c-1.473 12.49-3.225 24.84-1.277 37.361.988 6.354 2.407 12.585 4.027 18.806 2.474 9.497 6.236 22.203 17.362 24.5 9.472 1.955 16.695-3.096 19.194-12.361 2.682-9.945-.963-21.427-3.25-31.084-.24-1.009-1.24-9.982-1.945-5.222-.982 6.63 1.72 13.518 4.5 19.389 2.289 4.831 6.307 11.618 12.64 11 5.242-.511 8.302-6.008 9.722-10.444 2.774-8.67.522-19.334-2.362-27.612-.667-1.917-2.317-5.443-1.333-1.083 2.925 12.956 11.948 27.793 26.222 29.361 5.102.561 9.487.631 13.139-3.611 3.486-4.047 3.301-10.758 1.834-15.528-3.453-11.221-8.396-22.966-14.584-32.972-2.853-4.614-6.492-9.084-10.083-13.139-2.56-2.891-5.218-5.271-8.972-6.361-6.902-2.003-13.147 2.861-16.778 8.472-2.691 4.16-4.835 8.332-5.945 13.195-.512 2.247-.662 4.557-1 6.833-.11.752.23 2.958-.11 2.278-1.362-2.723-1.605-5.987-3-8.778-1.847-3.692-3.816-6.023-7-8.5-6.567-5.107-17.038-4.649-23 1-1.867 1.768-3.386 3.886-5.223 5.722-3.176 3.176-3.278 6.408-3.278 10.778m121-4.5c-10.179 1.796-13.127 13.66-13 22.722.137 9.666 14.487 9.924 21 6.667 2.915-1.458 12.433-9.019 8.5-13.389-3.787-4.208-9.459.434-13.389 1.889-3.288 1.218-5.611.502-5.611-3.389 0-1.644.353-3.065 2-3.889 1.284-.641 3.012-.032 3.889-1.611 1.14-2.052 1.573-4.473.5-6.5-1.039-1.962-3.901-2.984-5.389-1m31-66c-8.048 0-15.689.234-21.472 6.778-8.824 9.985-8.146 23.021-4.528 35.083 4.582 15.274 18.101 33.212 35.611 33.639 7.985.195 14.292-.403 20.139-6.25 3.814-3.813 5.75-8.377 5.75-13.75 0-12.945-18.292 1.264-22.75 2.75-6.099 2.033-12.001-.547-15.639-5.639-3.427-4.798-6.611-12.168-6.611-18.111 0-4.81.182-11.055 4.973-13.75 2.588-1.456 5.397-1.25 8.277-1.25 5.392 0 6.806-9.6 4.639-13.5-.784-1.411-3.348-2.237-4.5-3.389-1.101-1.101-3.805-2.611-5.389-2.611m48.5 62.5c0-8.147-5.444-16.405-8-24-1.477-4.392-3.301-8.65-4.889-13-1.322-3.623-1.967-7.449-3.611-10.972-2.113-4.528-3.274-9.378-4-14.278-.494-3.339-1.871-8.044-.889-11.361 1.172-3.955 5.294-3.957 8.889-3.889 6.251.118 15.113 5.897 19.473 10 6.639 6.249 13.712 12.789 18.638 20.5 3.691 5.777 9.742 10.755 11.639 17.5 1.424 5.061 1.75 9.733 1.75 14.972 0 5.458-6.567 4.172-10 3.028-5.89-1.963-10.175-4.058-13.611-9.389-.288-.447-2.569-3.49-3.278-3.389-.035.005 4.015 5.835 4.362 6.25 2.902 3.483 4.357 10.37 2.25 14.584-2.415 4.828-5.049 6.444-10.334 6.444-3.368 0-4.894-1.257-6.889-3.75-.822-1.028-1.662-3.641-3-2.75"/><path stroke="#4D4D4D" stroke-linecap="round" stroke-width="3" d="M199.141 176.515c.764 4.582 3.133 11.177 6 15m17-49.5c1.001 6.802 5.181 12.318 8.473 18.222 3.545 6.361 6.186 13.409 10.527 19.278 4.123 5.574 7.839 11.392 11.889 17 2.701 3.739 6.446 6.754 11.111 7.889 6.491 1.579 8-6.83 8-11.5 0-5.532-4.124-12.965-7.5-17.278-1.98-2.53-3.536-5.424-5.972-7.555-1.39-1.217.091.576.5.944 1.638 1.474 3.557 2.766 5.306 4.111 3.584 2.757 7.04 5.477 11.139 7.389 2.983 1.392 6.332 2.125 9.416 3.389 3.046 1.248 6.164.779 9.306 1.361 2.954.547 5.555.44 7.805-1.75 6.031-5.868 1.477-13.527-2-19.611-5.312-9.297-12.79-16.733-19.611-24.889-4.122-4.929-9.513-13.41-16.166-14.889-3.201-.711-5.409 2.553-6.417 5.111-2.173 5.516.154 10.825 2.805 15.667 2.656 4.849 4.64 10.256 8.862 14.056 3.512 3.161-1.843-.426-2.973-1.334-7.691-6.18-14.913-13.029-24.5-16.111-3.226-1.037-7.077-.888-10.444-1.5-1.896-.345-3.25-.75-5.167-.111-2.317.773-4.389 2.635-4.389 5.111m53.5-38c0 1.446-.522 13.804 3 14 5.043.28 6.5-4.755 6.5-8.889 0-2.028 1.292-10.611-2-10.611-6.02 0-6.969 5.908-8.5 10.5m70-30.5c-8.288 3.224-16.31 7.132-24.5 10.611-2.788 1.185-5.855 2.363-8.472 3.89-1.468.856-3.026.81-4.528 1.5-2.033.933-4.793 1.562-6.5 2.999-.984.829-3.279 1.558-3.889 2.5-1.085 1.677-2.735 2.324-3.5 4.389-.697 1.883-1.611 3.001-1.611 5.167 0 4.091 1.257 4.407 5 5.055 3.164.548 6.896.849 10-.111 3.31-1.023 6.616-2.696 9.611-4.389 2.521-1.424 5.331-1.98 7.778-3.611.746-.497 1.775-.978 2.306-1.722.204-.286-.659.088-.695.722-.099 1.787.263 3.37.611 5.111 1.337 6.683 2.898 13.91 5.389 20.278 2.159 5.516 3.642 11.551 7 16.5 2.577 3.797 6.231 5.784 10.889 5.611 2.675-.099 3.716-4.623 4-6.611.687-4.807-.201-9.575-2.278-13.889-3.724-7.736-5.048-16.332-8-24.278-.761-2.049-2.501-3.459-3.222-5.333-.877-2.28-1.134-1.889 1.111-1.889 6.997 0 18.279-6.53 18.5-14.5.128-4.606-.541-8.995-5.389-10.61-1.55-.518-3.985-.73-5.611-.279-1.45.403-2.598 1.566-4 2.111-1.709.665-3.72.867-5.5 1.278"/><path stroke="#15CE79" stroke-linecap="round" stroke-width="3" d="M251.641 104.015c9.619 2.271 19.49 1.767 29 4.861 5.811 1.89 11.454 4.007 17.584 4.584 4.183.393 8.333.485 12.527.555 7.127.119 13.738 3.069 20.695 4.25 6.823 1.159 13.398 1.736 20.028 3.861 10.466 3.356 22.002 4.266 31.944 9.167 3.324 1.638 7.292 4.138 10.945 4.722 1.482.237 7.743 2 3.277 2"/><path stroke="#15CE79" stroke-linecap="round" stroke-width="3" d="M360.641 57.015c-5.306 8.462-7.52 17.187-10.277 26.695-2.769 9.547-5.507 19.007-8.723 28.416-2.403 7.031-4.985 14.68-5.972 22.084-.567 4.251-1.713 8.746-3.139 12.805-2.381 6.777-4.122 13.7-6.389 20.5-.447 1.343-3.164 10.168-3.5 10"/><path stroke="#4D4D4D" stroke-linecap="round" stroke-width="3" d="M284.641 75.515c-3.961-10.328-9.39-20.097-14.444-29.916-1.919-3.73-4.075-7.712-5.056-11.806-.537-2.244-1.313-6.985-.194-9.222.989-1.979 4.173-2.605 6.083-2.945 6.405-1.138 12.459 4.37 18 6.89 3.444 1.564 7.296 4.466 10.111 7 1.291 1.16 2.901 1.672 4.25 2.721 1.096.853-.156-1.091-.25-1.277-1.034-2.069-1.819-4.276-2.611-6.445-2.378-6.52-6.091-16.393-3.389-23.389 1.008-2.609 2.485-4.809 5.5-5.083 3.759-.342 5.515 1.391 8 3.972 3.644 3.784 4.637 10.052 5.75 15 1.303 5.788 3.638 11.218 5 16.972 1.391 5.87 4.045 11.64 3.223 17.806-1.028 7.705-15.752.572-19.223-.528-7.243-2.297-14.438-5.69-20.222-10.75-1.576-1.38-2.774-3.12-.805-.278 2.432 3.514 4.862 7.017 7 10.723 2.674 4.635 5.151 11.167 5.75 16.555.479 4.317.138 6.282-3.973 7.75-3.082 1.101-4.244 1.67-7.25 0-2.23-1.24-2.75-3.337-2.75-5.75"/></svg>