<svg xmlns="http://www.w3.org/2000/svg" width="74" height="10" fill="none"><path stroke="#B7B5B5" stroke-linecap="round" stroke-width="2" d="M1 8.118c.076-.01.555-.318.647-.384.249-.177.559-.281.79-.455.71-.531 1.513-.96 2.21-1.528.79-.642 1.832-1.27 2.758-1.73.72-.359 1.179-.756 2.007-.756.897 0 2.213.936 2.882 1.39 1.222.83 2.605 1.45 3.876 2.217 1.615.973 3.681 1.27 5.418 2.024.336.146.458.155.765-.083.94-.73 1.606-1.645 2.64-2.3 2.584-1.64 5.47-2.839 8.007-4.518.25-.165.521-.276.765-.455.257-.189 1.843 1.052 2.11 1.21 1.6.943 3.268 1.736 4.896 2.624 1.14.622 2.44 1.253 3.673 1.713.972.363 1.966.707 2.909 1.138.43.197.472.55.843.21.644-.59 1.645-.962 2.425-1.36 1.02-.52 2.09-.978 3.078-1.551.982-.57 1.849-1.27 2.857-1.803.573-.304 1.186-.5 1.745-.833.83-.495 1.582-1.07 2.438-1.54.383-.21.549-.362.993-.347.45.015.838.26 1.203.48 1.088.652 2.206 1.254 3.3 1.898 1.594.938 3.35 1.825 4.7 3.061.628.576 1.671 1.172 2.065 1.893"/></svg>