<svg xmlns="http://www.w3.org/2000/svg" width="1293" height="363" fill="none"><path stroke="#4D4D4D" stroke-linecap="round" stroke-width="3" d="M992 238c8.25-4.204 16.07-8.841 23.67-14.167 7-4.911 16.43-10.547 18.77-19.444 2.85-10.799 3.75-22.071 4.56-33.167 1.36-18.573 2-36.955 2-55.555 0-8.577-3.07 16.979-3 25.555.15 17.273 8.01 31.878 12.5 48.111 3.3 11.925 9.65 18.185 18.28 26.445 7.58 7.263 14.07 12.992 24.83 14.667 5.16.802 10.72 1.458 15.95 1.555 3.68.068 4.75-.509.44.222-12.19 2.07-22.68 7.3-32.44 14.778-28.83 22.077-37.43 60.131-42.56 94.222-.78 5.166-1 10.18-1 15.389 0 5.78 1.93-11.409 2.44-17.166 1.78-20.028 1.56-40.14 1.56-60.223 0-9.9-3.59-19.269-9.56-27.222-3.17-4.237-8.05-11.281-13.44-12.778-4.31-1.196-22.675-10.198-25-3.222M61 99c11.027-7.045 16.726-13.195 23.333-24.111 4.063-6.711 6.76-14.167 8.111-21.889.604-3.45.556-11.878.556-3.778 0 6.228.771 12.313 3.056 18.167 2.855 7.316 7.952 14.998 15.722 17.389.355.11 4.653.337 3.555 1.278-3.05 2.614-6.713 4.26-9.555 7.166-3.896 3.985-5.512 9.584-7.778 14.556-2.1 4.607-4.833 8.832-6.444 13.667-1.735 5.204-.17.247.222-2.445.694-4.776.564-10.386-1.278-14.889-2.524-6.17-8.265-7.11-14.278-7.11C74.687 97 61.37 98.368 65 102m567-57c8.534-13.983 13.802-25.955 16.944-41.667C650.395-3.922 647 18.046 647 25.445c0 8.267 2.442 9.151 9.556 10.777 6.681 1.527-1.05 1.45-2.556 2.223-6.195 3.18-8.973 12.39-10.5 18.5-.934 3.737-.5 10.2-.5 2 0-6.704-2.697-23.248-12-13.945m497 99c5.54-3.472 11.46-9.229 17-12m8-9 9-9m-36-6c4.22 4.901 8.01 8.259 13 12m19 22c3.04 4.067 4.94 7.588 7 12M673 340c2.997-3.058 5.692-6.353 9-9m-18 18c-2.502 3.728-4.803 7.804-8 11m-6-26c2.811 1.253 10.524 3.047 12 6m13 13c2.533 2.533 4.469 5.469 7 8M549 30c3.79 4.773 10.908 6.362 14 11m6 7c4.459 2.905 9.636 5.545 11 11m-7-17c1.669-4.052 5.021-7.02 8-10m-26 22c-3.61 4.595-6.951 9.95-11 14M6 136c8.782-8.4 24-22.107 24-36.278 0-7.006-.89 14.864 2.778 20.834C36.588 126.758 44.543 129 51.5 129c1.55 0 2.563-.335.278.222-3.566.87-6.61 4.171-8.778 7-6.083 7.942-6.825 18.588-11.444 27.167-1.497 2.78-.556-2.788-.556-3.944 0-4.356.087-8.49-2-12.445-2.529-4.791-24.838-13.484-27-7m1254 85c11.6-3.404 19.43-7.479 21.22-20 1.42-9.953.78-.127.78 4 0 5.743 1.82 14.225 7.78 16.778.93.4 2.19 1.222 3.22 1.222.99 0 2.47-1.486 2.33-1.389-4.91 3.509-10.31 5.587-14.33 10.5-2.34 2.859-3 14.36-3 10.667 0-6.863-.71-13.822-7-18.111-4.67-3.186-11.9-1.517-17-.667"/></svg>