<svg width="42" height="21" viewBox="0 0 42 21" fill="none" xmlns="http://www.w3.org/2000/svg">
<path d="M1.71436 1.21167C1.81129 4.60441 2.42812 7.95424 2.49261 11.3722C2.52078 12.8654 7.66156 12.1072 8.76184 12.1072C13.026 12.1072 17.2418 11.5278 21.4949 11.3505C27.4909 11.1007 33.4123 10.9398 39.4595 10.9398" stroke="#B7B5B5" stroke-width="2" stroke-linecap="round"/>
<path d="M26.6183 4.71362C28.6187 4.89547 30.3107 6.24755 32.2607 6.68087C34.2155 7.11529 36.2042 7.90825 37.903 8.90753C38.7563 9.40951 39.6017 10.0635 40.4539 10.5505C42.1503 11.5199 39.4393 12.0744 38.4867 12.7339C34.5604 15.4521 30.0327 17.4041 25.8401 19.5004" stroke="#B7B5B5" stroke-width="2" stroke-linecap="round"/>
</svg>
