<svg xmlns="http://www.w3.org/2000/svg" width="42" height="21" fill="none"><path stroke="#B7B5B5" stroke-linecap="round" stroke-width="2" d="M1.714 1.212c.097 3.392.714 6.742.779 10.16.028 1.493 5.169.735 6.269.735 4.264 0 8.48-.58 12.733-.756 5.996-.25 11.917-.411 17.964-.411"/><path stroke="#B7B5B5" stroke-linecap="round" stroke-width="2" d="M26.618 4.714c2 .181 3.693 1.534 5.643 1.967a19.917 19.917 0 0 1 5.642 2.227c.853.502 1.699 1.155 2.55 1.643 1.697.969-1.014 1.523-1.966 2.183-3.927 2.718-8.454 4.67-12.647 6.766"/></svg>