<svg xmlns="http://www.w3.org/2000/svg" width="303" height="400" fill="none"><path stroke="#15CE79" stroke-linecap="round" stroke-width="3" d="M154.994 291c.897 5.196 1.851 10.41 1.167 15.694-.619 4.784-2.476 9.483-4.167 13.973-2.059 5.469-4.737 11.693-10.028 14.805-2.536 1.492-5.378 3.396-8.083 4.528-.335.14-3.784 1-2.778 1 6.88 0 14.342-.846 20.111-5 5.88-4.233 11.249-10.497 14-17.25 2.231-5.475 2.278-11.812 2.278-17.639 0-3.435.502-8.107-.75-11.361-.948-2.466-2.996-3.25-5.861-3.25-1.36 0-4.282.08-4.389 2-.048.868-.272 2.114.5 2.5m22-5c6.838 14.434 4.848 35.93-6.722 47.5-3.09 3.09-13.931 10.231-9.861 8.639 3.34-1.307 6.551-3.877 9.528-5.861 4.545-3.031 9.13-6.409 13-10.278 4.87-4.87 8.82-13.835 9.055-20.778.175-5.142.789-11.485-.75-16.444-1.061-3.419-2.402-7.684-6.639-7.778-4.171-.093-6.731 1.101-7.611 5.5m21-17c7.264 13.246 11.725 30.373 2.778 43.972-.895 1.36-2.485 3.27-2.695 4.945-.218 1.749 3.978-1.157 4.195-1.306 6.987-4.819 11.089-11.45 13.111-19.611 1.573-6.349 1.611-13.686 1.611-20.222 0-5.548-2.325-11.546-6.472-15.278-3.273-2.946-7.204-2.098-10.139 1.222-1.821 2.06-4.415 5.462-1.389 7.278m21.5-22c2.136 6.115 7.548 10.267 8.722 16.778 1.075 5.961 1.278 11.851 1.278 17.889 0 4.838 3.158-1.141 3.972-2.973 2.623-5.901 3.028-13.278 3.028-19.639 0-7.474-3.132-17.201-11.111-19.555-2.529-.746-5.386-1.136-6.917 1.389-1.073 1.771-1.86 3.807-1.972 5.889-.067 1.257.198 1.422-1 1.722"/><path stroke="#15CE79" stroke-linecap="round" stroke-width="3" d="M139.494 284.5a172.141 172.141 0 0 0-1.5 26.278c.06 3.244 1.013 6.66 2.667 9.416.718 1.197-2.605-1.049-3.778-1.805-3.22-2.075-6.548-6.743-7.611-10.417-1.154-3.985-1.278-8.109-1.278-12.222 0-3.492 1.416-5.606 3.611-8.25.984-1.185 3.539-4.751 5.417-3.695 1.888 1.063 3.047 1.695.472 1.695m-17-9.5c-4.629 14.231-7.86 27.511-5.611 42.444.769 5.107 2.954 11.251 2.083 16.473-.115.693-2.226-2.552-2.472-2.917-1.604-2.385-3.009-4.746-4.278-7.333-3.858-7.871-5.222-17.133-5.222-25.834 0-5.522.346-12.217 3-17.222 1.952-3.681 3.506-7.837 7-10.361 2.329-1.682 5.417-4.004 7.167-.028 1.465 3.33-1.112 4.426-3.667 5.278m-20-21.5c-4.711 6.336-8.631 12.462-10.778 20.111-1.962 6.992-2.943 14.434-3.444 21.667-.61 8.8-.982 17.459 2 25.777 1.277 3.564.722-6.39.722-7.138 0-9.659 1.552-20.026 4.528-29.25 1.923-5.961 5.465-11.264 9.583-15.889 2.057-2.31 6.889-4.787 6.889-8.278 0-2.548.043-5.724-2.722-7-2.651-1.224-7.734-.63-8.778 2.5m-14.5-22.5c-5.618 2.784-8.94 5.438-11.667 11.167-1.933 4.062-2.883 8.463-3.833 12.833-1.76 8.098-2.464 16.872.722 24.695 2.224 5.457 1.215-1.81 1.39-4.195.617-8.443 3.41-17.114 8.166-24.167 2.481-3.679 6.371-7.435 9.944-10.055 1.662-1.219 3.974-2.311 4.667-4.389 2.722-8.165-10.389-11.901-10.389-4.389m146-11.5c.315 2.147 4.605 16.698 1 18.5m-1.5 13c-2.599 4.084-5.075 8.075-8.5 11.5m-11 10.5c-3.743 3.373-7.294 5.977-11.5 8.5m-12 6c-4.207.055-7.964.991-12 2m-16 .5c-4.205-.498-8.2-1.209-11.889-3.389-1.2-.709-2.3-1.674-3.611-2.111"/><path stroke="#15CE79" stroke-linecap="round" stroke-width="3" d="M124.994 286.5c-1.598-1.598-3.335-3.059-4.5-5m-11.5-10c-.651-1.882-1.285-4-3.5-4m-13-10.5c-.583-1.474-1.46-5.23-3-6m-11-13.5c-1.88-3.16-2.921-6.156-4.222-9.5-.652-1.675-.767-3.483-1.778-5"/></svg>