<svg xmlns="http://www.w3.org/2000/svg" width="303" height="400" fill="none"><path stroke="#15CE79" stroke-linecap="round" stroke-width="3" d="M221.118 75.397c-1.937-1.869-4.44-3.407-5.694-5.862-1.734-3.392-2.335-8.762-1.5-12.472 1.773-7.883 8.87 1.324 10.305 3.945 1.211 2.211 1.889 4.312 1.889 6.833 0 2.015.753-1.382 1.028-2 1.579-3.553 3.342-6.707 6.25-9.389 2.399-2.213 7.516-5.34 7.555.389.029 4.256-2.418 7.475-5.305 10.278-1.16 1.125-2.223 2.39-3.472 3.416-.471.387-1.811.577-1.473 1.084.115.171 5.872-2.921 6.528-3.111 3.082-.894 7.801-1.884 10.278.833 6.524 7.156-4.612 9.056-9.583 9.056-2.034 0-4.642-.69-1.528.555 3.008 1.204 4.833 3.052 5.166 6.389.476 4.759-6.359 11.724-10.833 7.445-1.405-1.345-2.416-3.662-2.583-5.584-.195-2.24-.612 2.262-.778 2.945-1.267 5.208-6.511 10.211-12.25 8.138-5.33-1.924-5.394-10.704-3.722-15.11.862-2.275 2.724-3.623 4.5-5.167.2-.174 4.468-3.566 4.5-2.89.108 2.276-1.73 4.483.333 6.473 2.235 2.155 7.072 2.458 9.833 1.25 4.593-2.01 5.751-9.581 1.834-12.833-3.334-2.768-9.103.862-10.278 4.389m-139.498.499c-1.694 4.788-1.72 11.714 4.666 12.778 4.657.776 6.455-6.394 6.222-9.778-.26-3.773-2.591-7.114-6.639-6.916-3.09.15-4.8 2.501-6.25 4.916"/><path stroke="#15CE79" stroke-linecap="round" stroke-width="3" d="M84.619 72.397c-.069-6.373 2.623-11.155 6.611-16 2.864-3.48 7.031-8.689 11.778-9.612 4.028-.783 1.685 7.086 1.166 8.556-1.816 5.15-4.433 9.662-7.722 13.972-.265.348-3.222 3.861-1.5 3.861 3.417 0 6.925-2.372 10.306-2.944 9.08-1.537 5.362 8.166.139 11.055-2.634 1.457-5.495 1.575-8.417 1.862-1.576.154-4.31-.152-1.361.36 6.613 1.15 12.64 11.805 7.167 17.278-6.309 6.309-13.552-1.92-16.056-7.555-.742-1.67-.515-1.787-.889.083-.627 3.136-.959 6.714-2.944 9.361-3.247 4.329-10.897 6.615-11.473-.639-.4-5.057.801-10.561 2.806-15.194.318-.735 1.873-5.333 3.111-5.333 1.024 0-.345 1.397-.833 1.5-1.59.332-3.263.565-4.89.333-4.16-.594-5.615-9.057-4.944-12.417.72-3.6 11.134-1.102 13.223-.028.94.484-1.58-.4-2.25-1.305-1.874-2.529-2.528-5.603-2.528-8.694 0-3.263.165-8.236 2.778-10.64 2.316-2.13 5.1 1.226 6.11 3.14 2.05 3.882 2.112 13 2.112 13m98-31c-.564-7.79.333-15.691 9.389-17.278 6.848-1.2 5.011 7.006 3.111 10.666-1.349 2.599-3.057 4.905-4.861 7.195-1.699 2.156 1.252-.338 1.917-.695 1.983-1.062 13.77-6.994 15.083-2.472 1.421 4.894-4.56 7.99-8.083 9.556-3.526 1.567.556 1.593.889 4.583.369 3.323-1.637 5.72-4.973 5.917-2.989.176-9.606.186-11.361-2.972-.465-.838.773.378.889.61a9.138 9.138 0 0 1 .889 5.167c-.48 3.788-4.822 4.562-7.833 3.056-3.319-1.66-8.294-5.976-8.945-9.945-.621-3.791 4.596-3.963 7.056-5.11.656-.307-3.752.772-5.167.694-4.974-.277-6.304-5.361-4.916-9.611 3.032-9.288 12.946-1.772 14.916 4.139"/><path stroke="#15CE79" stroke-linecap="round" stroke-width="3" d="M186.118 40.397c-2.087 1.872-11.726 10.251-3.889 11.777 3.874.754 8.564-1.571 9.473-5.555.6-2.63-.296-6.313-3.417-6.778-3.948-.588-5.587 2.533-6.667 5.556m51.002 85.499c-.159 5.457-1.704 23.945 9.583 17.084 3.759-2.285 6.302-10.162 4-14.084-2.066-3.521-7.602-4.688-11.361-3.666-1.478.401-4.244 2.155-2.222 3.166"/><path stroke="#15CE79" stroke-linecap="round" stroke-width="3" d="M234.12 131.396c.377-5.386.018-11.925 4.277-16 2.97-2.84 7.721-5.068 11.889-4.833 7.801.44 6.344 9.327 3.111 13.833-1.837 2.561-4.023 4.968-6.222 7.223-1.71 1.753-.94 1.18 1.139.75 6.989-1.446 15.44-.319 19.833 6.111 4.923 7.203-5.435 9.06-10.305 9.305-2.981.15-5.689-.366-8.556-1.083-1.038-.26-1.861-.584-.333-.083 5.413 1.774 9.426 7.645 8.694 13.416-1.033 8.154-11.885 9.496-17.889 6.695-4.121-1.923-7.983-6.697-7.027-11.611.204-1.051.32.37.277.611-.466 2.628-1.956 5.102-4 6.805-5.255 4.38-12.812 3.81-14.055-3.75-1.24-7.537 4.721-14.77 11-18.055.399-.209 1.684-.505 1.333-.222-1.789 1.443-4.893 1.732-7.083 1.805-4.814.161-11.025-4.469-7.556-9.722 3.239-4.904 17.592-11.996 21.195-4.083.708 1.556.427 4.992-1.222 6-1.316.803-2.868-1.916-3.5-2.612m-152 12c1.543-6.368 3.473-12.848 4.194-19.388.177-1.606.381-4.066-1.25-5.167-4.462-3.013-7.84 6.17-8.556 8.833-1.17 4.356-.888 8.925-.888 13.389 0 1.23-.762-3.859-1.195-4.75-2.813-5.791-8.512-11.491-14.639-13.639-4.37-1.532-8 1.528-8 6.028 0 5.905 6.271 10.627 11.111 12.861 1.336.617 5.854 1.351 5.723 1.361a45.02 45.02 0 0 0-10.973 2.306c-3.908 1.349-11.854 5.867-11.083 11.055.783 5.27 10.64 4.436 14 3.973 2.597-.359 5.257-.93 7.5-2.362.896-.571 3.108-2.021 2.111-2.388-3.225-1.189-8.103 8.125-8.861 9.916-1.52 3.592-3.28 10.886 2.417 11.75 5.616.853 9.27-6.107 10.944-10.416 1.101-2.836 2.928-11.619 1.333-9.028-1.382 2.245-.053 7.433.945 9.555 1.679 3.572 6.042 6.76 10.139 6.445 4.195-.323 4.86-4.835 4.305-8.222-.603-3.685-3.166-6.407-5.389-9.223-1.108-1.404 1.765-.889 2.445-.889 3.291 0 9.328 1.008 11.778-1.833 2.152-2.497.489-6.727-1.667-8.555-3.731-3.166-8.947-3.939-13.667-4.084-3.83-.118-8.57-.729-12.389.084-5.75 1.223-10.948 5.365-8.222 12 1.494 3.636 5.784 6.66 9.778 5.222 3.836-1.381 4.699-5.912 4.444-9.5-.2-2.841-2.022-6.378-4.888-7.334m-23.501-48.5c.408-5.633 1.934-12.573-.584-17.944-1.164-2.485-3.307-5.754-6.388-5.917-3.092-.162-5.02 3.856-5.64 6.334-.783 3.133.055 6.165 1.584 8.916.45.81 2.337 2.491 1.417 2.39-1.182-.132-3.015-2.25-4.39-2.668-2.71-.822-5.955-.966-8.11 1.167-2.32 2.296-4.307 6.295-1.945 9.222 2.083 2.582 5.544 3.266 8.639 3.695.406.056 5.056.156 2.25-.195-6.572-.821-12.643 1.625-11.194 9.445 1.037 5.602 9.52 6.125 13.25 3.167.907-.721 2.093 2.191 2.61 2.777 1.666 1.886 3.926 2.346 6.279 1.389 2.076-.845 3.07-2.761 3.666-4.805.475-1.628.556-6.751.556-5.056 0 3.87 5.255 4.961 6.916 1.472 2.426-5.094-.262-10.827-5.25-13.166-2.597-1.219-5.732-1.607-8.333-.223-.168.09-2.267 1.399-1.722 1.89.968.871 4.127-.937 2.722-1.64-6.4-3.2-11.509 4.855-10.389 10.556.546 2.779 3.539 3.296 5.945 3.083 3.598-.318 5.46-3.146 6.277-6.444.365-1.47-1.868-7.542-3.166-4.945"/><path stroke="#15CE79" stroke-linecap="round" stroke-width="3" d="M81.62 159.896c7.119 5.99 14.668 11.385 21.36 17.889 4.593 4.464 9.119 8.747 14.139 12.723 3.944 3.123 7.39 6.379 10.472 10.361 2.006 2.59 3.823 5.182 5.528 7.972 1.493 2.442 3.641 4.325 4.889 6.944.331.695 3.611 6.242 3.611 4.111m-40-120.499c8.309 8.308 17.014 16.462 24.083 25.888 6.875 9.166 10.706 20.921 14.528 31.611 2.695 7.538 5.857 14.905 8.389 22.5 2.008 6.024 2.312 11.985 3.278 18.195.875 5.628 2.222 11.604 2.222 17.305v5.5c0 2.68-.305.753-.5-1m59.5-120.999c-6.883 14.147-12.822 28.848-19.222 43.222-6.881 15.453-13.319 31.439-18.167 47.666-2.354 7.882-5.772 15.411-7.833 23.361-.378 1.459-1.778 8.968-1.778 3.75m49.5-55c-15.622 12.245-26.555 30.231-37.5 46.5-1.416 2.106-2.944 4.111-4.5 6.112-1.088 1.398-3.075 3.161-3.5 4.861-.172.688-.806 5.109-1.5 3.027M53.62 108.396c5.837 2.503 12.379 8.782 15.388 14.5 1.26 2.395 3.111 4.178 3.111 7m105.5 89.501c.102 1.426 1.288-1.24 1.5-1.612 1.544-2.711 2.921-5.506 5.111-7.777 5.485-5.689 11.577-11.112 17.778-16 4.5-3.547 9.267-6.171 14.889-7.5 4.986-1.179 13.376-1.931 18 .777 3.126 1.831 6.579 4.071 8.389 7.278 1.543 2.737 2.424 6.015 3.555 8.945.454 1.174 1.71 3.155 1.778 4.389.054.967-.5 2.935-.5 1m5 .999c-6.761 1.716-11.5 3.918-11.5 11.611 0 2.533 1.375 4.542 3.111 6.278 2.635 2.635-6.704-4.911-10.361-4.194-2.587.507-4.594 3.352-3.416 5.916 1.246 2.716 4.511 3.228 7.138 3.612 2.275.331 4.521.214 6.806.277 1.785.05-1.205 2.435-1.528 2.778-2.206 2.34-5.576 9.535.972 9.083 2.141-.147 3.949-3.178 4.778-4.861.704-1.427 1-6.257 1-4.666 0 3.647.816 9.165 5.167 10.055 4.013.821 4.375-9.15 3.222-11.278-.158-.291-2.624-2.913-2.805-2.277-.311 1.086 1.946 3.215 2.638 3.777 3.468 2.813 10.483-.887 9.195-5.611-.801-2.936-6.238-6.578-9.083-4.25-.659.539 2.254-1.346 2.777-1.972 1.71-2.044 2.725-4.332 2.861-7 .282-5.498-5.924-6.542-10.166-7.5-1.782-.402-3.877-.583-5.195.945-1.126 1.305-2.281 3.442-.611 4.277"/><path stroke="#15CE79" stroke-linecap="round" stroke-width="3" d="M255.119 222.896c-5.122-.122-12.368 2.949-11.417 8.973.821 5.201 8.629 4.834 11.083 1.194 2.301-3.411 2.892-9.574-.166-12.722-2.698-2.777-6.768-1.152-9.5.555"/></svg>