<svg width="721" height="2344" viewBox="0 0 721 2344" fill="none" xmlns="http://www.w3.org/2000/svg">
<path d="M589.891 148.017C582.713 165.512 598.854 180.469 614.335 185.795C626.573 190.005 654.812 190.728 649.891 170.462C647.956 162.495 641.049 153.924 636.891 146.795C636.235 145.672 645.369 151.201 647.002 152.017C654.449 155.741 662.282 158.118 670.669 158.017C680.745 157.896 698.803 145.997 694.446 134.017C689.783 121.193 668.441 116.408 656.891 115.24C655.968 115.146 643.039 115.194 643.169 115.517C644.612 119.126 655.753 109.71 656.669 108.795C666.455 99.0088 667.443 82.3759 652.224 77.2396C636.549 71.9493 610.824 84.2685 608.113 101.351C607.547 104.918 608.619 115.71 607.835 112.184C606.472 106.047 604.077 101.601 598.669 98.0173C588.985 91.6005 559.372 81.9849 556.113 101.24C553.854 114.587 575.142 121.546 584.891 124.795C586.157 125.217 584.788 123.169 584.669 123.017C582.946 120.832 580.217 120.075 577.613 119.517C568.858 117.641 562.151 117.52 554.891 123.017C544.976 130.524 543.306 145.727 556.113 151.017C568.672 156.205 579.884 147.017 591.891 147.017" stroke="#4D4D4D" stroke-width="3" stroke-linecap="round"/>
<path d="M627.891 120.017C619.907 120.199 612.989 123.246 608.946 130.573C603.771 139.954 610.353 142.467 618.946 141.962C630.265 141.296 641.85 123.017 625.891 123.017" stroke="#4D4D4D" stroke-width="3" stroke-linecap="round"/>
<path d="M436.891 140.017C438.84 135.144 443.466 123.573 436.335 120.517C429.027 117.385 421.268 121.039 418.891 128.795C418.039 131.575 417.891 134.359 417.891 137.24C417.891 138.772 416.649 135.004 415.168 134.017C407.239 128.731 390.784 127.451 384.946 136.573C379.81 144.598 385.668 148.216 392.891 150.795C394.663 151.428 407.502 151.408 407.835 152.573C408.38 154.482 404.871 157.172 404.002 158.573C401.818 162.091 400.891 166.699 400.891 170.795C400.891 178.243 407.979 183.212 414.113 177.351C419.541 172.164 418.181 168.75 419.946 162.573C420.406 160.962 422.297 164.773 422.446 165.017C424.502 168.381 428.806 169.701 432.446 170.573C440.662 172.54 449.647 169.546 454.668 162.573C458.986 156.576 451.316 152.017 445.946 152.017C442.132 152.017 454.378 152.079 456.113 151.795C461.039 150.988 466.136 146.388 464.779 140.962C461.75 128.843 443.704 141.079 437.891 143.017" stroke="#4D4D4D" stroke-width="3" stroke-linecap="round"/>
<path d="M420.89 146.017C417.348 155.937 428.89 156.888 428.89 148.017C428.89 140.901 421.66 145.402 422.89 146.017" stroke="#4D4D4D" stroke-width="3" stroke-linecap="round"/>
<path d="M587.891 165.017C584.734 171.331 580.877 177.524 577.224 183.573C567.304 199.998 559.249 218.804 551.557 236.351C532.904 278.903 523.633 323.51 515.335 368.906C509.423 401.247 508.698 434.989 501.113 467.017C499.945 471.949 498.68 476.847 497.668 481.795C496.919 485.459 497.175 489.21 496.113 492.795C494.228 499.155 495.147 506.163 494.113 513.017C492.96 520.653 493.891 529.063 493.891 536.795C493.891 540.577 493.902 550.071 491.891 541.017" stroke="#4D4D4D" stroke-width="3" stroke-linecap="round"/>
<path d="M422.891 168.017C443.691 204.226 443.371 249.845 446.891 290.073C451.81 346.295 453.891 402.817 453.891 459.24C453.891 473.046 454.146 487.584 452.335 501.295C451.271 509.349 451.184 518.127 449.391 526.017C447.745 533.258 445.891 555.443 445.891 548.017" stroke="#4D4D4D" stroke-width="3" stroke-linecap="round"/>
<path d="M508.891 554.017C513.172 509.781 525.004 467.096 540.78 425.684C548.309 405.919 556.769 387.323 568.002 369.351C572.266 362.528 579.916 354.917 581.891 347.017" stroke="#4D4D4D" stroke-width="3" stroke-linecap="round"/>
<path d="M604.891 317.017C594.994 314.818 582.436 310.046 573.446 317.128C569.366 320.344 564.86 325.738 563.335 330.795C560.105 341.506 579.457 341.158 585.891 339.573C587.323 339.22 591.568 337.823 592.224 336.073C592.281 335.922 585.922 341.037 584.891 342.24C579.613 348.397 570.001 366.906 585.947 366.906C596.39 366.906 604.002 354.435 610.391 347.573C612.071 345.768 616.721 342.744 616.891 340.017C617.046 337.533 614.897 344.625 614.446 347.073C613.452 352.473 612.806 373.509 623.946 369.795C633.379 366.651 636.06 350.39 631.891 342.684C630.052 339.284 624.006 334.308 631.113 335.24C641.431 336.593 648.457 330.065 649.669 319.462C651.192 306.13 630.188 312.88 625.113 317.017C623.902 318.005 619.002 321.51 619.002 323.406C619.002 326.951 622.665 317.288 623.891 313.962C626.766 306.159 627.262 292.305 615.391 293.184C611.659 293.46 608.571 298.014 607.335 301.24C606.598 303.165 607.601 309.321 606.835 307.406C605.279 303.516 601.256 307.487 600.946 309.962C600.425 314.131 604.891 315.176 604.891 319.017" stroke="#4D4D4D" stroke-width="3" stroke-linecap="round"/>
<path d="M606.891 329.017C603.3 327.883 601.276 331.027 600.113 334.017C599.366 335.938 607.853 334.524 608.891 333.573C614.491 328.439 608.681 323.436 606.891 327.017" stroke="#4D4D4D" stroke-width="3" stroke-linecap="round"/>
<path d="M678.59 246.115C669.513 243.49 660.191 240.714 652.59 248.115C645.921 254.609 649.104 259.507 657.534 261.504C660.967 262.317 664.534 262.115 668.034 262.115C669.629 262.115 673.171 261.193 670.59 262.559C661.545 267.348 657.168 278.844 659.201 288.559C661.268 298.435 672.047 300.686 679.145 294.448C682.875 291.171 686.257 287.356 688.034 282.671C688.215 282.194 689.942 276.385 690.812 276.559C691.882 276.773 693.702 281.203 694.59 282.115C697.232 284.831 700.407 286.826 704.256 287.059C714.051 287.653 719.908 281.36 718.368 271.559C717.062 263.253 708.892 261.706 702.034 262.893C699.76 263.286 698.377 264.477 701.034 262.671C704.921 260.028 709.285 256.391 711.423 252.115C715.093 244.776 712.757 237.35 705.812 233.337C698.425 229.069 692.999 235.842 690.201 242.059C689.407 243.824 689.398 250.311 688.534 245.559C687.898 242.061 683.014 233.462 678.368 236.559C674.513 239.129 674.898 247.046 675.701 251.059C676.891 257.009 679.59 254.984 679.59 250.115" stroke="#4D4D4D" stroke-width="3" stroke-linecap="round"/>
<path d="M498.743 214.492C497.484 209.848 496.617 200.357 490.783 198.726C485.55 197.263 481.376 202.333 479.865 206.783C477.979 212.343 479.26 215.712 484.213 218.5C487.95 220.605 485.592 218.748 481.559 219.908C470.593 223.063 463.082 242.057 478.722 243.632C484.617 244.226 488.303 242.097 492.297 238.02C493.184 237.114 495.313 232.068 495.733 234.402C496.622 239.346 505.981 244.58 510.906 243.412C515.665 242.283 517.438 238.433 517.884 234.008C518.295 229.925 516.109 227.169 512.766 224.95C507.719 221.6 512.753 222.72 516.473 220.298C523.036 216.026 530.14 201.685 517.25 200.387C512.37 199.895 498.116 214.624 501.528 216.782" stroke="#4D4D4D" stroke-width="3" stroke-linecap="round"/>
<path d="M392.033 284.908C387.608 283.019 379.621 277.818 374.726 281.386C370.335 284.587 371.727 291.005 374.284 294.948C377.478 299.874 380.917 300.956 386.175 298.797C390.142 297.167 387.223 297.868 385.635 301.752C381.315 312.313 391.568 329.979 402.497 318.68C406.616 314.421 407.229 310.209 406.504 304.547C406.343 303.29 403.702 298.492 405.793 299.609C410.225 301.975 420.132 297.873 422.268 293.284C424.331 288.849 422.408 285.072 419.211 281.98C416.261 279.127 412.743 279.135 408.93 280.383C403.173 282.269 407.172 279.012 407.576 274.591C408.291 266.793 401.438 252.33 392.431 261.643C389.021 265.168 391.747 285.483 395.556 284.142" stroke="#4D4D4D" stroke-width="3" stroke-linecap="round"/>
<path d="M656.047 374.308C656.648 366.119 660.209 352.122 649.936 347.919C641.633 344.523 636.166 352.239 633.047 358.753C629.466 366.23 631.438 375.793 639.047 380.142C639.325 380.3 645.603 382.078 645.603 381.308C645.603 380.98 640.092 378.506 639.547 378.364C630.931 376.116 624.979 383.882 622.269 391.308C618.208 402.438 624.137 412.197 636.547 412.197C645.341 412.197 652.487 404.584 655.047 396.753C656.867 391.186 654.198 388.269 654.047 395.086C653.869 403.112 659.419 410.713 668.047 411.253C678.92 411.932 684.047 400.99 684.047 391.53C684.047 383.05 678.727 377.308 670.047 377.308C669.808 377.308 665.081 377.127 665.491 378.086C666.15 379.622 674.684 375.337 675.491 374.697C681.036 370.3 688.612 357.887 685.603 350.53C682.414 342.737 671.061 349.678 668.047 353.864C664.263 359.12 662.073 366.527 658.047 371.308C656.44 373.216 656.719 376.801 659.047 373.308" stroke="#4D4D4D" stroke-width="3" stroke-linecap="round"/>
<path d="M599.563 218.17C597.764 224.683 594.113 234.556 603.868 232.792C608.926 231.877 610.368 226.831 609.97 222.325C609.673 218.975 606.411 217.564 603.326 217.837C598.572 218.258 597.519 221.159 597.191 225.407" stroke="#4D4D4D" stroke-width="3" stroke-linecap="round"/>
<path d="M492.272 218.865C489.68 224.503 486.4 230.676 494.457 232.095C500.525 233.164 504.736 229.809 505.785 223.856C506.351 220.639 506.289 216.432 502.701 215.114C500.469 214.294 497.824 213.64 497.548 216.381" stroke="#4D4D4D" stroke-width="3" stroke-linecap="round"/>
<path d="M684.59 254.115C680.978 256.609 674.986 262.505 678.256 267.559C682.259 273.746 691.284 266.753 691.979 261.615C693.19 252.651 681.59 247.53 681.59 258.115" stroke="#4D4D4D" stroke-width="3" stroke-linecap="round"/>
<path d="M651.89 381.017C641.284 394.924 659.779 392.88 659.779 384.517C659.779 379.344 654.537 380.017 650.89 380.017" stroke="#4D4D4D" stroke-width="3" stroke-linecap="round"/>
<path d="M486.154 242.585C474.636 263.299 463.133 283.486 454.871 305.759C453.242 310.15 447.225 321.408 449.893 326.282" stroke="#4D4D4D" stroke-width="3" stroke-linecap="round"/>
<path d="M597.702 232.389C588.443 243.548 580.655 253.861 574.421 266.797C573.492 268.725 571.876 275.075 570.435 275.961" stroke="#4D4D4D" stroke-width="3" stroke-linecap="round"/>
<path d="M406.891 310.017C414.599 320.883 424.191 331.7 430.891 343.24C432.647 346.265 433.225 350.797 435.668 353.24C438.993 356.564 439.832 361.418 442.891 365.017C444.972 367.466 445.224 371.996 446.113 375.017C446.777 377.274 448.755 379.714 448.891 382.017C449.143 386.315 448.891 390.713 448.891 395.017" stroke="#4D4D4D" stroke-width="3" stroke-linecap="round"/>
<path d="M401 285C391.292 280.432 382.266 297.1 391 300.778C399.764 304.468 405.568 285 397 285" stroke="#4D4D4D" stroke-width="3" stroke-linecap="round"/>
<path d="M2 178C4.76083 168.38 6.60921 159.564 13.9708 151.175C18.7225 145.76 23.7987 140.492 29.2752 135.421C37.6572 127.659 48.946 120.555 60.566 115.249C68.4699 111.64 74.7561 107.005 81.0982 102.316C84.751 99.6147 87.917 94.4228 87.917 100.4C87.917 111.98 80.8583 123.451 66.7787 130.045C63.4109 131.623 62.0377 136.257 65.4907 138.242C71.7435 141.836 80.1642 138.965 85.2652 135.74C108.141 121.277 105.192 99.7203 112.768 80.6004C118.648 65.7597 132.047 49.6346 146.635 38.1811C152.4 33.6546 159.041 29.9767 165.348 25.8864C166.617 25.0637 160.116 34.3034 158.908 36.2118C152.357 46.5674 150.628 59.0011 148.983 70.1686C147.931 77.3156 148.443 88.1305 143.528 94.6515C136.615 103.825 150.73 74.2899 157.772 65.1655C169.159 50.411 182.592 36.5595 200.2 25.1412C211.263 17.9672 220.761 8.49074 233.082 2.30824C236.85 0.417222 227.948 7.73049 225.657 10.5579C220.415 17.0274 215.79 23.9132 212.095 30.8894C205.609 43.1345 199.207 54.5334 197.321 67.6138C195.583 79.6729 198.542 90.5581 191.866 102.103C186.669 111.089 184.477 119.762 176.637 128.023C176.265 128.416 171.001 134.39 174.137 132.334C181.186 127.712 188.67 123.062 195.048 117.964C206.679 108.666 214.469 98.0219 222.248 87.0938C224.058 84.5497 224.293 83.8898 224.293 86.9873C224.293 90.8735 225.657 94.5823 225.657 98.4836C225.657 113.037 219.883 126.289 210.656 139.253C205.901 145.932 222.276 132.474 224.217 131.11C225.636 130.113 229.253 124.898 230.809 124.776C232.018 124.682 227.962 130.725 227.778 131.057C222.204 141.126 218.469 152.48 207.928 160.755C203.546 164.196 199.989 174.75 194.29 176.084" stroke="#4D4D4D" stroke-width="3" stroke-linecap="round"/>
<path d="M546 2156.11C549.662 2210.58 548.468 2265.21 548.468 2319.81C548.468 2321.32 548.404 2327.2 548.468 2326.25C548.681 2323.06 553.255 2323.78 555.324 2323.78C572.282 2323.78 586.927 2336.11 604 2336.11" stroke="#4D4D4D" stroke-width="3" stroke-linecap="round"/>
<path d="M603 2336.11C603 2316.36 602.546 2296.52 601.259 2276.82C599.747 2253.65 595.978 2229.71 597.263 2206.48C597.876 2195.39 599.145 2184.64 599.519 2173.51C599.598 2171.17 600.679 2164.24 600.679 2166.59C600.679 2168.81 600.679 2171.02 600.679 2173.24" stroke="#4D4D4D" stroke-width="3" stroke-linecap="round"/>
<path d="M602 2170.11C623.057 2161.73 644.735 2152.84 663.25 2139.98C668.286 2136.48 674.474 2134.45 679.5 2130.92C683.015 2128.45 687.444 2125.11 692 2125.11" stroke="#4D4D4D" stroke-width="3" stroke-linecap="round"/>
<path d="M557 2163.11C570.551 2163.32 583.724 2167.52 597.152 2169.34C599.003 2169.59 608.38 2170.9 605.431 2169.41" stroke="#4D4D4D" stroke-width="3" stroke-linecap="round"/>
<path d="M603 2169.11C597.872 2174.15 593.255 2182.18 587.722 2186.31C583.42 2189.53 580.71 2196.57 576.125 2199.08C575.086 2199.64 571.074 2193.38 569.875 2192.39C566.59 2189.67 563.263 2187.14 559.944 2184.47C556.919 2182.04 554.687 2176.11 553 2172.8" stroke="#4D4D4D" stroke-width="3" stroke-linecap="round"/>
<path d="M545 2153.11C557.327 2152.02 567.766 2143.39 579.015 2139.23C588.375 2135.77 598.895 2133.85 607.776 2129.52C612.538 2127.2 618.24 2125.85 622.778 2123.39C623.625 2122.93 630.353 2120 627.134 2121.57" stroke="#4D4D4D" stroke-width="3" stroke-linecap="round"/>
<path d="M651 2120.11C650.615 2126.37 639.697 2130.11 634 2130.11" stroke="#4D4D4D" stroke-width="3" stroke-linecap="round"/>
<path d="M650 2110.11C663.708 2110.11 678.641 2110.38 691.548 2114.97C695.634 2116.42 698.157 2118.61 702.66 2118.61C704.211 2118.61 700.024 2120.21 698.726 2121.04C695.236 2123.27 691.876 2124.37 688.512 2127.11" stroke="#4D4D4D" stroke-width="3" stroke-linecap="round"/>
<path d="M698 2122.11C698 2140.52 703 2158.36 703 2176.72C703 2193.09 703 2209.47 703 2225.84C703 2239.48 700.5 2252.87 700.5 2266.59C700.5 2272.76 700.5 2278.94 700.5 2285.11" stroke="#4D4D4D" stroke-width="3" stroke-linecap="round"/>
<path d="M606 2342.11C620.168 2338.17 632.833 2327.56 644.899 2319.5C656.132 2312 667.43 2306.31 677.824 2297.8C683.334 2293.28 689.458 2289.3 694.772 2284.51C697.281 2282.25 703.595 2278.64 697.273 2280.75" stroke="#4D4D4D" stroke-width="3" stroke-linecap="round"/>
<path d="M630.5 2131.11C630.89 2097.94 633 2064.78 633 2031.61C633 2028.72 630.786 2010.61 636.278 2010.61C640.364 2010.61 644.216 2007.31 648.25 2006.61C652.566 2005.86 656.563 2004.53 660.5 2002.61C665.228 2000.31 670.326 1999.32 675.222 1997.5C680.223 1995.64 685.117 1993.78 690.389 1992.72C696.828 1991.43 703.228 1988.79 709.25 1986.11C710.672 1985.48 708.675 1988.15 708.5 1989.11C708.022 1991.74 707.5 1994.4 707.5 1997.08C707.5 2001.59 711.86 2002.05 714.472 1999.11C717.008 1996.26 718.898 1991.44 718.472 1987.61C718.177 1984.96 712.345 1984.09 711 1986.11" stroke="#4D4D4D" stroke-width="3" stroke-linecap="round"/>
<path d="M705.5 2004.11C696.8 2004.11 688.116 2006.82 679.666 2008.72C673.083 2010.2 666.806 2012.67 660.472 2014.89C659.165 2015.35 647.172 2020.78 647.5 2021.11" stroke="#4D4D4D" stroke-width="3" stroke-linecap="round"/>
<path d="M640 2017.61C641.723 2022.4 643.019 2022.11 647.5 2022.11" stroke="#4D4D4D" stroke-width="3" stroke-linecap="round"/>
<path d="M647 2020.61C647 2025.74 648 2030.74 648 2035.81C648 2041.15 647.782 2046.53 648.389 2051.83C649.117 2058.2 648.152 2064.75 648.528 2071.14C648.946 2078.26 649.5 2085.36 649.5 2092.5C649.5 2102.37 649.5 2112.24 649.5 2122.11" stroke="#4D4D4D" stroke-width="3" stroke-linecap="round"/>
<path d="M658 2243.3C647.487 2243.38 638.919 2244.14 629 2247.91C624.475 2249.63 619 2255.06 619 2260.3C619 2263.5 621.712 2267.65 624.972 2268.3C630.509 2269.41 635.853 2269.3 641.5 2269.3C647.359 2269.3 654.595 2269.23 659.722 2266.3C660.341 2265.95 660.854 2265.53 661.5 2265.19C662.71 2264.55 661.657 2264.58 660.972 2263.55C659.76 2261.73 654.632 2259.54 654.5 2257.3C654.343 2254.64 660.748 2257.6 662 2257.91C664.581 2258.56 667.113 2259.3 669.75 2259.3C672.279 2259.3 673.256 2260.13 675.778 2258.52C677.78 2257.25 681.5 2255.96 681.5 2253.3C681.5 2247.31 674.5 2245.3 669.75 2244.3C663.5 2243.32 661.411 2243.32 656.5 2243.32" stroke="#4D4D4D" stroke-width="3" stroke-linecap="round"/>
<path d="M661.5 2265.8C661.5 2268.58 660.799 2271.22 661.028 2274.08C661.114 2275.16 661.563 2280.68 662 2279.8" stroke="#4D4D4D" stroke-width="3" stroke-linecap="round"/>
<path d="M674.905 2259.8C674.905 2263.3 675.508 2266.26 675.837 2269.66C675.89 2270.21 676.29 2275.39 675.598 2275.59C673.215 2276.29 668.61 2275.06 666.274 2274.52C664.438 2274.1 662.89 2273.64 661 2273.64" stroke="#4D4D4D" stroke-width="3" stroke-linecap="round"/>
<path d="M662 2281.8C658.357 2286.86 647.48 2285.7 642 2286.55C634.626 2287.7 628.344 2287.3 621.722 2283.8C617.451 2281.55 619.5 2277.65 619.5 2273.55C619.5 2269.64 619.5 2265.72 619.5 2261.8" stroke="#4D4D4D" stroke-width="3" stroke-linecap="round"/>
<path d="M675 2277.3C678.378 2277.3 679.377 2274.29 682 2272.69C683.187 2271.97 682.5 2267.47 682.5 2266.3C682.5 2263.92 682 2261.7 682 2259.3C682 2257.46 682.236 2254.41 680 2255.3" stroke="#4D4D4D" stroke-width="3" stroke-linecap="round"/>
<path d="M663.25 2228.93C664.936 2229.77 666.572 2230.67 668.299 2231.43C669.253 2231.85 670.188 2232.43 671.188 2232.73C672.454 2233.12 673.637 2233.44 674.75 2234.18" stroke="#4D4D4D" stroke-width="3" stroke-linecap="round"/>
<path d="M674.75 2233.93C675.065 2232.55 674.455 2231.11 674.278 2229.73C674.136 2228.63 673.851 2227.55 673.653 2226.46C673.472 2225.46 673.375 2224.31 673.375 2223.3" stroke="#4D4D4D" stroke-width="3" stroke-linecap="round"/>
<path d="M673.375 2222.18C675.717 2220.86 678.348 2220.03 680.847 2219.05C681.201 2218.91 683.411 2218.41 683.25 2217.93" stroke="#4D4D4D" stroke-width="3" stroke-linecap="round"/>
<path d="M683.125 2218.05C683.125 2220.84 683.375 2223.59 683.375 2226.37C683.375 2227.22 683.25 2228.06 683.25 2228.9C683.25 2229.4 683.493 2230.18 682.875 2230.18" stroke="#4D4D4D" stroke-width="3" stroke-linecap="round"/>
<path d="M683 2229.93C681.185 2231.36 679.06 2232.07 677.125 2233.3C676.717 2233.56 676.288 2233.92 675.875 2234.15C675.574 2234.32 675.572 2234.7 675.25 2234.8" stroke="#4D4D4D" stroke-width="3" stroke-linecap="round"/>
<path d="M660 2218.3C662.783 2219.61 665.636 2220.92 668.625 2221.68C669.367 2221.87 670.148 2222.02 670.875 2222.25C671.346 2222.4 671.746 2222.68 672.25 2222.68" stroke="#4D4D4D" stroke-width="3" stroke-linecap="round"/>
<path d="M661.375 2216.05C664.362 2215.8 667.232 2216.5 670.188 2216.87C672.31 2217.14 674.369 2217.18 676.5 2217.18C678.813 2217.18 681.058 2217.8 683.375 2217.8" stroke="#4D4D4D" stroke-width="3" stroke-linecap="round"/>
<path d="M660.125 2216.3C660.125 2217.78 660.373 2219.33 660.75 2220.76C661.084 2222.03 661.238 2223.36 661.625 2224.62C662.02 2225.9 662.57 2227.59 662.125 2228.93" stroke="#4D4D4D" stroke-width="3" stroke-linecap="round"/>
<path d="M614 2182.5C614 2185.08 615.366 2196.07 613.5 2197" stroke="#4D4D4D" stroke-width="3" stroke-linecap="round"/>
<path d="M613.5 2184C613.613 2182.08 616.66 2178.73 618 2181.75C618.917 2183.81 618.601 2186.48 617.222 2188.25C616.827 2188.76 615.173 2190 615.5 2190C616.838 2190 617.644 2189.92 618.5 2191.11C619.226 2192.12 622.779 2193.61 622 2194" stroke="#4D4D4D" stroke-width="3" stroke-linecap="round"/>
<path d="M625.5 2179C625.5 2181.68 625.5 2184.35 625.5 2187.03C625.5 2187.79 625.94 2192.62 626.5 2191.5" stroke="#4D4D4D" stroke-width="3" stroke-linecap="round"/>
<path d="M637 2173C635.205 2174.9 632.5 2178.1 632.5 2180.75C632.5 2182.25 635.685 2180.99 635.972 2183C636.23 2184.8 636.397 2188.04 635.5 2189.61C635.155 2190.22 633 2194.07 633 2191.5" stroke="#4D4D4D" stroke-width="3" stroke-linecap="round"/>
<path d="M642 2171.5C642.756 2173.2 643.675 2185.16 642 2186" stroke="#4D4D4D" stroke-width="3" stroke-linecap="round"/>
<path d="M649 2168.5C649 2171.42 648.051 2173.9 646.75 2176.5C646.461 2177.08 644.049 2180 645.25 2180C646.611 2180 649.229 2179.55 649.889 2181.11C650.352 2182.21 651 2185.69 651 2184.5" stroke="#4D4D4D" stroke-width="3" stroke-linecap="round"/>
<path d="M658.5 2172.5C661.192 2171.31 663.329 2169.18 666.25 2168.53C667.915 2168.16 670.173 2168 671.889 2168C675.277 2168 677.935 2174.07 678 2176.89C678.191 2185.08 678 2193.3 678 2201.5C678 2204.24 676.67 2200.67 675.5 2199.5C675.049 2199.05 674.649 2198.48 674.222 2198C673.992 2197.74 674.113 2196.56 673.75 2196.56C673.302 2196.56 674.725 2199.17 674.889 2199.5C675.272 2200.27 678.011 2204.08 678.611 2203C679.535 2201.34 680.559 2199.23 681.75 2197.78C682.071 2197.39 683.382 2196 683 2196" stroke="#4D4D4D" stroke-width="3" stroke-linecap="round"/>
</svg>
