<svg xmlns="http://www.w3.org/2000/svg" width="303" height="400" fill="none"><path stroke="#666" stroke-linecap="round" stroke-width="3" d="M39.213 12.573c-6.218 0-15.08-1.746-19.787 2.748-4.721 4.509-6.394 13.522-7.824 19.667-4.36 18.732-3.148 38.778-3.148 58.144 0 31.584-2.141 64.521 2.878 95.674 4.684 29.074.36 59.081.36 88.117v36.758c0 5.512-.37 11.172.09 16.662.335 4.001 2.996 7.27 3.147 11.165.114 2.914-.492 6.025.81 8.76 3.753 7.885 10.792 11.937 16.998 17.864 6.731 6.427 15.058 13.785 24.284 16.232 39.161 10.387 79.258 8.502 119.619 8.502 14.06 0 27.759.526 41.462-2.319 6.073-1.26 12.428-.773 18.617-.773 8.201 0 19.375-3.449 27.162-5.84 2.978-.914.703-1.294 1.079-3.091.246-1.173 5.444-1.915 6.566-2.749 3.133-2.327 7.452-3.756 9.264-6.87 6.449-11.086 14.21-20.251 14.21-34.01v-63.039c0-7.426-.486-14.085-1.619-21.385-2.304-14.853-3.238-28.4-3.238-43.543v-56.941c0-21.524 2.105-44.251-1.259-65.53-3.319-20.995 2.984-41.137-8.814-60.29-4.224-6.857-16.797-10.822-24.643-10.822-12.756 0-24.572-4.637-37.325-4.637-27.344 0-53.138-6.861-80.945-4.552-21.729 1.804-43.634 1.46-65.566 1.46-7.513 0-15.11 1.546-21.855 1.546-4.114 0-18.283.907-20.236 4.638"/><path fill="#666" d="M132.153 191.228c-1.116 1.8-2.232 3.6-3.384 5.364-1.188 1.944-1.224 3.636-3.384 2.196-3.672-2.484-7.164-5.292-10.692-7.92-1.98-1.44-3.924 1.872-1.944 3.312l8.316 6.156c.936.684 2.016 1.728 3.168 2.484-.18.216-.324.504-.396.864-.612 3.24-.792 6.444-.468 9.72.252 2.448 4.104 2.448 3.852 0-.324-2.916-.252-5.796.324-8.712.072-.36.036-.684-.072-1.008 1.188-.252 2.016-1.152 2.736-2.16 1.908-2.664 3.528-5.616 5.256-8.388 1.332-2.088-1.98-3.996-3.312-1.908Zm22.723 8.532c-.504-4.968-5.436-7.092-9.612-8.424-1.476-.468-2.412.792-2.34 1.98-5.688 4.176-4.032 14.724 4.248 14.796 4.464 0 8.136-3.852 7.704-8.352Zm-7.704 4.536c-4.608-.072-5.256-6.876-1.224-8.388a.858.858 0 0 0 .396-.216c1.656.612 3.276 1.44 4.176 2.88 1.548 2.52-.432 5.76-3.348 5.724Zm12.093-10.656c1.08 5.76-4.608 20.016 6.192 20.52 3.564.18 6.624-2.52 8.136-5.508 2.304-4.536 1.044-10.044 1.548-14.868.252-2.448-3.564-2.448-3.816 0-.324 3.096.036 6.228-.216 9.36-.288 3.096-3.528 10.08-7.452 6.156-2.232-2.232-1.368-6.012-.9-8.748.468-2.7.72-5.22.216-7.92-.468-2.412-4.14-1.404-3.708 1.008Zm23.909 3.024c-.396-1.26-.612-2.268-.18-3.564.756-2.304 3.78-3.168 4.824-.756.756 1.764.072 4.032-.684 5.652-1.476 3.204-3.24 5.832-3.708 9.396-.324 2.448 3.528 2.412 3.816 0 .756-5.76 8.964-13.86 2.124-19.26-2.268-1.764-5.4-1.62-7.668.144-2.952 2.304-3.276 6.084-2.232 9.432.756 2.304 4.464 1.332 3.708-1.044Zm2.988 20.448c2.484 0 2.484-3.816 0-3.816-2.448 0-2.448 3.816 0 3.816Z"/></svg>