<svg xmlns="http://www.w3.org/2000/svg" width="303" height="400" fill="none"><path stroke="#15CE79" stroke-linecap="round" stroke-width="3" d="M58.336 59.104c-8.645 0-34.28 8.005-15.778 16 22.066 9.534 45.933 4.632 68.778 3m6 2c2.173-5.025 5-10.4 5-16 0-4.788-.063.392 0 2.222.116 3.369 1.78 7.15 5.5 7.722 1.94.299 7.712-.618 5.889.111-5.897 2.36-7.389 8.581-7.389 14.39 0 4.036.337-.034-1-1.445-2.528-2.669-6.633-3.158-10-4m61-41c4.315-2.285 5-6.185 5-10.778 0-1.85-.72-6.93.055-2.667.588 3.23 3.768 6.26 6.167 8.223 1.335 1.092 6.768-.363 5.167.277-3.46 1.384-7.282 9.163-4.167 12.723.399.455-.837-1.433-1.222-1.778-1.392-1.246-4.192-1.744-6-1.945-2.106-.234-6.904-2.246-8-.055"/><path stroke="#15CE79" stroke-linecap="round" stroke-width="3" d="M145.336 79.104c18.572-4.73 37.292-9.174 55.555-14.778 7.557-2.318 16.833-4.61 22.667-10.444 4.126-4.126 7.195-8.556 1.556-11.778-5.883-3.362-22.034-1.872-27.778 1"/></svg>