<svg xmlns="http://www.w3.org/2000/svg" width="273" height="360" fill="none"><path stroke="#15CE79" stroke-linecap="round" stroke-width="2.7" d="M116.74 45.603c5.471 7.598 15.337 7.2 23.8 7.2 7.475 0 15.955 2.204 23.4.85 2.127-.387 5.625-2.252 7.7-3.35 2.32-1.228.878-9.895.45-11.95-1.068-5.128-.45-10.921-.45-16.15 0-2.24 1.161-7.461-1.8-4.5-1.901 1.901-12.727 17.8-15.7 16.95-.778-.222-2.242-5.238-2.8-6.15-1.995-3.265-3.638-6.377-5.35-9.8-.686-1.373-1.486-2.763-2.25-4.1-.766-1.34-1.547 4.372-1.8 5.1-1.424 4.094-.359 13.53-4.05 16.4-3.163 2.46-6.755-6.347-7.85-8.2-.424-.719-6.112-10.988-6.55-10.55-1.909 1.909-.45 11.252-.45 14.05 0 4.273-.445 10.63-2.25 14.6-1.035 2.277-.853 6.49-2.25 2.3m-2.7 93.15c-.932 2.272-2.025 4.92-2.025 7.437 0 .584-.247 1.869.237 2.313.563.516.663-.426.663-.763 0-1.319-.029-2.529.275-3.812.365-1.541-.017-2.663.85-4.05m72.451-4.95c2.023-.969 4.403-2.279 6.75-1.7 1.436.354 2.959 1.33 4.25 2.037 2.336 1.28 2.275 4.103 2.275 6.513 0 3.262-2.186 5.184-5.2 5.862-1.048.236-2.17.428-3.25.325-.747-.071-1.347-.437-2.125-.437"/><path stroke="#15CE79" stroke-linecap="round" stroke-width="2.7" d="M191.215 141.903a252.28 252.28 0 0 0 6.875-2.425c.414-.153.786-.275 1.225-.275m-4.274 6.525c1.795-.767 4.031-2.25 6.075-2.25m-86.626-.675c-.674 1.349-7.922 9.45-2.475 9.45 2.312 0 2.925-.024 2.925-2.475 0-.7-1.18-1.094-1.7-.575-.266.267-.283 2.234-1 .8"/></svg>