<svg xmlns="http://www.w3.org/2000/svg" width="303" height="400" fill="none"><path stroke="#15CE79" stroke-linecap="round" stroke-width="3" d="M124.75 337.25c0 4.847 1.5 9.5 1.5 14.306 0 1.206.351 1.944-1 1.944m.25 1c-4.887 0-9.65 1.356-14.542 1.486-4.356.116-9.257-1.342-13.014-3.542-3.45-2.019-5.097-5.43-6.666-8.916-.33-.734-.428-1.996-.917-2.625-.454-.584-.61 2.637-.611 2.791-.053 5.939.202 11.762.875 17.667.532 4.668 1.321 9.439 1.375 14.139.004.339.074 2.616.36 2.194.73-1.072 1.405-2.166 2.168-3.222 3.212-4.448 8.971-5.344 13.972-6.472 4.421-.997 8.906-2.416 13.375-3.111 1.783-.278 7.179-.639 5.375-.639-1.144 0-1.352.001-1.236 1.278.423 4.653.486 9.294.486 13.972 0 4.369 1 8.676 1 13.055 0 .953-.25 1.874-.25 2.848v1.347m36 1.25c0-10.545-2.437-21.062-5.75-31-.366-1.097-.5-1.984-.5-3.125 0-.617 4.823-1.75 5.306-1.875 6.264-1.624 13.191-1.038 19.611-1 2.191.013 4.268.039 6.027 1.5 1.89 1.569 3.276 3.668 4.778 5.583 1.254 1.599 2.31 2.988 3.028 4.903.393 1.047.698 2.272 1.194 3.264.387.773.177-2.449.167-2.556-.305-3.229-.266-6.472-.611-9.694-.706-6.59-1.755-13.176-2.625-19.75-.558-4.218-1.375-8.556-1.375-12.806 0-.199-.057-2.583.25-2.583.421 0-1.121 2.618-1.181 2.695-4.028 5.197-8.861 8.925-14.805 11.791-3.985 1.921-8.376 3.467-12.625 4.709-2.622.765-5.665 1.194-8.389 1.194-1.664 0-1.737-.842-2.111-2.361-.537-2.181-.639-4.152-.639-6.389m-33-71c1.759-3.958.5-10.247.5-14.528 0-2.626-.5-5.237-.5-7.722 0-1.892-1-2.954-1-4.5 0-3.089 2.071-3.707 5.056-4.25 5.414-.984 10.906-3 16.444-3h5.5c1.996 0 1.963.186 2 2.222.141 7.758 0 31.037 0 23.278"/><path stroke="#15CE79" stroke-linecap="round" stroke-width="3" d="M120.5 251.5c3.42-4.446 11.793-6.071 16.889-7.278.969-.229 8.743-1.985 8.111-.722"/></svg>