<svg xmlns="http://www.w3.org/2000/svg" width="303" height="400" fill="none"><path stroke="#15CE79" stroke-linecap="round" stroke-width="3" d="M130 106.653c0 6.294-1.193 10.179-7 13-3.895 1.891-7.303 1.619-10.889-1-2.677-1.957-1.343-8.072-2.222-11-1.18-3.934 12.181-4.5 14.583-4.5 3.924 0 3.696 2.628 3.5 6.25-.016.31-1.367 5.951-1.861 4.416-.518-1.613-.111-3.886-.111-5.555 0-1.889-.035-3.874-.75-.778a102.581 102.581 0 0 0-1.472 7.611c-.119.784-.498 4.592-.889 1.722-.462-3.388-.389-6.811-.389-10.222 0-1.148-.152-3.8-.75-.944-.741 3.539-1.25 14.394-1.25 10.777 0-2.705-.288-5.275-.722-7.944-.016-.101-.166-2.654-.611-.945-.85 3.263-1.04 6.703-1.167 10.056-.145 3.842-2.258-14.472-3.722-10.917-1.057 2.568-.052 6.849.444 9.473.551 2.909-.28-2.805-.444-3.334-.646-2.086-1.617-5.371-3.278-6.944-.625-.592-.216 4.228-.194 4.361.414 2.488 1.368 4.566 2.389 6.833.825 1.834-.494-2.491-.695-2.916-.528-1.118-2.331-3.291-2.389-4.5-.026-.551 5.261-1.468 6.139-1.834 2.452-1.021 10.184-2.611 7.528-2.611-3.478 0-7.05.389-10.556.445-.348.005-4.36.862-2.777.166 5.358-2.358 9.977-2.666 15.75-2.666 1.259 0 2.547-.074 3.805 0 .968.056.5 3.502.5 4.194 0 2.894.459 6.792-1.805 9.056-1.68 1.68-5.167 2.25-7.417 2.25-1.539 0-6.217.449-7.417-.75-.105-.106 3.051-.25 3.417-.25.562 0 4.799-.265 2.5.111-1.864.304-3.778 1.887-3.778-.111"/><path stroke="#15CE79" stroke-linecap="round" stroke-width="3" d="M129 105.152c6.521-12.11 18.441-20.005 28.611-28.722 4.531-3.883 9.06-7.759 13.667-11.528 3.89-3.183 17.404-10.038 13.222-7.25m-68.5 57c-2.256 8.773-11.196 33.599-20 38"/></svg>