<svg xmlns="http://www.w3.org/2000/svg" width="721" height="2344" fill="none"><path stroke="#4D4D4D" stroke-linecap="round" stroke-width="3" d="M589.891 148.017c-7.178 17.495 8.963 32.452 24.444 37.778 12.238 4.21 40.477 4.933 35.556-15.333-1.935-7.967-8.842-16.538-13-23.667-.656-1.123 8.478 4.406 10.111 5.222 7.447 3.724 15.28 6.101 23.667 6 10.076-.121 28.134-12.02 23.777-24-4.663-12.824-26.005-17.609-37.555-18.777-.923-.094-13.852-.046-13.722.277 1.443 3.609 12.584-5.807 13.5-6.722 9.786-9.786 10.774-26.42-4.445-31.555-15.675-5.29-41.4 7.029-44.111 24.111-.566 3.567.506 14.359-.278 10.833-1.363-6.137-3.758-10.583-9.166-14.167-9.684-6.416-39.297-16.032-42.556 3.223-2.259 13.347 19.029 20.306 28.778 23.555 1.266.422-.103-1.626-.222-1.778-1.723-2.185-4.452-2.942-7.056-3.5-8.755-1.876-15.462-1.997-22.722 3.5-9.915 7.507-11.585 22.71 1.222 28 12.559 5.188 23.771-4 35.778-4"/><path stroke="#4D4D4D" stroke-linecap="round" stroke-width="3" d="M627.891 120.017c-7.984.182-14.902 3.229-18.945 10.556-5.175 9.381 1.407 11.894 10 11.389 11.319-.666 22.904-18.945 6.945-18.945m-189 17c1.949-4.873 6.575-16.444-.556-19.5-7.308-3.132-15.067.522-17.444 8.278-.852 2.78-1 5.564-1 8.445 0 1.532-1.242-2.236-2.723-3.223-7.929-5.286-24.384-6.566-30.222 2.556-5.136 8.025.722 11.643 7.945 14.222 1.772.633 14.611.613 14.944 1.778.545 1.909-2.964 4.599-3.833 6-2.184 3.518-3.111 8.126-3.111 12.222 0 7.448 7.088 12.417 13.222 6.556 5.428-5.187 4.068-8.601 5.833-14.778.46-1.611 2.351 2.2 2.5 2.444 2.056 3.364 6.36 4.684 10 5.556 8.216 1.967 17.201-1.027 22.222-8 4.318-5.997-3.352-10.556-8.722-10.556-3.814 0 8.432.062 10.167-.222 4.926-.807 10.023-5.407 8.666-10.833-3.029-12.119-21.075.117-26.888 2.055"/><path stroke="#4D4D4D" stroke-linecap="round" stroke-width="3" d="M420.89 146.017c-3.542 9.92 8 10.871 8 2 0-7.116-7.23-2.615-6-2m165.001 19c-3.157 6.314-7.014 12.507-10.667 18.556-9.92 16.425-17.975 35.231-25.667 52.778-18.653 42.552-27.924 87.159-36.222 132.555-5.912 32.341-6.637 66.083-14.222 98.111-1.168 4.932-2.433 9.83-3.445 14.778-.749 3.664-.493 7.415-1.555 11-1.885 6.36-.966 13.368-2 20.222-1.153 7.636-.222 16.046-.222 23.778 0 3.782.011 13.276-2 4.222m-69-373c20.8 36.209 20.48 81.828 24 122.056 4.919 56.222 7 112.744 7 169.167 0 13.806.255 28.344-1.556 42.055-1.064 8.054-1.151 16.832-2.944 24.722-1.646 7.241-3.5 29.426-3.5 22m63 6c4.281-44.236 16.113-86.921 31.889-128.333 7.529-19.765 15.989-38.361 27.222-56.333 4.264-6.823 11.914-14.434 13.889-22.334"/><path stroke="#4D4D4D" stroke-linecap="round" stroke-width="3" d="M604.891 317.017c-9.897-2.199-22.455-6.971-31.445.111-4.08 3.216-8.586 8.61-10.111 13.667-3.23 10.711 16.122 10.363 22.556 8.778 1.432-.353 5.677-1.75 6.333-3.5.057-.151-6.302 4.964-7.333 6.167-5.278 6.157-14.89 24.666 1.056 24.666 10.443 0 18.055-12.471 24.444-19.333 1.68-1.805 6.33-4.829 6.5-7.556.155-2.484-1.994 4.608-2.445 7.056-.994 5.4-1.64 26.436 9.5 22.722 9.433-3.144 12.114-19.405 7.945-27.111-1.839-3.4-7.885-8.376-.778-7.444 10.318 1.353 17.344-5.175 18.556-15.778 1.523-13.332-19.481-6.582-24.556-2.445-1.211.988-6.111 4.493-6.111 6.389 0 3.545 3.663-6.118 4.889-9.444 2.875-7.803 3.371-21.657-8.5-20.778-3.732.276-6.82 4.83-8.056 8.056-.737 1.925.266 8.081-.5 6.166-1.556-3.89-5.579.081-5.889 2.556-.521 4.169 3.945 5.214 3.945 9.055"/><path stroke="#4D4D4D" stroke-linecap="round" stroke-width="3" d="M606.891 329.017c-3.591-1.134-5.615 2.01-6.778 5-.747 1.921 7.74.507 8.778-.444 5.6-5.134-.21-10.137-2-6.556m71.699-80.902c-9.077-2.625-18.399-5.401-26 2-6.669 6.494-3.486 11.392 4.944 13.389 3.433.813 7 .611 10.5.611 1.595 0 5.137-.922 2.556.444-9.045 4.789-13.422 16.285-11.389 26 2.067 9.876 12.846 12.127 19.944 5.889 3.73-3.277 7.112-7.092 8.889-11.777.181-.477 1.908-6.286 2.778-6.112 1.07.214 2.89 4.644 3.778 5.556 2.642 2.716 5.817 4.711 9.666 4.944 9.795.594 15.652-5.699 14.112-15.5-1.306-8.306-9.476-9.853-16.334-8.666-2.274.393-3.657 1.584-1-.222 3.887-2.643 8.251-6.28 10.389-10.556 3.67-7.339 1.334-14.765-5.611-18.778-7.387-4.268-12.813 2.505-15.611 8.722-.794 1.765-.803 8.252-1.667 3.5-.636-3.498-5.52-12.097-10.166-9-3.855 2.57-3.47 10.487-2.667 14.5 1.19 5.95 3.889 3.925 3.889-.944m-180.847-35.623c-1.259-4.644-2.126-14.135-7.96-15.766-5.233-1.463-9.407 3.607-10.918 8.057-1.886 5.56-.605 8.929 4.348 11.717 3.737 2.105 1.379.248-2.654 1.408-10.966 3.155-18.477 22.149-2.837 23.724 5.895.594 9.581-1.535 13.575-5.612.887-.906 3.016-5.952 3.436-3.618.889 4.944 10.248 10.178 15.173 9.01 4.759-1.129 6.532-4.979 6.978-9.404.411-4.083-1.775-6.839-5.118-9.058-5.047-3.35-.013-2.23 3.707-4.652 6.563-4.272 13.667-18.613.777-19.911-4.88-.492-19.134 14.237-15.722 16.395m-109.495 68.126c-4.425-1.889-12.412-7.09-17.307-3.522-4.391 3.201-2.999 9.619-.442 13.562 3.194 4.926 6.633 6.008 11.891 3.849 3.967-1.63 1.048-.929-.54 2.955-4.32 10.561 5.933 28.227 16.862 16.928 4.119-4.259 4.732-8.471 4.007-14.133-.161-1.257-2.802-6.055-.711-4.938 4.432 2.366 14.339-1.736 16.475-6.325 2.063-4.435.14-8.212-3.057-11.304-2.95-2.853-6.468-2.845-10.281-1.597-5.757 1.886-1.758-1.371-1.354-5.792.715-7.798-6.138-22.261-15.145-12.948-3.41 3.525-.684 23.84 3.125 22.499m260.491 90.166c.601-8.189 4.162-22.186-6.111-26.389-8.303-3.396-13.77 4.32-16.889 10.834-3.581 7.477-1.609 17.04 6 21.389.278.158 6.556 1.936 6.556 1.166 0-.328-5.511-2.802-6.056-2.944-8.616-2.248-14.568 5.518-17.278 12.944-4.061 11.13 1.868 20.889 14.278 20.889 8.794 0 15.94-7.613 18.5-15.444 1.82-5.567-.849-8.484-1-1.667-.178 8.026 5.372 15.627 14 16.167 10.873.679 16-10.263 16-19.723 0-8.48-5.32-14.222-14-14.222-.239 0-4.966-.181-4.556.778.659 1.536 9.193-2.749 10-3.389 5.545-4.397 13.121-16.81 10.112-24.167-3.189-7.793-14.542-.852-17.556 3.334-3.784 5.256-5.974 12.663-10 17.444-1.607 1.908-1.328 5.493 1 2M599.563 218.17c-1.799 6.513-5.45 16.386 4.305 14.622 5.058-.915 6.5-5.961 6.102-10.467-.297-3.35-3.559-4.761-6.644-4.488-4.754.421-5.807 3.322-6.135 7.57"/><path stroke="#4D4D4D" stroke-linecap="round" stroke-width="3" d="M492.272 218.865c-2.592 5.638-5.872 11.811 2.185 13.23 6.068 1.069 10.279-2.286 11.328-8.239.566-3.217.504-7.424-3.084-8.742-2.232-.82-4.877-1.474-5.153 1.267m187.042 37.734c-3.612 2.494-9.604 8.39-6.334 13.444 4.003 6.187 13.028-.806 13.723-5.944 1.211-8.964-10.389-14.085-10.389-3.5m-29.7 122.902c-10.606 13.907 7.889 11.863 7.889 3.5 0-5.173-5.242-4.5-8.889-4.5M486.154 242.585c-11.518 20.714-23.021 40.901-31.283 63.174-1.629 4.391-7.646 15.649-4.978 20.523m147.809-93.893c-9.259 11.159-17.047 21.472-23.281 34.408-.929 1.928-2.545 8.278-3.986 9.164m-163.544 34.056c7.708 10.866 17.3 21.683 24 33.223 1.756 3.025 2.334 7.557 4.777 10 3.325 3.324 4.164 8.178 7.223 11.777 2.081 2.449 2.333 6.979 3.222 10 .664 2.257 2.642 4.697 2.778 7 .252 4.298 0 8.696 0 13M401 285c-9.708-4.568-18.734 12.1-10 15.778 8.764 3.69 14.568-15.778 6-15.778M2 178c2.76-9.62 4.61-18.436 11.97-26.825a211.83 211.83 0 0 1 15.305-15.754c8.382-7.762 19.671-14.866 31.291-20.172 7.904-3.609 14.19-8.244 20.532-12.933 3.653-2.701 6.819-7.893 6.819-1.916 0 11.58-7.059 23.051-21.138 29.645-3.368 1.578-4.741 6.212-1.288 8.197 6.252 3.594 14.673.723 19.774-2.502 22.876-14.463 19.927-36.02 27.503-55.14 5.88-14.84 19.279-30.965 33.867-42.419 5.765-4.526 12.406-8.204 18.713-12.295 1.269-.822-5.232 8.417-6.44 10.326-6.551 10.355-8.28 22.79-9.925 33.957-1.052 7.147-.54 17.962-5.455 24.483-6.913 9.173 7.202-20.362 14.244-29.487 11.387-14.754 24.82-28.606 42.428-40.024 11.063-7.174 20.561-16.65 32.882-22.833 3.768-1.89-5.134 5.422-7.425 8.25-5.242 6.47-9.867 13.355-13.562 20.331-6.486 12.246-12.888 23.644-14.774 36.725-1.738 12.059 1.221 22.944-5.455 34.489-5.197 8.986-7.389 17.659-15.229 25.92-.372.393-5.636 6.367-2.5 4.311 7.049-4.622 14.533-9.272 20.911-14.37 11.631-9.298 19.421-19.942 27.2-30.87 1.81-2.544 2.045-3.204 2.045-.107 0 3.887 1.364 7.595 1.364 11.497 0 14.553-5.774 27.805-15.001 40.769-4.755 6.679 11.62-6.779 13.561-8.143 1.419-.997 5.036-6.212 6.592-6.334 1.209-.094-2.847 5.949-3.031 6.281-5.574 10.069-9.309 21.423-19.85 29.698-4.382 3.441-7.939 13.995-13.638 15.329M546 2156.11c3.662 54.47 2.468 109.1 2.468 163.7 0 1.51-.064 7.39 0 6.44.213-3.19 4.787-2.47 6.856-2.47 16.958 0 31.603 12.33 48.676 12.33"/><path stroke="#4D4D4D" stroke-linecap="round" stroke-width="3" d="M603 2336.11c0-19.75-.454-39.59-1.741-59.29-1.512-23.17-5.281-47.11-3.996-70.34.613-11.09 1.882-21.84 2.256-32.97.079-2.34 1.16-9.27 1.16-6.92v6.65m1.321-3.13c21.057-8.38 42.735-17.27 61.25-30.13 5.036-3.5 11.224-5.53 16.25-9.06 3.515-2.47 7.944-5.81 12.5-5.81"/><path stroke="#4D4D4D" stroke-linecap="round" stroke-width="3" d="M557 2163.11c13.551.21 26.724 4.41 40.152 6.23 1.851.25 11.228 1.56 8.279.07"/><path stroke="#4D4D4D" stroke-linecap="round" stroke-width="3" d="M603 2169.11c-5.128 5.04-9.745 13.07-15.278 17.2-4.302 3.22-7.012 10.26-11.597 12.77-1.039.56-5.051-5.7-6.25-6.69-3.285-2.72-6.612-5.25-9.931-7.92-3.025-2.43-5.257-8.36-6.944-11.67m-8-19.69c12.327-1.09 22.766-9.72 34.015-13.88 9.36-3.46 19.88-5.38 28.761-9.71 4.762-2.32 10.464-3.67 15.002-6.13.847-.46 7.575-3.39 4.356-1.82m23.866-1.46c-.385 6.26-11.303 10-17 10m16-20c13.708 0 28.641.27 41.548 4.86 4.086 1.45 6.609 3.64 11.112 3.64 1.551 0-2.636 1.6-3.934 2.43-3.49 2.23-6.85 3.33-10.214 6.07m9.488-5c0 18.41 5 36.25 5 54.61v49.12c0 13.64-2.5 27.03-2.5 40.75v18.52"/><path stroke="#4D4D4D" stroke-linecap="round" stroke-width="3" d="M606 2342.11c14.168-3.94 26.833-14.55 38.899-22.61 11.233-7.5 22.531-13.19 32.925-21.7 5.51-4.52 11.634-8.5 16.948-13.29 2.509-2.26 8.823-5.87 2.501-3.76M630.5 2131.11c.39-33.17 2.5-66.33 2.5-99.5 0-2.89-2.214-21 3.278-21 4.086 0 7.938-3.3 11.972-4 4.316-.75 8.313-2.08 12.25-4 4.728-2.3 9.826-3.29 14.722-5.11 5.001-1.86 9.895-3.72 15.167-4.78 6.439-1.29 12.839-3.93 18.861-6.61 1.422-.63-.575 2.04-.75 3-.478 2.63-1 5.29-1 7.97 0 4.51 4.36 4.97 6.972 2.03 2.536-2.85 4.426-7.67 4-11.5-.295-2.65-6.127-3.52-7.472-1.5"/><path stroke="#4D4D4D" stroke-linecap="round" stroke-width="3" d="M705.5 2004.11c-8.7 0-17.384 2.71-25.834 4.61-6.583 1.48-12.86 3.95-19.194 6.17-1.307.46-13.3 5.89-12.972 6.22m-7.5-3.5c1.723 4.79 3.019 4.5 7.5 4.5"/><path stroke="#4D4D4D" stroke-linecap="round" stroke-width="3" d="M647 2020.61c0 5.13 1 10.13 1 15.2 0 5.34-.218 10.72.389 16.02.728 6.37-.237 12.92.139 19.31.418 7.12.972 14.22.972 21.36v29.61m8.5 121.19c-10.513.08-19.081.84-29 4.61-4.525 1.72-10 7.15-10 12.39 0 3.2 2.712 7.35 5.972 8 5.537 1.11 10.881 1 16.528 1 5.859 0 13.095-.07 18.222-3 .619-.35 1.132-.77 1.778-1.11 1.21-.64.157-.61-.528-1.64-1.212-1.82-6.34-4.01-6.472-6.25-.157-2.66 6.248.3 7.5.61 2.581.65 5.113 1.39 7.75 1.39 2.529 0 3.506.83 6.028-.78 2.002-1.27 5.722-2.56 5.722-5.22 0-5.99-7-8-11.75-9-6.25-.98-8.339-.98-13.25-.98m5 22.48c0 2.78-.701 5.42-.472 8.28.086 1.08.535 6.6.972 5.72"/><path stroke="#4D4D4D" stroke-linecap="round" stroke-width="3" d="M674.905 2259.8c0 3.5.603 6.46.932 9.86.053.55.453 5.73-.239 5.93-2.383.7-6.988-.53-9.324-1.07-1.836-.42-3.384-.88-5.274-.88m1 8.16c-3.643 5.06-14.52 3.9-20 4.75-7.374 1.15-13.656.75-20.278-2.75-4.271-2.25-2.222-6.15-2.222-10.25v-11.75"/><path stroke="#4D4D4D" stroke-linecap="round" stroke-width="3" d="M675 2277.3c3.378 0 4.377-3.01 7-4.61 1.187-.72.5-5.22.5-6.39 0-2.38-.5-4.6-.5-7 0-1.84.236-4.89-2-4m-16.75-26.37c1.686.84 3.322 1.74 5.049 2.5.954.42 1.889 1 2.889 1.3 1.266.39 2.449.71 3.562 1.45m0-.25c.315-1.38-.295-2.82-.472-4.2-.142-1.1-.427-2.18-.625-3.27-.181-1-.278-2.15-.278-3.16m0-1.12c2.342-1.32 4.973-2.15 7.472-3.13.354-.14 2.564-.64 2.403-1.12"/><path stroke="#4D4D4D" stroke-linecap="round" stroke-width="3" d="M683.125 2218.05c0 2.79.25 5.54.25 8.32 0 .85-.125 1.69-.125 2.53 0 .5.243 1.28-.375 1.28"/><path stroke="#4D4D4D" stroke-linecap="round" stroke-width="3" d="M683 2229.93c-1.815 1.43-3.94 2.14-5.875 3.37-.408.26-.837.62-1.25.85-.301.17-.303.55-.625.65M660 2218.3c2.783 1.31 5.636 2.62 8.625 3.38.742.19 1.523.34 2.25.57.471.15.871.43 1.375.43m-10.875-6.63c2.987-.25 5.857.45 8.813.82 2.122.27 4.181.31 6.312.31 2.313 0 4.558.62 6.875.62"/><path stroke="#4D4D4D" stroke-linecap="round" stroke-width="3" d="M660.125 2216.3c0 1.48.248 3.03.625 4.46.334 1.27.488 2.6.875 3.86.395 1.28.945 2.97.5 4.31M614 2182.5c0 2.58 1.366 13.57-.5 14.5"/><path stroke="#4D4D4D" stroke-linecap="round" stroke-width="3" d="M613.5 2184c.113-1.92 3.16-5.27 4.5-2.25.917 2.06.601 4.73-.778 6.5-.395.51-2.049 1.75-1.722 1.75 1.338 0 2.144-.08 3 1.11.726 1.01 4.279 2.5 3.5 2.89m3.5-15v8.03c0 .76.44 5.59 1 4.47M637 2173c-1.795 1.9-4.5 5.1-4.5 7.75 0 1.5 3.185.24 3.472 2.25.258 1.8.425 5.04-.472 6.61-.345.61-2.5 4.46-2.5 1.89m9-20c.756 1.7 1.675 13.66 0 14.5m7-17.5c0 2.92-.949 5.4-2.25 8-.289.58-2.701 3.5-1.5 3.5 1.361 0 3.979-.45 4.639 1.11.463 1.1 1.111 4.58 1.111 3.39m7.5-12c2.692-1.19 4.829-3.32 7.75-3.97 1.665-.37 3.923-.53 5.639-.53 3.388 0 6.046 6.07 6.111 8.89.191 8.19 0 16.41 0 24.61 0 2.74-1.33-.83-2.5-2-.451-.45-.851-1.02-1.278-1.5-.23-.26-.109-1.44-.472-1.44-.448 0 .975 2.61 1.139 2.94.383.77 3.122 4.58 3.722 3.5.924-1.66 1.948-3.77 3.139-5.22.321-.39 1.632-1.78 1.25-1.78"/></svg>