<svg xmlns="http://www.w3.org/2000/svg" width="303" height="400" fill="none"><path stroke="#15CE79" stroke-linecap="round" stroke-width="3" d="M91.112 110c15.218-.966 30.692-2 45.944-2 4.353 0 12.577-1.71 16.556.5 3.795 2.109 8.931.409 12.944 1.556 1.067.305-3.875 3.375-4.444 3.944-2.561 2.561-5.635 5.216-8.5 7.444-4.25 3.306-13.763-2.341-16.945-4.944-5.868-4.802-21.178-11.78-26.055-3-4.43 7.974-15.104 17.975-24 11.056-4.614-3.589-7.61-6.193-11.278-10.778-2.078-2.598 6.199-1.778 6.778-1.778H96.89c16.421 0-11.173-.022-12.556 1.222-1.569 1.412 11.265 4.622 12.778 5 3.646.912-3.095-1.627-3.778-1.778-3.485-.769-7.443-.602-11-.444-1.527.068-4.31 1.734-1.778 3 3.208 1.604 7.83 1.277 11.334 1.778 6.663.952 6.477 1.222-.112 1.222-2.045 0-2.667.045 0 0 4.025-.068 7.81-.505 11.111-3 .907-.685 6.728-6.466 2-4.778-.829.296-4.882 3.366-4.111 3.334 2.445-.102 4.184-2.657 5.556-4.334.356-.435-3.254.626-3.778 1-.512.366-2.323 3.355-3.222 2.556-3.243-2.883 20.108-6.443 16.778-4.778"/><path stroke="#15CE79" stroke-linecap="round" stroke-width="3" d="M152.111 113c-1.129-.238-22.594-3-12.889-3 6.714 0 13.4-1 20.056-1 8.167 0-32.408-2.263-24.5-.222 6.586 1.699 15.077.222 21.889.222h-4c-3.694 0-12.598-.874-15.722 1.556-1.087.845 2.514 1.321 3.889 1.388 5.055.247 10.23.17 15.277-.166 22.63-1.509-15.889-1.546-15.889 1.722 0 2.401 24.701-1.198 12.112.722-12.729 1.942 2.03 2.253-3.445-3.222-8.044-8.044-7.965 3.139.222 6.778 3.044 1.353-5.578-3.849-8.777-4.778-.672-.195-8.753-1.58-5.056.5 2.877 1.618 16.738 7.406 18.611 2.722 1.29-3.224 8.383-8.748 1.722-2.666-1.597 1.458-6.889 4.858-4.777 4.388 3.453-.767 13.148-4.5 9.611-4.5-2.096 0-8.208 4.333-10.111 5.556-2.188 1.406 6.364-2.828 7.611-3.389 3.144-1.415 1.978-1.02-.778-.055-3.147 1.101-4.887 1.94-8.056.444-4.459-2.106-9.304-3.517-14-5-3.33-1.052-10.545-1.512-2.944.5 4.172 1.104 9.131 1.62 12.833 4 1.214.781 1.152 3.418 2.111 1.5"/><path stroke="#15CE79" stroke-linecap="round" stroke-width="3" d="M144.111 107c7.307-.318 14.446-1 21.778-1 2.194 0 6.306.107 3.667 3.5-.638.819-6.334 6.47-6.334 4.889 0-1.216 2.628-3.851-.111-3.167-1.933.483-2.931 1.778-5 1.778"/></svg>