<svg xmlns="http://www.w3.org/2000/svg" width="303" height="400" fill="none"><path stroke="#15CE79" stroke-linecap="round" stroke-width="3" d="M121 97c2.295.86 1.935 1.718 3.5 2.5"/><path stroke="#15CE79" stroke-linecap="round" stroke-width="3" d="M210.5 137c-1.22 6.097-.99 12.199-2.25 18.222-1.515 7.236-6.614 13.97-9.972 20.5-5.334 10.37-12.252 19.895-19.028 29.278-1.781 2.465-6.485 4.381-9.472 4.889-4.164.707-7.421-.834-10.667-3.389-9.819-7.73-17.626-17.359-25.111-27.25-4.47-5.906-11.661-12.41-18.528-15.5-4.964-2.234-10.54-4.93-15.861-6.139-4.64-1.055-9.308-1.71-13.861-3.111-7.098-2.184-6.75-14.879-6.75-20.389 0-6.754 1.051-13.384 1.5-20.111.404-6.062.406-12.039.5-18.111.076-4.969 1.885-9.97 2.5-14.89.365-2.924 1.703-5.282 2.722-8 1.068-2.846 1.733-5.588 3.583-8.055C93.31 60.273 96.78 55.523 101.5 52c5.901-4.406 12.84-6.68 19.611-9.39 5.406-2.162 12.416-1.11 18.139-1.11 6.841 0 14.357-.679 21 1.25 5.307 1.54 10.98 1.736 16.361 3.25 5.389 1.515 10.932 2.904 15.917 5.528 7.065 3.718 15.461 9.724 17.361 18.083.749 3.296 2.238 6.333 2.861 9.694.664 3.585.25 7.529.25 11.167V99.5"/><path stroke="#15CE79" stroke-linecap="round" stroke-width="3" d="M210.5 137c-4.026 4.026-7.664 6.582-13 8.611a58.748 58.748 0 0 0-9.5 4.667c-4.153 2.537-9.905 3.809-14.778 2.444-7.869-2.203-15.736-6.944-22.611-11.333-1.793-1.144-2.989-3.042-4.639-4.361-1.734-1.387-4.033-2.381-5.944-3.528-2.994-1.796-5.665-4.064-8.639-5.889-5.643-3.462-10.15-7.937-15.139-12.139-3.573-3.008-6.992-7.585-8-12.222-1.432-6.586 2.12-10.62 8.194-12 3.566-.81 7.804-.33 11.445-.25 1.972.044 3.661 1.133 5.583 1.472 2.433.43 4.926.324 7.333.806 2.556.511 5.074 1.185 7.695 1.222 1.981.028 4.025-.177 5.972.278 4.838 1.129 9.356 2.126 14.306 2.833 4.312.616 8.542 1.558 12.944 1.861 3.938.272 7.837 1.454 11.778 1.528 4.912.093 9.836 0 14.75 0 2.037 0 7.214-2.367 8.472-.75 1.898 2.441.778 8.189.778 11.139V124.5c0 2.963.301 6.832-1.111 9.5-.54 1.019-2.383 2.247-3.389 2.75-2.453 1.226-4.191 3.364-6.5 4.75m-36.5-52c0-7.165-.047-14.275.5-21.389.131-1.7 10.001 1.39 11.5 2.39"/><path stroke="#15CE79" stroke-linecap="round" stroke-width="3" d="M171 76.5c3.226.956 6.693.339 10 1m6 1.5a51.01 51.01 0 0 1 4.694-6.722c1.449-1.77 1.306 1.293 1.306 2.444 0 5.03 1 10.14 1 15.028 0 1.192.21 1.703-1.111 1.75-1.461.052-5.725 1.179-4.278.972 1.525-.218 9.396-2.458 10.389-.472m-77.5-29.5c5.406 5.342 13.254 10.678 16 18m67 1c2.327-2.246 5.114-4.557 8-6"/></svg>