<svg xmlns="http://www.w3.org/2000/svg" width="273" height="360" fill="none"><path stroke="#15CE79" stroke-linecap="round" stroke-width="2.7" d="M116.7 67.95c5.639 0 11.24.308 16.825 1.175 6.377.99 12.658 2.403 19.05 3.325 7.066 1.02 14.175 1.703 21.25 2.588 2.754.344 5.625.696 8.4.787.792.026 1.524.225 2.325.225.335 0 .559.091.862.213.515.206-1.108.012-1.662.012m-60.3 9.675c7.72 1.086 15.445 1.912 23.15 3.15 6.615 1.063 13.251 1.982 19.85 3.15 3.035.538 6.341.47 9.425.663 1.588.099 6.316.687 4.725.687m4.275-16.2c1.23-1.23 2.441-2.43 3.488-3.825 1.643-2.191 3.215-3.555 5.612-4.838 2.253-1.204 4.529-1.687 7.088-1.687 1.32 0 3.552-.449 4.75.25 1.206.704 2.117 1.795 3.187 2.675 1.005.826 2.055 1.645 2.825 2.7.359.493 1.931 4.725 1.625 4.725"/><path stroke="#15CE79" stroke-linecap="round" stroke-width="2.7" d="M210.975 85.275c-2.471-2.954-5.603-5.154-8.312-7.863-.636-.635-1.41-.995-2.088-1.537-.456-.365-2.028 1.097-2.312 1.3-2.423 1.719-4.737 3.574-7.175 5.262-.487.337-.946.697-1.438 1.038-.962.666.067 1.086.638 1.6 2.061 1.855 3.414 4.378 4.487 6.9.682 1.602 1.815 3.047 2.65 4.55.225.404.362.97.85.437.931-1.016 2.677-1.573 3.925-2.062 1.871-.734 3.975-1.776 5.625-2.875"/><path stroke="#15CE79" stroke-linecap="round" stroke-width="2.7" d="M210.75 85.5c.714-.714 1.417-1.397 2.25-1.975.743-.516 1.438-.417 2.075-1.125.974-1.083-1.85-4.447-1.85-5.9m-4.275 15.75c1.129 1.354 4.106 3.604 3.25 5.55-.366.833-.895 1.526-1.337 2.312-.4.71-.708 1.486-1.288 2.088-2.847 2.956-6.197 5.495-10.312 6.15-2.768.44-5.382.602-7.913-.8-2.383-1.32-4.435-2.91-6.362-4.838-1.838-1.837-1.988-3.874-2.588-6.237-.278-1.095.202-2.733-.9-3.1m-65.25-25.65c.081-1.544.506-2.917-.225-4.4-.701-1.422-1.882-2.188-3.15-3.025-3.372-2.227-6.559-2.848-10.55-2.15-3.153.552-7.358 2.192-8.8 5.35-.794 1.739-1.941 3.305-2.7 5.013-.356.802-.535.642.337 1.25 1.3.903 2.589 1.837 3.888 2.737.685.474 8.195-5.108 8.6-4.4.594 1.04 1.645 2.046 2.613 2.763 1.917 1.42 3.356 3.056 5.037 4.737.19.19 2.284 1.857 2.2 2.025-.646 1.291-2.783 2.334-3.775 3.388-.404.429-7.118 8.164-7.65 7.5-.801-1.002-1.683-1.669-2.7-2.463-1.46-1.14-2.32-2.536-3.15-4.15-1.04-2.023-2.45-.617-4.188-.113-1.303.379-2.606.763-3.912 1.125-.97.27-.675.933-.675 1.863 0 3.523 2.633 6.076 5.425 7.938 3.91 2.606 9.483 4.376 14.2 4.262 2.37-.057 4.299-1.47 6.3-2.575 2.129-1.175 4.032-2.506 5.9-4.05 1.095-.905 1.661-1.47 2.038-2.825.123-.445-.066-1.374.337-1.575"/></svg>