<svg xmlns="http://www.w3.org/2000/svg" width="303" height="400" fill="none"><path stroke="#15CE79" stroke-linecap="round" stroke-width="3" d="M149.172 67.348c-.841.549-.429.204 0-.25.707-.747 1.17-1.711 1.75-2.555 2.096-3.052 5.05-5.269 7.944-7.5 3.561-2.746 7.504-4.125 11.806-5.32 3.307-.918 6.628 1.227 9.931 1.361 2.232.091 4.694-.069 6.805-.86 2.055-.771 3.922-2.121 5.875-3.126.347-.178 2.632-1.623 2.639-1.444.062 1.604-.353 3.04-.75 4.583-.439 1.706-1.689 2.654-3.111 3.611-.281.19-2.466 1.386-1.597 1.875 2.944 1.657 8.855 1.727 11.152-1.125 1.247-1.548 2.755-2.819 4.056-4.305 1.854-2.12 3.59-4.278 5.778-6.084 4.777-3.94 10.142-6.11 16.458-6.11.154 0 1.898.124 1.458.25a21.91 21.91 0 0 0-3.305 1.263c-3.498 1.646-7.38 4.709-9.528 7.93-.968 1.453-1.946 4 .195 5 3.076 1.44 7.155-.188 9.944-1.583 3.752-1.876 6.859-4.516 10-7.25 3.753-3.267 7.583-5.598 12.25-7.36 6.557-2.477 13.76-3.377 20.444-.806.461.177-.946.527-1.055.555-1.477.385-2.938.771-4.389 1.25-3.524 1.164-7.652 2.229-10.486 4.764-1.998 1.788-2.544 4.238-3.139 6.75-.56 2.363-.296 4.599-1.681 6.736-3.103 4.79-8.462 6.488-13.805 6.736-8.262.385-16.898-1.046-23.389 5.264-2.02 1.964-2.305 5.25-3.625 7.625-.697 1.255-1.08.015-2.014-.75-1.306-1.068-3.024-1.353-4.611-1.75-1.785-.446-3.093-1.28-4.75-1.875-1.381-.495-2.682-.701-4.111-.944-1.532-.26-2.821-1.098-4.375-1.306-2.514-.335-4.693-1-7.264-1-3.1 0-6.16.169-9.25.25-2.485.066-5.21 1.249-7.5 2.14-4.871 1.894-9.651 4.836-14.875 5.61-2.832.42-5.454.237-8.25-.25-1.273-.221-2.274-.497-3.389-1.125-.414-.233-.814-.525-1.236-.736-.64-.32.685-.49 1.056-.694 1.719-.952 3.444-2.115 5.25-2.89 1.746-.748 3.309-1.17 4.694-2.555 2.155-2.155 4.681-4.121 5.25-7.25"/></svg>