<svg width="450" height="286" viewBox="0 0 450 286" fill="none" xmlns="http://www.w3.org/2000/svg">
<g clip-path="url(#clip0_1735_525)">
<path d="M444.46 116.42C441.72 95.64 438.65 74.76 432.34 54.71C428.8 43.47 424.21 32.55 418.18 22.4C413.37 14.31 407.57 6.63998 398.68 2.83998C381.49 -4.50002 361.57 3.66998 346.71 12.65C345.55 13.35 346.14 14.73 347.17 15.12C346.61 15.39 346.07 15.68 345.54 16.01C340.39 19.21 337.97 24.64 337.94 30.59C337.87 43.36 344.24 57.94 351.84 67.96C358.06 76.16 370.06 86.18 381.3 83.87C381.48 83.99 381.7 84.07 381.98 84.09C389.62 84.64 396.88 82.08 402.43 77.41C408.96 93.12 413.88 109.43 416.92 126.18C419.79 141.98 422.13 159.38 413.94 174.03C413 175.71 415.79 176.83 416.72 175.16C424.85 160.63 422.95 143.37 420.23 127.62C417.11 109.61 411.87 92.04 404.79 75.2C408.06 71.76 410.52 67.5 411.79 62.68C412.28 60.82 409.3 60.46 408.81 62.3C407.82 66.05 405.97 69.42 403.52 72.24C403.49 72.17 403.46 72.1 403.43 72.03C402.66 70.26 399.9 71.45 400.68 73.23C400.87 73.67 401.05 74.11 401.23 74.55C397.34 78.02 392.44 80.33 387.19 80.98C390.51 77.9 392.07 73.01 393.22 68.65C395.1 61.53 395.39 53.95 394.07 46.7C391.27 31.34 381.28 18.46 367.64 11.12C366.63 10.57 365.82 11.35 365.7 12.25C365.35 11.84 364.93 11.66 364.14 11.64C363.32 11.62 362.6 12.06 362.47 12.92C360.02 13.27 355.61 12.77 354.01 13.02C352.88 13.2 351.76 13.45 350.66 13.77C362.39 6.96998 376.41 1.38998 390.07 3.48998C407.42 6.15998 416.25 23.16 422.77 37.71C436.42 68.21 439.99 102.54 443.87 135.4C445.87 152.32 447.27 169.46 445.46 186.46C443.82 201.88 439.81 218.42 429.17 230.25C420.11 240.32 406.69 243.51 395.13 237.98C402.88 235.17 409.42 227.69 412.2 219.78C416.14 208.54 419.32 188.45 409.55 178.83C421.1 181.36 429.62 192.47 428.62 204.46C428.46 206.38 431.44 206.77 431.6 204.84C432.8 190.49 422.04 177.18 407.71 175.48C406.98 175.39 406.48 175.77 406.23 176.28C392.54 168.06 379.05 185.58 375.93 197.51C372.43 210.88 375.69 225.48 385.49 234.85C385.01 235.01 384.54 235.16 384.06 235.3C382.73 234.88 381.42 234.28 380.18 233.44C378.59 232.36 376.78 234.75 378.38 235.84C378.79 236.12 379.2 236.36 379.61 236.61C361.71 241.45 342.83 242.15 324.64 238.19C321.74 237.56 318.26 236.6 314.66 235.31C319.88 227.47 322.16 217.97 319.25 208.14C316.82 199.92 309.46 191.3 300.02 194.63C292.11 197.42 287.12 206.99 288.25 215.09C289.7 225.48 299.42 232.49 308.35 236.33C308.84 236.54 309.34 236.74 309.84 236.94C299.9 249.53 282.91 253.57 266.92 251.58C260.96 250.84 254.6 249.51 248.74 247.25C249.93 245.06 250.82 242.69 251.31 240.09C252.67 232.86 250.83 222.09 243.08 218.85C235.57 215.72 229.36 225.08 229.42 231.55C229.5 240.03 237.06 245.31 244.46 248.58C240.51 254 234.31 257.75 228.28 260.5C219.09 264.69 209.26 267.61 199.74 270.96C189.67 274.5 179.62 278.22 169.21 280.66C150.45 285.06 129.7 284.28 115.49 269.68C112.69 266.81 110.3 263.4 108.66 259.68C110.92 259.61 113.13 259.4 115.25 259.01C124.28 257.34 131.89 250.85 131.99 241.18C132.08 232.81 124.71 226.37 116.43 229.2C107.92 232.11 102.88 241.76 103.37 250.37C103.49 252.46 103.84 254.49 104.38 256.46C100.5 256.09 96.6596 255.27 93.1096 254.31C78.4996 250.37 61.4096 240.22 59.2496 223.83C66.5296 223.41 78.7496 221.01 76.4496 212.58C74.3796 204.99 64.7796 203.62 59.8796 209.16C56.9996 212.42 55.9296 216.6 56.0196 220.89C52.5096 220.8 49.0196 220.24 45.6396 219.27C27.5496 214.03 15.2596 198.81 9.84961 181.27C7.05961 172.21 5.86961 162.74 5.65961 153.28C5.51961 147.06 5.44961 140.27 6.88961 133.99C12.6996 140.52 22.4996 144.33 30.4596 139.27C37.1696 135 40.9996 125.13 35.4496 118.43C29.9196 111.75 19.1696 112.84 12.8496 117.71C9.65961 120.17 7.46961 123.42 5.96961 127.03C4.41961 123.9 3.45961 120.46 3.14961 117.16C2.22961 107.46 4.85961 97.27 8.20961 88.22C14.9196 70.1 29.8396 53.07 50.4896 52.49C52.1196 52.44 53.8396 52.56 55.5696 52.83C55.4696 53.3 55.3696 53.76 55.2896 54.24C54.1096 62.1 58.3496 71.67 66.0496 74.68C68.4296 75.61 72.5796 76.41 74.5996 74.46C77.5796 71.6 75.9696 64.93 74.3996 61.9C70.8996 55.16 65.5596 51.5 59.4696 50.06C64.8096 38.45 84.0396 33.67 95.2496 32.76C110.26 31.54 126.37 34.34 138.9 43.08C139.7 43.64 140.48 44.22 141.24 44.83C140.15 47.69 140.07 50.88 141.41 54.17C143.72 59.86 149.36 63.86 155.32 60.97C156.1 60.59 156.17 59.61 155.86 58.92C153.19 53 149.37 48.06 144.77 44.02C147.28 39.93 152.49 37.48 156.78 36.13C166.38 33.11 177.1 32.38 187.1 32.84C197.11 33.3 207.44 35.35 216.11 40.6C220.44 43.22 224.26 46.66 227.11 50.85C227.15 50.91 227.19 50.97 227.23 51.03C224.61 52.61 222.22 54.51 220.33 56.85C217.25 60.67 214.25 66.91 217.25 71.63C220.43 76.62 227.28 75.98 231.15 72.26C236.64 66.99 234.76 58.57 231.64 52.59C231.58 52.47 231.5 52.36 231.44 52.24C232.89 51.54 234.38 50.91 235.86 50.35C246.38 46.35 258.07 45.65 269.04 48.07C279.77 50.43 290.94 56.02 297.96 64.75C292.41 65.11 286.84 67.7 284.08 72.67C277.96 83.72 290.84 97.52 301.22 87.96C307.8 81.89 307.25 74.74 303.65 68.23C303.67 68.23 303.69 68.23 303.71 68.24C310.69 69.94 316.41 75.3 320.9 80.66C330 91.51 336.33 107.24 329.54 120.81C328.68 122.53 331.27 124.05 332.13 122.32C339.81 106.96 332.65 89.41 322.02 77.38C316.69 71.35 309.74 65.69 301.45 64.81C297.29 59.12 291.19 54.22 286.25 51.43C272.35 43.57 255.19 41.59 239.83 45.89C236.52 46.82 233.07 48 229.85 49.6C222.69 38.76 210.07 33.06 197.49 30.94C188.95 29.5 180.21 29.43 171.61 30.34C163.51 31.19 154.56 32.4 147.68 37.08C145.59 38.5 143.84 40.25 142.58 42.21C132.6 34.43 119.56 30.46 106.77 29.65C91.1496 28.67 63.3596 32.29 56.5796 49.54C42.9096 47.88 26.4596 56.07 18.0796 65.49C9.73961 74.88 4.69961 86.83 1.90961 98.97C-0.510388 109.5 -1.43039 121.63 4.64961 131.01C3.29961 135.89 2.86961 141.13 2.71961 145.89C1.95961 170.14 7.24961 197.67 27.5596 213.3C35.7496 219.61 45.8796 223.74 56.2996 223.92C56.8096 227.59 58.0496 231.2 59.6396 234.22C67.5496 249.24 87.7196 259.07 105.48 259.7C107.92 265.92 112.29 271.37 117.55 275.56C139.29 292.89 167.74 285.31 191.53 277.05C204.51 272.54 218.07 268.64 230.53 262.79C237.01 259.75 243.23 255.52 247.25 249.74C248.19 250.1 249.11 250.43 249.99 250.73C261.76 254.72 274.7 256.5 286.97 253.99C296.82 251.97 306.33 246.08 312.7 238.06C323.24 241.85 334.81 243.47 345.88 243.76C358.8 244.1 371.66 242.27 384 238.5C386.3 239.15 388.6 239.31 390.85 239.04C391.2 239.26 391.54 239.47 391.9 239.68C406.2 247.9 422.33 243.18 432.56 230.98C444.64 216.56 448.29 196.35 449.12 178.09C450.07 157.45 447.19 136.86 444.5 116.44L444.46 116.42ZM359.79 15.64C362.02 15.69 363.94 16.31 365.76 14.81C366.05 14.57 366.26 14.18 366.32 13.79C366.38 13.83 366.44 13.88 366.5 13.91C380.21 21.28 389.81 34.83 391.58 50.38C392.51 58.56 391.49 67.86 387.7 75.29C382.72 85.04 370.91 80.49 363.99 75.68C352.41 67.62 345.83 53.84 342.44 40.5C340.39 32.43 339.5 22.54 348.1 18C351.62 16.14 355.85 15.55 359.78 15.64H359.79ZM299.05 85.8C292.77 91.44 285.23 85.83 285.49 78.34C285.75 70.84 293.37 67.54 300.06 67.73C303.5 73.44 304.59 80.82 299.05 85.8ZM228.98 70.11C225.39 73.51 219.19 72.59 218.99 67.05C218.91 64.64 220.22 62.13 221.5 60.19C223.35 57.39 225.91 55.3 228.75 53.62C231.58 58.82 233.56 65.76 228.97 70.11H228.98ZM152.44 58.83C146.71 60.21 142.37 52.19 143.44 47.16C143.46 47.05 143.5 46.95 143.53 46.85C147.19 50.27 150.18 54.31 152.44 58.83ZM72.9296 66.65C73.4796 69.42 72.9296 72.15 69.9096 72.52C68.1796 72.73 66.0296 71.51 64.6596 70.53C61.3596 68.16 59.2296 64.23 58.4096 60.32C57.8796 57.81 57.8996 55.51 58.3196 53.39C65.1296 55.15 71.4996 59.45 72.9196 66.65H72.9296ZM9.68961 126.22C13.6496 118.82 25.2396 112.44 32.5196 119.66C39.6996 126.78 31.1496 138.49 22.6296 138.61C16.2796 138.7 11.2696 135.21 7.89961 130.35C8.38961 128.93 8.96961 127.54 9.68961 126.21V126.22ZM62.8096 210.41C67.5696 206.09 76.9496 211.65 72.0596 216.99C69.3896 219.91 62.9696 220.64 59.0196 220.84C58.9996 217.1 59.9996 212.96 62.8096 210.4V210.41ZM106.33 247.62C106.83 239.79 116.02 226.88 125 232.83C133.69 238.59 127.24 251.11 119.94 254.42C116.08 256.17 111.8 256.75 107.48 256.64C106.57 253.73 106.13 250.69 106.33 247.61V247.62ZM240.38 243.11C236.44 240.56 232.49 236.55 232.39 231.56C232.3 226.98 236 220.44 241.29 221.73C249.57 223.75 249.59 236.67 247.44 242.89C247.05 244.03 246.55 245.11 245.99 246.14C244.03 245.25 242.14 244.26 240.38 243.12V243.11ZM293.08 204.91C294.89 201.47 297.97 198.16 301.86 197.19C307.88 195.71 312.66 200.53 315.04 205.55C318.78 213.43 317.69 222.74 313.94 230.39C313.28 231.74 312.54 233.01 311.76 234.22C298.68 228.94 285.51 219.32 293.08 204.9V204.91ZM391.31 235.81C390.4 235.19 389.51 234.52 388.64 233.79C375.55 222.68 374.13 201.58 383.4 187.57C388.32 180.14 398.77 173.39 406.83 180.49C412.79 185.75 413.09 195.53 412.47 202.84C411.74 211.48 410.03 221 404.47 227.95C401.23 232 396.37 235 391.3 235.81H391.31Z" fill="#00A86A"/>
<path d="M373.641 40.34C372.831 40.38 372.141 41 372.141 41.84V42.51C372.141 43.29 372.831 44.05 373.641 44.01C374.451 43.97 375.141 43.35 375.141 42.51V41.84C375.141 41.06 374.451 40.3 373.641 40.34Z" fill="#00A86A"/>
<path d="M364.97 38.34C363.04 38.34 363.04 41.34 364.97 41.34C366.9 41.34 366.9 38.34 364.97 38.34Z" fill="#00A86A"/>
<path d="M363.64 45.01H362.97C362.19 45.01 361.43 45.7 361.47 46.51C361.51 47.32 362.13 48.01 362.97 48.01H363.64C364.42 48.01 365.18 47.32 365.14 46.51C365.1 45.7 364.48 45.01 363.64 45.01Z" fill="#00A86A"/>
<path d="M366.97 49.6801C365.04 49.6801 365.04 52.6801 366.97 52.6801C368.9 52.6801 368.9 49.6801 366.97 49.6801Z" fill="#00A86A"/>
<path d="M372.97 52.34C371.04 52.34 371.04 55.34 372.97 55.34C374.9 55.34 374.9 52.34 372.97 52.34Z" fill="#00A86A"/>
<path d="M376.971 47.0101C376.161 47.0501 375.471 47.6701 375.471 48.5101V49.1801C375.471 49.9601 376.161 50.7201 376.971 50.6801C377.781 50.6401 378.471 50.0201 378.471 49.1801V48.5101C378.471 47.7301 377.781 46.9701 376.971 47.0101Z" fill="#00A86A"/>
<path d="M400.47 198.82C400.72 198.37 400.72 197.82 400.47 197.37C400.41 197.25 400.34 197.14 400.26 197.04C400.26 197.04 400.26 197.04 400.26 197.03C400.04 196.81 399.82 196.59 399.59 196.36C399.02 195.79 398.04 195.79 397.47 196.36C396.9 196.93 396.9 197.91 397.47 198.48L398.14 199.15C398.14 199.15 398.15 199.15 398.16 199.16C398.4 199.42 398.75 199.59 399.21 199.59C399.67 199.59 400.01 199.42 400.25 199.16C400.25 199.16 400.26 199.16 400.27 199.15C400.27 199.15 400.27 199.15 400.27 199.14C400.36 199.04 400.42 198.94 400.48 198.82H400.47Z" fill="#00A86A"/>
<path d="M400.52 201.92C399.71 201.96 399.02 202.58 399.02 203.42V204.09C399.02 204.87 399.71 205.63 400.52 205.59C401.33 205.55 402.02 204.93 402.02 204.09V203.42C402.02 202.64 401.33 201.88 400.52 201.92Z" fill="#00A86A"/>
<path d="M398.52 207.92C396.59 207.92 396.59 210.92 398.52 210.92C400.45 210.92 400.45 207.92 398.52 207.92Z" fill="#00A86A"/>
<path d="M395.58 208.36C395.36 208.14 395.14 207.92 394.91 207.69C394.34 207.12 393.36 207.12 392.79 207.69C392.22 208.26 392.22 209.24 392.79 209.81L393.46 210.48C394.03 211.05 395.01 211.05 395.58 210.48C396.15 209.91 396.15 208.93 395.58 208.36Z" fill="#00A86A"/>
<path d="M392.52 202.59C390.59 202.59 390.59 205.59 392.52 205.59C394.45 205.59 394.45 202.59 392.52 202.59Z" fill="#00A86A"/>
<path d="M393.85 197.26C393.04 197.3 392.35 197.92 392.35 198.76V199.43C392.35 200.21 393.04 200.97 393.85 200.93C394.66 200.89 395.35 200.27 395.35 199.43V198.76C395.35 197.98 394.66 197.22 393.85 197.26Z" fill="#00A86A"/>
</g>
<defs>
<clipPath id="clip0_1735_525">
<rect width="449.27" height="286" fill="white"/>
</clipPath>
</defs>
</svg>
