<svg width="794" height="393" viewBox="0 0 794 393" fill="none" xmlns="http://www.w3.org/2000/svg">
<path d="M524.081 93.8031C508.922 88.7503 492.293 87.888 476.449 87.0621C443.304 85.3341 409.253 84.268 376.131 86.9734C335.902 90.2592 295.983 99.5956 257.852 112.652C242.18 118.018 227.337 128.674 214.256 138.64C202.792 147.375 194.184 158.002 184.808 168.842C176.033 178.989 168.375 190.044 164.851 203.169C162.272 212.776 160.623 222.294 160.904 232.262C161.194 242.541 165.877 252.043 171.282 260.601C187.721 286.629 219.62 298.51 246.454 310.317C262.616 317.428 279.006 324.42 295.77 330.008C312.431 335.561 329.784 338.606 346.949 342.071C360.815 344.869 374.396 349.221 388.372 351.473C403.368 353.889 418.287 355.27 433.431 356.44C448.564 357.609 463.764 357.849 478.933 358.081C494.331 358.316 509.985 360.074 525.322 357.948C560.87 353.02 593.058 341.908 624.842 326.016C647.198 314.838 670.138 299.701 683.561 278.03C695.083 259.428 704.494 239.767 704.494 217.671C704.494 207.371 704.437 198.176 699.704 188.711C695.173 179.649 687.552 171.497 680.19 164.673C673.052 158.057 665.737 151.391 658.149 145.293C649.48 138.327 639.885 132.991 630.652 126.888C611.194 114.026 590.429 110.888 568.519 104.358C560.578 101.992 553.109 98.4152 545.102 96.198C537.844 94.188 529.981 93.0396 522.484 92.2066C520.432 91.9786 512.334 91.0655 511.308 89.0134" stroke="#4D4D4D" stroke-width="3" stroke-linecap="round"/>
<path d="M445.848 85.8202C445.848 95.0429 444.588 104.146 444.296 113.361C443.924 125.064 444.251 136.821 444.251 148.53C444.251 151.113 446.471 172.123 443.453 173.632" stroke="#4D4D4D" stroke-width="3" stroke-linecap="round"/>
<path d="M455.427 279.006C453.504 284.053 454.852 290.457 454.451 295.77C453.857 303.64 453.131 311.651 453.032 319.541C452.943 326.654 451.436 333.896 451.436 340.873C451.436 346.86 451.436 364.822 451.436 358.835" stroke="#4D4D4D" stroke-width="3" stroke-linecap="round"/>
<path d="M448.244 211.95C448.244 208.713 447.733 216.165 449.042 213.546" stroke="#4D4D4D" stroke-width="3" stroke-linecap="round"/>
<path d="M445.849 85.0219C433.544 85.6696 420.559 94.5718 409.97 100.145C400.406 105.179 392.914 112.022 384.78 118.905C379.74 123.169 372.931 128.95 370.81 135.314" stroke="#4D4D4D" stroke-width="3" stroke-linecap="round"/>
<path d="M441.855 85.8202C438.921 85.9928 435.351 87.1709 432.498 87.9046C424.517 89.9569 416.34 91.1854 408.283 93.0048C391.397 96.8177 374.559 102.095 358.479 108.527C344.078 114.287 330.097 121.096 316.524 128.529C307.127 133.675 298.02 138.798 289.781 145.736C280.273 153.743 269.572 161.701 263.039 172.434C254.314 186.768 247.073 204.801 247.073 221.707C247.073 230.01 244.813 241.756 247.916 249.514C251.846 259.34 255.471 267.403 262.241 275.635C268.395 283.121 274.678 291.589 282.198 297.766C289.181 303.502 295.793 311.729 303.707 316.082C320.125 325.112 337.79 334.742 354.044 342.869" stroke="#4D4D4D" stroke-width="3" stroke-linecap="round"/>
<path d="M354.046 226.319C354.046 233.56 355.376 240.422 360.432 245.478" stroke="#4D4D4D" stroke-width="3" stroke-linecap="round"/>
<path d="M379.591 286.989C385.377 297.919 392.7 307.282 401.544 316.126C406.331 320.913 412.163 325.012 417.465 329.254C421.352 332.363 425.504 336.566 429.883 338.877C432.738 340.384 435.79 341.969 438.487 343.667C440.404 344.874 442.535 347.233 444.651 347.703C446.505 348.115 454.698 353.612 452.235 354.843" stroke="#4D4D4D" stroke-width="3" stroke-linecap="round"/>
<path d="M445.049 85.4211C451.867 88.3855 458.194 92.9703 464.74 96.5084C471.318 100.064 477.35 105.164 482.967 110.079C485.475 112.273 488.089 114.314 490.773 116.288C493.334 118.173 496.056 119.531 498.224 121.921C502.247 126.356 505.174 132.323 507.714 137.687C511.261 145.173 515.436 152.474 519.267 159.817C520.088 161.39 521.544 168.184 520.088 169.64" stroke="#4D4D4D" stroke-width="3" stroke-linecap="round"/>
<path d="M526.874 232.306C526.874 239.761 525.386 246.365 522.86 253.438C519.72 262.232 516.058 270.949 510.997 278.828C501.738 293.244 491.007 306.644 479.974 319.719C476.135 324.269 472.183 328.884 468.909 333.866C466.216 337.965 463.594 342.4 460.572 346.262C459.232 347.974 457.489 349.291 456.314 351.162C455.569 352.349 454.826 353.449 453.831 354.444C452.712 355.563 451.758 357.53 450.238 358.036" stroke="#4D4D4D" stroke-width="3" stroke-linecap="round"/>
<path d="M448.642 86.6184C453.48 84.4191 460.937 89.4274 465.206 91.4303C468.709 93.0738 472.049 94.7891 475.783 95.8875C482.083 97.7402 488.565 98.7597 494.942 100.278C504.21 102.485 512.933 106.371 522.195 108.594C530.427 110.569 537.452 113.717 545.101 117.175C550.239 119.498 555.414 121.826 560.313 124.626C564.029 126.749 566.896 130.11 570.58 132.32C574.59 134.726 578.139 137.521 581.956 140.192C586.134 143.117 590.639 145.294 594.329 148.885C599.547 153.962 604.856 158.903 610.384 163.653C613.787 166.578 616.904 169.817 620.251 172.811C623.458 175.681 626.518 178.605 628.633 182.413C632.159 188.76 633.632 196.203 636.062 202.991C638.403 209.531 639.289 216.627 640.541 223.436C642.649 234.904 641.359 247.42 636.017 257.829C631.148 267.318 624.654 275.532 617.28 283.175C613.302 287.297 609.776 291.396 605.062 294.75C599.057 299.021 593.11 303.468 587.056 307.655C581.774 311.309 576.268 313.435 570.203 315.35C564.699 317.088 559.812 320.085 554.415 322.025C544.197 325.697 533.924 329.152 524.102 333.888C519.549 336.083 514.876 337.63 510.11 339.277C505.659 340.814 501.587 342.511 496.96 343.49C489.596 345.047 482.401 348.309 475.384 350.94C472.219 352.127 469.053 351.794 465.827 352.648C463.583 353.242 461.531 354.465 459.219 354.821C456.613 355.222 454.032 356.895 451.436 357.637" stroke="#4D4D4D" stroke-width="3" stroke-linecap="round"/>
<path d="M159.263 214.345C166.032 214.345 172.877 215.679 179.619 216.34C191.001 217.456 202.373 216.406 213.768 217.937C234.605 220.736 255.002 221.529 275.99 221.529C291.704 221.529 308.452 222.327 323.71 222.327" stroke="#4D4D4D" stroke-width="3" stroke-linecap="round"/>
<path d="M358.036 218.336C376.116 218.336 394.196 218.336 412.275 218.336C416.609 218.336 426.9 220.058 430.68 217.538" stroke="#4D4D4D" stroke-width="3" stroke-linecap="round"/>
<path d="M482.569 219.134H504.123" stroke="#4D4D4D" stroke-width="3" stroke-linecap="round"/>
<path d="M567.188 213.546C582.488 213.546 597.743 211.151 613.046 211.151C627.703 211.151 642.388 211.95 656.996 211.95C666.107 211.95 676.291 210.734 685.335 212.349C690.985 213.358 698.033 213.546 703.696 213.546" stroke="#4D4D4D" stroke-width="3" stroke-linecap="round"/>
<path d="M199.177 151.28C215.548 151.28 231.887 150.082 248.271 150.082C256.077 150.082 263.997 150.204 271.777 149.484C276.166 149.077 280.901 148.964 285.259 149.683C296.556 151.547 307.897 152.078 319.319 152.078" stroke="#4D4D4D" stroke-width="3" stroke-linecap="round"/>
<path d="M429.085 149.284C435.29 148.443 441.826 148.663 448.089 148.508C458.209 148.258 468.378 148.914 478.49 148.397C493.059 147.652 507.468 147.288 522.063 147.288C546.64 147.288 571.217 147.288 595.794 147.288C607.345 147.288 618.876 147.331 630.409 146.911C635.247 146.735 639.925 145.464 644.711 145.293C647.136 145.206 649.58 145.293 652.007 145.293C652.846 145.293 656.937 145.263 656.198 144.894" stroke="#4D4D4D" stroke-width="3" stroke-linecap="round"/>
<path d="M191.194 283.396C201.783 281.095 212.562 281.175 223.348 281.445C242.905 281.934 262.427 283.686 282 284.195C299.809 284.657 317.424 287.573 335.197 287.787C344.926 287.904 354.673 288.186 364.423 288.186" stroke="#4D4D4D" stroke-width="3" stroke-linecap="round"/>
<path d="M381.985 285.392C384.401 284.766 387.542 285.392 390.057 285.392C394.314 285.392 398.572 285.392 402.83 285.392C411.319 285.392 419.562 285.104 428.064 285.703C448.683 287.155 469.063 288.984 489.754 288.984C498.164 288.984 506.554 289.781 514.922 288.785C518.335 288.379 521.777 288.834 525.189 288.497C529.181 288.102 533.2 287.965 537.208 287.765C540.202 287.615 543.674 287.146 546.61 286.612C547.862 286.384 550.968 287.097 551.622 285.791" stroke="#4D4D4D" stroke-width="3" stroke-linecap="round"/>
<path d="M591.136 283.796C595.881 283.796 600.627 283.837 605.372 283.796C611.32 283.743 617.119 282.199 623.067 282.199C633.525 282.199 644.057 283.759 654.511 284.195C657.697 284.327 660.876 284.524 664.09 284.594C666.593 284.648 669.015 285.392 671.541 285.392C672.812 285.392 674.084 285.392 675.355 285.392C675.988 285.392 679.102 285.392 676.952 285.392" stroke="#4D4D4D" stroke-width="3" stroke-linecap="round"/>
<path d="M418.915 135.433C411.974 135.433 405.156 135.514 398.251 134.817C393.027 134.289 388.867 134.871 383.813 135.433C381.985 135.636 381.29 138.479 378.579 136.972C372.861 133.796 359.744 133.154 354.288 137.246C351.405 139.408 347.82 140.822 345.05 143.13C343.11 144.747 339.901 146.99 337.489 147.886C328.895 151.078 319.696 151.84 310.975 154.523C309.822 154.878 308.76 155.829 307.588 156.234C305.23 157.047 302.046 156.888 299.924 158.081C298.511 158.876 296.204 159.036 295.135 160.373C294.738 160.869 292.653 162.463 292.055 162.529C286.448 163.152 279.385 161.719 275.154 165.95C273.703 167.401 274.796 173.902 274.812 175.598C274.835 177.89 275.562 179.991 277.276 181.619C279.52 183.752 284.904 184.421 287.779 184.938C290.169 185.368 292.81 184.845 295.135 185.451C296.932 185.92 298.633 187.411 300.232 188.325C303.108 189.969 304.364 192.485 305.125 195.441C305.935 198.593 307.937 201.375 309.812 203.994C312.726 208.066 315.633 213.035 319.836 215.9C324.082 218.795 327.446 223.126 331.537 226.301C336.276 229.979 339.302 237.451 345.495 238.412C348.286 238.845 348.07 238.724 349.327 236.12C350.633 233.415 352.801 230.415 353.569 227.532C354.223 225.081 354.365 222.534 354.904 220.108C355.496 217.443 360.177 215.655 362.396 214.258C369.464 209.808 372.725 203.945 376.834 196.878C378.975 193.195 379.652 189.517 379.502 185.177C379.41 182.504 376.765 179.334 375.739 176.898C373.539 171.673 371.943 167.388 372.112 161.639C372.36 153.232 377.725 159.477 381.281 162.768C387.294 168.332 393.695 173.542 397.669 180.696C399.492 183.977 400.807 180.979 402.904 178.882C405.961 175.825 405.538 168.96 406.564 165.197C407.734 160.908 416.358 160.76 419.668 159.45C425.033 157.326 426.929 155.691 429.042 150.862C429.802 149.126 429.823 145.173 428.905 143.438C427.295 140.398 420.937 137.749 417.683 136.664" stroke="#15CE79" stroke-width="3.60246" stroke-linecap="round"/>
<path d="M365.954 235.812C361.008 240.758 357.13 248.765 361.027 255.723C365.916 264.452 367.282 271.958 366.604 282.135C366.072 290.107 365.954 298.294 365.954 306.289C365.954 307.301 365.754 308.489 366.262 309.403C366.94 310.624 367.107 309.352 368.109 309.129C371.541 308.366 375.21 298.94 376.354 296.607C377.814 293.632 379.109 291.011 380.118 287.883C380.616 286.34 380.924 284.347 381.692 282.922C383.49 279.583 390.033 276.907 393.529 275.84C397.186 274.725 399.688 273.171 402.287 270.298C405.664 266.566 408.454 257.142 406.461 251.96C405.222 248.737 398.646 247.06 395.856 245.665C392.427 243.95 388.531 243.361 385.181 241.491C381.784 239.595 377.448 239.575 374.096 237.659C372.141 236.542 370.056 236.02 368.417 237.659" stroke="#15CE79" stroke-width="3.60246" stroke-linecap="round"/>
<path d="M467.564 214.874C462.204 214.874 456.844 214.874 451.484 214.874C450.12 214.874 449.5 214.555 448.474 213.642C446.672 212.041 442.982 213.391 441.118 213.984C432.88 216.605 423.841 224.591 423.841 233.656C423.841 235.127 424.476 237.203 425.346 238.412C426.581 240.126 428.138 238.952 429.691 239.815C432.777 241.529 434.238 244.401 436.91 246.281C438.83 247.632 441.4 249.811 443.547 250.592C445.224 251.201 447.457 252.106 448.747 253.397C450.438 255.087 450.321 258.725 450.321 260.924C450.321 264.069 451.315 267.066 451.553 270.161C451.812 273.534 456.368 277.414 459.695 277.414C461.692 277.414 463.177 276.37 464.964 275.806C469.562 274.354 469.944 273.655 472.217 269.614C475.638 263.532 477.032 257.536 477.417 250.592C477.555 248.125 478.34 247.753 479.847 246.247C481.53 244.563 483.496 243.968 485.765 243.27C486.593 243.015 486.81 242.15 487.613 242.004C492.786 241.064 498 241.757 496.474 234.888C496.207 233.687 493.861 231.591 493.018 230.748C490.259 227.989 487.014 224.775 483.713 222.674C480.122 220.389 479.467 215.511 475.262 213.642C472.203 212.283 469.641 214.143 466.948 215.49" stroke="#15CE79" stroke-width="3.60246" stroke-linecap="round"/>
<path d="M470.644 164.376C467.237 164.376 464.797 165.351 461.611 166.703C458.939 167.837 456.636 169.079 454.153 170.535C451.79 171.92 448.785 171.724 446.353 173.272C439.786 177.45 447.07 183.74 450.321 187.162C453.876 190.904 444.029 190.282 443.205 190.378C440.661 190.673 437.195 191.029 435.234 192.773C432.802 194.934 431.847 198.811 431.847 201.942C431.847 206.12 438.678 206.561 441.597 206.868C450.03 207.756 458.136 206.685 464.622 200.847C465.768 199.816 470.412 201.523 471.738 201.805C473.42 202.163 472.858 203.11 474.065 204.097C478.933 208.08 485.121 209.848 491.376 209.947C498.009 210.053 499.263 211.104 503.282 215.832C504.938 217.78 505.297 220.498 506.977 222.538C509.661 225.797 515.262 227.322 519.02 229.038C525.016 231.775 530.142 235.588 536.4 232.459C542.24 229.539 546.523 224.296 552.651 221.511C555.96 220.007 564.842 219.61 566.712 215.969C568.702 212.093 565.485 206.436 564.865 202.557C564.76 201.906 563.873 200.872 564.386 200.231C566.144 198.033 567.331 194.55 570.099 193.32C578.417 189.623 587.846 189.48 596.99 188.086C604.913 186.877 608.306 187.261 607.972 177.925C607.765 172.112 600.991 168.673 596.614 166.258C589.709 162.449 581.675 159.741 574.17 157.329C566.302 154.799 555.696 156.408 547.964 158.629C539.095 161.176 531.368 165.037 523.194 169.235C515.12 173.381 509.37 179.675 499.929 177.959C493.356 176.764 494.068 169.192 488.502 166.361C485.585 164.876 468.302 157.853 466.333 163.761" stroke="#15CE79" stroke-width="3.60246" stroke-linecap="round"/>
<path d="M551.933 244.433C552.462 249.201 563.076 253.425 566.781 254.287C572.466 255.609 577.388 257.045 582.382 254.321C586.326 252.169 590.73 260.705 590.73 264.14C590.73 265.803 588.633 266.648 588.301 268.143C587.132 273.399 592.984 277.864 591.653 282.922C589.648 290.543 579.516 289.237 573.623 291.202C571.849 291.793 569.91 291.792 568.218 292.605C566.99 293.194 565.972 294.03 564.591 294.281C559.843 295.144 552.782 287.719 551.317 283.983C548.393 276.527 550.582 273.033 557.338 270.435C561.795 268.721 562.218 264.337 561.786 260.445C561.567 258.474 559.807 257.061 559.288 255.245C558.917 253.944 558.03 250.561 556.859 249.976" stroke="#15CE79" stroke-width="3.60246" stroke-linecap="round"/>
<path d="M211.95 13.5751C207.816 16.2421 203.847 18.2793 201.661 22.7554C200.457 25.2205 200.268 27.6386 200.397 30.3392C200.686 36.4112 206.213 38.7212 211.75 38.7212C216.632 38.7212 220.196 38.9191 224.279 35.9494C226.907 34.0382 228.32 31.0327 228.914 27.9443C229.871 22.9649 227.587 17.7848 222.638 15.8813C217.613 13.9487 215.618 12.4856 209.954 14.3734" stroke="#4D4D4D" stroke-width="3" stroke-linecap="round"/>
<path d="M759.176 64.2665C749.999 65.9502 740.807 73.4553 740.438 83.4254C740.278 87.7563 740.816 90.699 744.075 93.8031C747.492 97.0574 752.009 98.537 756.648 98.9033C762.315 99.3506 769.999 99.3005 774.343 94.9562C777.149 92.15 779.583 87.3765 780.242 83.4254C781.456 76.1378 777.105 69.9291 770.751 66.6613C768.994 65.7579 766.729 64.9362 764.742 64.6878C762.746 64.4384 761.375 64.9476 759.575 63.8673" stroke="#4D4D4D" stroke-width="3" stroke-linecap="round"/>
<path d="M739.617 83.8245C736.85 85.208 734.004 86.4315 731.235 87.8159C729.253 88.8071 725.346 90.8412 725.248 93.4926C725.186 95.1705 725.234 96.3717 727.266 96.5749C731.769 97.0252 736.253 96.4085 740.659 95.5992C749.271 94.0176 757.944 92.1191 766.182 89.1021C769.476 87.8958 772.742 86.7529 776.072 85.6428C778.372 84.8764 781.188 84.133 783.124 82.6271C786.04 80.3587 788.588 79.052 790.929 76.0412C792.163 74.4554 792.857 70.6527 789.998 70.6527C785.246 70.6527 781.398 70.8289 777.137 72.2493" stroke="#4D4D4D" stroke-width="3" stroke-linecap="round"/>
<path d="M635.441 2C628.01 2 621.398 3.84474 615.151 8.00933C608.06 12.7373 601.052 21.6191 599.696 30.2505C596.832 48.4767 615.473 64.3798 632.226 66.4174C645.703 68.0565 659.429 61.3888 668.792 52.026C672.721 48.0975 676.526 43.3872 677.351 37.7455C678.136 32.3869 676.655 27.8613 673.848 23.332C665.462 9.80094 650.552 2 635.042 2" stroke="#4D4D4D" stroke-width="3" stroke-linecap="round"/>
<path d="M599.918 36.7255C597.594 37.7586 594.908 38.1367 592.489 38.943C588.658 40.22 584.684 42.4244 581.801 45.3071C580.815 46.2928 578.359 48.2674 579.406 49.8973C580.219 51.1611 582.764 50.7174 583.996 50.6955C587.003 50.6423 589.877 49.8992 592.755 49.0768C600.231 46.941 607.485 44.3794 615.085 42.6905C622.072 41.1379 628.789 39.2093 635.575 36.9473C646.012 33.4681 656.608 30.4129 667.174 27.3456C672.054 25.9288 677.291 24.243 681.654 21.558C683.501 20.4213 686.781 19.4792 686.931 16.7683C687.122 13.3384 672.163 15.571 669.768 16.7683" stroke="#4D4D4D" stroke-width="3" stroke-linecap="round"/>
<path d="M599.119 33.9315C596.96 33.3504 594.646 34.5181 592.733 35.4394C590.71 36.4132 588.581 36.9681 586.568 38.0116C582.91 39.9086 579.188 42.6394 576.013 45.2849C574.478 46.5643 565.999 53.6532 568.784 56.2836C569.826 57.2677 571.959 56.9531 573.263 57.1706C575.982 57.6237 578.53 57.3326 581.246 56.9932C587.786 56.1756 594.502 54.3133 600.937 52.8687C608.605 51.1474 615.968 48.0883 623.688 46.3937C632.176 44.5305 640.419 42.4692 648.613 39.5195C654.199 37.5084 660.046 36.4861 665.621 34.508C671.145 32.548 676.747 30.8897 682.363 29.2305C686.931 27.8807 692.255 27.1081 696.421 24.6625C699.228 23.0148 703.586 20.5782 705.092 17.5666C705.791 16.1682 706.089 14.5344 706.089 12.9765C706.089 11.0547 705.196 10.9262 703.473 10.5816C698.683 9.62365 692.984 10.3173 688.128 10.382C683.239 10.4472 678.399 11.2077 673.581 11.9786C671.245 12.3524 668.527 13.176 666.175 13.176" stroke="#4D4D4D" stroke-width="3" stroke-linecap="round"/>
<path d="M125.335 328.5C120.455 330.192 114.285 331.476 110.922 335.773C108.396 339.001 106.588 342.362 105.733 346.417C104.109 354.117 109.381 360.441 115.49 364.467C125.751 371.23 142.235 364.458 142.876 351.65C143.313 342.901 139.046 336.448 130.768 333.511C127.765 332.445 125.147 331.693 121.943 331.693C119.141 331.693 117.502 333.052 114.958 333.689" stroke="#4D4D4D" stroke-width="3" stroke-linecap="round"/>
<path d="M106.575 354.444C101.758 356.576 95.9543 360.174 92.6498 364.423C91.7012 365.642 92.3932 366.359 93.7141 366.596C97.8595 367.34 101.722 366.237 105.555 364.733C109.492 363.188 113.177 361.122 116.953 359.234C121.127 357.147 125.397 355.562 129.726 353.845C135.551 351.535 141.438 349.256 146.401 345.264C147.486 344.391 156.159 337.432 152.078 335.596C148.894 334.163 145.561 336.332 142.942 337.88C141.577 338.686 140.215 340.474 138.507 340.474" stroke="#4D4D4D" stroke-width="3" stroke-linecap="round"/>
<path d="M207.359 16.9679C209.423 17.6083 211.091 18.2807 212.903 19.4736C214.469 20.5044 216.238 21.3491 217.449 22.822C219.073 24.7969 219.169 27.873 218.923 30.3281C218.704 32.5234 216.903 35.095 215.143 36.2266C213.683 37.1648 212.352 38.1225 210.553 38.1225" stroke="#4D4D4D" stroke-width="3" stroke-linecap="round"/>
<path d="M249.47 49.8973H251.865" stroke="#4D4D4D" stroke-width="3" stroke-linecap="round"/>
<path d="M228.514 61.8716C228.67 62.15 228.955 62.7858 229.112 62.4703" stroke="#4D4D4D" stroke-width="3" stroke-linecap="round"/>
<path d="M211.95 64.6656C212.451 65.4027 212.87 65.7169 213.746 65.863" stroke="#4D4D4D" stroke-width="3" stroke-linecap="round"/>
<path d="M201.572 83.4254C201.572 83.9387 201.468 84.0979 201.971 84.2236" stroke="#4D4D4D" stroke-width="3" stroke-linecap="round"/>
<path d="M171.237 68.0583C170.992 68.3192 170.838 69.4144 170.838 69.0562" stroke="#4D4D4D" stroke-width="3" stroke-linecap="round"/>
<path d="M327.104 43.511C326.897 43.608 326.72 43.6567 326.505 43.7105" stroke="#4D4D4D" stroke-width="3" stroke-linecap="round"/>
<path d="M103.781 50.2964C103.876 50.7003 103.93 51.0854 103.981 51.4938" stroke="#4D4D4D" stroke-width="3" stroke-linecap="round"/>
<path d="M653.004 85.0219H654.201" stroke="#4D4D4D" stroke-width="3" stroke-linecap="round"/>
<path d="M684.936 65.4639C684.936 65.9308 685.207 66.6613 684.936 66.6613" stroke="#4D4D4D" stroke-width="3" stroke-linecap="round"/>
<path d="M706.888 46.7041H708.484" stroke="#4D4D4D" stroke-width="3" stroke-linecap="round"/>
<path d="M713.274 71.8502C713.888 72.2185 713.674 72.1504 713.674 72.6485" stroke="#4D4D4D" stroke-width="3" stroke-linecap="round"/>
<path d="M713.274 42.7127C714.359 42.7729 714.864 43.2387 715.669 43.9101" stroke="#4D4D4D" stroke-width="3" stroke-linecap="round"/>
<path d="M507.316 50.2964C507.697 50.2964 509.435 50.6955 508.913 50.6955" stroke="#4D4D4D" stroke-width="3" stroke-linecap="round"/>
<path d="M170.838 313.731C171.103 314.228 171.075 314.13 171.237 314.13" stroke="#4D4D4D" stroke-width="3" stroke-linecap="round"/>
<path d="M179.22 338.478C179.845 338.478 180.155 338.353 180.417 338.877" stroke="#4D4D4D" stroke-width="3" stroke-linecap="round"/>
<path d="M209.954 332.89H211.551" stroke="#4D4D4D" stroke-width="3" stroke-linecap="round"/>
<path d="M101.387 381.985V383.582" stroke="#4D4D4D" stroke-width="3" stroke-linecap="round"/>
<path d="M86.6189 388.77C86.3182 389.447 86.2197 390.034 86.2197 390.766" stroke="#4D4D4D" stroke-width="3" stroke-linecap="round"/>
<path d="M5.99144 318.122C4.64215 318.537 3.39867 318.521 2 318.521" stroke="#4D4D4D" stroke-width="3" stroke-linecap="round"/>
</svg>
