<svg width="346" height="122" viewBox="0 0 346 122" fill="none" xmlns="http://www.w3.org/2000/svg">
<path d="M318 28.9999C304.564 20.7095 291.702 12.8355 276.222 9.11099C264.601 6.31501 252.685 4.86342 240.778 3.99988C206.576 1.51962 172.885 1.40513 139 6.99988C112.511 11.3734 85.3969 16.6486 60.2222 26.2221C45.3269 31.8865 26.3332 38.9023 18.4444 53.9999C13.6013 63.2685 12.7698 79.481 19.2222 88.111C28.9837 101.167 52.3577 101.956 66.7777 104.222C87.573 107.49 108.182 112.351 129 115.222C150.483 118.185 171.851 119 193.5 119C222.303 119 252.875 119.715 281.444 115.5C298.613 112.967 314.091 112.593 328.555 102C338.643 94.6115 345.473 86.7388 343.778 73.5554C341.892 58.8908 337.002 44.002 325.889 33.9999C304.454 14.7086 277.302 9.2229 249.389 7.49988C210.108 5.07517 171.441 9.37181 132.778 15.9999C115.322 18.9922 97.594 23.1809 80.5555 27.9999C65.974 32.1239 51.7406 35.6851 38.111 42.4999C24.1348 49.488 -5.61618 66.1935 3.44437 86.2221C14.4204 110.485 39.3543 119.854 64.2222 120C105.141 120.239 146.049 117.985 186.944 117.055C213.982 116.441 240.94 116.276 267.944 114.5C277.039 113.902 286.202 113.504 295.111 111.5C300.299 110.333 307.813 110.14 312 107" stroke="#4D4D4D" stroke-width="3" stroke-linecap="round"/>
</svg>
