<svg width="363" height="247" viewBox="0 0 363 247" fill="none" xmlns="http://www.w3.org/2000/svg">
<path d="M11.6719 21.448C10.3919 22.792 8.50387 22.824 6.93587 21.96C4.59987 20.648 4.15187 17.864 4.43987 15.4C4.88787 11.592 7.19187 5.76804 11.7679 5.83204C13.9439 5.86404 13.9439 2.47204 11.7679 2.44004C4.24787 2.34404 0.0238672 12.232 1.07987 18.664C2.07187 24.488 9.39987 28.776 14.0719 23.848C15.5759 22.28 13.1759 19.88 11.6719 21.448Z" fill="#4D4D4D"/>
<path d="M34.3886 20.84C34.8366 20.104 34.7726 18.984 33.9086 18.408C32.9166 13.8 31.2846 9.38404 28.9806 5.16004C28.3726 4.04004 26.6446 4.04004 26.0366 5.16004C24.1166 8.77604 22.4206 12.488 20.8846 16.296C19.7966 16.616 19.4766 17.896 19.9246 18.792C19.2526 20.68 18.5806 22.568 17.9726 24.52C17.3326 26.6 20.6286 27.496 21.2686 25.416C21.8766 23.464 22.5166 21.544 23.2526 19.656C25.8766 19.752 28.4366 20.2 30.9646 20.936C31.2206 22.28 31.3806 23.624 31.5086 25C31.7006 27.144 35.0926 27.176 34.9006 25C34.8046 23.592 34.6126 22.216 34.3886 20.84ZM24.5326 16.328C25.4606 14.12 26.4526 11.944 27.5086 9.76804C28.5966 12.2 29.4926 14.664 30.1646 17.224C28.3086 16.776 26.4526 16.456 24.5326 16.328Z" fill="#4D4D4D"/>
<path d="M38.2724 5.54404C38.5284 8.45604 38.7524 11.4 39.0084 14.312C39.2004 16.648 39.0084 19.432 39.8404 21.608C41.4724 25.832 48.2564 24.168 51.6484 24.136C53.8564 24.136 53.8564 20.744 51.6484 20.744C49.7924 20.776 47.9044 20.808 46.0484 20.808C43.2004 20.84 42.8164 19.432 42.6244 16.84C42.3044 13.064 41.9844 9.32004 41.6964 5.54404C41.5044 3.36804 38.1124 3.36804 38.2724 5.54404Z" fill="#4D4D4D"/>
<path d="M68.9874 7.33604C62.8754 3.40004 56.4114 10.92 56.6674 16.872C56.9874 24.808 67.7074 25.32 73.3074 23.4C75.3554 22.696 74.4594 19.4 72.3794 20.136C69.1154 21.256 62.5554 22.056 60.4754 18.312C58.5234 14.824 63.2274 7.65604 67.2914 10.28C69.1154 11.464 70.8434 8.52004 68.9874 7.33604Z" fill="#4D4D4D"/>
<path d="M78.3244 8.68004C79.2844 13.8 74.2284 26.472 83.8284 26.92C86.9964 27.08 89.7164 24.68 91.0604 22.024C93.1084 17.992 91.9884 13.096 92.4364 8.80804C92.6604 6.63204 89.2684 6.63204 89.0444 8.80804C88.7564 11.56 89.0764 14.344 88.8524 17.128C88.5964 19.88 85.7164 26.088 82.2284 22.6C80.2444 20.616 81.0124 17.256 81.4284 14.824C81.8444 12.424 82.0684 10.184 81.6204 7.78404C81.2044 5.64004 77.9404 6.53604 78.3244 8.68004Z" fill="#4D4D4D"/>
<path d="M95.8011 5.54404C96.0571 8.45604 96.2811 11.4 96.5371 14.312C96.7291 16.648 96.5371 19.432 97.3691 21.608C99.0011 25.832 105.785 24.168 109.177 24.136C111.385 24.136 111.385 20.744 109.177 20.744C107.321 20.776 105.433 20.808 103.577 20.808C100.729 20.84 100.345 19.432 100.153 16.84C99.8331 13.064 99.5131 9.32004 99.2251 5.54404C99.0331 3.36804 95.6411 3.36804 95.8011 5.54404Z" fill="#4D4D4D"/>
<path d="M130.676 20.84C131.124 20.104 131.06 18.984 130.196 18.408C129.204 13.8 127.572 9.38404 125.268 5.16004C124.66 4.04004 122.932 4.04004 122.324 5.16004C120.404 8.77604 118.708 12.488 117.172 16.296C116.084 16.616 115.764 17.896 116.212 18.792C115.54 20.68 114.868 22.568 114.26 24.52C113.62 26.6 116.916 27.496 117.556 25.416C118.164 23.464 118.804 21.544 119.54 19.656C122.164 19.752 124.724 20.2 127.252 20.936C127.508 22.28 127.668 23.624 127.796 25C127.988 27.144 131.38 27.176 131.188 25C131.092 23.592 130.9 22.216 130.676 20.84ZM120.82 16.328C121.748 14.12 122.74 11.944 123.796 9.76804C124.884 12.2 125.78 14.664 126.452 17.224C124.596 16.776 122.74 16.456 120.82 16.328Z" fill="#4D4D4D"/>
<path d="M150.368 4.48804C145.664 5.00004 140.928 5.12804 136.192 4.84004C134.016 4.71204 134.016 8.10404 136.192 8.23204C138.24 8.36004 140.288 8.39204 142.304 8.39204C142.208 8.58404 142.144 8.84004 142.112 9.12804C141.888 13.416 141.952 17.704 142.336 21.992C142.528 24.136 145.92 24.168 145.728 21.992C145.344 17.704 145.28 13.416 145.504 9.12804C145.536 8.77604 145.472 8.52004 145.344 8.29604C147.04 8.20004 148.704 8.07204 150.368 7.88004C152.544 7.65604 152.544 4.26404 150.368 4.48804Z" fill="#4D4D4D"/>
<path d="M165.921 22.408C161.889 23.432 160.641 20.104 160.353 16.136C160.417 16.136 160.481 16.168 160.545 16.168C162.273 16.296 164.033 16.104 165.697 15.528C167.745 14.856 166.849 11.592 164.769 12.264C163.393 12.744 162.017 12.904 160.545 12.776C160.449 12.776 160.353 12.776 160.257 12.776C160.289 10.088 160.481 7.56004 160.321 6.24804C160.321 6.15204 160.289 6.05604 160.257 5.92804C160.481 5.99204 160.737 6.02404 160.961 6.08804C161.057 6.12004 161.153 6.15204 161.249 6.18404L163.841 6.88804C165.985 7.46404 166.817 4.32804 164.737 3.62404C162.241 2.76004 159.681 2.28004 157.025 2.18404C154.849 2.12004 154.849 5.44804 156.961 5.57604C156.897 5.76804 156.897 5.99204 156.929 6.24804C157.569 11.144 155.809 16.488 157.953 21.16C159.553 24.616 163.041 26.632 166.817 25.704C168.961 25.16 168.065 21.896 165.921 22.408Z" fill="#4D4D4D"/>
<path d="M172.277 9.99204C171.733 10.248 171.413 10.888 171.413 11.464C171.413 15.848 171.381 20.264 171.381 24.648C171.381 26.504 173.749 26.792 174.549 25.544C174.773 25.736 175.125 25.864 175.509 25.896C186.933 26.632 180.853 5.73604 172.277 9.99204ZM175.509 22.504C175.221 22.472 174.997 22.536 174.773 22.6C174.805 19.368 174.805 16.136 174.837 12.872C177.589 13.704 181.397 22.888 175.509 22.504Z" fill="#4D4D4D"/>
<path d="M231.216 18.76C229.136 17.192 227.248 15.464 225.456 13.608C228.08 12.808 230.928 11.528 231.44 9.00004C232.144 5.35204 227.792 2.24804 224.816 1.35204C222.224 0.584043 218.416 0.328043 217.584 3.49604C216.976 5.86404 217.52 9.25604 217.52 11.72C217.552 15.144 217.552 18.568 217.552 21.992C217.552 24.168 220.944 24.168 220.944 21.992C220.944 19.304 220.944 16.616 220.944 13.928C220.944 13.832 220.944 13.768 220.944 13.672C220.976 13.736 221.008 13.8 221.072 13.864C223.632 16.776 226.448 19.336 229.488 21.704C231.248 23.016 232.944 20.072 231.216 18.76ZM220.848 11.752C220.72 9.73604 220.56 7.62404 220.912 5.86404C221.232 4.36004 220.688 4.20004 222.544 4.39204C223.76 4.48804 224.912 4.90404 225.904 5.57604C228.112 7.08004 227.504 9.12804 225.264 10.024C224.144 10.44 222.992 10.76 221.84 11.048C221.36 11.144 221.04 11.4 220.848 11.752Z" fill="#4D4D4D"/>
<path d="M235.316 7.14404C235.348 11.848 235.924 16.52 237.044 21.096C237.556 23.208 240.852 22.312 240.34 20.2C239.284 15.88 238.74 11.56 238.74 7.14404C238.708 4.96804 235.316 4.96804 235.316 7.14404Z" fill="#4D4D4D"/>
<path d="M250.206 7.65604C246.622 8.87204 242.078 12.04 244.414 16.392C245.278 17.96 246.814 18.664 248.414 19.24C249.758 19.72 252.158 20.008 252.958 21.288C255.454 24.392 252.158 25.992 249.79 25C248.862 24.68 247.998 24.296 247.134 23.848C245.182 22.856 243.454 25.8 245.406 26.76C249.182 28.616 256.638 30.28 257.438 24.072C257.758 21.608 256.094 19.208 254.142 17.896C252.926 17.064 251.582 16.712 250.206 16.232C249.63 16.04 248.574 15.912 248.158 15.464C245.662 12.872 249.63 11.432 251.102 10.92C253.182 10.216 252.286 6.95204 250.206 7.65604Z" fill="#4D4D4D"/>
<path d="M278.073 22.856C274.969 20.776 271.833 18.696 268.729 16.616C270.521 14.792 272.249 12.904 273.881 10.92C275.225 9.25604 273.081 6.98404 271.449 8.52004C270.489 9.44804 269.497 10.344 268.505 11.272C268.121 11.656 267.961 12.072 267.993 12.488C267.129 13.384 266.265 14.28 265.369 15.144C265.049 12.936 264.665 10.76 264.185 8.55204C263.705 6.44004 260.409 7.33604 260.889 9.48004C262.041 14.696 262.681 19.976 262.809 25.32C262.873 27.496 266.265 27.528 266.233 25.32C266.169 23.304 266.041 21.32 265.881 19.304L265.913 19.272C266.009 19.176 266.105 19.08 266.201 19.016C269.593 21.256 272.985 23.528 276.377 25.768C278.201 26.984 279.897 24.04 278.073 22.856Z" fill="#4D4D4D"/>
<path d="M7.41587 45.976C8.98387 45.4 10.7439 45.208 12.4079 44.92C14.5519 44.568 13.6559 41.304 11.4799 41.656C8.56787 42.136 2.16787 42.52 1.14387 46.072C0.567867 48.024 1.27187 50.648 1.43187 52.632L2.16787 62.008C2.32787 64.152 5.75187 64.184 5.55987 62.008C5.33587 59.256 5.14387 56.504 4.91987 53.72H11.3519C13.5599 53.72 13.5599 50.328 11.3519 50.328H4.63187C4.43987 47.576 4.53587 46.968 7.41587 45.976Z" fill="#4D4D4D"/>
<path d="M30.8911 56.76C28.8111 55.192 26.9231 53.464 25.1311 51.608C27.7551 50.808 30.6031 49.528 31.1151 47C31.8191 43.352 27.4671 40.248 24.4911 39.352C21.8991 38.584 18.0911 38.328 17.2591 41.496C16.6511 43.864 17.1951 47.256 17.1951 49.72C17.2271 53.144 17.2271 56.568 17.2271 59.992C17.2271 62.168 20.6191 62.168 20.6191 59.992C20.6191 57.304 20.6191 54.616 20.6191 51.928C20.6191 51.832 20.6191 51.768 20.6191 51.672C20.6511 51.736 20.6831 51.8 20.7471 51.864C23.3071 54.776 26.1231 57.336 29.1631 59.704C30.9231 61.016 32.6191 58.072 30.8911 56.76ZM20.5231 49.752C20.3951 47.736 20.2351 45.624 20.5871 43.864C20.9071 42.36 20.3631 42.2 22.2191 42.392C23.4351 42.488 24.5871 42.904 25.5791 43.576C27.7871 45.08 27.1791 47.128 24.9391 48.024C23.8191 48.44 22.6671 48.76 21.5151 49.048C21.0351 49.144 20.7151 49.4 20.5231 49.752Z" fill="#4D4D4D"/>
<path d="M48.5911 52.12C48.1431 47.704 43.7591 45.816 40.0471 44.632C38.7351 44.216 37.9031 45.336 37.9671 46.392C32.9111 50.104 34.3831 59.48 41.7431 59.544C45.7111 59.544 48.9751 56.12 48.5911 52.12ZM41.7431 56.152C37.6471 56.088 37.0711 50.04 40.6551 48.696C40.7831 48.664 40.9111 48.6 41.0071 48.504C42.4791 49.048 43.9191 49.784 44.7191 51.064C46.0951 53.304 44.3351 56.184 41.7431 56.152Z" fill="#4D4D4D"/>
<path d="M83.7879 56.376C81.5159 51.32 79.2439 46.296 76.9719 41.24C76.5559 40.248 75.0199 40.152 74.3479 40.888C71.2759 44.216 68.7159 47.8 66.5399 51.704C64.2359 48.984 62.1559 46.072 60.3319 42.968C59.7239 41.88 58.0279 41.816 57.4199 42.968C54.6679 48.056 52.8439 53.336 51.9799 59.128C51.6599 61.24 54.8919 62.168 55.2439 60.024C55.9159 55.512 57.1639 51.32 59.0519 47.288C61.0359 50.328 63.2119 53.176 65.7079 55.864C66.4119 56.632 67.8839 56.472 68.3639 55.512C70.2199 51.768 72.4279 48.376 75.0839 45.176C77.0039 49.496 78.9559 53.784 80.8759 58.104C81.7719 60.088 84.6839 58.36 83.7879 56.376Z" fill="#4D4D4D"/>
<path d="M135.265 42.488C130.561 43 125.825 43.128 121.089 42.84C118.913 42.712 118.913 46.104 121.089 46.232C123.137 46.36 125.185 46.392 127.201 46.392C127.105 46.584 127.041 46.84 127.009 47.128C126.785 51.416 126.849 55.704 127.233 59.992C127.425 62.136 130.817 62.168 130.625 59.992C130.241 55.704 130.177 51.416 130.401 47.128C130.433 46.776 130.369 46.52 130.241 46.296C131.937 46.2 133.601 46.072 135.265 45.88C137.441 45.656 137.441 42.264 135.265 42.488Z" fill="#4D4D4D"/>
<path d="M157.379 45.24C157.187 43.064 153.795 43.064 153.955 45.24C154.403 50.712 154.851 56.152 155.267 61.624C155.459 63.768 158.851 63.8 158.691 61.624C158.243 56.152 157.795 50.712 157.379 45.24ZM152.035 50.552C149.603 50.968 147.139 51.064 144.675 50.904C144.387 49.016 144.035 47.16 143.619 45.272C143.139 43.128 139.875 44.056 140.323 46.168C141.507 51.448 142.115 56.76 142.211 62.2C142.243 64.376 145.667 64.376 145.635 62.2C145.571 59.544 145.411 56.92 145.123 54.328C147.747 54.424 150.339 54.264 152.931 53.816C155.107 53.464 154.179 50.2 152.035 50.552Z" fill="#4D4D4D"/>
<path d="M172.62 60.408C168.588 61.432 167.34 58.104 167.052 54.136C167.116 54.136 167.18 54.168 167.244 54.168C168.972 54.296 170.732 54.104 172.396 53.528C174.444 52.856 173.548 49.592 171.468 50.264C170.092 50.744 168.716 50.904 167.244 50.776C167.148 50.776 167.052 50.776 166.956 50.776C166.988 48.088 167.18 45.56 167.02 44.248C167.02 44.152 166.988 44.056 166.956 43.928C167.18 43.992 167.436 44.024 167.66 44.088C167.756 44.12 167.852 44.152 167.948 44.184L170.54 44.888C172.684 45.464 173.516 42.328 171.436 41.624C168.94 40.76 166.38 40.28 163.724 40.184C161.548 40.12 161.548 43.448 163.66 43.576C163.596 43.768 163.596 43.992 163.628 44.248C164.268 49.144 162.508 54.488 164.652 59.16C166.252 62.616 169.74 64.632 173.516 63.704C175.66 63.16 174.764 59.896 172.62 60.408Z" fill="#4D4D4D"/>
<path d="M220.401 52.952C221.233 51.96 221.649 50.744 221.009 48.952C219.601 45.048 215.345 44.824 211.825 45.272C209.937 45.528 209.713 48.184 211.185 48.632C211.025 53.464 211.377 58.232 212.209 63.032C212.401 64.152 213.425 64.44 214.257 64.12C214.385 64.216 214.513 64.28 214.673 64.344C218.993 65.784 224.497 64.152 225.041 59.032C225.425 55.416 223.185 53.656 220.401 52.952ZM217.649 49.752C218.257 51.544 215.633 52.216 214.577 52.888C214.513 51.416 214.513 49.912 214.577 48.408C215.921 48.408 217.297 48.664 217.649 49.752ZM215.601 61.08C215.505 61.048 215.409 61.016 215.313 61.016C215.057 59.352 214.865 57.656 214.737 55.992C214.929 56.056 215.153 56.088 215.409 56.056C217.553 55.832 221.553 55.288 221.617 58.424C221.713 61.72 217.777 61.816 215.601 61.08Z" fill="#4D4D4D"/>
<path d="M238.992 60.408C234.96 61.432 233.712 58.104 233.424 54.136C233.488 54.136 233.552 54.168 233.616 54.168C235.344 54.296 237.104 54.104 238.768 53.528C240.816 52.856 239.92 49.592 237.84 50.264C236.464 50.744 235.088 50.904 233.616 50.776C233.52 50.776 233.424 50.776 233.328 50.776C233.36 48.088 233.552 45.56 233.392 44.248C233.392 44.152 233.36 44.056 233.328 43.928C233.552 43.992 233.808 44.024 234.032 44.088C234.128 44.12 234.224 44.152 234.32 44.184L236.912 44.888C239.056 45.464 239.888 42.328 237.808 41.624C235.312 40.76 232.752 40.28 230.096 40.184C227.92 40.12 227.92 43.448 230.032 43.576C229.968 43.768 229.968 43.992 230 44.248C230.64 49.144 228.88 54.488 231.024 59.16C232.624 62.616 236.112 64.632 239.888 63.704C242.032 63.16 241.136 59.896 238.992 60.408Z" fill="#4D4D4D"/>
<path d="M259.524 42.872C249.444 38.264 239.556 52.024 247.14 60.152C250.084 63.32 255.556 64.216 258.98 61.272C262.308 58.392 262.436 53.048 259.236 50.072C257.636 48.568 255.236 50.968 256.836 52.472C258.916 54.392 258.532 57.912 255.94 59.256C253.22 60.632 249.892 58.904 248.676 56.376C245.956 50.936 251.62 42.968 257.796 45.784C259.78 46.68 261.508 43.768 259.524 42.872Z" fill="#4D4D4D"/>
<path d="M264.941 45.144C264.973 49.848 265.549 54.52 266.669 59.096C267.181 61.208 270.477 60.312 269.965 58.2C268.909 53.88 268.365 49.56 268.365 45.144C268.333 42.968 264.941 42.968 264.941 45.144Z" fill="#4D4D4D"/>
<path d="M287.671 46.552C286.711 48.856 286.071 51.192 285.751 53.624C282.839 50.488 279.927 47.384 277.015 44.28C276.215 43.416 274.359 43.768 274.199 45.048C273.463 50.136 273.207 55.224 273.559 60.376C273.719 62.52 277.111 62.552 276.951 60.376C276.727 56.664 276.727 52.984 277.079 49.304C280.023 52.472 282.967 55.64 285.911 58.776C286.967 59.896 288.791 59 288.823 57.592C288.887 54.04 289.591 50.744 290.935 47.448C291.799 45.432 288.503 44.568 287.671 46.552Z" fill="#4D4D4D"/>
<path d="M308.691 46.552C307.731 48.856 307.091 51.192 306.771 53.624C303.859 50.488 300.947 47.384 298.035 44.28C297.235 43.416 295.379 43.768 295.219 45.048C294.483 50.136 294.227 55.224 294.579 60.376C294.739 62.52 298.131 62.552 297.971 60.376C297.747 56.664 297.747 52.984 298.099 49.304C301.043 52.472 303.987 55.64 306.931 58.776C307.987 59.896 309.811 59 309.843 57.592C309.907 54.04 310.611 50.744 311.955 47.448C312.819 45.432 309.523 44.568 308.691 46.552Z" fill="#4D4D4D"/>
<path d="M315.439 45.144C315.471 49.848 316.047 54.52 317.167 59.096C317.679 61.208 320.975 60.312 320.463 58.2C319.407 53.88 318.863 49.56 318.863 45.144C318.831 42.968 315.439 42.968 315.439 45.144Z" fill="#4D4D4D"/>
<path d="M338.168 46.552C337.208 48.856 336.568 51.192 336.248 53.624C333.336 50.488 330.424 47.384 327.512 44.28C326.712 43.416 324.856 43.768 324.696 45.048C323.96 50.136 323.704 55.224 324.056 60.376C324.216 62.52 327.608 62.552 327.448 60.376C327.224 56.664 327.224 52.984 327.576 49.304C330.52 52.472 333.464 55.64 336.408 58.776C337.464 59.896 339.288 59 339.32 57.592C339.384 54.04 340.088 50.744 341.432 47.448C342.296 45.432 339 44.568 338.168 46.552Z" fill="#4D4D4D"/>
<path d="M359.988 42.872C349.908 38.264 340.02 52.024 347.604 60.152C350.548 63.32 356.02 64.216 359.444 61.272C362.772 58.392 362.9 53.048 359.7 50.072C358.1 48.568 355.7 50.968 357.3 52.472C359.38 54.392 358.996 57.912 356.404 59.256C353.684 60.632 350.356 58.904 349.14 56.376C346.42 50.936 352.084 42.968 358.26 45.784C360.244 46.68 361.972 43.768 359.988 42.872Z" fill="#4D4D4D"/>
<path d="M17.3999 96.84C17.8479 96.104 17.7839 94.984 16.9199 94.408C15.9279 89.8 14.2959 85.384 11.9919 81.16C11.3839 80.04 9.65587 80.04 9.04787 81.16C7.12787 84.776 5.43187 88.488 3.89587 92.296C2.80787 92.616 2.48787 93.896 2.93587 94.792C2.26387 96.68 1.59187 98.568 0.983867 100.52C0.343867 102.6 3.63987 103.496 4.27987 101.416C4.88787 99.464 5.52787 97.544 6.26387 95.656C8.88787 95.752 11.4479 96.2 13.9759 96.936C14.2319 98.28 14.3919 99.624 14.5199 101C14.7119 103.144 18.1039 103.176 17.9119 101C17.8159 99.592 17.6239 98.216 17.3999 96.84ZM7.54387 92.328C8.47187 90.12 9.46387 87.944 10.5199 85.768C11.6079 88.2 12.5039 90.664 13.1759 93.224C11.3199 92.776 9.46387 92.456 7.54387 92.328Z" fill="#4D4D4D"/>
<path d="M35.5556 84.552C34.5956 86.856 33.9556 89.192 33.6356 91.624C30.7236 88.488 27.8116 85.384 24.8996 82.28C24.0996 81.416 22.2436 81.768 22.0836 83.048C21.3476 88.136 21.0916 93.224 21.4436 98.376C21.6036 100.52 24.9956 100.552 24.8356 98.376C24.6116 94.664 24.6116 90.984 24.9636 87.304C27.9076 90.472 30.8516 93.64 33.7956 96.776C34.8516 97.896 36.6756 97 36.7076 95.592C36.7716 92.04 37.4756 88.744 38.8196 85.448C39.6836 83.432 36.3876 82.568 35.5556 84.552Z" fill="#4D4D4D"/>
<path d="M43.1996 85.992C42.6556 86.248 42.3356 86.888 42.3356 87.464C42.3356 91.848 42.3036 96.264 42.3036 100.648C42.3036 102.504 44.6716 102.792 45.4716 101.544C45.6956 101.736 46.0476 101.864 46.4316 101.896C57.8556 102.632 51.7756 81.736 43.1996 85.992ZM46.4316 98.504C46.1436 98.472 45.9196 98.536 45.6956 98.6C45.7276 95.368 45.7276 92.136 45.7596 88.872C48.5116 89.704 52.3196 98.888 46.4316 98.504Z" fill="#4D4D4D"/>
<path d="M98.3946 90.952C99.2266 89.96 99.6426 88.744 99.0026 86.952C97.5946 83.048 93.3386 82.824 89.8186 83.272C87.9306 83.528 87.7066 86.184 89.1786 86.632C89.0186 91.464 89.3706 96.232 90.2026 101.032C90.3946 102.152 91.4186 102.44 92.2506 102.12C92.3786 102.216 92.5066 102.28 92.6666 102.344C96.9866 103.784 102.491 102.152 103.035 97.032C103.419 93.416 101.179 91.656 98.3946 90.952ZM95.6426 87.752C96.2506 89.544 93.6266 90.216 92.5706 90.888C92.5066 89.416 92.5066 87.912 92.5706 86.408C93.9146 86.408 95.2906 86.664 95.6426 87.752ZM93.5946 99.08C93.4986 99.048 93.4026 99.016 93.3066 99.016C93.0506 97.352 92.8586 95.656 92.7306 93.992C92.9226 94.056 93.1466 94.088 93.4026 94.056C95.5466 93.832 99.5466 93.288 99.6106 96.424C99.7066 99.72 95.7706 99.816 93.5946 99.08Z" fill="#4D4D4D"/>
<path d="M116.986 98.408C112.954 99.432 111.706 96.104 111.418 92.136C111.482 92.136 111.546 92.168 111.61 92.168C113.338 92.296 115.098 92.104 116.762 91.528C118.81 90.856 117.914 87.592 115.834 88.264C114.458 88.744 113.082 88.904 111.61 88.776C111.514 88.776 111.418 88.776 111.322 88.776C111.354 86.088 111.546 83.56 111.386 82.248C111.386 82.152 111.354 82.056 111.322 81.928C111.546 81.992 111.802 82.024 112.026 82.088C112.122 82.12 112.218 82.152 112.314 82.184L114.906 82.888C117.05 83.464 117.882 80.328 115.802 79.624C113.306 78.76 110.746 78.28 108.09 78.184C105.914 78.12 105.914 81.448 108.026 81.576C107.962 81.768 107.962 81.992 107.994 82.248C108.634 87.144 106.874 92.488 109.018 97.16C110.618 100.616 114.106 102.632 117.882 101.704C120.026 101.16 119.13 97.896 116.986 98.408Z" fill="#4D4D4D"/>
<path d="M140.43 82.536C139.438 84.136 138.446 85.736 137.422 87.304C136.366 89.032 136.334 90.536 134.414 89.256C131.15 87.048 128.046 84.552 124.91 82.216C123.15 80.936 121.422 83.88 123.182 85.16C125.646 86.984 128.11 88.808 130.574 90.632C131.406 91.24 132.366 92.168 133.39 92.84C133.23 93.032 133.102 93.288 133.038 93.608C132.494 96.488 132.334 99.336 132.622 102.248C132.846 104.424 136.27 104.424 136.046 102.248C135.758 99.656 135.822 97.096 136.334 94.504C136.398 94.184 136.366 93.896 136.27 93.608C137.326 93.384 138.062 92.584 138.702 91.688C140.398 89.32 141.838 86.696 143.374 84.232C144.558 82.376 141.614 80.68 140.43 82.536Z" fill="#4D4D4D"/>
<path d="M160.629 90.12C160.181 85.704 155.797 83.816 152.085 82.632C150.773 82.216 149.941 83.336 150.005 84.392C144.949 88.104 146.421 97.48 153.781 97.544C157.749 97.544 161.013 94.12 160.629 90.12ZM153.781 94.152C149.685 94.088 149.109 88.04 152.693 86.696C152.821 86.664 152.949 86.6 153.045 86.504C154.517 87.048 155.957 87.784 156.757 89.064C158.133 91.304 156.373 94.184 153.781 94.152Z" fill="#4D4D4D"/>
<path d="M178.289 84.552C177.329 86.856 176.689 89.192 176.369 91.624C173.457 88.488 170.545 85.384 167.633 82.28C166.833 81.416 164.977 81.768 164.817 83.048C164.081 88.136 163.825 93.224 164.177 98.376C164.337 100.52 167.729 100.552 167.569 98.376C167.345 94.664 167.345 90.984 167.697 87.304C170.641 90.472 173.585 93.64 176.529 96.776C177.585 97.896 179.409 97 179.441 95.592C179.505 92.04 180.209 88.744 181.553 85.448C182.417 83.432 179.121 82.568 178.289 84.552Z" fill="#4D4D4D"/>
<path d="M185.933 85.992C185.389 86.248 185.069 86.888 185.069 87.464C185.069 91.848 185.037 96.264 185.037 100.648C185.037 102.504 187.405 102.792 188.205 101.544C188.429 101.736 188.781 101.864 189.165 101.896C200.589 102.632 194.509 81.736 185.933 85.992ZM189.165 98.504C188.877 98.472 188.653 98.536 188.429 98.6C188.461 95.368 188.461 92.136 188.493 88.872C191.245 89.704 195.053 98.888 189.165 98.504Z" fill="#4D4D4D"/>
<path d="M200.439 101.416C202.647 101.416 202.647 98.024 200.439 98.024C198.263 98.024 198.263 101.416 200.439 101.416Z" fill="#4D4D4D"/>
<path d="M9.99976 228.453C24.1711 228.453 41.6438 231.421 55.4687 228.349C57.3087 227.94 59.9817 216.892 60.751 215.402C68.113 201.148 78.1189 187.766 87.2659 174.594C88.2982 173.108 94.3031 162.175 96.1732 165.066C99.8092 170.685 103.567 175.933 106.945 181.845C110.959 188.87 115.753 209.575 122.688 213.538C124.861 214.78 142.619 195.696 146.096 192.616C158.093 181.99 158.06 171.985 172.196 183.295C180.004 189.54 195.442 195.489 200.576 204.216C204.346 210.627 211.38 216.264 216.526 221.41C221.941 226.825 228.089 235.618 231.751 242.332C238.028 253.839 235.584 228.021 235.584 224.724C235.584 213.946 234.841 203.562 237.448 193.134C238.28 189.807 237.989 181.831 239.519 179.152C241.797 175.166 252.199 175.903 255.677 172.109C262.687 164.461 268.641 154.79 275.149 146.837C278.337 142.94 280.576 138.081 284.056 134.408C291.071 127.003 301.907 120.043 306.428 111" stroke="#4D4D4D" stroke-width="3" stroke-linecap="round"/>
<path d="M280 121.025C287.288 119.7 294.427 114.849 300.972 111.656C304.152 110.105 306.904 108.181 309.96 106.473C310.775 106.017 312.04 104 312.908 104C313.995 104 311.389 106.342 311.244 106.52C309.073 109.191 307.327 112.211 305.68 115.223C302.564 120.921 300.955 128.385 299.688 134.721" stroke="#4D4D4D" stroke-width="3" stroke-linecap="round"/>
</svg>
