<svg width="658" height="730" viewBox="0 0 658 730" fill="none" xmlns="http://www.w3.org/2000/svg">
<path d="M474 2C479.261 6.81689 483.984 11.9843 489 17" stroke="#15CE79" stroke-width="3" stroke-linecap="round"/>
<path d="M496 18C501.169 13.3915 507.837 9.32681 511 3" stroke="#15CE79" stroke-width="3" stroke-linecap="round"/>
<path d="M85.7256 189.118C95.214 186.43 102.231 184.417 110.503 179.34C113.673 177.395 118.471 175.516 120.226 172.007C123.151 166.155 122.284 160.783 122.781 154.562C123.255 148.642 124.726 143.485 124.726 137.34C124.726 134.178 124.826 131.369 125.948 128.34C127.678 123.668 133.559 124.441 137.726 124.062C142.689 123.611 148.313 121.602 152.781 124.674C157.122 127.658 160.726 131.69 160.726 137.118C160.726 140.535 161.671 145.422 159.726 148.34C157.725 151.341 154.76 154.249 153.781 157.674C152.109 163.527 155.162 166.312 159.726 168.34C164.722 170.561 170.852 171.465 176.226 173.118C179.165 174.022 192.953 187.891 192.726 188.118" stroke="#4D4D4D" stroke-width="3" stroke-linecap="round"/>
<path d="M87.7257 190.118C78.0446 190.687 81.7257 219.203 81.7257 224.785C81.7257 232.967 82.0182 241.06 84.2257 249.007C85.1958 252.499 85.2822 257.297 89.2257 258.173C93.6982 259.167 96.5262 260.231 101.503 260.118C106.755 259.999 113.309 257.261 117.726 254.562C123.427 251.078 128.761 247.935 134.726 244.896C138.571 242.937 142.341 240.268 145.503 237.34C147.158 235.808 145.575 237.118 143.726 237.118" stroke="#4D4D4D" stroke-width="3" stroke-linecap="round"/>
<path d="M98.7256 239.118C109.028 229.264 125.769 218.118 140.726 218.118C145.976 218.118 154.271 209.966 159.726 215.118C164.975 220.076 168.011 223.486 167.726 230.896C167.494 236.912 159.009 238.118 154.726 238.118" stroke="#4D4D4D" stroke-width="3" stroke-linecap="round"/>
<path d="M191.726 192.118C189.451 199.794 191.58 207.388 191.726 215.118C191.868 222.655 192.844 229.681 193.67 237.118C194.553 245.066 195.13 258.801 185.503 261.896C180.325 263.56 175.488 258.728 171.503 256.118C166.587 252.897 161.828 249.449 157.281 245.729C153.84 242.914 148.263 238.118 143.726 238.118" stroke="#4D4D4D" stroke-width="3" stroke-linecap="round"/>
<path d="M101.726 261.118C101.726 284.086 98.7256 306.972 98.7256 329.896C98.7256 347.636 98.7256 365.377 98.7256 383.118C98.7256 395.393 101.726 407.649 101.726 419.618C101.726 425.829 104.726 430.878 104.726 437.34C104.726 441.766 104.726 446.192 104.726 450.618C104.726 453.346 104.726 459.553 104.726 453.118" stroke="#4D4D4D" stroke-width="3" stroke-linecap="round"/>
<path d="M177.726 264.118C177.726 287.515 176.708 310.272 174.726 333.562C173.747 345.063 169.229 356.208 167.281 367.618C165.629 377.292 164.841 387.35 163.503 397.118C161.559 411.313 161.726 425.243 161.726 439.618C161.726 448.238 162.593 453.912 167.226 461.118C169.286 464.324 175.288 469.399 175.726 473.118C176.425 479.065 177.365 484.628 175.67 490.562C174.425 494.919 165.022 493.118 161.726 493.118C156.185 493.118 151.848 492.423 149.726 487.118" stroke="#4D4D4D" stroke-width="3" stroke-linecap="round"/>
<path d="M142.726 297.118C142.726 322.334 142.767 346.934 138.726 371.896C136.482 385.755 135.692 399.946 133.948 413.896C132.236 427.591 133.048 441.469 130.948 455.118C129.538 464.279 137.648 472.041 143.726 478.118C148.006 482.398 148.726 488.224 148.726 494.118C148.726 511.553 120.205 491.08 114.726 488.34C112.216 487.085 110.141 486.951 108.948 484.118C107.538 480.769 107.883 472.89 107.726 469.34C107.359 461.103 106.206 452.261 104.726 444.118" stroke="#4D4D4D" stroke-width="3" stroke-linecap="round"/>
<path d="M108.726 480.118C104.007 480.118 95.9347 483.255 95.7258 488.896C95.4386 496.649 97.2388 498.765 103.17 503.618C114.659 513.018 133.505 510.118 147.281 510.118C155.605 510.118 162.706 507.733 170.781 506.118C173.34 505.606 183.355 501.454 183.726 498.118C184.521 490.961 185.326 484.118 175.726 484.118" stroke="#4D4D4D" stroke-width="3" stroke-linecap="round"/>
<path d="M183.726 496.118C183.726 505.596 181.726 514.708 181.726 524.118C181.726 527.118 181.726 530.118 181.726 533.118C181.726 535.426 182.58 541.545 181.726 541.118" stroke="#4D4D4D" stroke-width="3" stroke-linecap="round"/>
<path d="M97.7256 495.118C97.7256 503.757 98.0589 511.612 99.5034 520.118C100.333 525.002 99.0739 534.14 101.726 538.118" stroke="#4D4D4D" stroke-width="3" stroke-linecap="round"/>
<path d="M97.7256 543.118C99.8247 554.186 105.698 553.559 115.226 554.173C122.1 554.617 128.749 555.118 135.67 555.118C140.307 555.118 150.454 554.661 152.726 550.118" stroke="#4D4D4D" stroke-width="3" stroke-linecap="round"/>
<path d="M98.7258 533.118C97.7655 541.761 84.0326 547.766 79.948 555.118C78.8054 557.175 75.351 558.054 74.7813 560.618C74.0723 563.808 75.6203 567.494 74.2258 570.562C68.1958 583.828 85.9181 589.695 94.6702 594.618C109.404 602.906 130.85 599.172 146.504 595.896C154.871 594.144 162.936 591.057 170.67 587.673C173.913 586.255 182.113 582.344 183.726 579.118" stroke="#4D4D4D" stroke-width="3" stroke-linecap="round"/>
<path d="M183.726 536.118C186.573 541.496 192.466 544.954 195.503 550.118C196.444 551.718 198.274 551.905 199.226 553.618C200.561 556.021 198.726 558.168 198.726 560.618C198.726 565.166 198.909 570.227 197.67 574.562C197.415 575.457 195.643 575.1 194.948 575.34C193.29 575.914 192.097 577.867 190.726 578.896C184.543 583.533 179.071 587.447 171.726 590.118" stroke="#4D4D4D" stroke-width="3" stroke-linecap="round"/>
<path d="M73.7256 563.118C83.3307 578.86 99.9749 581.118 116.948 581.118C124.04 581.118 131.133 581.118 138.226 581.118C145.61 581.118 151.74 577.228 158.726 575.34C167.146 573.064 176.697 571.147 182.948 564.896C185.377 562.467 188.103 561.506 191.226 560.118C192.631 559.494 198.609 556.824 194.726 558.118" stroke="#4D4D4D" stroke-width="3" stroke-linecap="round"/>
<path d="M135.726 162.118C136.272 165.032 143.057 166.266 145.726 166.118C149.196 165.925 152.385 162.458 154.726 160.118" stroke="#4D4D4D" stroke-width="3" stroke-linecap="round"/>
<path d="M175.726 200.118C175.726 206.604 174.22 213.164 174.781 219.618C175.063 222.857 175.726 225.822 175.726 229.118" stroke="#4D4D4D" stroke-width="3" stroke-linecap="round"/>
<path d="M101.726 211.118C101.726 219.003 101.326 226.871 102.503 234.673C102.804 236.662 103.635 241.163 101.726 242.118" stroke="#4D4D4D" stroke-width="3" stroke-linecap="round"/>
<path d="M274 463C266.702 463.521 260.267 470.288 260 477.778C259.701 486.147 268.376 488.922 275.222 489.778C284.694 490.962 295.243 492.797 304.778 493C310.839 493.129 320.227 494.689 326 492.444C332.061 490.088 345 482.832 345 475C345 470.492 343.351 471.24 340.556 468.444C338.479 466.368 332.867 466.734 332 465" stroke="#4D4D4D" stroke-width="3" stroke-linecap="round"/>
<path d="M382 462C374.51 462.288 361.407 471.868 361 480C360.564 488.713 371.769 491.776 379 493.222C388.816 495.185 398.903 498.72 409 499C415.626 499.184 424.582 500.428 431 498.778C438.253 496.913 446.362 495.466 453 491.778C455.769 490.24 456.158 480.839 456 478C455.744 473.393 447.626 470.181 444 470C441.403 469.87 437.429 468.245 435 467.222C432.423 466.137 432.059 468.485 430 469" stroke="#4D4D4D" stroke-width="3" stroke-linecap="round"/>
<path d="M256 613C263.988 617.229 267.783 623.553 273.778 629.778C278.172 634.341 278.835 639.344 279.944 645.444C281.376 653.316 284 660.876 284 669C284 677.148 284 685.296 284 693.444C284 697.035 281 700.031 281 703.5C281 706.78 278 708.769 278 712" stroke="#4D4D4D" stroke-width="3" stroke-linecap="round"/>
<path d="M266 621C273.203 618.507 281.467 617 289 617" stroke="#4D4D4D" stroke-width="3" stroke-linecap="round"/>
<path d="M291 616C306.36 616 317 638.538 317 651.5C317 659.198 318.775 665.499 315.222 673C313.457 676.726 309.635 686.182 306 688" stroke="#4D4D4D" stroke-width="3" stroke-linecap="round"/>
<path d="M307 689C301.852 689 297.403 690.855 292.5 691.944C288.012 692.942 285.07 696.643 281 698" stroke="#4D4D4D" stroke-width="3" stroke-linecap="round"/>
<path d="M317 668C344.467 662.07 370.15 648.882 397.722 643.611C417.877 639.758 438.387 633.406 457.556 626C466.466 622.557 475.046 618.698 484 615.5C491.679 612.757 497.951 618.063 505 619.778C512.271 621.546 520.144 621.924 527.5 623.055C531.621 623.689 537.024 625.327 541 623.222C548.446 619.28 549.236 606.707 551.222 599.555C553.64 590.853 556.102 583.271 559.778 575C561.719 570.633 558.686 568.396 557 565.444C555.606 563.005 548.577 561.18 552.222 559.778C556.956 557.957 558.624 553.246 562.556 551C566.432 548.785 566.774 546.283 569.222 543.222C575.382 535.523 565.784 530.055 562.222 524C556.158 513.691 529 516.274 529 529C529 531.558 529.993 536.491 531.556 538.5C534.623 542.444 531.862 543.111 529.222 545.222C524.057 549.354 514.823 546.306 509 546C492.766 545.145 476.265 546 460 546C453.719 546 444 544.902 444 554C444 562.559 448.475 566.95 452 574" stroke="#4D4D4D" stroke-width="3" stroke-linecap="round"/>
<path d="M473 591C473.293 580.757 476.014 576 486.5 576C492.131 576 496.217 582.386 501 584.778C503.283 585.919 505.65 586.733 508 587.778C510.941 589.085 513.787 591.183 517.056 592C521.846 593.198 535.938 597 531 597" stroke="#4D4D4D" stroke-width="3" stroke-linecap="round"/>
<path d="M532 578C529.568 579.86 527.34 582.353 524.778 584C523.275 584.966 521.348 584.787 520 586C517.841 587.943 516.373 590.418 514 592" stroke="#4D4D4D" stroke-width="3" stroke-linecap="round"/>
<path d="M446 574C428.235 574 409.394 585.531 393.222 592C384.128 595.638 375.598 601.233 366.222 604C358.778 606.197 350.986 609.952 344 613.444C337.074 616.908 327.171 619 319.5 619C317.981 619 315.368 619.502 314 618.778C312.035 617.737 312.125 615.679 309.556 614.944C304.247 613.428 304.492 616.262 302 620" stroke="#4D4D4D" stroke-width="3" stroke-linecap="round"/>
<path d="M313 633C317.154 630.175 320.24 628.109 325.444 629.056C328.205 629.558 330.228 632.692 333 633C336.075 633.342 338.182 635 341.556 635C347.245 635 352.532 632.215 358 631C361.572 630.206 364.465 627.718 368.056 627C371.862 626.239 375.332 625.246 379 624C387.806 621.009 396.65 618.138 405.5 615.444C413.662 612.96 421.561 609.773 429.778 607.444C433.272 606.454 446.639 604.721 448 602" stroke="#4D4D4D" stroke-width="3" stroke-linecap="round"/>
<path d="M452 576C456.341 578.554 459.146 582.478 464 584.778C466.926 586.164 469.852 587 473 587" stroke="#4D4D4D" stroke-width="3" stroke-linecap="round"/>
<path d="M473 561C474.879 565.441 478.771 568.029 480 572.944C480.594 575.319 481.264 577.264 483 579" stroke="#4D4D4D" stroke-width="3" stroke-linecap="round"/>
<path d="M259 482C259 492.433 258 502.655 258 513.056C258 515.704 258 518.352 258 521C258 523.485 260 524.709 260 527C260 529.258 261 531.133 261 533.5C261 537.233 259.441 537.98 257.5 541C255.672 543.844 243.466 555.233 245 556" stroke="#4D4D4D" stroke-width="3" stroke-linecap="round"/>
<path d="M360 489C358.221 493.003 360 498.527 360 502.889C360 507.222 360 511.556 360 515.889C360 521.887 359.629 527.048 358.056 532.556C357.63 534.043 357.167 536.493 357 538C356.736 540.374 353.713 540.842 352.222 542.222C347.743 546.37 342.849 555.05 337 557" stroke="#4D4D4D" stroke-width="3" stroke-linecap="round"/>
<path d="M452 487C446.376 500.357 449 518.612 449 533" stroke="#4D4D4D" stroke-width="3" stroke-linecap="round"/>
<path d="M242 615C247.527 620.527 253.378 625.08 257.222 632C259.511 636.119 261.943 640.561 265 644C268.124 647.514 267.688 655.345 269.222 659.778C271.366 665.971 270.777 673.024 271.944 679.444C272.856 684.459 272 690.389 272 695.5C272 700.546 270.55 704.327 270 709C269.546 712.856 265.683 717.317 263 720C258.933 724.067 253.955 723.73 249 725.5C233.573 731.01 221.258 713.627 215.444 702C212.281 695.672 212.573 688.578 210.5 681.944C208.038 674.066 208 666.167 208 658C208 642.901 206.229 626.767 219.5 616.444C223.974 612.964 225.865 613 231.556 613C235.483 613 240.999 612.999 243 617" stroke="#4D4D4D" stroke-width="3" stroke-linecap="round"/>
<path d="M231 616C235.998 613.501 240.517 613 246 613C248.121 613 253.058 613.885 254 612" stroke="#4D4D4D" stroke-width="3" stroke-linecap="round"/>
<path d="M257 728C260.047 726.476 263.787 726.007 266.5 724.5C268.217 723.546 270.091 722 272 722" stroke="#4D4D4D" stroke-width="3" stroke-linecap="round"/>
<path d="M343 478C343 489.062 343.659 499.084 342.222 510.222C341.633 514.792 342.451 519.44 341.944 524C341.623 526.892 340.272 528.408 342 531" stroke="#4D4D4D" stroke-width="3" stroke-linecap="round"/>
<path d="M241 558C238.358 563.946 240 572.538 240 579" stroke="#4D4D4D" stroke-width="3" stroke-linecap="round"/>
<path d="M239 577C239.31 585.07 246.969 585.985 253 589C256.157 590.579 259.564 592.919 263 593.778C266.436 594.637 270.238 594.054 273.778 594.778C284.073 596.884 295.489 597 306 597" stroke="#4D4D4D" stroke-width="3" stroke-linecap="round"/>
<path d="M335 561C333.311 564.589 334 569.115 334 573C334 574.289 333.767 582.233 335 581" stroke="#4D4D4D" stroke-width="3" stroke-linecap="round"/>
<path d="M333 583C341.043 586.785 351.094 594 360 594" stroke="#4D4D4D" stroke-width="3" stroke-linecap="round"/>
<path d="M334 562C338.551 573.378 357.927 576 368.5 576C373.278 576 392.881 578.239 395 574" stroke="#4D4D4D" stroke-width="3" stroke-linecap="round"/>
<path d="M241 557C241.958 562.75 254.776 565.779 259.556 567.5C267.685 570.426 274.282 572 283 572C292.686 572 302.258 573 312 573" stroke="#4D4D4D" stroke-width="3" stroke-linecap="round"/>
<path d="M287 450C282.015 453.812 270.682 461.889 272.056 469.444C273.684 478.403 286.883 477.112 293 476" stroke="#4D4D4D" stroke-width="3" stroke-linecap="round"/>
<path d="M307 451.5C305.671 453.289 304.411 455.788 302.667 457.222C300.457 459.039 298.327 460.481 296.722 462.889C295.738 464.366 293.638 466.819 293.5 468.611C293.362 470.409 292.018 473.43 293.5 475C295.09 476.684 296.139 478.577 298.25 479.75C302.47 482.094 308.13 479.811 312.111 478.389C316.989 476.647 321.225 473.144 326.25 472.028C330.684 471.042 329.5 464.262 329.5 460.472C329.5 454.944 329 449.511 329 443.972C329 435.782 327 427.816 327 419.611C327 401.494 329 383.65 329 365.528C329 358.448 329.487 351.536 330.028 344.5C330.208 342.151 330.5 339.925 330.5 337.556C330.5 336.456 331.62 334.12 331 333.5" stroke="#4D4D4D" stroke-width="3" stroke-linecap="round"/>
<path d="M399 288.5C397.599 310.451 394.726 332.272 394.028 354.25C393.499 370.909 394 387.664 394 404.333C394 414.631 394.5 424.86 394.5 435.167C394.5 438.687 393.933 441.751 393.528 445.194C393.273 447.358 391.03 448.829 389.5 450.25C383.518 455.805 378.469 463.503 379.528 471.972C380.073 476.337 383.897 476.606 387.5 476.5C389.842 476.431 397.437 474.627 398.5 472.5" stroke="#4D4D4D" stroke-width="3" stroke-linecap="round"/>
<path d="M414 446C410.45 450.634 407.557 455.33 403.5 459.5C401.457 461.6 400.522 463.756 399.611 466.389C397.918 471.28 402.348 477.584 407.028 479.222C410.286 480.363 414.123 478.646 417.222 477.778C420.387 476.892 422.906 476.57 425.722 474.778C426.605 474.216 429.07 473.663 429.5 472.694C430.432 470.597 430.977 469.486 431.389 467.167C432.275 462.182 431.5 456.44 431.5 451.389C431.5 445.094 431.429 438.795 431.5 432.5C431.593 424.239 434 416.272 434 407.944C434 404.5 433.738 400.929 434.111 397.5C434.56 393.372 435.807 389.385 436.25 385.222C437.229 376.017 437.616 366.798 438.778 357.611C440.427 344.569 439 332.229 439 319.194C439 311.871 439.5 304.588 439.5 297.278C439.5 294.308 438.175 288.325 440.5 286" stroke="#4D4D4D" stroke-width="3" stroke-linecap="round"/>
<path d="M418.5 300.5C415.357 328.042 414.283 355.97 413 383.667C412.42 396.194 411.944 408.963 412.611 421.5C412.957 428.002 413.594 434.503 414 441C414.037 441.589 414.5 438.621 414.5 438" stroke="#4D4D4D" stroke-width="3" stroke-linecap="round"/>
<path d="M309.5 358.5C309.437 379.059 308.36 399.318 306.5 419.778C305.778 427.723 305.5 435.528 305.5 443.5C305.5 445.167 305.5 446.833 305.5 448.5C305.5 449.391 306.006 452.51 305 451" stroke="#4D4D4D" stroke-width="3" stroke-linecap="round"/>
<path d="M282 455C279.983 444.976 278.726 435.107 278.528 424.889C278.311 413.705 281.013 402.913 281.444 391.806C282.114 374.56 280.425 357.567 282.222 340.361C283.064 332.3 282 324.096 282 316C282 315.008 281.312 307.718 283.5 311" stroke="#4D4D4D" stroke-width="3" stroke-linecap="round"/>
<path d="M283 312.5C283 304.667 283 296.833 283 289C283 286.019 283.5 283.111 283.5 280.111C283.5 277.774 284.5 275.758 284.5 273.5" stroke="#4D4D4D" stroke-width="3" stroke-linecap="round"/>
<path d="M330 337.5C330.69 330.084 330.811 322.685 331.5 315.278C331.982 310.092 331.644 304.929 332.028 299.75C332.139 298.243 334.102 286.949 334 287" stroke="#4D4D4D" stroke-width="3" stroke-linecap="round"/>
<path d="M311 270.5C319.343 275.267 327.959 275.815 337.139 277C341.241 277.529 344.874 278.5 349.056 278.5C360.598 278.5 356.046 260.742 355.528 253.75C354.634 241.683 354.355 229.051 355.028 216.944C355.372 210.746 355.101 204.467 355.528 198.278C355.812 194.156 356.542 190.454 353.472 187C350.565 183.73 347.347 179.99 342.778 179.111C340.101 178.596 334.769 178.154 332.611 176.389C329.796 174.086 330.5 171.413 330.5 167.889C330.5 161.16 329.128 154.723 328.111 148.111C327.762 145.843 327.537 142.909 326.389 140.889C324.556 137.663 322.453 133.156 319.389 131C315.397 128.191 312.463 129.183 308 130.389C297.499 133.227 294.5 145.635 294.5 155.111C294.5 159.091 295.507 164.405 298.75 167C300.242 168.194 303.018 170 305 170C306.311 170 307.576 170.098 308.75 170.75C309.202 171.001 309.694 172.444 309.75 172.444C310.487 172.444 308.584 171.102 308.25 171.028C307.112 170.775 307 171.28 307 172.25M288.028 187.222C286.565 188.929 284.618 190.792 283 192.5C279.314 196.391 278.849 201.053 277.111 206C274.372 213.797 272.165 221.716 271.389 229.944C270.71 237.14 269.12 244.384 267.889 251.5C267.285 254.99 267 258.013 267 261.611C267 265.062 274.203 267.474 277 267.889C282.456 268.697 288.808 267.699 294 266C296.152 265.296 298.01 263.811 300.111 263.111C300.346 263.033 302.709 262.5 302 262.5" stroke="#4D4D4D" stroke-width="3" stroke-linecap="round"/>
<path d="M313 272.5C309.923 269.474 307.431 267.908 303.722 266C301.358 264.784 299.9 262.678 298.5 260.5C295.982 256.584 294.563 251.026 296.25 246.528C297.506 243.179 298.659 241.198 302.5 240.5C305.64 239.929 308.602 239.51 311.5 241C313.881 242.224 314.069 243.676 315.611 245.389C317.11 247.055 321.792 245.836 323.75 246.278C327.963 247.229 331.369 249.5 335.75 249.5C337.574 249.5 339.398 249.5 341.222 249.5C341.97 249.5 342.719 249.5 341.5 249.5" stroke="#4D4D4D" stroke-width="3" stroke-linecap="round"/>
<path d="M336 206.5C333.674 217.498 332.126 229.202 332 240.5C331.98 242.305 331.423 245.281 332.111 247C332.751 248.599 332.17 246.51 332 246" stroke="#4D4D4D" stroke-width="3" stroke-linecap="round"/>
<path d="M289.5 210.5C290.83 217.859 289.424 226.054 288 233.389C287.691 234.982 283.92 242.96 286 244" stroke="#4D4D4D" stroke-width="3" stroke-linecap="round"/>
<path d="M306 309.5C305.497 316.61 305.952 323.813 306 330.944C306.047 337.827 306.131 345.125 307.5 351.889C308.094 354.821 309 357.507 309 360.5" stroke="#4D4D4D" stroke-width="3" stroke-linecap="round"/>
<path d="M439.5 287.5C439.5 283.253 440.09 279.314 440.472 275.111C440.929 270.086 440.44 265.043 441 260C441.767 253.093 443.26 246.06 443.5 239.111C443.532 238.18 444.076 233.651 444.5 234.5" stroke="#4D4D4D" stroke-width="3" stroke-linecap="round"/>
<path d="M397 296.5C396.217 283.966 393.253 271.876 392.5 259.333C391.784 247.412 391.981 235.524 391.111 223.611C390.726 218.34 391.193 211.662 389.389 206.611C388.928 205.321 386.55 204.439 385.389 204C381.184 202.412 376.319 202.44 372 201C370.563 200.521 368.986 199.679 367.472 199.528C365.996 199.38 364.459 199.704 363 199.389C361.426 199.049 353.926 199.648 355 197.5" stroke="#4D4D4D" stroke-width="3" stroke-linecap="round"/>
<path d="M416 194C415.704 186.304 414.755 178.354 408.472 173.25C406.566 171.701 404.778 170.406 403.111 168.611C401.026 166.365 401.866 163.13 401.389 160.389C399.581 149.991 400.625 135.687 411.472 130.806C417.099 128.274 422.307 130.678 425.889 135.5C430.223 141.334 429.5 148.805 429.5 155.75C429.5 162.039 428.5 168.065 428.5 174.389C428.5 176.759 428.5 179.13 428.5 181.5C428.5 182.005 428.366 184.769 429 183.5" stroke="#4D4D4D" stroke-width="3" stroke-linecap="round"/>
<path d="M417.5 188.5C414.704 187.822 411.371 187.207 408.5 187.028C404.687 186.789 400.208 186.849 396.611 185.5C391.689 183.654 386.552 184.013 381.5 182.75C377.171 181.668 372.791 180.83 368.472 179.75C366.052 179.145 363.478 179.162 361 178.611C358.728 178.106 355.808 177.761 353.472 177.528C352.266 177.407 343.177 176.647 342.5 178" stroke="#4D4D4D" stroke-width="3" stroke-linecap="round"/>
<path d="M308 172.5C308 181.21 307.5 190.154 307.5 198.75C307.5 201.113 306.425 202.256 304.5 203.111C301.525 204.433 299.101 200.221 297.778 198.056C295.093 193.662 292 190.34 292 185C292 177.876 296.271 173.729 301 169" stroke="#4D4D4D" stroke-width="3" stroke-linecap="round"/>
<path d="M442 235C436.422 224.541 451.091 257.59 459.472 265.972C461.965 268.465 463.981 270.277 467.889 269.389C471.507 268.567 475.55 264.496 477.75 261.722C481.869 256.529 480.932 249.326 482.972 243.333C485.508 235.886 485.081 228.408 485 220.611C484.944 215.162 484.5 209.721 484.5 204.25C484.5 202.685 484.5 201.12 484.5 199.556C484.5 198.124 485.051 196.837 483.5 198" stroke="#4D4D4D" stroke-width="3" stroke-linecap="round"/>
<path d="M426.5 184C431.531 184 436.421 184.112 441.417 184.528C443.921 184.737 444.837 187.58 446 189.389C448.022 192.534 448.932 195.919 449.75 199.556C450.958 204.925 451.973 210.467 453 215.889C453.83 220.271 455.255 224.51 457.25 228.5C458.531 231.063 460.243 233.395 460.889 236.222C461.301 238.023 462.155 243 464.5 243" stroke="#4D4D4D" stroke-width="3" stroke-linecap="round"/>
<path d="M464.5 243C466.583 229.034 467 214.847 467 200.75C467 200.139 467.351 197.989 466.889 197.611C465.915 196.814 462.36 197.633 461.111 197.389C458.55 196.888 452.127 193.397 456.972 191.278C459.556 190.147 462.235 192 464.75 192C466.096 192 466.798 191.916 466.389 190.278C465.497 186.712 464.07 183.173 463.611 179.5C463.211 176.303 462.916 172.014 464.222 169.028C465.029 167.183 466.586 172.492 467 173.556C468.225 176.705 468.982 179.827 470 183C470.359 184.12 471.436 185.907 471.5 187C471.534 187.584 471.609 189.013 472.25 188.5C473.588 187.43 472.981 182.437 473 181C473.05 177.254 474.5 173.817 474.5 170.056C474.5 168.812 474.023 166.662 475.222 165.806C475.625 165.518 475.57 167.169 475.611 167.389C475.813 168.473 476.173 169.529 476.389 170.611C477.086 174.095 477.088 177.534 477.611 181C477.854 182.612 477.683 184.792 478.5 186.222C478.878 186.884 481.062 186.5 481.778 186.5C484.028 186.5 488.595 185.658 490.222 187.75C491.818 189.802 491.238 193.445 489.5 195C485.27 198.785 478.617 199 473.5 199" stroke="#4D4D4D" stroke-width="3" stroke-linecap="round"/>
<path d="M403.5 167.5C405.247 167.603 406.655 168.5 408.5 168.5C411.333 168.5 414.167 168.5 417 168.5" stroke="#4D4D4D" stroke-width="3" stroke-linecap="round"/>
<path d="M6 110.966C25.7014 106.385 37 90.4194 37 70.4109C37 68.2555 37 62.8272 37 68.522C37 75.3739 37.7931 82.2817 41 88.4664C44.0137 94.2786 47.7251 99.2488 51.2222 104.744C54.2438 109.492 57.5181 109.966 62.7778 109.966C64.463 109.966 69.9385 109.966 65 109.966C57.9628 109.966 52.1369 112.847 46.5 117.022C38.671 122.821 31.8206 136.703 30.0556 146.411C29.62 148.806 30 150.876 30 146.744C30 141.294 30.9168 134.931 29 129.744C24.8576 118.535 14.1397 109.966 2 109.966" stroke="#15CE79" stroke-width="3" stroke-linecap="round"/>
<path d="M482 317C498.6 309.253 513.06 298.392 513.944 278.5C514.203 272.68 516.484 260.809 513.056 255.667C511.164 252.829 512.65 262.573 513.444 265.889C515.529 274.593 517.12 284.453 521 292.556C525.793 302.565 531.55 309.112 542.5 312.444C543.934 312.881 552.313 313 547 313C540.738 313 538.334 315.138 534 319.556C529.012 324.639 524.411 331.541 520.556 337.556C516.777 343.451 513 349.239 513 356.389C513 358.906 512.221 362.756 512 357.778C511.657 350.067 510.232 341.904 506.222 335.222C503.036 329.912 496.18 321.827 490 320.944C487.227 320.548 479.231 318.462 478 316" stroke="#15CE79" stroke-width="3" stroke-linecap="round"/>
<path d="M219 81C223.961 83.4514 228.958 85.7312 234 88" stroke="#15CE79" stroke-width="3" stroke-linecap="round"/>
<path d="M244 95C248.255 97.7818 252.802 100.201 257 103" stroke="#15CE79" stroke-width="3" stroke-linecap="round"/>
<path d="M243 86C246.693 81.3552 250.296 76.6301 254 72" stroke="#15CE79" stroke-width="3" stroke-linecap="round"/>
<path d="M232 102C227.597 106.477 223.788 110.424 221 116" stroke="#15CE79" stroke-width="3" stroke-linecap="round"/>
<path d="M68 398C71.702 393.359 75.3555 388.686 79 384" stroke="#15CE79" stroke-width="3" stroke-linecap="round"/>
<path d="M63 402C59.7629 407.044 55.6797 411.641 53 417" stroke="#15CE79" stroke-width="3" stroke-linecap="round"/>
<path d="M48 390C51.3191 391.685 56.7145 393.143 58 397" stroke="#15CE79" stroke-width="3" stroke-linecap="round"/>
<path d="M71 404C73.6477 405.135 75.6536 406.436 78 408" stroke="#15CE79" stroke-width="3" stroke-linecap="round"/>
<path d="M496 23C501.275 26.7494 506.426 30.426 511 35" stroke="#15CE79" stroke-width="3" stroke-linecap="round"/>
<path d="M486 27C483.439 30.7904 480.778 34.3882 478 38" stroke="#15CE79" stroke-width="3" stroke-linecap="round"/>
<path d="M185 406C197.461 400.693 204.914 394.449 207 380.889C207.489 377.712 208.288 374.973 209.444 372C210.003 370.564 208.728 367.071 210.222 367.445C212.131 367.922 213.016 378.402 213.556 379.945C214.952 383.935 218.548 391.189 222 393.778C225.301 396.254 229.722 397.047 233.5 398.5C236.006 399.464 238.624 398.442 241 399.778C242.349 400.537 236.179 402.079 235 402.5C230.742 404.021 226.966 408.388 224.444 412.056C221.189 416.791 218.182 421.383 216.778 427C215.814 430.854 216.638 434.629 215.944 438.445C214.932 444.011 214.442 433.74 214.222 432.445C213.405 427.633 211.878 423.283 209.5 419.056C206.821 414.293 201.468 411.763 199 407.445C196.805 403.603 189.704 405.482 186 404" stroke="#15CE79" stroke-width="3" stroke-linecap="round"/>
<path d="M216 339.274C227.392 341.173 236 349.45 236 361.496C236 362.132 236 367.471 236 364.774C236 360.169 235.716 355.474 236.056 350.885C236.609 343.416 242.517 333.592 250.778 333.274C252.554 333.206 255.617 332.274 252 332.274C248.024 332.274 244.72 331.363 241.556 328.774C234.479 322.984 234 316.383 234 307.885C234 306.484 234 303.029 234 306.496C234 310.856 234.632 315.78 233.778 320.052C232.017 328.857 223.757 345.86 213 342.274" stroke="#4D4D4D" stroke-width="3" stroke-linecap="round"/>
<path d="M598 255C606.807 246.192 613.847 239.15 618.389 227.5C622.154 217.842 621 207.052 621 196.889C621 192.5 621.897 179.438 620.944 183.722C619.782 188.955 619.853 194.2 620.056 199.556C620.506 211.496 624.157 231.941 637.5 236.389C639.19 236.952 656.858 237.959 655.778 240C653.95 243.453 646.902 246.209 644.056 249.056C638.94 254.171 636.034 260.454 633.778 267.222C631.716 273.407 631.747 279.21 630.5 285.444C630.031 287.789 629.302 293.196 628.944 287.833C628.227 277.068 623.902 260.96 613 256.5C608.163 254.521 601.009 250.661 596 254" stroke="#15CE79" stroke-width="3" stroke-linecap="round"/>
<path d="M592 449C596.804 451.431 601.784 453.627 606 457" stroke="#15CE79" stroke-width="3" stroke-linecap="round"/>
<path d="M612 465C617.251 468.063 622.262 470.525 625 476" stroke="#15CE79" stroke-width="3" stroke-linecap="round"/>
<path d="M612 461C614.31 458.091 617.369 454.21 621 453" stroke="#15CE79" stroke-width="3" stroke-linecap="round"/>
<path d="M593 473C595.844 471.066 599.875 468.375 601 465" stroke="#15CE79" stroke-width="3" stroke-linecap="round"/>
</svg>
