<svg width="303" height="400" viewBox="0 0 303 400" fill="none" xmlns="http://www.w3.org/2000/svg">
<rect width="303" height="400" fill="#15CE79" fill-opacity="0.1"/>
<path d="M129.489 50.6698C135.568 59.1123 146.53 58.6698 155.934 58.6698C164.239 58.6698 173.661 61.1184 181.934 59.6143C184.297 59.1846 188.184 57.1125 190.489 55.8921C193.066 54.5277 191.465 44.8975 190.989 42.6143C189.802 36.9165 190.489 30.48 190.489 24.6698C190.489 22.1821 191.779 16.38 188.489 19.6698C186.376 21.7826 174.348 39.4471 171.045 38.5032C170.181 38.2562 168.553 32.6836 167.934 31.6698C165.717 28.0424 163.891 24.5845 161.989 20.781C161.227 19.2557 160.338 17.7113 159.489 16.2254C158.638 14.7362 157.771 21.0831 157.489 21.8921C155.907 26.4416 157.09 36.9246 152.989 40.1143C149.474 42.8483 145.484 33.0626 144.267 31.0032C143.795 30.2046 137.475 18.7948 136.989 19.281C134.868 21.402 136.489 31.7831 136.489 34.8921C136.489 39.6395 135.995 46.7025 133.989 51.1143C132.839 53.6447 133.041 58.3256 131.489 53.6698" stroke="#15CE79" stroke-width="3" stroke-linecap="round"/>
<path d="M128.489 157.17C127.454 159.695 126.239 162.636 126.239 165.434C126.239 166.083 125.965 167.51 126.503 168.003C127.128 168.577 127.239 167.53 127.239 167.156C127.239 165.69 127.207 164.345 127.544 162.92C127.95 161.208 127.525 159.962 128.489 158.42" stroke="#15CE79" stroke-width="3" stroke-linecap="round"/>
<path d="M208.989 152.92C211.237 151.843 213.882 150.388 216.489 151.031C218.085 151.425 219.777 152.509 221.211 153.295C223.807 154.716 223.739 157.854 223.739 160.531C223.739 164.155 221.311 166.291 217.961 167.045C216.797 167.307 215.55 167.52 214.35 167.406C213.521 167.327 212.854 166.92 211.989 166.92" stroke="#15CE79" stroke-width="3" stroke-linecap="round"/>
<path d="M212.239 157.67C214.801 156.809 217.343 155.91 219.878 154.975C220.338 154.806 220.751 154.67 221.239 154.67" stroke="#15CE79" stroke-width="3" stroke-linecap="round"/>
<path d="M216.489 161.92C218.484 161.068 220.968 159.42 223.239 159.42" stroke="#15CE79" stroke-width="3" stroke-linecap="round"/>
<path d="M126.989 158.67C126.24 160.168 118.186 169.17 124.239 169.17C126.807 169.17 127.489 169.144 127.489 166.42C127.489 165.643 126.177 165.204 125.6 165.781C125.304 166.077 125.286 168.263 124.489 166.67" stroke="#15CE79" stroke-width="3" stroke-linecap="round"/>
</svg>
