<svg width="303" height="400" viewBox="0 0 303 400" fill="none" xmlns="http://www.w3.org/2000/svg">
<path d="M39.213 12.5727C32.9946 12.5727 24.1326 10.8269 19.4264 15.3209C14.7048 19.8296 13.0318 28.843 11.6017 34.9883C7.2425 53.7202 8.45382 73.7665 8.45382 93.1317C8.45382 124.716 6.31271 157.653 11.3319 188.806C16.0159 217.88 11.6916 247.887 11.6916 276.923C11.6916 289.176 11.6916 301.429 11.6916 313.681C11.6916 319.193 11.3216 324.853 11.7816 330.343C12.1168 334.344 14.7784 337.613 14.9294 341.508C15.0425 344.422 14.4372 347.533 15.7389 350.268C19.4925 358.153 26.5313 362.205 32.7374 368.132C39.4681 374.559 47.7951 381.917 57.021 384.364C96.1823 394.751 136.279 392.866 176.64 392.866C190.7 392.866 204.399 393.392 218.102 390.547C224.175 389.287 230.53 389.774 236.719 389.774C244.92 389.774 256.094 386.325 263.881 383.934C266.859 383.02 264.584 382.64 264.96 380.843C265.206 379.67 270.404 378.928 271.526 378.094C274.659 375.767 278.978 374.338 280.79 371.224C287.239 360.138 295 350.973 295 337.214C295 316.201 295 295.188 295 274.175C295 266.749 294.514 260.09 293.381 252.79C291.077 237.937 290.143 224.39 290.143 209.247C290.143 190.266 290.143 171.286 290.143 152.306C290.143 130.782 292.248 108.055 288.884 86.7763C285.565 65.7811 291.868 45.6387 280.07 26.4858C275.846 19.6289 263.273 15.6645 255.427 15.6645C242.671 15.6645 230.855 11.0268 218.102 11.0268C190.758 11.0268 164.964 4.16594 137.157 6.47491C115.428 8.27917 93.5228 7.93493 71.5911 7.93493C64.0783 7.93493 56.4817 9.48084 49.7359 9.48084C45.6218 9.48084 31.4532 10.3876 29.4996 14.1186" stroke="#666666" stroke-width="3" stroke-linecap="round"/>
<path d="M132.153 191.228C131.037 193.028 129.921 194.828 128.769 196.592C127.581 198.536 127.545 200.228 125.385 198.788C121.713 196.304 118.221 193.496 114.693 190.868C112.713 189.428 110.769 192.74 112.749 194.18C115.521 196.232 118.293 198.284 121.065 200.336C122.001 201.02 123.081 202.064 124.233 202.82C124.053 203.036 123.909 203.324 123.837 203.684C123.225 206.924 123.045 210.128 123.369 213.404C123.621 215.852 127.473 215.852 127.221 213.404C126.897 210.488 126.969 207.608 127.545 204.692C127.617 204.332 127.581 204.008 127.473 203.684C128.661 203.432 129.489 202.532 130.209 201.524C132.117 198.86 133.737 195.908 135.465 193.136C136.797 191.048 133.485 189.14 132.153 191.228ZM154.876 199.76C154.372 194.792 149.44 192.668 145.264 191.336C143.788 190.868 142.852 192.128 142.924 193.316C137.236 197.492 138.892 208.04 147.172 208.112C151.636 208.112 155.308 204.26 154.876 199.76ZM147.172 204.296C142.564 204.224 141.916 197.42 145.948 195.908C146.092 195.872 146.236 195.8 146.344 195.692C148 196.304 149.62 197.132 150.52 198.572C152.068 201.092 150.088 204.332 147.172 204.296ZM159.265 193.64C160.345 199.4 154.657 213.656 165.457 214.16C169.021 214.34 172.081 211.64 173.593 208.652C175.897 204.116 174.637 198.608 175.141 193.784C175.393 191.336 171.577 191.336 171.325 193.784C171.001 196.88 171.361 200.012 171.109 203.144C170.821 206.24 167.581 213.224 163.657 209.3C161.425 207.068 162.289 203.288 162.757 200.552C163.225 197.852 163.477 195.332 162.973 192.632C162.505 190.22 158.833 191.228 159.265 193.64ZM183.174 196.664C182.778 195.404 182.562 194.396 182.994 193.1C183.75 190.796 186.774 189.932 187.818 192.344C188.574 194.108 187.89 196.376 187.134 197.996C185.658 201.2 183.894 203.828 183.426 207.392C183.102 209.84 186.954 209.804 187.242 207.392C187.998 201.632 196.206 193.532 189.366 188.132C187.098 186.368 183.966 186.512 181.698 188.276C178.746 190.58 178.422 194.36 179.466 197.708C180.222 200.012 183.93 199.04 183.174 196.664ZM186.162 217.112C188.646 217.112 188.646 213.296 186.162 213.296C183.714 213.296 183.714 217.112 186.162 217.112Z" fill="#666666"/>
</svg>
